<?xml version="1.0" encoding="utf-8"?>
<!-- Generator: Adobe Illustrator 22.0.0, SVG Export Plug-In . SVG Version: 6.00 Build 0)  -->
<svg version="1.1" id="Layer_1" xmlns="http://www.w3.org/2000/svg" xmlns:xlink="http://www.w3.org/1999/xlink" x="0px" y="0px"
	 viewBox="0 0 1920 1280" style="enable-background:new 0 0 1920 1280;" xml:space="preserve">
<style type="text/css">
	.st0{fill:#F5F5F5;}
	.st1{fill:#1E2A36;}
	.st2{fill:#717982;}
	.st3{fill:#D0D2D5;}
	.st4{fill:#E7E9EA;}
	.st5{fill:none;stroke:#A1A6AB;stroke-width:2;stroke-miterlimit:10;}
	.st6{opacity:0.5;}
	.st7{fill:#14D2DC;}
	.st8{display:none;}
	.st9{display:inline;fill:none;stroke:#1E2A36;stroke-miterlimit:10;}
</style>
<g id="Layer_1_1_">
</g>
<rect class="st0" width="1920" height="1280"/>
<path class="st1" d="M313.6,810c0-141.8,112.6-229.5,286.6-229.5h153.5c33.6,0,49.7-17.5,49.7-43.9C803.4,447.4,739,386,625,386
	c-102.3,0-176.9,64.3-181.3,138.9H312.1C323.8,380.2,455.4,272,629.4,272c190.1,0,315.8,109.7,315.8,273.4v475.2H803.4v-120
	c-35.1,80.4-128.7,131.6-239.8,131.6C413,1032.2,313.6,941.6,313.6,810z M591.4,919.6c134.5,0,212-86.3,212-222.2v-17.5H613.3
	c-96.5,0-159.4,49.7-159.4,127.2C453.9,874.3,509.5,919.6,591.4,919.6z"/>
<path class="st2" d="M1050.5,283.7h141.8v141.8c33.6-98,92.1-141.8,195.9-141.8h86.1v122.8h-103.6c-134.5,0-178.4,119.9-178.4,280.7
	v333.3h-141.8V283.7z"/>
<path class="st3" d="M1664.7,93.4v190.3h217.8v122.8h-217.8v368.4c0,78.9,42.4,122.8,114,122.8h103.8v122.8H1767
	c-149.1,0-244.2-90.6-244.2-241.2V93.4H1664.7z"/>
<path class="st4" d="M1882.3,652.1c0-220.8,159.4-380.1,380.1-380.1c220.8,0,378.7,159.4,378.7,380.1
	c0,220.8-157.9,380.1-378.7,380.1C2041.7,1032.2,1882.3,872.9,1882.3,652.1z M2262.4,907.9c138.9,0,233.9-105.3,233.9-255.9
	s-95-255.9-233.9-255.9C2122,396.1,2027,501.4,2027,652C2027,802.7,2122.1,907.9,2262.4,907.9z"/>
<path class="st1" d="M2658.5,780.8h133c8.8,84.8,68.7,133,165.2,133c83.3,0,138.9-45.3,138.9-99.4c0-195.9-418.1-16.1-418.1-330.4
	c0-127.2,108.2-212,261.7-212c166.7,0,279.2,92.1,288,231h-134.5c-10.2-84.8-90.6-118.4-153.5-118.4c-77.5,0-128.7,38-128.7,95
	c0,182.8,422.5-4.4,422.5,331.9c0,134.5-109.7,220.8-276.3,220.8C2782.8,1032.2,2668.7,935.7,2658.5,780.8z"/>
<g>
	<g>
		<g>
			<line class="st5" x1="1050.4" y1="260.3" x2="1050.4" y2="-448"/>
		</g>
		<g>
			<line class="st5" x1="0" y1="283.7" x2="462" y2="283.7"/>
		</g>
		<g>
			<line class="st5" x1="0" y1="271.3" x2="514" y2="271.3"/>
		</g>
		<g>
			<line class="st5" x1="0" y1="93.3" x2="1504" y2="93.3"/>
		</g>
		<g>
			<line class="st5" x1="3233.2" y1="283.7" x2="3477" y2="283.7"/>
		</g>
		<g>
			<line class="st5" x1="3233.2" y1="271.3" x2="3477" y2="271.3"/>
		</g>
		<g>
			<line class="st5" x1="3233.2" y1="93.3" x2="3477" y2="93.3"/>
		</g>
		<g>
			<line class="st5" x1="0" y1="1033" x2="440" y2="1033"/>
		</g>
		<g>
			<line class="st5" x1="0" y1="1020.5" x2="405" y2="1020.5"/>
		</g>
		<g>
			<line class="st5" x1="1474" y1="260.3" x2="1474" y2="-448"/>
		</g>
		<g>
			<line class="st5" x1="1522" y1="74.8" x2="1522" y2="-436"/>
		</g>
		<g>
			<line class="st5" x1="1881.5" y1="260.3" x2="1881.5" y2="-448"/>
		</g>
		<g>
			<line class="st5" x1="2641.4" y1="222.3" x2="2641.4" y2="-486"/>
		</g>
		<g>
			<line class="st5" x1="2659.2" y1="222.3" x2="2659.2" y2="-486"/>
		</g>
		<g>
			<line class="st5" x1="945.4" y1="446" x2="945.4" y2="-448"/>
		</g>
		<g>
			<line class="st5" x1="3233.2" y1="1027.6" x2="3477" y2="1027.6"/>
		</g>
		<g>
			<line class="st5" x1="3233.2" y1="1040.1" x2="3477" y2="1040.1"/>
		</g>
		<g>
			<line class="st5" x1="1050.4" y1="1742" x2="1050.4" y2="1044.4"/>
		</g>
		<g>
			<line class="st5" x1="1474" y1="1742" x2="1474" y2="431"/>
		</g>
		<g>
			<line class="st5" x1="1522" y1="1742" x2="1522" y2="888"/>
		</g>
		<g>
			<line class="st5" x1="1881.5" y1="1742" x2="1881.5" y2="1044.4"/>
		</g>
		<g>
			<line class="st5" x1="2641.4" y1="1742" x2="2641.4" y2="1044.4"/>
		</g>
		<g>
			<line class="st5" x1="2659.2" y1="1742" x2="2659.2" y2="1044.4"/>
		</g>
		<g>
			<line class="st5" x1="945.4" y1="1742" x2="945.4" y2="1044.4"/>
		</g>
	</g>
</g>
<g class="st6">
	<g>
		<circle class="st7" cx="774.5" cy="627.2" r="211.8"/>
	</g>
</g>
<g class="st6">
	<g>
		<circle class="st7" cx="1495.3" cy="344.2" r="211.8"/>
	</g>
</g>
<g id="Layer_3" class="st8">
	<line class="st9" x1="1863.5" y1="-72" x2="1863.5" y2="-372"/>
	<line class="st9" x1="56.5" y1="-372" x2="56.5" y2="-72"/>
	<line class="st9" x1="1637.6" y1="-72" x2="1637.6" y2="-372"/>
	<line class="st9" x1="1411.8" y1="-72" x2="1411.8" y2="-372"/>
	<line class="st9" x1="1185.9" y1="-72" x2="1185.9" y2="-372"/>
	<line class="st9" x1="960" y1="-72" x2="960" y2="-372"/>
	<line class="st9" x1="734.1" y1="-72" x2="734.1" y2="-372"/>
	<line class="st9" x1="508.3" y1="-72" x2="508.3" y2="-372"/>
	<line class="st9" x1="282.4" y1="-72" x2="282.4" y2="-372"/>
	<rect x="56.5" y="56.5" class="st9" width="1807" height="1167"/>
</g>
</svg>
