<?xml version="1.0" encoding="utf-8"?>
<!-- Generator: Adobe Illustrator 22.0.0, SVG Export Plug-In . SVG Version: 6.00 Build 0)  -->
<svg version="1.1" xmlns="http://www.w3.org/2000/svg" xmlns:xlink="http://www.w3.org/1999/xlink" x="0px" y="0px"
	 viewBox="0 0 1920 1280" style="enable-background:new 0 0 1920 1280;" xml:space="preserve">
<style type="text/css">
	.st0{fill:#F5F5F5;}
	.st1{fill:#1E2A36;}
	.st2{fill:#717982;}
	.st3{fill:#D0D2D5;}
	.st4{fill:#E7E9EA;}
	.st5{fill:none;stroke:#A1A6AB;stroke-width:2;stroke-miterlimit:10;}
	.st6{fill:none;stroke:#28C6C6;stroke-width:2;stroke-miterlimit:10;stroke-dasharray:12.0975,12.0975;}
	.st7{display:none;}
	.st8{display:inline;}
	.st9{fill:#FFFFFF;}
	.st10{display:inline;fill:#28C6C6;}
	.st11{display:inline;fill:none;stroke:#28C6C6;stroke-width:3;stroke-miterlimit:10;}
	.st12{opacity:0;fill:#1E2A36;}
	.st13{display:inline;fill:none;stroke:#1E2A36;stroke-miterlimit:10;}
</style>
<g id="Layer_1">
</g>
<g id="Layer_2">
	<rect class="st0" width="1920" height="1280"/>
	<path class="st1" d="M313.6,810c0-141.8,112.6-229.5,286.6-229.5h153.5c33.6,0,49.7-17.5,49.7-43.9C803.4,447.4,739,386,625,386
		c-102.3,0-176.9,64.3-181.3,138.9H312.1C323.8,380.2,455.4,272,629.4,272c190.1,0,315.8,109.7,315.8,273.4v475.2H803.4V900.6
		c-35.1,80.4-128.7,131.6-239.8,131.6C413,1032.2,313.6,941.6,313.6,810z M591.4,919.6c134.5,0,212-86.3,212-222.2v-17.5H613.3
		c-96.5,0-159.4,49.7-159.4,127.2C453.9,874.3,509.5,919.6,591.4,919.6z"/>
	<path class="st2" d="M1050.5,283.7h141.8v141.8c33.6-98,92.1-141.8,195.9-141.8h86.1v122.8h-103.6
		c-134.5,0-178.4,119.9-178.4,280.7v333.3h-141.8V283.7z"/>
	<path class="st3" d="M1664.7,93.4v190.3h217.8v122.8h-217.8v368.4c0,78.9,42.4,122.8,114,122.8h103.8v122.8H1767
		c-149.1,0-244.2-90.6-244.2-241.2V93.4H1664.7z"/>
	<path class="st4" d="M1882.3,652.1c0-220.8,159.4-380.1,380.1-380.1c220.8,0,378.7,159.4,378.7,380.1
		c0,220.8-157.9,380.1-378.7,380.1C2041.7,1032.2,1882.3,872.9,1882.3,652.1z M2262.4,907.9c138.9,0,233.9-105.3,233.9-255.9
		c0-150.6-95-255.9-233.9-255.9c-140.4,0-235.4,105.3-235.4,255.9C2027,802.7,2122.1,907.9,2262.4,907.9z"/>
	<path class="st1" d="M2658.5,780.8h133c8.8,84.8,68.7,133,165.2,133c83.3,0,138.9-45.3,138.9-99.4c0-195.9-418.1-16.1-418.1-330.4
		c0-127.2,108.2-212,261.7-212c166.7,0,279.2,92.1,288,231h-134.5c-10.2-84.8-90.6-118.4-153.5-118.4c-77.5,0-128.7,38-128.7,95
		c0,182.8,422.5-4.4,422.5,331.9c0,134.5-109.7,220.8-276.3,220.8C2782.8,1032.2,2668.7,935.7,2658.5,780.8z"/>
	<g>
		<g>
			<g>
				<line class="st5" x1="1050.4" y1="260.3" x2="1050.4" y2="-448"/>
			</g>
			<g>
				<line class="st5" x1="0" y1="283.7" x2="462" y2="283.7"/>
			</g>
			<g>
				<line class="st5" x1="0" y1="271.3" x2="514" y2="271.3"/>
			</g>
			<g>
				<line class="st5" x1="0" y1="93.3" x2="1504" y2="93.3"/>
			</g>
			<g>
				<line class="st5" x1="3233.2" y1="283.7" x2="3477" y2="283.7"/>
			</g>
			<g>
				<line class="st5" x1="3233.2" y1="271.3" x2="3477" y2="271.3"/>
			</g>
			<g>
				<line class="st5" x1="3233.2" y1="93.3" x2="3477" y2="93.3"/>
			</g>
			<g>
				<line class="st5" x1="0" y1="1033" x2="440" y2="1033"/>
			</g>
			<g>
				<line class="st5" x1="0" y1="1020.5" x2="405" y2="1020.5"/>
			</g>
			<g>
				<line class="st5" x1="1474" y1="260.3" x2="1474" y2="-448"/>
			</g>
			<g>
				<line class="st5" x1="1522" y1="74.8" x2="1522" y2="-436"/>
			</g>
			<g>
				<line class="st5" x1="1881.5" y1="260.3" x2="1881.5" y2="-448"/>
			</g>
			<g>
				<line class="st5" x1="2641.4" y1="222.3" x2="2641.4" y2="-486"/>
			</g>
			<g>
				<line class="st5" x1="2659.2" y1="222.3" x2="2659.2" y2="-486"/>
			</g>
			<g>
				<line class="st5" x1="945.4" y1="446" x2="945.4" y2="-448"/>
			</g>
			<g>
				<line class="st5" x1="3233.2" y1="1027.6" x2="3477" y2="1027.6"/>
			</g>
			<g>
				<line class="st5" x1="3233.2" y1="1040.1" x2="3477" y2="1040.1"/>
			</g>
			<g>
				<line class="st5" x1="1050.4" y1="1742" x2="1050.4" y2="1044.4"/>
			</g>
			<g>
				<line class="st5" x1="1474" y1="1742" x2="1474" y2="431"/>
			</g>
			<g>
				<line class="st5" x1="1522" y1="1742" x2="1522" y2="888"/>
			</g>
			<g>
				<line class="st5" x1="1881.5" y1="1742" x2="1881.5" y2="1044.4"/>
			</g>
			<g>
				<line class="st5" x1="2641.4" y1="1742" x2="2641.4" y2="1044.4"/>
			</g>
			<g>
				<line class="st5" x1="2659.2" y1="1742" x2="2659.2" y2="1044.4"/>
			</g>
			<g>
				<line class="st5" x1="945.4" y1="1742" x2="945.4" y2="1044.4"/>
			</g>
		</g>
	</g>
	<g>
		<circle class="st6" cx="774.5" cy="627.2" r="211.8"/>
	</g>
	<g>
		<circle class="st6" cx="1495.3" cy="344.2" r="211.8"/>
	</g>
</g>
<g id="Layer_2_copy" class="st7">
	<text transform="matrix(1 0 0 1 -580.75 79.3613)" class="st8"><tspan x="0" y="0" class="st1" style="font-family:'RoobertPROTRIAL-Light'; font-size:33.3667px;">Одежда профессионалов,</tspan><tspan x="0" y="32.4" class="st1" style="font-family:'RoobertPROTRIAL-Light'; font-size:33.3667px;">которую любят.</tspan></text>
	<g class="st8">
		<path class="st1" d="M528,67.7c0-6.9,4.8-11.9,11.3-11.9s11.3,5.1,11.3,11.9c0,6.9-4.8,11.9-11.3,11.9S528,74.6,528,67.7z
			 M539.3,77.6c5.2,0,9-4.2,9-9.9s-3.8-9.9-9-9.9c-5.1,0-9,4.2-9,9.9S534.2,77.6,539.3,77.6z"/>
		<path class="st1" d="M554.2,74.8l2-12.3h10v14.9h2.6v7.3h-1.9v-5.4h-14.1v5.4h-1.9v-7.3C553.2,77.4,553.9,76.7,554.2,74.8z
			 M564.1,77.4V64.5h-6.2L556.3,75c-0.2,1.1-0.5,1.9-1,2.4H564.1z"/>
		<path class="st1" d="M569.8,70.8c0-5.1,3.2-8.5,7.9-8.5c4.6,0,7.7,3.1,7.7,7.8c0,0.3,0,0.9-0.1,1.1h-13.4c0.1,3.8,2.7,6.5,6.1,6.5
			c3,0,4.8-1.3,5.4-3.6h2.2c-0.5,3.4-3.4,5.6-7.6,5.6C573.3,79.6,569.8,75.8,569.8,70.8z M583.3,69.2c-0.2-3.1-2.3-5-5.5-5
			c-3.1,0-5.1,1.9-5.7,5H583.3z"/>
		<path class="st1" d="M601.9,71.7h-2.9v7.7H597v-7.7h-2.4l-5.6,7.7h-2.7l6.5-8.9l-3.3-4.8c-0.6-0.9-1.1-1.2-1.8-1.2h-1.3v-1.9h1.5
			c1.4,0,2.3,0.5,3.2,1.7l3.7,5.5h2.2v-7.2h2.1v7.2h2.7l3.7-5.5c0.8-1.2,1.7-1.7,3.2-1.7h1.5v1.9h-1.3c-0.7,0-1.2,0.3-1.8,1.2
			l-3.3,4.8l6.5,8.9h-2.7L601.9,71.7z"/>
		<path class="st1" d="M614.6,74.8l2-12.3h10v14.9h2.6v7.3h-1.9v-5.4h-14.1v5.4h-1.9v-7.3C613.6,77.4,614.3,76.7,614.6,74.8z
			 M624.5,77.4V64.5h-6.2L616.7,75c-0.2,1.1-0.5,1.9-1,2.4H624.5z"/>
		<path class="st1" d="M630.8,74.6c0-3.2,2.7-5.2,6.8-5.2h4.1c0.7,0,1-0.3,1-0.8c0-2.5-1.8-4.3-4.9-4.3c-2.6,0-4.8,1.6-4.9,3.6h-2.1
			c0.3-3.2,3.5-5.5,7-5.5c4.4,0,7,2.5,7,6.2v10.8h-2.1v-3.1c-1,2-3.3,3.3-6,3.3C633.1,79.6,630.8,77.7,630.8,74.6z M636.8,77.7
			c3.7,0,5.9-2.2,5.9-6.1v-0.5h-5.1c-2.8,0-4.6,1.3-4.6,3.5C633,76.5,634.5,77.7,636.8,77.7z"/>
		<path class="st1" d="M669,64.5h-10.2v14.9h-2.1V62.5h14.4v16.8H669V64.5z"/>
		<path class="st1" d="M675.2,62.5h2.1v3c1-2,3.4-3.3,5.8-3.3c5.3,0,8.2,3.9,8.2,8.7c0,4.8-2.8,8.7-8.2,8.7c-2.5,0-4.8-1.3-5.8-3.3
			v9.8h-2.1V62.5z M683.1,77.7c3.6,0,6-2.7,6-6.7s-2.4-6.7-6-6.7c-3.6,0-6,2.7-6,6.7S679.5,77.7,683.1,77.7z"/>
		<path class="st1" d="M693.4,71c0-5.1,3.5-8.7,8.5-8.7c4.9,0,8.5,3.6,8.5,8.7s-3.5,8.7-8.5,8.7C696.9,79.6,693.4,76,693.4,71z
			 M701.8,77.7c3.7,0,6.3-2.8,6.3-6.7c0-3.9-2.5-6.7-6.3-6.7c-3.7,0-6.3,2.8-6.3,6.7C695.6,74.9,698.1,77.7,701.8,77.7z"/>
		<path class="st1" d="M721.7,79.6c-5.9-0.2-9.4-3.7-9.4-8.7c0-5,3.5-8.4,9.4-8.7v-6.5h2.1v6.5c5.9,0.2,9.4,3.7,9.4,8.7
			c0,5-3.5,8.4-9.4,8.7v6.5h-2.1V79.6z M721.7,77.7V64.2c-4.7,0.2-7.2,2.9-7.2,6.7S717,77.5,721.7,77.7z M730.9,71
			c0-3.8-2.5-6.5-7.2-6.7v13.5C728.4,77.5,730.9,74.8,730.9,71z"/>
		<path class="st1" d="M735.1,70.8c0-5.1,3.2-8.5,7.9-8.5c4.6,0,7.7,3.1,7.7,7.8c0,0.3,0,0.9-0.1,1.1h-13.4c0.1,3.8,2.7,6.5,6.1,6.5
			c3,0,4.8-1.3,5.4-3.6h2.2c-0.5,3.4-3.4,5.6-7.6,5.6C738.6,79.6,735.1,75.8,735.1,70.8z M748.6,69.2c-0.2-3.1-2.3-5-5.5-5
			c-3.1,0-5.1,1.9-5.7,5H748.6z"/>
		<path class="st1" d="M752.8,71c0-4.4,2.7-8.7,8-8.7c3.6,0,6.9,2.1,7.5,5.8h-2.1c-0.3-2.2-2.6-3.8-5.4-3.8c-4,0-5.8,3.1-5.8,6.7
			c0,3.6,1.9,6.7,5.8,6.7c2.8,0,4.7-1.3,5.4-3.5h2c-0.6,3.4-3.2,5.5-7.4,5.5C755.5,79.6,752.8,75.4,752.8,71z"/>
		<path class="st1" d="M770.1,71c0-4.4,2.7-8.7,8-8.7c3.6,0,6.9,2.1,7.5,5.8h-2.1c-0.3-2.2-2.6-3.8-5.4-3.8c-4,0-5.8,3.1-5.8,6.7
			c0,3.6,1.9,6.7,5.8,6.7c2.8,0,4.7-1.3,5.4-3.5h2c-0.6,3.4-3.2,5.5-7.4,5.5C772.8,79.6,770.1,75.4,770.1,71z"/>
		<path class="st1" d="M788.5,62.5h2.1v14l10.1-14h2.4v16.8h-2.1v-14l-10.1,14h-2.4V62.5z"/>
		<path class="st1" d="M806.3,71c0-5.1,3.5-8.7,8.5-8.7c4.9,0,8.5,3.6,8.5,8.7s-3.5,8.7-8.5,8.7C809.8,79.6,806.3,76,806.3,71z
			 M814.7,77.7c3.7,0,6.3-2.8,6.3-6.7c0-3.9-2.5-6.7-6.3-6.7c-3.7,0-6.3,2.8-6.3,6.7C808.5,74.9,811,77.7,814.7,77.7z"/>
		<path class="st1" d="M838.8,71.5h-10.4v7.8h-2.1V62.5h2.1v7h10.4v-7h2.1v16.8h-2.1V71.5z"/>
		<path class="st1" d="M844.4,74.6c0-3.2,2.7-5.2,6.8-5.2h4.1c0.7,0,1-0.3,1-0.8c0-2.5-1.8-4.3-4.9-4.3c-2.6,0-4.8,1.6-4.9,3.6h-2.1
			c0.3-3.2,3.5-5.5,7-5.5c4.4,0,7,2.5,7,6.2v10.8h-2.1v-3.1c-1,2-3.3,3.3-6,3.3C846.7,79.6,844.4,77.7,844.4,74.6z M850.5,77.7
			c3.7,0,5.9-2.2,5.9-6.1v-0.5h-5.1c-2.8,0-4.6,1.3-4.6,3.5C846.6,76.5,848.1,77.7,850.5,77.7z"/>
		<path class="st1" d="M860.3,77.4h1c1,0,1.7-0.7,1.9-2l2.1-12.9h9.9v16.8h-2.1V64.5h-6l-1.8,11.6c-0.3,2.1-1.6,3.3-3.7,3.3h-1.3
			V77.4z"/>
		<path class="st1" d="M878.3,71c0-5.1,3.5-8.7,8.5-8.7c4.9,0,8.5,3.6,8.5,8.7s-3.5,8.7-8.5,8.7C881.9,79.6,878.3,76,878.3,71z
			 M886.8,77.7c3.7,0,6.3-2.8,6.3-6.7c0-3.9-2.5-6.7-6.3-6.7c-3.7,0-6.3,2.8-6.3,6.7C880.5,74.9,883.1,77.7,886.8,77.7z"/>
		<path class="st1" d="M898.4,62.5h7.6c3.3,0,5.1,1.7,5.1,4.3c0,1.6-0.8,2.7-2.1,3.4c1.8,0.5,3,1.8,3,4.2c0,2.9-1.9,4.9-6,4.9h-7.6
			V62.5z M905.7,69.5c2,0,3.1-1,3.1-2.6c0-1.7-1.1-2.4-3.1-2.4h-5.2v5.1H905.7z M906.1,77.4c2.3,0,3.6-1.1,3.6-3
			c0-1.9-1.3-2.9-3.6-2.9h-5.6v5.9H906.1z"/>
		<path class="st1" d="M914.5,80v-3.2h2.1V80c0,2.1-1.3,3.5-3.3,3.5h-0.8v-1.9h0.4C913.8,81.7,914.5,81,914.5,80z"/>
		<path class="st1" d="M534.8,103.9h-3.6v7.8h-2.1V95h2.1v7h3.5l3.9-5.1c1.4-1.8,2.1-1.9,3.7-1.9h1v1.9h-1c-0.9,0-1.3,0.1-2.2,1.2
			l-3.6,4.6l6.9,9.1h-2.7L534.8,103.9z"/>
		<path class="st1" d="M543.8,103.4c0-5.1,3.5-8.7,8.5-8.7c4.9,0,8.5,3.6,8.5,8.7s-3.5,8.7-8.5,8.7
			C547.4,112,543.8,108.4,543.8,103.4z M552.3,110.1c3.7,0,6.3-2.8,6.3-6.7c0-3.9-2.5-6.7-6.3-6.7c-3.7,0-6.3,2.8-6.3,6.7
			C546,107.3,548.6,110.1,552.3,110.1z"/>
		<path class="st1" d="M567.6,96.9h-6.4V95h14.9v1.9h-6.4v14.9h-2.1V96.9z"/>
		<path class="st1" d="M576.5,103.4c0-5.1,3.5-8.7,8.5-8.7c4.9,0,8.5,3.6,8.5,8.7s-3.5,8.7-8.5,8.7C580,112,576.5,108.4,576.5,103.4
			z M585,110.1c3.7,0,6.3-2.8,6.3-6.7c0-3.9-2.5-6.7-6.3-6.7c-3.7,0-6.3,2.8-6.3,6.7C578.7,107.3,581.2,110.1,585,110.1z"/>
		<path class="st1" d="M596.5,95h2.1v3c1-2,3.4-3.3,5.8-3.3c5.3,0,8.2,3.9,8.2,8.7c0,4.8-2.8,8.7-8.2,8.7c-2.5,0-4.8-1.3-5.8-3.3
			v9.8h-2.1V95z M604.4,110.1c3.6,0,6-2.7,6-6.7s-2.4-6.7-6-6.7c-3.6,0-6,2.7-6,6.7S600.7,110.1,604.4,110.1z"/>
		<path class="st1" d="M619.5,112.2L613.2,95h2.2l5.1,14l5.1-14h2.2l-5.6,15.2l-2.8,8.4h-2L619.5,112.2z"/>
		<path class="st1" d="M630.2,95h2.1v7h4.9c0.5-4.4,3.6-7.3,8.1-7.3c4.9,0,8.1,3.5,8.1,8.7c0,5.2-3.3,8.7-8.1,8.7
			c-4.7,0-7.9-3.2-8.1-8.1h-4.8v7.8h-2.1V95z M645.2,110.1c3.6,0,5.9-2.7,5.9-6.7c0-4-2.4-6.7-5.9-6.7s-5.9,2.7-5.9,6.7
			C639.3,107.4,641.6,110.1,645.2,110.1z"/>
		<path class="st1" d="M661.8,109.8h1c1,0,1.7-0.7,1.9-2l2.1-12.9h9.9v16.8h-2.1V96.9h-6l-1.8,11.6c-0.3,2.1-1.6,3.3-3.7,3.3h-1.3
			V109.8z"/>
		<path class="st1" d="M680.9,95h2.1v7h4.9c0.5-4.4,3.6-7.3,8.1-7.3c4.9,0,8.1,3.5,8.1,8.7c0,5.2-3.3,8.7-8.1,8.7
			c-4.7,0-7.9-3.2-8.1-8.1H683v7.8h-2.1V95z M695.9,110.1c3.6,0,5.9-2.7,5.9-6.7c0-4-2.4-6.7-5.9-6.7s-5.9,2.7-5.9,6.7
			C690,107.4,692.4,110.1,695.9,110.1z"/>
		<path class="st1" d="M706.5,103v-1.3c0-7,3.2-12.7,12.3-13.3l2.6-0.2v1.9l-2.6,0.2c-7.5,0.5-9.2,4.5-10,8.1c1.5-2.2,3.9-3,5.8-3
			c5.1,0,8,4,8,8.4c0,4.2-2.9,8.2-8,8.2C709.4,112,706.5,108.2,706.5,103z M714.6,110.1c3.9,0,5.8-3.1,5.8-6.3
			c0-3.3-1.9-6.5-5.8-6.5c-4,0-5.9,2.8-5.9,6.5C708.7,107,710.6,110.1,714.6,110.1z"/>
		<path class="st1" d="M727.8,103.7c-2-0.8-2.8-2.3-2.8-4c0-2.9,2.3-4.7,5.7-4.7h7.1v16.8h-2.1v-6.8h-5.4c-1.7,0-2.9,1-3,2.7
			l-0.3,4.1h-2l0.3-4.1C725.4,106,726.1,104.5,727.8,103.7z M730.7,103h4.9v-6.1h-4.9c-2.1,0-3.6,1.1-3.6,2.9
			C727.1,101.6,728.7,103,730.7,103z"/>
		<path class="st1" d="M746.2,96.9h-6.4V95h14.9v1.9h-6.4v14.9h-2.1V96.9z"/>
		<path class="st1" d="M755.6,109.2v2.6h-2.5v-2.6H755.6z"/>
	</g>
	<text transform="matrix(1 0 0 1 -580.75 207.769)" class="st8"><tspan x="0" y="0" class="st1" style="font-family:'RoobertPROTRIAL-Light'; font-size:23px;">Мы работаем на рынке с 2005 года</tspan><tspan x="0" y="23" class="st1" style="font-family:'RoobertPROTRIAL-Light'; font-size:23px;">и имеем собственное швейное производство</tspan><tspan x="0" y="46" class="st1" style="font-family:'RoobertPROTRIAL-Light'; font-size:23px;">с профессиональными сотрудниками.</tspan></text>
	
		<text transform="matrix(1 0 0 1 -580.75 829.769)" style="display:inline;fill:#1E2A36; font-family:'RoobertPROTRIAL-Light'; font-size:23px;">Каталог 2023</text>
	
		<text transform="matrix(1 0 0 1 -580.75 925.769)" style="display:inline;fill:#1E2A36; font-family:'RoobertPROTRIAL-Light'; font-size:23px;">arosgear.ru</text>
	<g class="st8">
		<path class="st1" d="M78.4,1216.7h-2.8v7.6H74v-16.1h1.5v7.1h2.8l4.2-5.6c0.8-1,1.5-1.4,2.6-1.4H86v1.4h-0.9c-0.5,0-1,0.3-1.6,1.1
			l-3.9,5.1l6.5,8.5h-1.9L78.4,1216.7z"/>
		<path class="st1" d="M86.7,1221c0-2.2,1.8-3.6,4.7-3.6h2.8c0.5,0,0.7-0.2,0.7-0.6c0-1.7-1.2-3-3.4-3c-1.8,0-3.3,1.1-3.4,2.5h-1.4
			c0.2-2.2,2.4-3.8,4.9-3.8c3,0,4.9,1.7,4.9,4.3v7.5H95v-2.1c-0.7,1.4-2.3,2.3-4.2,2.3C88.3,1224.5,86.7,1223.1,86.7,1221z
			 M90.9,1223.1c2.6,0,4-1.5,4-4.2v-0.3h-3.5c-1.9,0-3.2,0.9-3.2,2.4C88.3,1222.3,89.3,1223.1,90.9,1223.1z"/>
		<path class="st1" d="M101.9,1214h-4.4v-1.3h10.3v1.3h-4.4v10.3h-1.4V1214z"/>
		<path class="st1" d="M108.7,1221c0-2.2,1.8-3.6,4.7-3.6h2.8c0.5,0,0.7-0.2,0.7-0.6c0-1.7-1.2-3-3.4-3c-1.8,0-3.3,1.1-3.4,2.5h-1.4
			c0.2-2.2,2.4-3.8,4.9-3.8c3,0,4.9,1.7,4.9,4.3v7.5h-1.4v-2.1c-0.7,1.4-2.3,2.3-4.2,2.3C110.2,1224.5,108.7,1223.1,108.7,1221z
			 M112.8,1223.1c2.6,0,4-1.5,4-4.2v-0.3h-3.5c-1.9,0-3.2,0.9-3.2,2.4C110.2,1222.3,111.2,1223.1,112.8,1223.1z"/>
		<path class="st1" d="M119.7,1222.9h0.7c0.7,0,1.2-0.5,1.3-1.4l1.4-8.9h6.8v11.6h-1.4V1214h-4.1l-1.2,8c-0.2,1.5-1.1,2.3-2.5,2.3
			h-0.9V1222.9z"/>
		<path class="st1" d="M132.2,1218.5c0-3.5,2.4-6,5.8-6s5.8,2.5,5.8,6c0,3.5-2.4,6-5.8,6S132.2,1222,132.2,1218.5z M138.1,1223.1
			c2.6,0,4.3-1.9,4.3-4.6c0-2.7-1.7-4.6-4.3-4.6c-2.6,0-4.3,1.9-4.3,4.6C133.7,1221.2,135.5,1223.1,138.1,1223.1z"/>
		<path class="st1" d="M146.1,1212.7h7.5v1.3h-6v10.3h-1.4V1212.7z"/>
		<path class="st1" d="M165,1208c2.9,0,5.1,1.9,5.1,4.7c0,2.1-1.3,3.8-3.7,5.1l-2.2,1.1c-1.4,0.7-3.1,2.1-3.1,3.9h9.2v1.4h-10.6
			v-1.1c0-3,2.3-4.8,4-5.7l2.4-1.2c1.9-1,2.5-2.1,2.5-3.6c0-2-1.5-3.3-3.4-3.3c-2.2,0-3.7,1.5-3.5,3.8h-1.6
			C159.7,1210.1,161.7,1208,165,1208z"/>
		<path class="st1" d="M171.8,1216.9v-1.4c0-4.9,1.5-7.5,5.3-7.5h0.8c3.9,0,5.3,2.6,5.3,7.5v1.4c0,4.9-1.4,7.5-5.3,7.5h-0.8
			C173.3,1224.5,171.8,1221.8,171.8,1216.9z M177.2,1223h0.7c2.8,0,3.8-2,3.8-6.1v-1.4c0-4.1-1-6.1-3.8-6.1h-0.7
			c-2.8,0-3.8,2-3.8,6.1v1.4C173.4,1221,174.4,1223,177.2,1223z"/>
		<path class="st1" d="M190.6,1208c2.9,0,5.1,1.9,5.1,4.7c0,2.1-1.3,3.8-3.7,5.1l-2.2,1.1c-1.4,0.7-3.1,2.1-3.1,3.9h9.2v1.4h-10.6
			v-1.1c0-3,2.3-4.8,4-5.7l2.4-1.2c1.9-1,2.5-2.1,2.5-3.6c0-2-1.5-3.3-3.4-3.3c-2.2,0-3.7,1.5-3.5,3.8h-1.6
			C185.3,1210.1,187.4,1208,190.6,1208z"/>
		<path class="st1" d="M196.9,1219.2h1.5c0,2.3,1.8,3.8,4.1,3.8c2.4,0,4-1.2,4-3.2c0-2.1-1.5-3.2-4-3.2h-1.2v-1.4h1.2
			c2.1,0,3.3-1.3,3.3-3s-1.3-2.8-3.4-2.8c-2,0-3.3,1.2-3.4,3.2h-1.5c0.1-2.8,2.1-4.7,4.9-4.7c2.9,0,5,1.7,5,4.2
			c0,1.7-1.1,3.1-2.4,3.7c1.7,0.5,3.1,2,3.1,4c0,3.1-2.6,4.7-5.6,4.7C199.3,1224.5,196.9,1222.3,196.9,1219.2z"/>
	</g>
	<g class="st8">
		<path class="st9" d="M528,1220.1c0-2.2,1.8-3.6,4.7-3.6h2.8c0.5,0,0.7-0.2,0.7-0.6c0-1.7-1.2-3-3.4-3c-1.8,0-3.3,1.1-3.4,2.5H528
			c0.2-2.2,2.4-3.8,4.9-3.8c3,0,4.9,1.7,4.9,4.3v7.5h-1.4v-2.1c-0.7,1.4-2.3,2.3-4.2,2.3C529.6,1223.6,528,1222.2,528,1220.1z
			 M532.2,1222.2c2.6,0,4-1.5,4-4.2v-0.3h-3.5c-1.9,0-3.2,0.9-3.2,2.4C529.6,1221.4,530.6,1222.2,532.2,1222.2z"/>
		<path class="st9" d="M540.5,1211.8h1.4v2.5c0.5-1.6,1.4-2.5,3.2-2.5h1.5v1.3h-1.5c-2.6,0-3.2,2.3-3.2,5.3v4.9h-1.4V1211.8z
			 M549.3,1208v3.8h3.7v1.3h-3.7v6.8c0,1.3,0.8,2.1,1.9,2.1h1.7v1.3h-1.7c-2.1,0-3.4-1.3-3.4-3.5V1208H549.3z"/>
		<path class="st9" d="M553.5,1217.6c0-3.5,2.4-6,5.8-6s5.8,2.5,5.8,6c0,3.5-2.4,6-5.8,6S553.5,1221.1,553.5,1217.6z M559.3,1222.2
			c2.6,0,4.3-1.9,4.3-4.6c0-2.7-1.7-4.6-4.3-4.6c-2.6,0-4.3,1.9-4.3,4.6C555,1220.3,556.7,1222.2,559.3,1222.2z"/>
		<path class="st9" d="M566.4,1219.7h1.4c0.2,1.6,1.2,2.5,3.1,2.5c1.6,0,2.7-0.9,2.7-2c0-3.8-6.9-0.4-6.9-5.5c0-1.9,1.6-3.2,4.1-3.2
			c2.5,0,4.1,1.4,4.3,3.5h-1.4c-0.2-1.6-1.8-2.1-2.9-2.1c-1.5,0-2.5,0.7-2.5,1.8c0,3.4,6.9,0.1,6.9,5.5c0,2-1.7,3.3-4.2,3.3
			C568.3,1223.6,566.6,1222.1,566.4,1219.7z"/>
		<path class="st9" d="M578.1,1226.7h5.4c1.6,0,2.8-1.2,2.8-2.9v-2.2c-0.5,1.1-2.2,1.9-4,1.9c-3.7,0-5.6-2.7-5.6-6c0-3.3,2-6,5.6-6
			c1.6,0,3.3,0.8,4,2v-1.9h1.4v12c0,2.5-1.8,4.2-4.3,4.2h-5.4V1226.7z M582.3,1222.2c2.5,0,4.1-1.8,4.1-4.6c0-2.8-1.6-4.6-4.1-4.6
			c-2.5,0-4.1,1.8-4.1,4.6C578.1,1220.4,579.8,1222.2,582.3,1222.2z"/>
		<path class="st9" d="M589.9,1217.5c0-3.5,2.2-5.9,5.5-5.9c3.2,0,5.3,2.2,5.3,5.4c0,0.2,0,0.6,0,0.8h-9.3c0.1,2.6,1.9,4.5,4.2,4.5
			c2,0,3.3-0.9,3.7-2.5h1.5c-0.4,2.3-2.4,3.8-5.2,3.8C592.3,1223.6,589.9,1220.9,589.9,1217.5z M599.1,1216.4
			c-0.2-2.1-1.6-3.4-3.8-3.4c-2.1,0-3.5,1.3-3.9,3.4H599.1z"/>
		<path class="st9" d="M602.4,1220.1c0-2.2,1.8-3.6,4.7-3.6h2.8c0.5,0,0.7-0.2,0.7-0.6c0-1.7-1.2-3-3.4-3c-1.8,0-3.3,1.1-3.4,2.5
			h-1.4c0.2-2.2,2.4-3.8,4.9-3.8c3,0,4.9,1.7,4.9,4.3v7.5h-1.4v-2.1c-0.7,1.4-2.3,2.3-4.2,2.3C604,1223.6,602.4,1222.2,602.4,1220.1
			z M606.6,1222.2c2.6,0,4-1.5,4-4.2v-0.3h-3.5c-1.9,0-3.2,0.9-3.2,2.4C604,1221.4,605,1222.2,606.6,1222.2z"/>
		<path class="st9" d="M616.3,1218.4v4.9h-1.4v-11.6h1.4v2.5c0.5-1.6,1.4-2.5,3.2-2.5h1.5v1.3h-1.5
			C617,1213.1,616.3,1215.5,616.3,1218.4z"/>
		<path class="st9" d="M622.4,1221.6v1.8h-1.7v-1.8H622.4z"/>
		<path class="st9" d="M626.5,1218.4v4.9h-1.4v-11.6h1.4v2.5c0.5-1.6,1.4-2.5,3.2-2.5h1.5v1.3h-1.5
			C627.2,1213.1,626.5,1215.5,626.5,1218.4z"/>
		<path class="st9" d="M642.3,1223.4h-1.4v-2.4c-0.6,1.7-2.1,2.6-3.9,2.6c-2.6,0-4.3-1.9-4.3-4.7v-7h1.4v6.9c0,2.2,1.2,3.6,3.1,3.6
			c2.2,0,3.7-1.7,3.7-4.2v-6.2h1.4V1223.4z"/>
	</g>
	<g class="st8">
		<path class="st1" d="M529.1,192.2h2.2l5.5,14.1l5.5-14.1h2.2v16.1h-1.5v-13.7l-5.4,13.7H536l-5.4-13.7v13.7h-1.5V192.2z"/>
		<path class="st1" d="M547.5,196.7h1.4v4.3h3c2.8,0,4.4,1.3,4.4,3.7s-1.6,3.7-4.4,3.7h-4.4V196.7z M551.8,206.9
			c1.9,0,2.9-0.9,2.9-2.3s-1.1-2.3-2.9-2.3h-2.9v4.7H551.8z M559.3,196.7h1.4v11.6h-1.4V196.7z"/>
		<path class="st1" d="M569.1,196.7h1.4v2.1c0.7-1.4,2.3-2.3,4-2.3c3.7,0,5.6,2.7,5.6,6c0,3.3-2,6-5.6,6c-1.7,0-3.3-0.9-4-2.3v6.8
			h-1.4V196.7z M574.5,207.1c2.5,0,4.1-1.8,4.1-4.6c0-2.8-1.6-4.6-4.1-4.6s-4.1,1.8-4.1,4.6C570.4,205.3,572,207.1,574.5,207.1z"/>
		<path class="st1" d="M581.8,205c0-2.2,1.8-3.6,4.7-3.6h2.8c0.5,0,0.7-0.2,0.7-0.6c0-1.7-1.2-3-3.4-3c-1.8,0-3.3,1.1-3.4,2.5h-1.4
			c0.2-2.2,2.4-3.8,4.9-3.8c3,0,4.9,1.7,4.9,4.3v7.5h-1.4v-2.1c-0.7,1.4-2.3,2.3-4.2,2.3C583.4,208.5,581.8,207.1,581.8,205z
			 M586,207.1c2.6,0,4-1.5,4-4.2v-0.3h-3.5c-1.9,0-3.2,0.9-3.2,2.4C583.4,206.3,584.4,207.1,586,207.1z"/>
		<path class="st1" d="M593.9,202.2v-0.9c0-4.8,2.2-8.8,8.5-9.2l1.8-0.1v1.3l-1.8,0.1c-5.2,0.3-6.3,3.1-6.9,5.6c1-1.5,2.7-2,4-2
			c3.5,0,5.5,2.8,5.5,5.8c0,2.9-2,5.7-5.5,5.7C595.9,208.5,593.9,205.8,593.9,202.2z M599.4,207.1c2.7,0,4-2.2,4-4.3
			c0-2.3-1.3-4.5-4-4.5c-2.8,0-4.1,2-4.1,4.5C595.4,205,596.7,207.1,599.4,207.1z"/>
		<path class="st1" d="M606.4,202.5c0-3.5,2.4-6,5.8-6s5.8,2.5,5.8,6c0,3.5-2.4,6-5.8,6S606.4,206,606.4,202.5z M612.2,207.1
			c2.6,0,4.3-1.9,4.3-4.6s-1.7-4.6-4.3-4.6c-2.6,0-4.3,1.9-4.3,4.6S609.7,207.1,612.2,207.1z"/>
		<path class="st1" d="M622.9,198h-4.4v-1.3h10.3v1.3h-4.4v10.3h-1.4V198z"/>
		<path class="st1" d="M629.6,205c0-2.2,1.8-3.6,4.7-3.6h2.8c0.5,0,0.7-0.2,0.7-0.6c0-1.7-1.2-3-3.4-3c-1.8,0-3.3,1.1-3.4,2.5h-1.4
			c0.2-2.2,2.4-3.8,4.9-3.8c3,0,4.9,1.7,4.9,4.3v7.5h-1.4v-2.1c-0.7,1.4-2.3,2.3-4.2,2.3C631.2,208.5,629.6,207.1,629.6,205z
			 M633.8,207.1c2.6,0,4-1.5,4-4.2v-0.3h-3.5c-1.9,0-3.2,0.9-3.2,2.4C631.1,206.3,632.2,207.1,633.8,207.1z"/>
		<path class="st1" d="M641.3,202.4c0-3.5,2.2-5.9,5.5-5.9c3.2,0,5.3,2.2,5.3,5.4c0,0.2,0,0.6,0,0.8h-9.3c0.1,2.6,1.9,4.5,4.2,4.5
			c2,0,3.3-0.9,3.7-2.5h1.5c-0.4,2.3-2.4,3.8-5.2,3.8C643.7,208.5,641.3,205.8,641.3,202.4z M650.6,201.3c-0.2-2.1-1.6-3.4-3.8-3.4
			c-2.1,0-3.5,1.3-3.9,3.4H650.6z"/>
		<path class="st1" d="M654.5,196.7h2l4.1,9.3l4.1-9.3h2v11.6h-1.4v-9.4l-4.1,9.4H660l-4.1-9.4v9.4h-1.4V196.7z"/>
		<path class="st1" d="M683.7,202.9h-7.2v5.4H675v-11.6h1.4v4.9h7.2v-4.9h1.4v11.6h-1.4V202.9z"/>
		<path class="st1" d="M687.6,205c0-2.2,1.8-3.6,4.7-3.6h2.8c0.5,0,0.7-0.2,0.7-0.6c0-1.7-1.2-3-3.4-3c-1.8,0-3.3,1.1-3.4,2.5h-1.4
			c0.2-2.2,2.4-3.8,4.9-3.8c3,0,4.9,1.7,4.9,4.3v7.5h-1.4v-2.1c-0.7,1.4-2.3,2.3-4.2,2.3C689.2,208.5,687.6,207.1,687.6,205z
			 M691.8,207.1c2.6,0,4-1.5,4-4.2v-0.3h-3.5c-1.9,0-3.2,0.9-3.2,2.4C689.1,206.3,690.2,207.1,691.8,207.1z"/>
		<path class="st1" d="M705.4,196.7h1.4v2.1c0.7-1.4,2.3-2.3,4-2.3c3.7,0,5.6,2.7,5.6,6c0,3.3-2,6-5.6,6c-1.7,0-3.3-0.9-4-2.3v6.8
			h-1.4V196.7z M710.9,207.1c2.5,0,4.1-1.8,4.1-4.6c0-2.8-1.6-4.6-4.1-4.6s-4.1,1.8-4.1,4.6C706.7,205.3,708.4,207.1,710.9,207.1z"
			/>
		<path class="st1" d="M718.8,196.7h1.4v4.3h3c2.8,0,4.4,1.3,4.4,3.7s-1.6,3.7-4.4,3.7h-4.4V196.7z M723.2,206.9
			c1.9,0,2.9-0.9,2.9-2.3s-1.1-2.3-2.9-2.3h-2.9v4.7H723.2z M730.6,196.7h1.4v11.6h-1.4V196.7z"/>
		<path class="st1" d="M743.7,202.9h-7.2v5.4h-1.4v-11.6h1.4v4.9h7.2v-4.9h1.4v11.6h-1.4V202.9z"/>
		<path class="st1" d="M752.1,202.9h-2.5v5.4h-1.4v-11.6h1.4v4.9h2.4l2.7-3.5c0.9-1.2,1.4-1.3,2.5-1.3h0.7v1.3h-0.7
			c-0.6,0-0.9,0.1-1.5,0.8l-2.5,3.2l4.8,6.3h-1.9L752.1,202.9z"/>
		<path class="st1" d="M758.4,202.4c0-3.5,2.2-5.9,5.5-5.9c3.2,0,5.3,2.2,5.3,5.4c0,0.2,0,0.6,0,0.8h-9.3c0.1,2.6,1.9,4.5,4.2,4.5
			c2,0,3.3-0.9,3.7-2.5h1.5c-0.4,2.3-2.4,3.8-5.2,3.8C760.8,208.5,758.4,205.8,758.4,202.4z M767.7,201.3c-0.2-2.1-1.6-3.4-3.8-3.4
			c-2.1,0-3.5,1.3-3.9,3.4H767.7z"/>
		<path class="st1" d="M775.9,202.5c0-3,1.9-6,5.5-6c2.5,0,4.8,1.4,5.2,4h-1.4c-0.2-1.5-1.8-2.6-3.7-2.6c-2.8,0-4,2.1-4,4.6
			c0,2.5,1.3,4.6,4,4.6c1.9,0,3.3-0.9,3.7-2.4h1.4c-0.4,2.3-2.2,3.8-5.1,3.8C777.8,208.5,775.9,205.5,775.9,202.5z"/>
		<path class="st1" d="M798.6,192c2.9,0,5.1,1.9,5.1,4.7c0,2.1-1.3,3.8-3.7,5.1l-2.2,1.1c-1.4,0.7-3.1,2.1-3.1,3.9h9.2v1.4h-10.6
			v-1.1c0-3,2.3-4.8,4-5.7l2.4-1.2c1.9-1,2.5-2.1,2.5-3.6c0-2-1.5-3.3-3.4-3.3c-2.2,0-3.7,1.5-3.5,3.8h-1.6
			C793.3,194.1,795.4,192,798.6,192z"/>
		<path class="st1" d="M805.5,200.9v-1.4c0-4.9,1.5-7.5,5.3-7.5h0.8c3.9,0,5.3,2.6,5.3,7.5v1.4c0,4.9-1.4,7.5-5.3,7.5h-0.8
			C806.9,208.5,805.5,205.8,805.5,200.9z M810.8,207h0.7c2.8,0,3.8-2,3.8-6.1v-1.4c0-4.1-1-6.1-3.8-6.1h-0.7c-2.8,0-3.8,2-3.8,6.1
			v1.4C807,205,808.1,207,810.8,207z"/>
		<path class="st1" d="M819.4,200.9v-1.4c0-4.9,1.5-7.5,5.3-7.5h0.8c3.9,0,5.3,2.6,5.3,7.5v1.4c0,4.9-1.4,7.5-5.3,7.5h-0.8
			C820.9,208.5,819.4,205.8,819.4,200.9z M824.8,207h0.7c2.8,0,3.8-2,3.8-6.1v-1.4c0-4.1-1-6.1-3.8-6.1h-0.7c-2.8,0-3.8,2-3.8,6.1
			v1.4C821,205,822,207,824.8,207z"/>
		<path class="st1" d="M832.9,203.8h1.5c0.3,2.1,1.7,3.2,3.8,3.2c2.6,0,4.3-1.5,4.3-4c0-2.5-1.7-4.1-4.2-4.1c-1.9,0-3.3,0.8-3.8,2.1
			h-1.2l1.2-8.8h8.5v1.4h-7.3l-0.8,5.3c0.8-0.8,2.3-1.4,3.5-1.4c3.4,0,5.7,2.2,5.7,5.5c0,3.3-2.3,5.4-5.8,5.4
			C835.3,208.5,833.2,206.5,832.9,203.8z"/>
		<path class="st1" d="M851.5,196.7h7.5v1.3h-6v10.3h-1.4V196.7z"/>
		<path class="st1" d="M859.3,202.5c0-3.5,2.4-6,5.8-6s5.8,2.5,5.8,6c0,3.5-2.4,6-5.8,6S859.3,206,859.3,202.5z M865.1,207.1
			c2.6,0,4.3-1.9,4.3-4.6s-1.7-4.6-4.3-4.6c-2.6,0-4.3,1.9-4.3,4.6S862.6,207.1,865.1,207.1z"/>
		<path class="st1" d="M873.6,205.2l1.4-8.5h6.9v10.3h1.8v5h-1.3v-3.7h-9.7v3.7h-1.3v-5C872.9,206.9,873.4,206.5,873.6,205.2z
			 M880.4,206.9V198h-4.3l-1.1,7.2c-0.1,0.7-0.4,1.3-0.7,1.7H880.4z"/>
		<path class="st1" d="M884.8,205c0-2.2,1.8-3.6,4.7-3.6h2.8c0.5,0,0.7-0.2,0.7-0.6c0-1.7-1.2-3-3.4-3c-1.8,0-3.3,1.1-3.4,2.5h-1.4
			c0.2-2.2,2.4-3.8,4.9-3.8c3,0,4.9,1.7,4.9,4.3v7.5h-1.4v-2.1c-0.7,1.4-2.3,2.3-4.2,2.3C886.4,208.5,884.8,207.1,884.8,205z
			 M889,207.1c2.6,0,4-1.5,4-4.2v-0.3h-3.5c-1.9,0-3.2,0.9-3.2,2.4C886.4,206.3,887.4,207.1,889,207.1z"/>
		<path class="st1" d="M528.9,219.7h1.4v9.7l7-9.7h1.7v11.6h-1.4v-9.7l-7,9.7h-1.7V219.7z"/>
		<path class="st1" d="M547.3,219.7h1.4v9.7l7-9.7h1.7v11.6h-1.4v-9.7l-7,9.7h-1.7V219.7z"/>
		<path class="st1" d="M560.4,219.7h2l4.1,9.3l4.1-9.3h2v11.6h-1.4v-9.4l-4.1,9.4h-1.1l-4.1-9.4v9.4h-1.4V219.7z"/>
		<path class="st1" d="M574.8,225.4c0-3.5,2.2-5.9,5.5-5.9c3.2,0,5.3,2.2,5.3,5.4c0,0.2,0,0.6,0,0.8h-9.3c0.1,2.6,1.9,4.5,4.2,4.5
			c2,0,3.3-0.9,3.7-2.5h1.5c-0.4,2.3-2.4,3.8-5.2,3.8C577.2,231.5,574.8,228.8,574.8,225.4z M584.1,224.3c-0.2-2.1-1.6-3.4-3.8-3.4
			c-2.1,0-3.5,1.3-3.9,3.4H584.1z"/>
		<path class="st1" d="M587.1,225.4c0-3.5,2.2-5.9,5.5-5.9c3.2,0,5.3,2.2,5.3,5.4c0,0.2,0,0.6,0,0.8h-9.3c0.1,2.6,1.9,4.5,4.2,4.5
			c2,0,3.3-0.9,3.7-2.5h1.5c-0.4,2.3-2.4,3.8-5.2,3.8C589.5,231.5,587.1,228.8,587.1,225.4z M596.4,224.3c-0.2-2.1-1.6-3.4-3.8-3.4
			c-2.1,0-3.5,1.3-3.9,3.4H596.4z"/>
		<path class="st1" d="M600.3,219.7h2l4.1,9.3l4.1-9.3h2v11.6H611v-9.4l-4.1,9.4h-1.1l-4.1-9.4v9.4h-1.4V219.7z"/>
		<path class="st1" d="M619.9,225.5c0-3,1.9-6,5.5-6c2.5,0,4.8,1.4,5.2,4h-1.4c-0.2-1.5-1.8-2.6-3.7-2.6c-2.8,0-4,2.1-4,4.6
			c0,2.5,1.3,4.6,4,4.6c1.9,0,3.3-0.9,3.7-2.4h1.4c-0.4,2.3-2.2,3.8-5.1,3.8C621.8,231.5,619.9,228.5,619.9,225.5z"/>
		<path class="st1" d="M631.9,225.5c0-3.5,2.4-6,5.8-6s5.8,2.5,5.8,6c0,3.5-2.4,6-5.8,6S631.9,229,631.9,225.5z M637.7,230.1
			c2.6,0,4.3-1.9,4.3-4.6s-1.7-4.6-4.3-4.6c-2.6,0-4.3,1.9-4.3,4.6S635.2,230.1,637.7,230.1z"/>
		<path class="st1" d="M645.3,225.2v-0.9c0-4.8,2.2-8.8,8.5-9.2l1.8-0.1v1.3l-1.8,0.1c-5.2,0.3-6.3,3.1-6.9,5.6c1-1.5,2.7-2,4-2
			c3.5,0,5.5,2.8,5.5,5.8c0,2.9-2,5.7-5.5,5.7C647.3,231.5,645.3,228.8,645.3,225.2z M650.9,230.1c2.7,0,4-2.2,4-4.3
			c0-2.3-1.3-4.5-4-4.5c-2.8,0-4.1,2-4.1,4.5C646.8,228,648.1,230.1,650.9,230.1z"/>
		<path class="st1" d="M657.8,225.5c0-3,1.9-6,5.5-6c2.5,0,4.8,1.4,5.2,4h-1.4c-0.2-1.5-1.8-2.6-3.7-2.6c-2.8,0-4,2.1-4,4.6
			c0,2.5,1.3,4.6,4,4.6c1.9,0,3.3-0.9,3.7-2.4h1.4c-0.4,2.3-2.2,3.8-5.1,3.8C659.7,231.5,657.8,228.5,657.8,225.5z"/>
		<path class="st1" d="M673.5,221h-4.4v-1.3h10.3v1.3H675v10.3h-1.4V221z"/>
		<path class="st1" d="M680.9,219.7h5.2c2.3,0,3.5,1.2,3.5,2.9c0,1.1-0.6,1.9-1.4,2.3c1.2,0.4,2.1,1.3,2.1,2.9c0,2-1.3,3.4-4.1,3.4
			h-5.2V219.7z M686,224.5c1.4,0,2.2-0.7,2.2-1.8s-0.8-1.7-2.2-1.7h-3.6v3.5H686z M686.2,229.9c1.6,0,2.5-0.8,2.5-2.1
			c0-1.3-0.9-2-2.5-2h-3.9v4.1H686.2z"/>
		<path class="st1" d="M691.6,225.4c0-3.5,2.2-5.9,5.5-5.9c3.2,0,5.3,2.2,5.3,5.4c0,0.2,0,0.6,0,0.8h-9.3c0.1,2.6,1.9,4.5,4.2,4.5
			c2,0,3.3-0.9,3.7-2.5h1.5c-0.4,2.3-2.4,3.8-5.2,3.8C694,231.5,691.6,228.8,691.6,225.4z M700.9,224.3c-0.2-2.1-1.6-3.4-3.8-3.4
			c-2.1,0-3.5,1.3-3.9,3.4H700.9z"/>
		<path class="st1" d="M713.4,225.9h-7.2v5.4h-1.4v-11.6h1.4v4.9h7.2v-4.9h1.4v11.6h-1.4V225.9z"/>
		<path class="st1" d="M726.5,225.9h-7.2v5.4h-1.4v-11.6h1.4v4.9h7.2v-4.9h1.4v11.6h-1.4V225.9z"/>
		<path class="st1" d="M730.1,225.5c0-3.5,2.4-6,5.8-6s5.8,2.5,5.8,6c0,3.5-2.4,6-5.8,6S730.1,229,730.1,225.5z M736,230.1
			c2.6,0,4.3-1.9,4.3-4.6s-1.7-4.6-4.3-4.6c-2.6,0-4.3,1.9-4.3,4.6S733.4,230.1,736,230.1z"/>
		<path class="st1" d="M743.2,225.4c0-3.5,2.2-5.9,5.5-5.9c3.2,0,5.3,2.2,5.3,5.4c0,0.2,0,0.6,0,0.8h-9.3c0.1,2.6,1.9,4.5,4.2,4.5
			c2,0,3.3-0.9,3.7-2.5h1.5c-0.4,2.3-2.4,3.8-5.2,3.8C745.6,231.5,743.2,228.8,743.2,225.4z M752.5,224.3c-0.2-2.1-1.6-3.4-3.8-3.4
			c-2.1,0-3.5,1.3-3.9,3.4H752.5z"/>
		<path class="st1" d="M761.6,219.7h1.4v10.3h5.4v-10.3h1.4v10.3h5.4v-10.3h1.4v11.6h-15.2V219.7z"/>
		<path class="st1" d="M779.8,219.7h5.2c2.3,0,3.5,1.2,3.5,2.9c0,1.1-0.6,1.9-1.4,2.3c1.2,0.4,2.1,1.3,2.1,2.9c0,2-1.3,3.4-4.1,3.4
			h-5.2V219.7z M784.9,224.5c1.4,0,2.2-0.7,2.2-1.8s-0.8-1.7-2.2-1.7h-3.6v3.5H784.9z M785.1,229.9c1.6,0,2.5-0.8,2.5-2.1
			c0-1.3-0.9-2-2.5-2h-3.9v4.1H785.1z"/>
		<path class="st1" d="M790.5,225.4c0-3.5,2.2-5.9,5.5-5.9c3.2,0,5.3,2.2,5.3,5.4c0,0.2,0,0.6,0,0.8H792c0.1,2.6,1.9,4.5,4.2,4.5
			c2,0,3.3-0.9,3.7-2.5h1.5c-0.4,2.3-2.4,3.8-5.2,3.8C792.9,231.5,790.5,228.8,790.5,225.4z M799.8,224.3c-0.2-2.1-1.6-3.4-3.8-3.4
			c-2.1,0-3.5,1.3-3.9,3.4H799.8z"/>
		<path class="st1" d="M803.6,219.7h1.4v9.7l7-9.7h1.7v11.6h-1.4v-9.7l-7,9.7h-1.7V219.7z M806.6,215.2c0,1.2,0.8,2,2.1,2
			c1.3,0,2.1-0.8,2.1-2h1.3c0,1.9-1.4,3.2-3.4,3.2c-2,0-3.4-1.3-3.4-3.2H806.6z"/>
		<path class="st1" d="M825.3,225.9h-7.2v5.4h-1.4v-11.6h1.4v4.9h7.2v-4.9h1.4v11.6h-1.4V225.9z"/>
		<path class="st1" d="M829,225.5c0-3.5,2.4-6,5.8-6s5.8,2.5,5.8,6c0,3.5-2.4,6-5.8,6S829,229,829,225.5z M834.8,230.1
			c2.6,0,4.3-1.9,4.3-4.6s-1.7-4.6-4.3-4.6c-2.6,0-4.3,1.9-4.3,4.6S832.2,230.1,834.8,230.1z"/>
		<path class="st1" d="M842.1,225.4c0-3.5,2.2-5.9,5.5-5.9c3.2,0,5.3,2.2,5.3,5.4c0,0.2,0,0.6,0,0.8h-9.3c0.1,2.6,1.9,4.5,4.2,4.5
			c2,0,3.3-0.9,3.7-2.5h1.5c-0.4,2.3-2.4,3.8-5.2,3.8C844.5,231.5,842.1,228.8,842.1,225.4z M851.4,224.3c-0.2-2.1-1.6-3.4-3.8-3.4
			c-2.1,0-3.5,1.3-3.9,3.4H851.4z"/>
		<path class="st1" d="M868.9,221h-7v10.3h-1.4v-11.6h9.9v11.6h-1.4V221z"/>
		<path class="st1" d="M873.4,219.7h1.4v2.1c0.7-1.4,2.3-2.3,4-2.3c3.7,0,5.6,2.7,5.6,6c0,3.3-2,6-5.6,6c-1.7,0-3.3-0.9-4-2.3v6.8
			h-1.4V219.7z M878.8,230.1c2.5,0,4.1-1.8,4.1-4.6c0-2.8-1.6-4.6-4.1-4.6s-4.1,1.8-4.1,4.6C874.6,228.3,876.3,230.1,878.8,230.1z"
			/>
		<path class="st1" d="M885.9,225.5c0-3.5,2.4-6,5.8-6s5.8,2.5,5.8,6c0,3.5-2.4,6-5.8,6S885.9,229,885.9,225.5z M891.8,230.1
			c2.6,0,4.3-1.9,4.3-4.6s-1.7-4.6-4.3-4.6c-2.6,0-4.3,1.9-4.3,4.6S889.2,230.1,891.8,230.1z"/>
		<path class="st1" d="M899.8,219.7h1.4v9.7l7-9.7h1.7v11.6h-1.4v-9.7l-7,9.7h-1.7V219.7z"/>
		<path class="st1" d="M911.8,227.7h1.4c0.4,1.6,1.7,2.4,3.4,2.4c2,0,3.2-0.9,3.2-2.3c0-1.2-0.9-1.9-2.7-1.9h-1.6v-1.3h1.6
			c1.4,0,2.2-0.7,2.2-1.8c0-1.3-1.1-2-2.6-2c-1.7,0-2.9,1-3.1,2.6h-1.5c0.3-2.6,2.2-3.9,4.6-3.9c2.3,0,4,1.2,4,3.2
			c0,1.1-0.6,1.9-1.4,2.4c1.1,0.3,2.1,1.2,2.1,2.7c0,2.2-1.9,3.6-4.8,3.6C914,231.5,912.2,230.1,911.8,227.7z"/>
		<path class="st1" d="M923.6,219.7h5.2c2.3,0,3.5,1.2,3.5,2.9c0,1.1-0.6,1.9-1.4,2.3c1.2,0.4,2.1,1.3,2.1,2.9c0,2-1.3,3.4-4.1,3.4
			h-5.2V219.7z M928.7,224.5c1.4,0,2.2-0.7,2.2-1.8s-0.8-1.7-2.2-1.7h-3.6v3.5H928.7z M929,229.9c1.6,0,2.5-0.8,2.5-2.1
			c0-1.3-0.9-2-2.5-2h-3.9v4.1H929z"/>
		<path class="st1" d="M934.4,225.5c0-3.5,2.4-6,5.8-6s5.8,2.5,5.8,6c0,3.5-2.4,6-5.8,6S934.4,229,934.4,225.5z M940.2,230.1
			c2.6,0,4.3-1.9,4.3-4.6s-1.7-4.6-4.3-4.6c-2.6,0-4.3,1.9-4.3,4.6S937.6,230.1,940.2,230.1z"/>
		<path class="st1" d="M948.6,228.2l1.4-8.5h6.9v10.3h1.8v5h-1.3v-3.7h-9.7v3.7h-1.3v-5C947.9,229.9,948.4,229.5,948.6,228.2z
			 M955.5,229.9V221h-4.3l-1.1,7.2c-0.1,0.7-0.4,1.3-0.7,1.7H955.5z"/>
		<path class="st1" d="M959.5,225.5c0-3,1.9-6,5.5-6c2.5,0,4.8,1.4,5.2,4h-1.4c-0.2-1.5-1.8-2.6-3.7-2.6c-2.8,0-4,2.1-4,4.6
			c0,2.5,1.3,4.6,4,4.6c1.9,0,3.3-0.9,3.7-2.4h1.4c-0.4,2.3-2.2,3.8-5.1,3.8C961.4,231.5,959.5,228.5,959.5,225.5z"/>
		<path class="st1" d="M975.2,221h-4.4v-1.3h10.3v1.3h-4.4v10.3h-1.4V221z"/>
		<path class="st1" d="M982.6,219.7h5.2c2.3,0,3.5,1.2,3.5,2.9c0,1.1-0.6,1.9-1.4,2.3c1.2,0.4,2.1,1.3,2.1,2.9c0,2-1.3,3.4-4.1,3.4
			h-5.2V219.7z M987.6,224.5c1.4,0,2.2-0.7,2.2-1.8s-0.8-1.7-2.2-1.7H984v3.5H987.6z M987.9,229.9c1.6,0,2.5-0.8,2.5-2.1
			c0-1.3-0.9-2-2.5-2H984v4.1H987.9z"/>
		<path class="st1" d="M993.3,225.5c0-3.5,2.4-6,5.8-6s5.8,2.5,5.8,6c0,3.5-2.4,6-5.8,6S993.3,229,993.3,225.5z M999.1,230.1
			c2.6,0,4.3-1.9,4.3-4.6s-1.7-4.6-4.3-4.6c-2.6,0-4.3,1.9-4.3,4.6S996.5,230.1,999.1,230.1z"/>
		<path class="st1" d="M528,248.5c0-3,1.9-6,5.5-6c2.5,0,4.8,1.4,5.2,4h-1.4c-0.2-1.5-1.8-2.6-3.7-2.6c-2.8,0-4,2.1-4,4.6
			c0,2.5,1.3,4.6,4,4.6c1.9,0,3.3-0.9,3.7-2.4h1.4c-0.4,2.3-2.2,3.8-5.1,3.8C529.9,254.5,528,251.5,528,248.5z"/>
		<path class="st1" d="M554.5,244h-7v10.3H546v-11.6h9.9v11.6h-1.4V244z"/>
		<path class="st1" d="M558.9,242.7h1.4v2.1c0.7-1.4,2.3-2.3,4-2.3c3.7,0,5.6,2.7,5.6,6c0,3.3-2,6-5.6,6c-1.7,0-3.3-0.9-4-2.3v6.8
			h-1.4V242.7z M564.4,253.1c2.5,0,4.1-1.8,4.1-4.6c0-2.8-1.6-4.6-4.1-4.6s-4.1,1.8-4.1,4.6C560.2,251.3,561.8,253.1,564.4,253.1z"
			/>
		<path class="st1" d="M571.5,248.5c0-3.5,2.4-6,5.8-6s5.8,2.5,5.8,6c0,3.5-2.4,6-5.8,6S571.5,252,571.5,248.5z M577.3,253.1
			c2.6,0,4.3-1.9,4.3-4.6s-1.7-4.6-4.3-4.6c-2.6,0-4.3,1.9-4.3,4.6S574.8,253.1,577.3,253.1z"/>
		<path class="st1" d="M591.1,254.5c-4-0.2-6.5-2.5-6.5-6s2.4-5.8,6.5-6V238h1.4v4.5c4,0.2,6.5,2.6,6.5,6s-2.4,5.8-6.5,6v4.5h-1.4
			V254.5z M591.1,253.1v-9.3c-3.2,0.2-5,2-5,4.6S587.8,253,591.1,253.1z M597.5,248.5c0-2.6-1.7-4.5-4.9-4.6v9.3
			C595.8,253,597.5,251.1,597.5,248.5z"/>
		<path class="st1" d="M600.4,248.4c0-3.5,2.2-5.9,5.5-5.9c3.2,0,5.3,2.2,5.3,5.4c0,0.2,0,0.6,0,0.8h-9.3c0.1,2.6,1.9,4.5,4.2,4.5
			c2,0,3.3-0.9,3.7-2.5h1.5c-0.4,2.3-2.4,3.8-5.2,3.8C602.8,254.5,600.4,251.8,600.4,248.4z M609.7,247.3c-0.2-2.1-1.6-3.4-3.8-3.4
			c-2.1,0-3.5,1.3-3.9,3.4H609.7z"/>
		<path class="st1" d="M612.7,248.5c0-3,1.9-6,5.5-6c2.5,0,4.8,1.4,5.2,4H622c-0.2-1.5-1.8-2.6-3.7-2.6c-2.8,0-4,2.1-4,4.6
			c0,2.5,1.3,4.6,4,4.6c1.9,0,3.3-0.9,3.7-2.4h1.4c-0.4,2.3-2.2,3.8-5.1,3.8C614.6,254.5,612.7,251.5,612.7,248.5z"/>
		<path class="st1" d="M624.7,248.5c0-3,1.9-6,5.5-6c2.5,0,4.8,1.4,5.2,4H634c-0.2-1.5-1.8-2.6-3.7-2.6c-2.8,0-4,2.1-4,4.6
			c0,2.5,1.3,4.6,4,4.6c1.9,0,3.3-0.9,3.7-2.4h1.4c-0.4,2.3-2.2,3.8-5.1,3.8C626.6,254.5,624.7,251.5,624.7,248.5z"/>
		<path class="st1" d="M637.5,242.7h1.4v9.7l7-9.7h1.7v11.6h-1.4v-9.7l-7,9.7h-1.7V242.7z"/>
		<path class="st1" d="M649.8,248.5c0-3.5,2.4-6,5.8-6s5.8,2.5,5.8,6c0,3.5-2.4,6-5.8,6S649.8,252,649.8,248.5z M655.6,253.1
			c2.6,0,4.3-1.9,4.3-4.6s-1.7-4.6-4.3-4.6c-2.6,0-4.3,1.9-4.3,4.6S653.1,253.1,655.6,253.1z"/>
		<path class="st1" d="M672.3,248.9h-7.2v5.4h-1.4v-11.6h1.4v4.9h7.2v-4.9h1.4v11.6h-1.4V248.9z"/>
		<path class="st1" d="M676.2,251c0-2.2,1.8-3.6,4.7-3.6h2.8c0.5,0,0.7-0.2,0.7-0.6c0-1.7-1.2-3-3.4-3c-1.8,0-3.3,1.1-3.4,2.5h-1.4
			c0.2-2.2,2.4-3.8,4.9-3.8c3,0,4.9,1.7,4.9,4.3v7.5h-1.4v-2.1c-0.7,1.4-2.3,2.3-4.2,2.3C677.8,254.5,676.2,253.1,676.2,251z
			 M680.4,253.1c2.6,0,4-1.5,4-4.2v-0.3H681c-1.9,0-3.2,0.9-3.2,2.4C677.8,252.3,678.8,253.1,680.4,253.1z"/>
		<path class="st1" d="M687.3,252.9h0.7c0.7,0,1.2-0.5,1.3-1.4l1.4-8.9h6.8v11.6h-1.4V244H692l-1.2,8c-0.2,1.5-1.1,2.3-2.5,2.3h-0.9
			V252.9z"/>
		<path class="st1" d="M700.6,242.7h1.4v4.3h3.4c2.8,0,4.4,1.3,4.4,3.7s-1.6,3.7-4.4,3.7h-4.9V242.7z M705.4,252.9
			c1.9,0,2.9-0.9,2.9-2.3s-1.1-2.3-2.9-2.3H702v4.7H705.4z"/>
		<path class="st1" d="M720.2,248.9H713v5.4h-1.4v-11.6h1.4v4.9h7.2v-4.9h1.4v11.6h-1.4V248.9z"/>
		<path class="st1" d="M724.7,242.7h1.4v4.3h3c2.8,0,4.4,1.3,4.4,3.7s-1.6,3.7-4.4,3.7h-4.4V242.7z M729,252.9
			c1.9,0,2.9-0.9,2.9-2.3s-1.1-2.3-2.9-2.3h-2.9v4.7H729z M736.5,242.7h1.4v11.6h-1.4V242.7z"/>
		<path class="st1" d="M741,242.7h2l4.1,9.3l4.1-9.3h2v11.6h-1.4v-9.4l-4.1,9.4h-1.1l-4.1-9.4v9.4H741V242.7z"/>
		<path class="st1" d="M756.2,242.7h1.4v9.7l7-9.7h1.7v11.6h-1.4v-9.7l-7,9.7h-1.7V242.7z"/>
		<path class="st1" d="M773.7,248.5c0-3,1.9-6,5.5-6c2.5,0,4.8,1.4,5.2,4H783c-0.2-1.5-1.8-2.6-3.7-2.6c-2.8,0-4,2.1-4,4.6
			c0,2.5,1.3,4.6,4,4.6c1.9,0,3.3-0.9,3.7-2.4h1.4c-0.4,2.3-2.2,3.8-5.1,3.8C775.6,254.5,773.7,251.5,773.7,248.5z"/>
		<path class="st1" d="M785.7,248.5c0-3.5,2.4-6,5.8-6s5.8,2.5,5.8,6c0,3.5-2.4,6-5.8,6S785.7,252,785.7,248.5z M791.5,253.1
			c2.6,0,4.3-1.9,4.3-4.6s-1.7-4.6-4.3-4.6c-2.6,0-4.3,1.9-4.3,4.6S788.9,253.1,791.5,253.1z"/>
		<path class="st1" d="M802.1,244h-4.4v-1.3H808v1.3h-4.4v10.3h-1.4V244z"/>
		<path class="st1" d="M809.5,242.7h1.4v2.1c0.7-1.4,2.3-2.3,4-2.3c3.7,0,5.6,2.7,5.6,6c0,3.3-2,6-5.6,6c-1.7,0-3.3-0.9-4-2.3v6.8
			h-1.4V242.7z M814.9,253.1c2.5,0,4.1-1.8,4.1-4.6c0-2.8-1.6-4.6-4.1-4.6s-4.1,1.8-4.1,4.6C810.8,251.3,812.4,253.1,814.9,253.1z"
			/>
		<path class="st1" d="M825.5,254.6l-4.4-11.9h1.5l3.5,9.7l3.5-9.7h1.5l-3.8,10.5l-2,5.8H824L825.5,254.6z"/>
		<path class="st1" d="M832.8,251.2l1.4-8.5h6.9v10.3h1.8v5h-1.3v-3.7h-9.7v3.7h-1.3v-5C832.1,252.9,832.6,252.5,832.8,251.2z
			 M839.6,252.9V244h-4.3l-1.1,7.2c-0.1,0.7-0.4,1.3-0.7,1.7H839.6z"/>
		<path class="st1" d="M853.3,248.9h-7.2v5.4h-1.4v-11.6h1.4v4.9h7.2v-4.9h1.4v11.6h-1.4V248.9z"/>
		<path class="st1" d="M857.7,242.7h1.4v9.7l7-9.7h1.7v11.6h-1.4v-9.7l-7,9.7h-1.7V242.7z"/>
		<path class="st1" d="M874.7,248.9h-2.5v5.4h-1.4v-11.6h1.4v4.9h2.4l2.7-3.5c0.9-1.2,1.4-1.3,2.5-1.3h0.7v1.3h-0.7
			c-0.6,0-0.9,0.1-1.5,0.8l-2.5,3.2l4.8,6.3h-1.9L874.7,248.9z"/>
		<path class="st1" d="M881.5,251c0-2.2,1.8-3.6,4.7-3.6h2.8c0.5,0,0.7-0.2,0.7-0.6c0-1.7-1.2-3-3.4-3c-1.8,0-3.3,1.1-3.4,2.5h-1.4
			c0.2-2.2,2.4-3.8,4.9-3.8c3,0,4.9,1.7,4.9,4.3v7.5h-1.4v-2.1c-0.7,1.4-2.3,2.3-4.2,2.3C883.1,254.5,881.5,253.1,881.5,251z
			 M885.7,253.1c2.6,0,4-1.5,4-4.2v-0.3h-3.5c-1.9,0-3.2,0.9-3.2,2.4C883,252.3,884.1,253.1,885.7,253.1z"/>
		<path class="st1" d="M894,242.7h2l4.1,9.3l4.1-9.3h2v11.6h-1.4v-9.4l-4.1,9.4h-1.1l-4.1-9.4v9.4H894V242.7z"/>
		<path class="st1" d="M909.3,242.7h1.4v9.7l7-9.7h1.7v11.6h-1.4v-9.7l-7,9.7h-1.7V242.7z"/>
		<path class="st1" d="M923.5,252.5v1.8h-1.7v-1.8H923.5z"/>
	</g>
	<rect x="-650" y="-60" class="st10" width="2" height="1280"/>
	<line class="st11" x1="508.5" y1="259" x2="508.5" y2="0"/>
	<line class="st11" x1="508.5" y1="1280" x2="508.5" y2="1208"/>
	<line class="st11" x1="55.5" y1="1280" x2="55.5" y2="1208"/>
	<g class="st8">
		<g>
			<rect class="st12" width="331" height="169.8"/>
			<path class="st1" d="M56.7,96.6c0-10.6,8.4-17.1,21.4-17.1h11.4c2.5,0,3.7-1.3,3.7-3.3c0-6.6-4.8-11.2-13.3-11.2
				c-7.6,0-13.2,4.8-13.5,10.4h-9.8c0.9-10.8,10.7-18.9,23.7-18.9c14.2,0,23.5,8.2,23.5,20.4v35.4H93.2v-8.9
				c-2.6,6-9.6,9.8-17.9,9.8C64.1,113.2,56.7,106.4,56.7,96.6z M77.4,104.8c10,0,15.8-6.4,15.8-16.6v-1.3H79.1
				c-7.2,0-11.9,3.7-11.9,9.5C67.2,101.4,71.3,104.8,77.4,104.8z"/>
			<path class="st1" d="M111.7,57.4h10.6V68c2.5-7.3,6.9-10.6,14.6-10.6h6.4v9.2h-7.7c-10,0-13.3,8.9-13.3,20.9v24.9h-10.6V57.4z"/>
			<path class="st1" d="M157.5,43.2v14.2h16.2v9.2h-16.2V94c0,5.9,3.2,9.2,8.5,9.2h7.7v9.2h-8.6c-11.1,0-18.2-6.8-18.2-18V43.2
				H157.5z"/>
			<path class="st1" d="M173.7,84.9c0-16.5,11.9-28.3,28.3-28.3c16.5,0,28.2,11.9,28.2,28.3c0,16.5-11.8,28.3-28.2,28.3
				C185.6,113.2,173.7,101.3,173.7,84.9z M202,103.9c10.4,0,17.4-7.8,17.4-19.1c0-11.2-7.1-19.1-17.4-19.1
				c-10.5,0-17.5,7.8-17.5,19.1C184.5,96.1,191.6,103.9,202,103.9z"/>
			<path class="st1" d="M231.5,94.4h9.9c0.7,6.3,5.1,9.9,12.3,9.9c6.2,0,10.4-3.4,10.4-7.4c0-14.6-31.2-1.2-31.2-24.6
				c0-9.5,8.1-15.8,19.5-15.8c12.4,0,20.8,6.9,21.5,17.2h-10c-0.8-6.3-6.8-8.8-11.4-8.8c-5.8,0-9.6,2.8-9.6,7.1
				c0,13.6,31.5-0.3,31.5,24.7c0,10-8.2,16.5-20.6,16.5C240.8,113.2,232.3,106,231.5,94.4z"/>
		</g>
	</g>
</g>
<g id="Layer_3" class="st7">
	<line class="st13" x1="1863.5" y1="-72" x2="1863.5" y2="-372"/>
	<line class="st13" x1="56.5" y1="-372" x2="56.5" y2="-72"/>
	<line class="st13" x1="1637.6" y1="-72" x2="1637.6" y2="-372"/>
	<line class="st13" x1="1411.8" y1="-72" x2="1411.8" y2="-372"/>
	<line class="st13" x1="1185.9" y1="-72" x2="1185.9" y2="-372"/>
	<line class="st13" x1="960" y1="-72" x2="960" y2="-372"/>
	<line class="st13" x1="734.1" y1="-72" x2="734.1" y2="-372"/>
	<line class="st13" x1="508.3" y1="-72" x2="508.3" y2="-372"/>
	<line class="st13" x1="282.4" y1="-72" x2="282.4" y2="-372"/>
	<rect x="56.5" y="56.5" class="st13" width="1807" height="1167"/>
</g>
</svg>
