<?xml version="1.0" encoding="utf-8"?>
<!-- Generator: Adobe Illustrator 22.0.0, SVG Export Plug-In . SVG Version: 6.00 Build 0)  -->
<svg version="1.1" id="Layer_1_copy" xmlns="http://www.w3.org/2000/svg" xmlns:xlink="http://www.w3.org/1999/xlink" x="0px"
	 y="0px" viewBox="0 0 1536 1024" style="enable-background:new 0 0 1536 1024;" xml:space="preserve">
<style type="text/css">
	.st0{fill:#FEDEDB;}
	.st1{fill:#121212;}
	.st2{fill:#957EBF;}
	.st3{fill:#F95949;}
</style>
<rect class="st0" width="1536" height="1024"/>
<g>
	<g>
		<path class="st1" d="M23,313.5h0.5c10.4,48,29.6,66.9,62.5,66.9c18.7,0,38.8-9.5,38.8-31.8c0-24-23.8-35.2-47.5-46.5
			c-24.7-11.9-49.5-24-49.5-50.9c0-25.5,24-41.5,52.6-41.5c24,0,35.6,4.4,46.1,9.2l5.3,46.1h-0.5c-8.7-29.8-31.5-52.8-54.8-52.8
			c-17.9,0-35.9,13.1-35.9,32.2c0,20.4,21.1,30.3,43.9,41c25.7,12.1,53.3,25.2,53.3,55.8c0,25-21.8,42.2-57.9,42.2
			c-24,0-40.2-4.8-52.8-9.9L23,313.5z"/>
		<path class="st1" d="M142,271l25.7-12.8v20.6c8.5-13.8,24.2-20.6,35.6-20.6c26.7,0,52.1,23.5,52.1,62.1c0,42.9-27.4,63-51.9,63
			c-15,0-28.6-8-35.9-15.5v17.7c0,13.1,4.8,30.3,11.4,35.9h-27l1.5-113c0.2-18.2-3.9-30.3-11.4-36.4v-1L142,271L142,271z
			 M167.7,364.4c5.6,4.6,15.3,10.7,27.9,10.7c18.2,0,42.9-15,42.9-53.6c0-34.7-20.4-54.3-43.6-54.3c-9.7,0-20.6,4.6-27.2,15.5V364.4
			z"/>
		<path class="st1" d="M325.3,258.2c27.9,0,47.3,18.9,47.3,46.3H279c-0.7,3.9-1,7.8-1,12.1c0,30.3,23,51.2,50.2,51.2
			c33.5,0,54.8-22.5,56.5-47c0.5-35.9,26.4-62.1,61.3-62.5c17-0.2,34.4,2.9,48.2,11.9v37.3c-7.5-26.9-27.6-46.5-50.7-46.1
			c-29.1,0.5-44.6,26.4-44.6,52.8c0,31.5,22.5,53.3,51.6,53.3c30.8,0,51.2-19.4,55.5-44.4h0.2c-0.5,32.7-27.6,59.9-61.1,59.9
			c-31.8,0-57.7-23.5-60.4-56c-2.9,30.1-27.6,56.2-61.3,56.2s-61.1-26.4-61.1-61.8C262.5,284.8,290.9,258.2,325.3,258.2z
			 M319.2,302.1c26.7,0,33.7-10.2,33.7-20.4c0-12.8-13.3-20.8-29.6-20.8c-20.6,0-39,15.5-43.9,41.2L319.2,302.1L319.2,302.1z"/>
		<path class="st1" d="M509.8,271l25.7-12.8v80.7c0,22.3,4.8,36.8,11.4,42.4h-27.2l1.5-73c0.2-18.2-3.9-30.3-11.4-36.4L509.8,271
			L509.8,271z M524.6,217.7c7.3,0,12.6,5.8,12.6,12.8s-5.3,12.6-12.6,12.6c-7,0-12.8-5.6-12.8-12.6
			C511.7,223.5,517.5,217.7,524.6,217.7z"/>
		<path class="st1" d="M600.2,279.3c-10.9,7.8-33,27.9-33,54.5c0,23.8,12.1,39.5,34.9,39.8c11.4,0.2,23.8-4.4,31-15.3
			c-11.2-32.7-25.7-75.4-31.3-84.8c-5.8-10.2-17.9-11.6-28.6-8.5l-0.5-0.2c5.3-4.1,14.3-6.5,21.3-6.5c7.5,0,18.4,2.7,25.2,18.4
			c4.8,10.9,29.3,78.1,30.1,80c5.6,14.1,9.2,20.8,14.1,24.7h-22.5l-7-21.1c-9.2,14.5-20.1,22.8-40.2,23c-24.5,0-42.7-16.5-42.7-41
			C551,315.4,569.4,293.3,600.2,279.3z"/>
		<path class="st1" d="M660.8,224.5l25.7-12.8V339c0,22.3,4.8,36.8,11.4,42.4h-27.2l1.5-119.5c0.2-18.2-3.9-30.3-11.4-36.4V224.5z"
			/>
	</g>
	<g>
		<path class="st1" d="M23,452.7l47.5-23.3v18.2c5.6-7.5,16.7-18.2,33.9-18.2c17.7,0,28.1,8.5,33.2,23c4.4-9.9,15-23,35.2-23
			c22.3,0,32.2,14.1,39,44.8l9,40.5c5.1,23.5,11.9,33,17.9,37.8h-49.2l-17.9-84.1c-3.4-15.8-6.1-27.4-16.7-27.4
			c-8,0-12.8,6.8-16.2,14.8c1.7,6.1,2.4,13.3,2.4,21.1v26.7c0,26.2,4.1,43.9,10.9,49h-48.7l1.5-72.5c0.5-28.6-3.6-39-17.5-39
			c-6.8,0-12.8,4.4-16.7,10.4v58.7c0,24.2,5.8,37.8,11.4,42.4H32.7l1.5-62.5c0.5-24.2-7.3-33.7-11.2-36.4V452.7z"/>
		<path class="st1" d="M295.5,429.4c34.4,0,62.3,27.9,62.3,62.5s-27.6,62.5-62.5,62.5c-34.7,0-62.5-27.6-62.5-62.8
			C232.7,457.1,260.8,429.4,295.5,429.4z M312.4,548.7c9.2,0.5,14.3-9,14.3-23.8c0-32-25-89.7-49.5-89.7c-8.7,0-13.3,9.5-13.3,23
			C264,489.5,288.4,546.8,312.4,548.7z"/>
		<path class="st1" d="M362.1,452.7l47.5-23.3v18.2c5.6-7.5,16.7-18.2,33.9-18.2c17.7,0,28.1,8.5,33.2,23c4.4-9.9,15-23,35.2-23
			c22.3,0,32.2,14.1,39,44.8l9,40.5c5.1,23.5,11.9,33,17.9,37.8h-49.2l-17.9-84.1c-3.4-15.8-6.1-27.4-16.7-27.4
			c-8,0-12.8,6.8-16.2,14.8c1.7,6.1,2.4,13.3,2.4,21.1v26.7c0,26.2,4.1,43.9,10.9,49h-48.7l1.5-72.5c0.5-28.6-3.6-39-17.5-39
			c-6.8,0-12.8,4.4-16.7,10.4v58.7c0,24.2,5.8,37.8,11.4,42.4h-49.2l1.5-62.5c0.5-24.2-7.3-33.7-11.2-36.4L362.1,452.7L362.1,452.7z
			"/>
		<path class="st1" d="M694,493.2c-0.5,32.5-24.2,61.3-58.9,61.3c-35.6,0-63.3-26.7-63.3-62.1c0-37.1,28.1-63,62.8-63
			c23.8,0,49,14.1,49,46.5h-75.9c-0.2,1.7-0.2,3.4-0.2,5.1c0,26.9,21.1,44.6,47.5,44.6c19.6,0,35.2-11.9,38.5-32.5h0.5L694,493.2
			L694,493.2z M607.7,473.5h12.4c23.3,0,33.7-7.5,33.7-25c0-7.8-5.1-15.8-15.8-15.8C620.3,432.8,609.9,452,607.7,473.5z"/>
		<path class="st1" d="M695.5,452.7l47.5-23.3v17.7c5.8-8.2,16-17.7,32.2-17.7c20.8,0,28.8,11.4,35.6,40.7l10.2,44.6
			c5.3,23.5,11.9,33,17.9,37.8h-49.2l-17.9-84.1c-3.4-15.8-4.8-25.5-12.4-26.9c-6.8-1.2-11.6,3.4-16.5,9.2v59.4
			c0,24.2,5.8,37.8,11.4,42.4h-49.2l1.5-62.5c0.5-24.2-7.3-33.7-11.2-36.4v-0.9H695.5z"/>
		<path class="st1" d="M900.3,430.9v2.2H877v72.7c0,31.3,11.6,42.4,23.3,44.8v1.9c-27.6,0-59.6-6.8-59.6-54.1v-65.5h-14.5v-2.2
			c18.7-2.2,41.9-16.5,49-33.9h1.9v33.9h23.2L900.3,430.9L900.3,430.9z"/>
	</g>
	<g>
		<path class="st1" d="M23,636.6l47.5-23.3V694c0,24.2,5.8,37.8,11.4,42.4H32.7l1.5-62.5c0.5-24.2-7.3-33.7-11.2-36.4V636.6z
			 M51.4,563.4c12.6,0,21.6,10.2,21.6,22.1c0,12.1-9,21.6-21.6,21.6c-12.4,0-22.1-9.5-22.1-21.6C29.3,573.6,39,563.4,51.4,563.4z"/>
		<path class="st1" d="M85.8,636.6l47.5-23.3V631c5.8-8.2,16-17.7,32.2-17.7c20.8,0,28.8,11.4,35.6,40.7l10.2,44.6
			c5.3,23.5,11.9,33,17.9,37.8H180l-17.9-84.1c-3.4-15.8-4.8-25.5-12.4-26.9c-6.8-1.2-11.6,3.4-16.5,9.2V694
			c0,24.2,5.8,37.8,11.4,42.4H95.5l1.5-62.5c0.5-24.2-7.3-33.7-11.2-36.4V636.6z"/>
		<path class="st1" d="M282.6,761c29.8,0,46.8-2.9,57.7-17.2L302,650.7c-9.9-24-16.2-32.5-19.6-34.4v-1h53.1v1
			c-0.7,0.5-1.9,2.9-1.9,7.5c0,4.1,1,9.5,4.1,17.5l25,61.6l16-32.2c4.8-9.9,7-19.6,7-27.6c0-12.8-4.4-22.5-7.5-26.7v-1h35.6v1
			c-6.5,7.5-15.5,21.8-27.2,45.1l-39.5,79.3c-9.5,19.2-26.4,51.9-64.5,62.3V761z"/>
		<path class="st1" d="M466.6,613.4c34.4,0,62.3,27.9,62.3,62.5c0,34.7-27.6,62.5-62.5,62.5c-34.7,0-62.5-27.6-62.5-62.8
			C403.8,641,431.9,613.4,466.6,613.4z M483.6,732.6c9.2,0.5,14.3-9,14.3-23.8c0-32-25-89.7-49.5-89.7c-8.7,0-13.3,9.5-13.3,23
			C435.1,673.5,459.6,730.7,483.6,732.6z"/>
		<path class="st1" d="M530.9,633l47.5-19.6v74.4c0,24,3.4,37.6,18.7,37.6c8.5,0,13.6-3.6,18.4-7.8l0.5-47.3
			c0-23.3-7.3-33.7-11.2-36.4v-1l47.5-19.6V694c0,24.2,6.5,37.8,12.1,42.4h-49.2l0.2-13.1c-5.8,6.1-17.9,15-32.7,15
			c-24.2,0-40.7-13.1-40.7-47.5v-20.6c0-23.3-7.3-33.7-11.2-36.4V633H530.9z"/>
		<path class="st1" d="M668.3,635.4l47.5-22.1v47.8c5.3-28.1,19.9-44.8,50.4-47.8l-7.5,35.9c-16-3.4-42.9,0.5-42.9,26.2v18.7
			c0,24.2,5.8,37.8,11.4,42.4H678l1.5-63.8c0.5-24.2-7.3-33.7-11.2-36.4V635.4z"/>
		<path class="st1" d="M823.9,590.1l47.5-23.3v127.3c0,24.2,5.8,37.8,11.4,42.4h-49.2l1.5-109.1c0.2-24.2-7.3-33.7-11.2-36.4V590.1z
			"/>
		<path class="st1" d="M886.7,636.6l47.5-23.3V694c0,24.2,5.8,37.8,11.4,42.4h-49.2l1.5-62.5c0.5-24.2-7.3-33.7-11.2-36.4V636.6z
			 M915.1,563.4c12.6,0,21.6,10.2,21.6,22.1c0,12.1-9,21.6-21.6,21.6c-12.4,0-22.1-9.5-22.1-21.6C893,573.6,902.7,563.4,915.1,563.4
			z"/>
		<path class="st1" d="M947.6,621.6h51.6c-12.8-4.6-51.6-18.9-51.6-37.8c0-14.5,14.5-18.9,25.9-18.9c11.2,0,21.3,2.7,35.9,7.5
			c13.8,4.6,30.5,6.3,33.2,6.1v33.9c-36.6-24.5-44.6-42.9-54.8-42.9c-4.8,0-6.3,3.9-6.3,9.7c0,21.8,22.1,42.4,61.1,42.4v2.2h-25
			v70.3c0,24.2,5.8,37.8,11.4,42.4h-49.2l1.5-71.3c0.7-29.6-12.6-41.7-33.7-41.7V621.6z"/>
		<path class="st1" d="M1161.1,677.1c-0.5,32.5-24.2,61.3-58.9,61.3c-35.6,0-63.3-26.7-63.3-62.1c0-37.1,28.1-63,62.8-63
			c23.8,0,49,14.1,49,46.5h-75.9c-0.2,1.7-0.2,3.4-0.2,5.1c0,26.9,21.1,44.6,47.5,44.6c19.6,0,35.2-11.9,38.5-32.5h0.5V677.1z
			 M1074.8,657.5h12.4c23.3,0,33.7-7.5,33.7-25c0-7.8-5.1-15.8-15.8-15.8C1087.4,616.8,1077,635.9,1074.8,657.5z"/>
	</g>
</g>
<g>
	<path class="st2" d="M374.4,964.1l4.5-12.7c7.2-20.2,22-49.6,34.2-69.2c19.6-31.6,43.2-62.3,45.4-79.6c1.9-15.4-5-22.6-15.9-22.3
		c-22.3,0.5-38.5,29.7-52.5,63.1h-0.5v-52.3c24.4-9.3,35.8-14.9,63.9-14.9c31.3,0,48.8,11.4,48.8,32.9c0,44.8-71.4,70.3-110.4,120.4
		l57-0.3c36.9-0.3,45.4-8.2,53.3-13.5v48L374.4,964.1z"/>
	<path class="st2" d="M590.6,776.3c48.5,0,79.9,43.8,79.9,95.2c-0.3,53.3-42.2,94.7-85.2,94.7c-48.5,0-79.9-43.8-79.9-95
		C505.8,817.6,547.7,776.3,590.6,776.3z M609.2,954.8c19.1,0,26-14.3,26-36.3c0-53.9-27.3-130.8-68.4-130.8c-19.1,0-26,14.3-26,36.3
		C540.8,877.9,568.1,954.8,609.2,954.8z"/>
	<path class="st2" d="M665.7,964.1l4.5-12.7c7.2-20.2,22-49.6,34.2-69.2c19.6-31.6,43.2-62.3,45.4-79.6c1.9-15.4-5-22.6-15.9-22.3
		c-22.3,0.5-38.5,29.7-52.5,63.1h-0.5v-52.3c24.4-9.3,35.8-14.9,63.9-14.9c31.3,0,48.8,11.4,48.8,32.9c0,44.8-71.4,70.3-110.4,120.4
		l57-0.3c36.9-0.3,45.4-8.2,53.3-13.5v48L665.7,964.1z"/>
	<path class="st2" d="M802.9,778.4h104.8l-53.6,54.1c39.5,2.7,81.2,32.4,57.3,82.8c-22.5,47.8-101.6,48.8-101.9,48.8l-1.3-1.3
		c9-1.1,55.4-9.6,67.1-43.5c12.5-36.6-16.2-53.6-56.8-54.9l49.6-51.5h-21.5c-22.8,0-34.8,6.6-43.8,13.3v-47.8L802.9,778.4
		L802.9,778.4z"/>
</g>
<g>
	<g>
		<path class="st3" d="M519.7,36.9v-9.8h1.2v8.7h4.5v1.1H519.7z"/>
		<path class="st3" d="M530.4,37c-2.8,0-4.7-2.1-4.7-5s1.9-5,4.7-5s4.7,2.1,4.7,5C535.1,34.9,533.2,37,530.4,37z M530.4,35.9
			c2,0,3.4-1.6,3.4-3.9c0-2.3-1.4-3.9-3.4-3.9S527,29.7,527,32C527,34.2,528.4,35.9,530.4,35.9z"/>
		<path class="st3" d="M536.7,36.9v-9.8h1.2v8.7h4.5v1.1H536.7z"/>
		<path class="st3" d="M547.4,37c-2.8,0-4.7-2.1-4.7-5s1.9-5,4.7-5s4.7,2.1,4.7,5C552.1,34.9,550.2,37,547.4,37z M547.4,35.9
			c2,0,3.4-1.6,3.4-3.9c0-2.3-1.4-3.9-3.4-3.9S544,29.7,544,32C544,34.2,545.4,35.9,547.4,35.9z"/>
		<path class="st3" d="M556.6,27.1h7.6v1.1H561v8.7h-1.2v-8.7h-3.2V27.1z"/>
		<path class="st3" d="M565.4,36.9v-9.8h1.2v7.8l5.3-7.8h1.1v9.8h-1.2v-7.8l-5.3,7.8H565.4z"/>
		<path class="st3" d="M574.9,36.9v-9.8h7.4v9.8h-1.2v-8.7h-5v8.7H574.9z"/>
		<path class="st3" d="M588.4,37c-2.8,0-4.7-2.1-4.7-5s1.9-5,4.7-5s4.7,2.1,4.7,5C593.1,34.9,591.2,37,588.4,37z M588.4,35.9
			c2,0,3.4-1.6,3.4-3.9c0-2.3-1.4-3.9-3.4-3.9S585,29.7,585,32C585,34.2,586.4,35.9,588.4,35.9z"/>
		<path class="st3" d="M594.5,36.9v-9.8h5.7v1.1h-4.5v8.7H594.5z"/>
		<path class="st3" d="M601.5,27.1h3.8c2,0,3.2,1.2,3.2,3s-1.3,3-3.2,3h-2.5v3.8h-1.2L601.5,27.1L601.5,27.1z M602.7,28.2V32h2.4
			c1.3,0,2.1-0.7,2.1-1.9c0-1.2-0.8-1.9-2.1-1.9H602.7z"/>
		<path class="st3" d="M608.2,36.9l3.7-9.8h1.4l3.7,9.8h-1.3l-1-2.6h-4.3l-1,2.6H608.2z M610.8,33.1h3.5l-1.8-4.7L610.8,33.1z"/>
		<path class="st3" d="M623.4,36.3v1.2h-1.2v-1.2c-3-0.1-4.9-1.7-4.9-4.3s1.9-4.2,4.9-4.3v-1.2h1.2v1.2c3,0.1,4.9,1.7,4.9,4.3
			C628.4,34.6,626.4,36.1,623.4,36.3z M622.2,35.2v-6.4c-2.4,0.1-3.7,1.3-3.7,3.2C618.5,33.9,619.8,35.1,622.2,35.2z M623.4,35.2
			c2.4-0.1,3.7-1.3,3.7-3.2c0-1.9-1.3-3.1-3.7-3.2V35.2z"/>
		<path class="st3" d="M629.7,36.9v-9.8h1.2v7.8l5.3-7.8h1.1v9.8h-1.2v-7.8l-5.3,7.8H629.7z"/>
		<path class="st3" d="M639.2,36.9v-9.8h1.2v4.3h1.8l3.2-4.3h1.4l-3.6,4.7l3.8,5.1h-1.5l-3.4-4.4h-1.8v4.4H639.2z"/>
		<path class="st3" d="M647.8,36.9l3.7-9.8h1.4l3.7,9.8h-1.3l-1-2.6H650l-1,2.6H647.8z M650.5,33.1h3.5l-1.8-4.7L650.5,33.1z"/>
	</g>
</g>
<g>
	<path class="st1" d="M1016.5,914.3c0.7-1.5,1.2-3.6,1.4-6.6l0.4-5.2l-0.6-1.5h1.4l4.4,11.2l4.1-11.2h1.8l-0.8,1.3l0.5,8
		c0.1,1.9,0.5,3.1,0.9,3.9h-2.8c0.6-1,0.7-2.6,0.6-3.9l-0.4-7.1c-0.4,0.8-1.3,2.6-2,4.4l-1.9,5.2v1.4h-0.6l-4.4-11.4l-0.3,4.8
		c-0.2,3,0,5.1,0.6,6.6L1016.5,914.3L1016.5,914.3z"/>
	<path class="st1" d="M1038.1,914.3c0-1.1,0-1.7-0.9-4.1l-0.9-2.4h-3.3c-0.4,1.5-0.7,3.2-0.7,5.1c0,0.5,0,1,0.1,1.5h-2.1
		c0.5-0.9,0.9-2.1,1.2-3.2c1.7-5.8,2.7-7.6,3-8.1V901h0.6l3,7.9c1.1,3,1.9,4.5,2.6,5.4L1038.1,914.3L1038.1,914.3z M1036.3,907.5
		l-1.6-4.4c-0.2,0.5-1,2.1-1.6,4.4H1036.3z"/>
	<path class="st1" d="M1039.3,903.1l0.2-2.1h8.8l0.2,2.1l0,0c-0.8-1-1.6-1.9-2.6-1.9s-1.3,0.5-1.3,1.7v7.5c0,2,0.4,3.3,0.9,3.9h-2.9
		c0.5-0.6,0.9-1.9,0.9-3.9v-7.5c0-1.2-0.4-1.7-1.3-1.7C1040.9,901.2,1040.1,902,1039.3,903.1L1039.3,903.1z"/>
	<path class="st1" d="M1048.7,914.3c0.5-0.6,0.9-1.9,0.9-3.9V905c0-2-0.4-3.3-0.9-3.9h7.2l0.1,2l0,0c-0.8-1-2.4-1.8-3.6-1.8
		c-0.9,0-1.7,0.5-1.7,1.7c0,1.4,1,2.5,3.3,2.5h1.1v1.7l0,0c-1.1-0.8-2.2-1.5-3-1.9c-0.5-0.2-0.8-0.3-1.3-0.4v9.2
		c2.1-0.2,4.8-0.6,5.8-1.8l-0.1,2H1048.7L1048.7,914.3z"/>
	<path class="st1" d="M1056.8,914.3c0.5-0.6,0.9-1.9,0.9-3.9V905c0-2-0.4-3.3-0.9-3.9h4.4c2.7,0,4.3,0.6,4.3,2.2
		c0,1.5-1.8,2.3-3.2,3.3l1.4,3.1c0.7,1.5,1.7,3.4,2.5,4.7h-2.4c0-0.8-0.6-2.9-1.2-4.3l-1.3-2.7c-2,1.9-2.7,4.9-1.6,7L1056.8,914.3
		L1056.8,914.3z M1061.4,906.9c1-0.9,2.7-2.4,2.7-3.8c0-1.1-0.8-2-3.2-2c-1.4,0-2,0.4-2.1,1.7c-0.3,3.5-0.6,7-1,10.5
		C1059,909.6,1060.2,908,1061.4,906.9z"/>
	<path class="st1" d="M1066.6,914.3c0.3-0.4,0.9-1.8,0.9-5.4v-6.4l-0.9-1.5h1.5l7.1,11.5v-6.1c0-3.6-0.7-5-1.1-5.4h2.1
		c-0.3,0.4-0.9,1.8-0.9,5.4v7.9h-0.7l-7-11.4v6.1c0,3.6,0.7,5,1.1,5.4L1066.6,914.3L1066.6,914.3z"/>
	<path class="st1" d="M1076.7,914.3c0.5-0.6,0.7-1.9,0.7-3.9V905c0-2-0.2-3.3-0.7-3.9h2.6c-0.5,0.6-0.7,1.9-0.7,3.9v5.4
		c0,2,0.2,3.3,0.7,3.9L1076.7,914.3L1076.7,914.3z"/>
	<path class="st1" d="M1079.4,903.1l0.2-2.1h8.8l0.2,2.1l0,0c-0.8-1-1.6-1.9-2.6-1.9s-1.3,0.5-1.3,1.7v7.5c0,2,0.4,3.3,0.9,3.9h-2.9
		c0.5-0.6,0.9-1.9,0.9-3.9v-7.5c0-1.2-0.4-1.7-1.3-1.7C1081,901.2,1080.2,902,1079.4,903.1L1079.4,903.1z"/>
	<path class="st1" d="M1091.1,901c0,0-0.1,0.2-0.1,0.5s0.1,0.7,0.3,1.2l3.2,7c0.2-0.5,1.5-3.1,2.1-4.8c0.5-1.5,0.7-2.5,0.7-3.1
		c0-0.4-0.1-0.7-0.2-0.8h2.2c-0.4,0.4-0.9,0.6-2.2,3.6c-1.5,3.3-2.3,5.1-2.5,5.4v0.3c0,2,0.4,3.3,0.9,3.9h-3
		c0.5-0.6,0.9-1.9,0.9-3.8l-3.7-8c-0.3-0.6-0.6-1.2-1-1.5L1091.1,901L1091.1,901z"/>
	<path class="st1" d="M1023.6,919c1.7,0,3.4,0.6,4.8,1.5v3.2l0,0c-0.8-2.8-2.8-4.4-5.5-4.4c-3.1,0-5,2.4-5,5.7
		c0,3.5,2.5,6.7,6.3,6.7c1.6,0,4.1-1,5.1-3.3h0.1c-0.6,1.6-2.6,4.2-6,4.2c-3.7,0-6.8-3-6.8-6.7C1016.5,922.1,1019.7,919,1023.6,919z
		"/>
	<path class="st1" d="M1029.5,932.5c0.5-0.6,0.9-1.9,0.9-3.9v-5.4c0-2-0.4-3.3-0.9-3.9h2.9c-0.5,0.6-0.9,1.9-0.9,3.9v9.1
		c2.1-0.2,4.7-0.6,5.8-1.8l-0.1,2L1029.5,932.5L1029.5,932.5z"/>
	<path class="st1" d="M1043.5,932.6c-3.7,0-6.6-3-6.6-6.9c0-3.8,2.9-6.7,6.5-6.7c3.7,0,6.6,2.9,6.6,6.8
		C1049.9,929.7,1047,932.6,1043.5,932.6z M1042.4,919.4c-2.7,0-4.4,2.4-4.4,5.3c0,3.8,2.9,7.4,6.4,7.4c2.7,0,4.4-2.4,4.4-5.3
		C1048.8,923.1,1045.8,919.4,1042.4,919.4z"/>
	<path class="st1" d="M1049.5,921.3l0.2-2.1h8.8l0.2,2.1l0,0c-0.8-1-1.6-1.9-2.6-1.9s-1.3,0.5-1.3,1.7v7.5c0,2,0.4,3.3,0.9,3.9h-2.9
		c0.5-0.6,0.9-1.9,0.9-3.9V921c0-1.2-0.4-1.7-1.3-1.7C1051,919.4,1050.3,920.3,1049.5,921.3L1049.5,921.3z"/>
	<path class="st1" d="M1068.1,928.5c0,2,0.4,3.3,0.9,3.9h-2.9c0.5-0.6,0.9-1.9,0.9-3.9v-3.7h-6v3.7c0,2,0.4,3.3,0.9,3.9h-2.9
		c0.5-0.6,0.9-1.9,0.9-3.9v-5.4c0-2-0.4-3.3-0.9-3.9h2.9c-0.5,0.6-0.9,1.9-0.9,3.9v1.5h6v-1.5c0-2-0.4-3.3-0.9-3.9h2.9
		c-0.5,0.6-0.9,1.9-0.9,3.9V928.5z"/>
	<path class="st1" d="M1069.5,932.5c0.5-0.6,0.9-1.9,0.9-3.9v-5.4c0-2-0.4-3.3-0.9-3.9h7.2l0.1,2l0,0c-0.8-1-2.4-1.8-3.6-1.8
		c-1,0-1.7,0.5-1.7,1.7c0,1.4,1,2.5,3.3,2.5h1.1v1.7l0,0c-1.1-0.8-2.2-1.5-3-1.9c-0.5-0.2-0.8-0.3-1.3-0.4v9.2
		c2.1-0.2,4.8-0.6,5.8-1.8l-0.1,2L1069.5,932.5L1069.5,932.5z"/>
	<path class="st1" d="M1077.5,927.2L1077.5,927.2c0.9,3.8,2.4,5.2,4.9,5.2c1.5,0,3-0.7,3-2.5c0-1.9-1.9-2.8-3.7-3.6
		c-1.9-0.9-3.9-1.9-3.9-4c0-2,1.9-3.2,4.1-3.2c1.9,0,2.8,0.3,3.6,0.7l0.4,3.6l0,0c-0.7-2.3-2.5-4.1-4.3-4.1c-1.4,0-2.8,1-2.8,2.5
		c0,1.6,1.7,2.4,3.4,3.2c2,0.9,4.2,2,4.2,4.4c0,2-1.7,3.3-4.5,3.3c-1.9,0-3.2-0.4-4.1-0.8L1077.5,927.2z"/>
	<path class="st1" d="M1091.2,932.5c0.5-0.6,0.9-1.9,0.9-3.9v-5.4c0-2-0.4-3.3-0.9-3.9h7.2l0.1,2l0,0c-0.8-1-2.4-1.8-3.6-1.8
		c-0.9,0-1.7,0.5-1.7,1.7c0,1.4,1,2.5,3.3,2.5h1.1v1.7l0,0c-1.1-0.8-2.2-1.5-3-1.9c-0.5-0.2-0.8-0.3-1.3-0.4v5.5
		c0,2,0.4,3.3,0.9,3.9L1091.2,932.5L1091.2,932.5z"/>
	<path class="st1" d="M1105,932.6c-3.7,0-6.6-3-6.6-6.9c0-3.8,2.9-6.7,6.5-6.7c3.7,0,6.6,2.9,6.6,6.8
		C1111.5,929.7,1108.6,932.6,1105,932.6z M1103.9,919.4c-2.7,0-4.4,2.4-4.4,5.3c0,3.8,2.9,7.4,6.4,7.4c2.7,0,4.4-2.4,4.4-5.3
		C1110.3,923.1,1107.4,919.4,1103.9,919.4z"/>
	<path class="st1" d="M1111.8,932.5c0.5-0.6,0.9-1.9,0.9-3.9v-5.4c0-2-0.4-3.3-0.9-3.9h4.4c2.7,0,4.3,0.6,4.3,2.2
		c0,1.5-1.8,2.3-3.2,3.3l1.4,3.1c0.7,1.5,1.7,3.4,2.5,4.7h-2.4c0-0.8-0.6-2.9-1.2-4.3l-1.3-2.7c-2,1.9-2.7,4.9-1.6,7L1111.8,932.5
		L1111.8,932.5z M1116.3,925.2c1-0.9,2.7-2.4,2.7-3.8c0-1.1-0.8-2-3.2-2c-1.4,0-2,0.4-2.1,1.7c-0.3,3.5-0.6,7-1,10.5
		C1113.9,927.8,1115.2,926.2,1116.3,925.2z"/>
	<path class="st1" d="M1016.5,950.7c0.7-1.5,1.2-3.6,1.4-6.6l0.4-5.2l-0.6-1.5h1.4l4.4,11.2l4.1-11.2h1.8l-0.8,1.3l0.5,8
		c0.1,1.9,0.5,3.1,0.9,3.9h-2.8c0.6-1,0.7-2.6,0.6-3.9l-0.4-7.1c-0.4,0.8-1.3,2.6-2,4.4l-1.9,5.2v1.4h-0.6l-4.4-11.4l-0.3,4.8
		c-0.2,3,0,5.1,0.6,6.6L1016.5,950.7L1016.5,950.7z"/>
	<path class="st1" d="M1036.8,950.9c-3.7,0-6.6-3-6.6-6.9c0-3.8,2.9-6.7,6.5-6.7c3.7,0,6.6,2.9,6.6,6.8
		C1043.3,947.9,1040.4,950.9,1036.8,950.9z M1035.7,937.7c-2.7,0-4.4,2.4-4.4,5.3c0,3.8,2.9,7.4,6.4,7.4c2.7,0,4.4-2.4,4.4-5.3
		C1042.1,941.3,1039.2,937.7,1035.7,937.7z"/>
	<path class="st1" d="M1043.3,950.7c0.7-1.5,1.2-3.6,1.4-6.6l0.4-5.2l-0.6-1.5h1.4l4.4,11.2l4.1-11.2h1.8l-0.8,1.3l0.5,8
		c0.1,1.9,0.5,3.1,0.9,3.9h-2.8c0.6-1,0.7-2.6,0.6-3.9l-0.4-7.1c-0.4,0.8-1.3,2.6-2,4.4l-1.9,5.2v1.4h-0.6l-4.4-11.4l-0.3,4.8
		c-0.2,3,0,5.1,0.6,6.6L1043.3,950.7L1043.3,950.7z"/>
	<path class="st1" d="M1057.2,945.4L1057.2,945.4c0.9,3.8,2.4,5.2,4.9,5.2c1.5,0,3-0.7,3-2.5c0-1.9-1.9-2.8-3.7-3.6
		c-1.9-0.9-3.9-1.9-3.9-4c0-2,1.9-3.2,4.1-3.2c1.9,0,2.8,0.3,3.6,0.7l0.4,3.6l0,0c-0.7-2.3-2.5-4.1-4.3-4.1c-1.4,0-2.8,1-2.8,2.5
		c0,1.6,1.7,2.4,3.4,3.2c2,0.9,4.2,2,4.2,4.4c0,2-1.7,3.3-4.5,3.3c-1.9,0-3.2-0.4-4.1-0.8L1057.2,945.4z"/>
	<path class="st1" d="M1016.3,958.4c1.5-0.6,2.5-1.4,3.4-2.9v9.5c0,2,0.4,3.3,0.9,3.9h-2.9c0.5-0.6,0.9-1.9,0.9-3.9v-6.5
		c0-0.4-0.1-0.5-0.2-0.5c-0.1,0-0.1,0-0.2,0l-1.7,0.6L1016.3,958.4z"/>
	<path class="st1" d="M1024,961.3c-1-0.6-1.7-1.5-1.7-2.9c0-1.7,1.4-3,3.2-3c1.6,0,3.2,1,3.2,2.8c0,1.4-1.2,2.4-2.2,2.9
		c1.7,0.8,3.5,1.7,3.5,4c0,1.9-1.4,3.9-4.6,3.9c-2.2,0.1-4.7-1.1-4.7-3.7C1020.8,962.6,1023.4,961.5,1024,961.3z M1025.9,968.8
		c2.2,0,3.2-1.4,3.2-2.8c0.1-1.8-1.3-2.8-2.9-3.5c-0.7-0.3-1.4-0.7-2.1-1.1c-1,0.2-2.2,1.7-2.1,3.5
		C1022.3,967.3,1024.1,968.8,1025.9,968.8z M1026.3,961c1-0.7,1.3-1.8,1.3-2.5c0-1.4-1-2.8-2.5-2.8c-1,0-2.3,0.9-2.3,2.3
		C1022.8,959.6,1024.5,960.3,1026.3,961z"/>
	<path class="st1" d="M1034.7,971.8c1.5-0.5,3.1-1.5,4.2-3.3l-2.6-6.4c-0.7-1.8-1.3-2.6-1.5-2.7v-0.1h2.4v0.1
		c-0.1,0-0.2,0.2-0.2,0.6c0,0.3,0.1,0.8,0.3,1.4l2.3,5.6l1.9-4.5c0.2-0.5,0.3-1.1,0.3-1.6c0-0.6-0.1-1.2-0.2-1.4v-0.1h1.9v0.1
		c-0.4,0.4-0.9,1.1-1.9,3.5l-1.5,3.7c-2,4.8-2.8,5.5-5.2,6.9v-1.8H1034.7z"/>
	<path class="st1" d="M1047.7,959.3c2.2,0,3.7,1.5,3.7,3.6h-7.3c-0.1,0.3-0.1,0.6-0.1,1c0,2.4,1.8,4,3.9,4c2.3,0,3.5-1.4,4.1-3.2
		c0.6-1.7,1.7-2.9,3.7-3.8c-0.9,0.6-2.6,2.2-2.6,4.3c0,1.9,1,3.1,2.7,3.1c0.9,0,1.9-0.3,2.4-1.2c-0.9-2.6-2-5.9-2.5-6.6
		c-0.5-0.8-1.4-0.9-2.2-0.7l0,0c0.4-0.3,1.1-0.5,1.7-0.5s1.4,0.2,2,1.4c0.4,0.9,2.3,6.1,2.4,6.3c0.4,1.1,0.7,1.6,1.1,1.9h-1.8
		l-0.6-1.7c-0.7,1.1-1.6,1.8-3.2,1.8c-2.1,0-3.5-1.5-3.3-3.7c-0.5,2-2,3.7-4.3,3.7c-2.6,0-4.8-2.1-4.8-4.8
		C1042.8,961.4,1045,959.3,1047.7,959.3z M1047.2,962.7c2.1,0,2.6-0.8,2.6-1.6c0-1-1-1.6-2.3-1.6c-1.6,0-3.1,1.2-3.4,3.2
		L1047.2,962.7L1047.2,962.7z"/>
	<path class="st1" d="M1060.6,960.3l2-1v3.5c0.3-2.2,1.7-3.2,3.9-3.5l-0.3,1.4c-1.9,0-3.6,1.2-3.6,2.9v2.1c0,1.7,0.4,2.9,0.9,3.3
		h-2.1l0.1-5.7C1061.5,961.8,1061.1,960.8,1060.6,960.3L1060.6,960.3z"/>
	<path class="st1" d="M1070,969.1c-1.4,0-2.4-0.3-3.2-0.6l-0.2-3l0,0c1.1,2.8,2.4,3.3,3.4,3.3c1.4,0,2.4-0.7,2.3-1.8
		c0-1.2-1.4-1.7-2.8-2.4c-1.5-0.7-2.9-1.4-3-2.9c-0.1-1.6,1.3-2.5,3.5-2.5c1.2,0,2,0.3,2.7,0.6l0.2,2.7l0,0
		c-0.8-1.8-1.5-3.1-3.2-3.1c-1.1,0-2.2,0.6-2.1,1.7c0.1,1.2,1.3,1.6,2.6,2.2c1.6,0.8,3.1,1.4,3.3,2.9
		C1073.8,968,1072,969.1,1070,969.1z"/>
</g>
<g>
	<path class="st1" d="M1264.8,914.3c0.5-1.2,1-3.6,1.2-6.3l0.3-4.4l-1-2.6h3.4l4,10.1l3.6-10.1h3.4c-0.3,0.3-0.8,0.9-1.1,1.5
		l0.4,7.8c0.1,2.1,0.5,3.1,0.9,3.9h-4.6c0.6-0.8,0.8-2.3,0.7-3.9l-0.3-5.3c-0.7,1.1-1.5,2.4-2,3.8l-1,3v2.5h-2.1l-4-10.1l-0.2,3.1
		c-0.2,3.9,1.1,6.2,1.7,7H1264.8z"/>
	<path class="st1" d="M1287.2,914.3c0-1.1,0-1.6-0.9-4.1l-0.9-2.4h-2.1c-0.1,1-0.2,2.1-0.2,3.6c0,1.1,0.2,2.5,0.3,2.9h-3.5
		c0.5-0.9,1-2.1,1.3-3.2c1-3.5,2.1-5.8,2.7-7.1v-3h2l3.1,7.9c1.1,2.9,1.9,4.5,2.6,5.4L1287.2,914.3L1287.2,914.3z M1285.3,907.5
		l-1.2-3.2c-0.4,0.9-0.6,1.9-0.8,3.2H1285.3z"/>
	<path class="st1" d="M1290.4,904.2l0.4-3.2h9.9l0.4,3.2l0,0c-1-1.7-2.1-2.8-2.8-2.9c-0.7-0.1-1,0.2-1,1.3v7.8c0,2,0.4,3.3,0.9,3.9
		h-4.8c0.5-0.6,0.9-1.9,0.9-3.9v-7.8c0-1.1-0.3-1.4-1-1.3C1292.3,901.4,1291.2,902.9,1290.4,904.2L1290.4,904.2z"/>
	<path class="st1" d="M1301.1,914.3c0.5-0.6,0.9-1.9,0.9-3.9V905c0-2-0.4-3.3-0.9-3.9h9l0.1,3.2l0,0c-0.7-1.5-1.9-2.9-3.6-2.9
		c-1,0-1.7,0.7-1.7,1.8s0.6,2.1,2.7,2.1h1.6v2.9l0,0c-1.5-1.6-2.3-2.6-3.3-2.9c-0.3-0.1-0.7-0.2-0.9-0.2v9.1
		c2.1-0.2,4.7-1.8,5.8-3.2l-0.1,3.5h-9.6V914.3z"/>
	<path class="st1" d="M1311.3,914.3c0.5-0.6,0.9-1.9,0.9-3.9V905c0-2-0.4-3.3-0.9-3.9h5.7c2.3,0,4.1,0.5,4.1,2.2
		c0,1.4-1.3,2-2.7,2.8l1.7,3.6c0.7,1.5,1.7,3.4,2.5,4.7h-4.5c0-0.8-0.6-2.9-1.3-4.2l-0.9-1.8c-0.9,1.7-0.6,4.3,0.3,6.1h-4.9
		L1311.3,914.3L1311.3,914.3z M1316.1,907.5c1.3-1.6,1.9-2.9,1.9-4.2c0-1.2-0.4-2.1-1.6-2.1c-0.7,0-1.2,0.5-1.4,1.7
		c-0.6,3.3-1.4,6.6-2.1,9.9C1313.6,910.7,1315.2,908.5,1316.1,907.5z"/>
	<path class="st1" d="M1322.8,914.3c0.5-0.9,1.2-3,1.2-6.3v-5.1l-1.2-1.8h3.7l5.9,9v-2.7c0-3.3-0.8-5.5-1.3-6.3h3
		c-0.6,0.9-1.3,3-1.3,6.3v7h-1.4c-0.9-1.9-4.3-6.9-7-11.1v4.7c0,3.3,1,5.5,1.7,6.3L1322.8,914.3L1322.8,914.3z"/>
	<path class="st1" d="M1334.3,914.3c0.5-0.6,0.9-1.9,0.9-3.9V905c0-2-0.4-3.3-0.9-3.9h4.8c-0.5,0.6-0.9,1.9-0.9,3.9v5.4
		c0,2,0.4,3.3,0.9,3.9L1334.3,914.3L1334.3,914.3z"/>
	<path class="st1" d="M1339.2,904.2l0.4-3.2h9.9l0.4,3.2l0,0c-1-1.7-2.1-2.8-2.8-2.9c-0.7-0.1-1,0.2-1,1.3v7.8c0,2,0.4,3.3,0.9,3.9
		h-4.8c0.5-0.6,0.9-1.9,0.9-3.9v-7.8c0-1.1-0.3-1.4-1-1.3C1341.1,901.4,1340,902.9,1339.2,904.2L1339.2,904.2z"/>
	<path class="st1" d="M1354.1,901c0,0.1-0.1,0.3-0.1,0.5c0,0.3,0.1,0.7,0.3,1.2l3.1,6.5c0.4-0.9,1.2-2.9,1.7-4.4
		c0.3-0.9,0.5-1.9,0.5-2.7c0-0.5,0-0.9-0.2-1.2h2.5c-0.4,0.4-1.1,1.2-2.2,3.6l-2.2,5v0.8c0,2,0.3,3.3,0.8,3.9h-4.6
		c0.5-0.6,0.8-1.9,0.8-3.8l-3.8-8c-0.3-0.6-0.6-1.2-1-1.5h4.4L1354.1,901L1354.1,901z"/>
	<path class="st1" d="M1272.4,919c2,0,3.8,0.6,5.2,1.5v4.9l0,0c-0.9-2.8-3.2-5.9-6.1-5.9c-2.4,0-3.6,1.9-3.6,4.5
		c0,4,2.9,6.7,6.5,6.7c1.1,0,3.1-0.4,4.1-2.6h0.1c-0.8,2.1-2.7,4.6-6.2,4.6c-4.1,0-7.3-2.8-7.3-6.8
		C1264.9,921.8,1268.2,919,1272.4,919z"/>
	<path class="st1" d="M1278.7,932.5c0.5-0.6,0.9-1.9,0.9-3.9v-5.4c0-2-0.4-3.3-0.9-3.9h4.8c-0.5,0.6-0.9,1.9-0.9,3.9v9.1
		c2.1-0.2,4.7-1.8,5.8-3.2l-0.1,3.5L1278.7,932.5L1278.7,932.5z"/>
	<path class="st1" d="M1295.2,932.6c-3.8,0-6.8-3-6.8-6.8c0-3.7,3-6.8,6.8-6.8s6.8,3,6.8,6.8S1298.9,932.6,1295.2,932.6z
		 M1293.5,919.6c-1.7-0.1-2.4,1.6-2.5,3.4c-0.1,3.6,2.7,8.9,5.8,9c1.6,0.1,2.4-1.5,2.5-3.4C1299.5,925.1,1296.6,919.8,1293.5,919.6z
		"/>
	<path class="st1" d="M1301.9,922.4l0.4-3.2h9.9l0.4,3.2l0,0c-1-1.7-2.1-2.8-2.8-2.9c-0.7-0.1-1,0.2-1,1.3v7.8c0,2,0.4,3.3,0.9,3.9
		h-4.8c0.5-0.6,0.9-1.9,0.9-3.9v-7.8c0-1.1-0.3-1.4-1-1.3C1303.8,919.6,1302.7,921.1,1301.9,922.4L1301.9,922.4z"/>
	<path class="st1" d="M1323.8,928.5c0,2,0.4,3.3,0.9,3.9h-4.8c0.5-0.6,0.9-1.9,0.9-3.9v-3.7h-4.3v3.7c0,2,0.4,3.3,0.9,3.9h-4.8
		c0.5-0.6,0.9-1.9,0.9-3.9v-5.4c0-2-0.4-3.3-0.9-3.9h4.8c-0.5,0.6-0.9,1.9-0.9,3.9v1.5h4.3v-1.5c0-2-0.4-3.3-0.9-3.9h4.8
		c-0.5,0.6-0.9,1.9-0.9,3.9V928.5z"/>
	<path class="st1" d="M1325.3,932.5c0.5-0.6,0.9-1.9,0.9-3.9v-5.4c0-2-0.4-3.3-0.9-3.9h9l0.1,3.2l0,0c-0.7-1.5-1.9-2.9-3.6-2.9
		c-1,0-1.7,0.7-1.7,1.8s0.6,2.1,2.7,2.1h1.6v2.9l0,0c-1.5-1.6-2.3-2.6-3.3-2.9c-0.3-0.1-0.7-0.2-0.9-0.2v9.1
		c2.1-0.2,4.7-1.8,5.8-3.2l-0.1,3.5h-9.6V932.5z"/>
	<path class="st1" d="M1335.5,926.7L1335.5,926.7c1.9,3.1,4.3,5.4,6.4,5.5c1.1,0.1,1.9-0.6,1.9-1.7c0-1.5-1.9-2.5-4-3.6
		c-1.9-1-3.8-2.1-3.8-4.4c0-2.4,2.1-3.5,4.6-3.5c1.9,0,3.3,0.3,4.1,0.7l0.4,4.1l0,0c-1.8-2.6-3.8-4.4-5.5-4.4c-0.9,0-2,0.4-1.9,1.5
		c0.1,1,0.9,1.6,3.6,2.9c3.2,1.6,4.4,2.9,4.4,5c0,2.3-1.9,3.9-4.4,3.9s-4.4-0.4-5.4-0.8L1335.5,926.7z"/>
	<path class="st1" d="M1350.2,932.5c0.5-0.6,0.9-1.9,0.9-3.9v-5.4c0-2-0.4-3.3-0.9-3.9h9l0.1,3.1l0,0c-0.7-1.5-1.9-2.9-3.6-2.9
		c-1,0-1.7,0.7-1.7,1.8s0.6,2.1,2.7,2.1h1.6v2.9l0,0c-1.5-1.6-2.3-2.6-3.3-2.9c-0.3-0.1-0.7-0.2-1-0.2v5.5c0,2,0.4,3.3,0.9,3.9
		L1350.2,932.5L1350.2,932.5z"/>
	<path class="st1" d="M1366,932.6c-3.8,0-6.8-3-6.8-6.8c0-3.7,3-6.8,6.8-6.8s6.8,3,6.8,6.8S1369.8,932.6,1366,932.6z M1364.4,919.6
		c-1.7-0.1-2.4,1.6-2.5,3.4c-0.1,3.6,2.7,8.9,5.8,9c1.6,0.1,2.4-1.5,2.5-3.4C1370.3,925.1,1367.5,919.8,1364.4,919.6z"/>
	<path class="st1" d="M1373.1,932.5c0.5-0.6,0.9-1.9,0.9-3.9v-5.4c0-2-0.4-3.3-0.9-3.9h5.7c2.3,0,4.1,0.5,4.1,2.2
		c0,1.4-1.3,2-2.7,2.8l1.7,3.6c0.7,1.5,1.7,3.4,2.5,4.7h-4.5c0-0.8-0.6-2.9-1.3-4.2l-0.9-1.8c-0.9,1.7-0.6,4.3,0.3,6.1h-4.9
		L1373.1,932.5L1373.1,932.5z M1377.9,925.7c1.3-1.6,1.9-2.9,1.9-4.2c0-1.2-0.4-2.1-1.6-2.1c-0.7,0-1.2,0.5-1.4,1.7
		c-0.6,3.3-1.4,6.6-2.1,9.9C1375.4,929,1377.1,926.7,1377.9,925.7z"/>
	<path class="st1" d="M1264.8,950.7c0.5-1.2,1-3.6,1.2-6.3l0.3-4.4l-1-2.6h3.4l4,10.1l3.6-10.1h3.4c-0.3,0.3-0.8,0.9-1.1,1.5
		l0.4,7.8c0.1,2.1,0.5,3.1,0.9,3.9h-4.6c0.6-0.8,0.8-2.3,0.7-3.9l-0.3-5.3c-0.7,1.1-1.5,2.4-2,3.8l-1,3v2.5h-2.1l-4-10.1l-0.2,3.1
		c-0.2,3.9,1.1,6.2,1.7,7H1264.8z"/>
	<path class="st1" d="M1286.7,950.9c-3.8,0-6.8-3-6.8-6.8c0-3.7,3-6.8,6.8-6.8s6.8,3,6.8,6.8
		C1293.5,947.8,1290.5,950.9,1286.7,950.9z M1285.1,937.9c-1.7-0.1-2.4,1.6-2.5,3.4c-0.1,3.6,2.7,8.9,5.8,9c1.6,0.1,2.4-1.5,2.5-3.4
		C1291,943.3,1288.2,938,1285.1,937.9z"/>
	<path class="st1" d="M1293.7,950.7c0.5-1.2,1-3.6,1.2-6.3l0.3-4.4l-1-2.6h3.4l4,10.1l3.6-10.1h3.4c-0.3,0.3-0.8,0.9-1.1,1.5
		l0.4,7.8c0.1,2.1,0.5,3.1,0.9,3.9h-4.6c0.6-0.8,0.8-2.3,0.7-3.9l-0.3-5.3c-0.7,1.1-1.5,2.4-2,3.8l-1,3v2.5h-2.1l-4-10.1l-0.2,3.1
		c-0.2,3.9,1.1,6.2,1.7,7H1293.7z"/>
	<path class="st1" d="M1309.1,944.9L1309.1,944.9c1.9,3.1,4.3,5.4,6.4,5.5c1.1,0.1,1.9-0.6,1.9-1.7c0-1.5-1.9-2.5-4-3.6
		c-1.9-1-3.8-2.1-3.8-4.4c0-2.4,2.1-3.5,4.6-3.5c1.9,0,3.3,0.3,4.1,0.7l0.4,4.1l0,0c-1.8-2.6-3.8-4.4-5.5-4.4c-0.9,0-2,0.4-1.9,1.5
		c0.1,1,0.9,1.6,3.6,2.9c3.2,1.6,4.4,2.9,4.4,5c0,2.3-1.9,3.9-4.4,3.9s-4.4-0.4-5.4-0.8L1309.1,944.9z"/>
	<path class="st1" d="M1264.7,959.1c1.6-0.6,4-2.2,5.3-3.6v9.5c0,2,0.4,3.3,0.9,3.9h-4.8c0.5-0.6,0.9-1.9,0.9-3.9v-5.7
		c0-0.4-0.1-0.5-0.3-0.5c-0.2,0-0.4,0.1-0.6,0.2l-1.2,0.4L1264.7,959.1z"/>
	<path class="st1" d="M1273.7,961.6c-0.9-0.9-1.4-1.8-1.4-3.1c0-1.9,1.7-3,3.8-3c1.6,0,3.7,0.8,3.7,2.8c0,1.1-1.1,2-2,2.5
		c2,1.1,3.3,2.3,3.3,4.4c0,1.8-2,4-4.8,4c-2.6,0-5.1-1.2-5.1-3.8C1271.1,963.1,1272.6,962,1273.7,961.6z M1276.9,968.7
		c1.4,0,2.6-0.8,2.6-2c0-1.7-2.1-2.5-3.9-3.7c-0.5-0.3-1-0.7-1.4-1c-0.4,0.5-0.6,1.5-0.6,2.6
		C1273.5,966.7,1275.1,968.7,1276.9,968.7z M1277.3,960.5c0.6-0.7,0.7-1.4,0.7-2c0-1.4-0.9-2.8-2.5-2.8c-0.7,0-1.8,0.3-1.8,1.5
		S1275.2,959.4,1277.3,960.5z"/>
	<path class="st1" d="M1285.5,970.8c2.3,0,3.7-0.2,4.5-1.3l-3-7.3c-0.8-1.9-1.3-2.5-1.5-2.7v-0.1h4.2v0.1c-0.1,0-0.2,0.2-0.2,0.6
		c0,0.3,0.1,0.7,0.3,1.4l2,4.8l1.3-2.5c0.4-0.8,0.6-1.5,0.6-2.2c0-1-0.3-1.8-0.6-2.1v-0.1h2.8v0.1c-0.5,0.6-1.2,1.7-2.1,3.5
		l-3.1,6.2c-0.7,1.5-2.1,4.1-5.1,4.9v-3.3L1285.5,970.8L1285.5,970.8z"/>
	<path class="st1" d="M1300,959.3c1.9,0,3.8,1.1,3.8,3.6h-5.9c0,0.1,0,0.3,0,0.4c0,2.1,1.7,3.5,3.7,3.5c1.4,0,2.5-0.8,2.9-2.2
		c0.4-1.6,1.6-2.8,3.4-3.5c-0.4,0.4-0.8,1.3-0.8,2.9c0,1.7,0.9,3.2,2.4,3.2c0.3,0,0.6-0.1,0.9-0.2c-0.9-2.6-2-5.9-2.6-6.6
		c-0.4-0.5-1-0.6-1.5-0.5v-0.1c0.6-0.4,1.4-0.6,2.1-0.6c1.1,0,2.4,0.5,3,2c0.7,1.7,1.5,4,2.2,5.9c0.3,0.8,0.7,1.4,1,1.7h-3.5
		l-0.5-1.5c-0.5,1.1-1.4,1.7-2.7,1.7c-2,0-3.4-1.4-3.4-3.3c-0.6,1.9-2.2,3.3-4.4,3.3c-2.8,0-5-2.1-5-4.9
		C1295.1,961.3,1297.3,959.3,1300,959.3z M1298.9,962.7c1.8,0,2.6-0.6,2.6-2c0-0.6-0.4-1.2-1.2-1.2c-1.4,0-2.2,1.5-2.4,3.2H1298.9z"
		/>
	<path class="st1" d="M1314.5,961l3.7-1.7v3.7c0.4-2.2,1.6-3.5,4-3.7l-0.6,2.8c-1.3-0.3-3.4,0-3.4,2.1v1.5c0,1.9,0.5,3,0.9,3.3h-3.9
		l0.1-5C1315.4,962,1314.8,961.3,1314.5,961L1314.5,961z"/>
	<path class="st1" d="M1326.6,969.1c-1.8,0-3.3-0.3-4.1-0.6l-0.2-3.5l0,0c1.2,2,2.9,3.7,4.4,3.8c1.1,0.1,1.7-0.3,1.7-1.2
		c-0.1-0.7-1.1-1.3-2.3-1.8c-2.3-1.1-3.6-1.9-3.7-3.7c0-2,1.8-2.9,4-2.8c1.2,0.1,2.4,0.3,3,0.6l0.2,3.1l0,0
		c-0.7-1.9-2.3-3.2-3.7-3.4c-0.9-0.2-1.5,0.2-1.5,0.9c0,0.8,0.7,1.4,2.8,2.3c2.1,0.9,3.2,1.8,3.1,3.5
		C1330.3,968.2,1328.5,969.1,1326.6,969.1z"/>
</g>
<g>
	<path class="st2" d="M1016.3,776.3h3.8c2,0,3.3,1.2,3.3,3c0,1.4-0.8,2.4-2.1,2.8l2.2,4h-1.4l-2.1-3.8h-2.5v3.8h-1.2V776.3z
		 M1017.6,777.5v3.8h2.4c1.3,0,2.1-0.8,2.1-1.9s-0.8-1.9-2.1-1.9L1017.6,777.5L1017.6,777.5z"/>
	<path class="st2" d="M1025,776.3h6.2v1.1h-5v3.1h4.2v1.1h-4.2v3.3h5.2v1.1h-6.4L1025,776.3L1025,776.3z"/>
	<path class="st2" d="M1032,781.2c0-3,1.8-5,4.7-5c2.2,0,3.8,1.3,4.1,3.3h-1.3c-0.3-1.4-1.4-2.2-2.9-2.2c-2.1,0-3.4,1.6-3.4,3.9
		c0,2.3,1.3,3.9,3.4,3.9c1.8,0,3.1-1.1,3.1-2.8V782h-2.9v-1.1h4.1v5.3h-1l-0.1-1.4c-0.4,0.7-1.5,1.5-3.2,1.5
		C1033.9,786.2,1032,784.2,1032,781.2z"/>
	<path class="st2" d="M1042.8,776.3h1.2v5.7c0,2,0.8,3.1,2.5,3.1s2.5-1.1,2.5-3.1v-5.7h1.2v5.6c0,2.8-1.3,4.3-3.8,4.3
		s-3.7-1.5-3.7-4.3v-5.6H1042.8z"/>
	<path class="st2" d="M1052.3,786.1v-9.8h1.2v8.7h4.5v1.1H1052.3z"/>
	<path class="st2" d="M1058.7,786.1l3.7-9.8h1.4l3.7,9.8h-1.3l-1-2.6h-4.3l-1,2.6H1058.7z M1061.4,782.4h3.5l-1.8-4.7L1061.4,782.4z
		"/>
	<path class="st2" d="M1068.8,776.3h3.8c2,0,3.3,1.2,3.3,3c0,1.4-0.8,2.4-2.1,2.8l2.2,4h-1.4l-2.1-3.8h-2.5v3.8h-1.2L1068.8,776.3
		L1068.8,776.3z M1070,777.5v3.8h2.4c1.3,0,2.1-0.8,2.1-1.9s-0.8-1.9-2.1-1.9L1070,777.5L1070,777.5z"/>
</g>
<g>
	<path class="st1" d="M1052.7,881.6c-20.3,0-36.4-16.3-36.4-37.7c0-20.8,15.9-36.9,35.5-36.9c20.3,0,36.4,16.2,36.4,37.5
		C1088.2,865.3,1072.3,881.6,1052.7,881.6z M1046.7,809.2c-14.9,0-24.1,13.1-24.1,29.1c0,20.9,16.1,40.9,35.2,40.9
		c14.9,0,24.1-13.2,24.1-29.1C1081.9,829,1065.8,809.2,1046.7,809.2z"/>
	<path class="st1" d="M1115.5,827.8c14.5,0,26.8,12.2,26.8,27.3c0,15-11.8,26.5-25.9,26.5c-14.5,0-26.8-12.3-26.8-27.3
		S1101.4,827.8,1115.5,827.8z M1119.6,879.9c10.6,0,16-10.1,16-20.5c0-13.8-10.4-29.9-23.4-29.9c-10.6,0-16,10.1-16,20.5
		C1096.3,864.1,1106.8,879.9,1119.6,879.9z"/>
</g>
<g>
	<path class="st1" d="M1302,881.6c-20.6,0-37.3-16.6-37.3-37.3c0-20.5,16.6-37.3,37.2-37.3s37.4,16.7,37.4,37.3
		C1339.3,864.8,1322.6,881.6,1302,881.6z M1292.8,810.3c-9.1-0.3-13.3,8.6-13.7,18.6c-0.7,19.7,14.7,48.9,32,49.4
		c9,0.3,13.3-8.4,13.7-18.5C1325.6,840.2,1310,810.9,1292.8,810.3z"/>
	<path class="st1" d="M1367.5,827.8c14.8,0,26.8,12,26.8,26.9s-11.9,26.9-26.9,26.9c-14.9,0-26.9-11.9-26.9-27
		C1340.4,839.7,1352.5,827.8,1367.5,827.8z M1374.8,879.1c4,0.2,6.2-3.9,6.2-10.2c0-13.8-10.7-38.6-21.3-38.6
		c-3.8,0-5.7,4.1-5.7,9.9C1353.9,853.6,1364.4,878.3,1374.8,879.1z"/>
</g>
<g>
	<path class="st2" d="M1264.7,776.3h3.5c2.1,0,3.2,1,3.2,2.6c0,1.1-0.6,1.8-1.5,2.1c1,0.2,1.9,0.9,1.9,2.3c0,1.7-1.2,2.8-3.6,2.8
		h-3.6L1264.7,776.3L1264.7,776.3z M1265.9,777.4v3.2h2.3c1.3,0,2-0.6,2-1.6s-0.7-1.6-2-1.6L1265.9,777.4L1265.9,777.4z
		 M1265.9,781.7v3.3h2.4c1.5,0,2.3-0.6,2.3-1.6c0-1.1-0.9-1.7-2.3-1.7H1265.9z"/>
	<path class="st2" d="M1277.6,786.2c-2.8,0-4.7-2.1-4.7-5s1.9-5,4.7-5c2.8,0,4.7,2.1,4.7,5S1280.3,786.2,1277.6,786.2z
		 M1277.6,785.1c2,0,3.4-1.6,3.4-3.9c0-2.3-1.4-3.9-3.4-3.9s-3.4,1.6-3.4,3.9S1275.5,785.1,1277.6,785.1z"/>
	<path class="st2" d="M1283.9,786.1v-9.8h1.2v8.7h4.5v1.1H1283.9z"/>
	<path class="st2" d="M1290.7,786.1v-9.8h3.1c3.1,0,4.9,2,4.9,4.9s-1.9,4.9-4.9,4.9L1290.7,786.1L1290.7,786.1z M1292,785h1.9
		c2.4,0,3.7-1.5,3.7-3.8s-1.3-3.8-3.7-3.8h-1.9V785z"/>
</g>
<g>
	<path class="st1" d="M1025.7,225.6c0-1.3,0-2-1.1-4.9l-1.1-2.8h-3.9c-0.4,1.8-0.8,3.8-0.8,6c0,0.6,0,1.1,0.1,1.7h-2.5
		c0.6-1.1,1.1-2.5,1.5-3.8c2.1-6.8,3.2-8.9,3.5-9.6v-2.3h0.7l3.5,9.3c1.3,3.5,2.3,5.3,3,6.4L1025.7,225.6L1025.7,225.6z
		 M1023.5,217.6l-1.9-5.1c-0.3,0.6-1.2,2.5-1.9,5.1H1023.5z"/>
	<path class="st1" d="M1030.2,225.6c0.6-0.8,1-2.3,1-4.6v-6.4c0-2.4-0.4-3.9-1-4.6h5.2c3.2,0,5.1,0.8,5.1,2.6c0,1.1-0.9,1.9-2.4,2.9
		c1.9,0.4,4.2,2.2,4.2,5.1c0,3.2-3,5.1-6.8,5.1h-5.3L1030.2,225.6L1030.2,225.6z M1036.8,215.7c1.1-1,2-2.2,2-3.3
		c0-1.3-0.9-2.3-3.8-2.3c-1.6,0-2.4,0.5-2.6,2c-0.4,4.1-0.7,8.3-1.2,12.4C1032.7,220,1033.6,218.5,1036.8,215.7z M1033.4,225.3h1.8
		c4.5,0,5.3-3.2,5.3-5c0-2.6-1.5-4.2-2.6-4.8c-1.4,1-2,1.5-2.6,2c-1.4,1.3-2.6,3.2-2.6,5C1032.8,223.5,1032.9,224.3,1033.4,225.3z"
		/>
	<path class="st1" d="M1051.9,209.7c2.1,0,4,0.7,5.6,1.7v3.8l0,0c-0.9-3.4-3.2-5.1-6.5-5.1c-3.6,0-5.8,2.8-5.8,6.8
		c0,4.1,2.9,7.9,7.4,7.9c1.9,0,4.9-1.2,6.1-3.9h0.1c-0.6,1.9-3.1,4.9-7.1,4.9c-4.4,0-8-3.6-8-8
		C1043.6,213.3,1047.4,209.7,1051.9,209.7z"/>
	<path class="st1" d="M1060,225.6c0.6-0.8,1-2.3,1-4.6v-6.4c0-2.4-0.4-3.9-1-4.6h3.2c5.5,0,8.9,3.2,8.9,7.8c0,4.7-3.4,7.9-8.8,7.9
		L1060,225.6L1060,225.6z M1062.4,225.3h0.9c3.6,0,7.1-2.7,7.1-7.6c0-5-3.6-7.6-7.2-7.6h-0.8V225.3z"/>
	<path class="st1" d="M1073.6,225.6c0.6-0.8,1-2.3,1-4.6v-6.4c0-2.4-0.4-3.9-1-4.6h8.5l0.1,2.4l0,0c-0.9-1.2-2.8-2.2-4.2-2.2
		c-1.1,0-2,0.6-2,2c0,1.7,1.2,3,3.9,3h1.3v2.1l0,0c-1.3-1-2.6-1.8-3.5-2.2c-0.6-0.2-1-0.4-1.5-0.4v10.8c2.4-0.3,5.6-0.8,6.8-2.2
		l-0.1,2.4h-9.3L1073.6,225.6L1073.6,225.6z"/>
	<path class="st1" d="M1084.2,225.6c0.6-0.8,1-2.3,1-4.6v-6.4c0-2.4-0.4-3.9-1-4.6h8.5l0.1,2.4l0,0c-0.9-1.2-2.8-2.2-4.2-2.2
		c-1.1,0-2,0.6-2,2c0,1.7,1.2,3,3.9,3h1.3v2.1l0,0c-1.3-1-2.6-1.8-3.5-2.2c-0.6-0.2-1-0.4-1.5-0.4v6.4c0,2.3,0.4,3.9,1,4.6h-3.6
		L1084.2,225.6L1084.2,225.6z"/>
	<path class="st1" d="M1102,209.7c2.1,0,4,0.7,5.6,1.7v3.8l0,0c-1.1-3.4-3.3-5.1-6.5-5.1c-3.7,0-5.8,2.8-5.8,6.7
		c0,4.1,3.6,8.1,7.8,8.1c2.3,0,4.9-1.7,4.9-4.2c0-0.8-0.2-1.1-0.9-3.4h1.8v8.2h-0.1c0,0-0.1-1.7-0.5-3.9c-0.5,1.7-2.6,4.1-6.3,4.1
		c-4.5,0-8.1-3.5-8.1-7.9C1093.7,213.2,1097.6,209.7,1102,209.7z"/>
	<path class="st1" d="M1121.8,220.9c0,2.4,0.4,3.9,1,4.6h-3.5c0.6-0.8,1-2.3,1-4.6v-4.4h-7.1v4.4c0,2.4,0.4,3.9,1,4.6h-3.5
		c0.6-0.8,1-2.3,1-4.6v-6.4c0-2.4-0.4-3.9-1-4.6h3.5c-0.6,0.8-1,2.3-1,4.6v1.8h7.1v-1.8c0-2.4-0.4-3.9-1-4.6h3.5
		c-0.6,0.8-1,2.3-1,4.6V220.9z"/>
	<path class="st1" d="M1124.6,225.6c0.6-0.8,0.8-2.3,0.8-4.6v-6.4c0-2.4-0.2-3.9-0.8-4.6h3c-0.6,0.8-0.8,2.3-0.8,4.6v6.4
		c0,2.4,0.2,3.9,0.8,4.6H1124.6z"/>
	<path class="st1" d="M1129,227.7c0,0,1.6-0.9,1.6-5.5v-7.7c0-2.4-0.4-3.9-1-4.6h3.5c-0.6,0.8-1,2.3-1,4.6v7.7
		C1132,226.9,1129.1,227.7,1129,227.7L1129,227.7z"/>
	<path class="st1" d="M1134.6,225.6c0.6-0.8,1-2.3,1-4.6v-6.4c0-2.4-0.4-3.9-1-4.6h3.5c-0.5,0.4-0.9,1.2-1.1,2.5
		c-0.5,4.2-0.9,9.6-1.6,12.7c1.3-4.9,2.7-7.7,4-9.7c1.5-2.3,2.8-3.5,3.3-5.5h3.3c-1,0.4-3.3,1.9-5.4,4.6l2.6,5.6c0.9,1.8,2,4,3,5.5
		h-2.9c0-0.9-0.8-3.4-1.5-5l-2.2-4.7c-1.5,2.3-2.4,4.3-2.4,6.7c0,1.6,0.4,2.4,0.8,3h-3.4L1134.6,225.6L1134.6,225.6z"/>
	<path class="st1" d="M1147.6,225.6c0.6-0.8,1-2.3,1-4.6v-6.4c0-2.4-0.4-3.9-1-4.6h3.5c-0.6,0.8-1,2.3-1,4.6v10.8
		c2.4-0.2,5.6-0.7,6.8-2.1l-0.1,2.4L1147.6,225.6L1147.6,225.6z"/>
	<path class="st1" d="M1158.2,225.6c0.9-1.8,1.5-4.2,1.7-7.8l0.4-6.2l-0.7-1.7h1.7l5.2,13.3l4.9-13.3h2.1l-0.9,1.6l0.6,9.5
		c0.1,2.2,0.6,3.7,1.1,4.6h-3.3c0.7-1.1,0.9-3.1,0.8-4.6l-0.5-8.4c-0.5,1-1.6,3-2.4,5.2l-2.3,6.2v1.7h-0.7l-5.2-13.4l-0.4,5.6
		c-0.2,3.6,0,6,0.7,7.8h-2.8L1158.2,225.6L1158.2,225.6z"/>
	<path class="st1" d="M1175.7,225.6c0.4-0.4,1-2.1,1-6.3v-7.6l-1.1-1.8h1.8l8.4,13.5v-7.2c0-4.2-0.8-5.9-1.3-6.3h2.5
		c-0.4,0.4-1,2.1-1,6.3v9.4h-0.9l-8.2-13.5v7.2c0,4.2,0.8,5.9,1.3,6.3L1175.7,225.6L1175.7,225.6z"/>
	<path class="st1" d="M1024.4,251.3c-4.4,0-7.8-3.5-7.8-8.1c0-4.5,3.4-7.9,7.6-7.9c4.4,0,7.8,3.5,7.8,8.1
		C1032,247.8,1028.6,251.3,1024.4,251.3z M1023.1,235.8c-3.2,0-5.2,2.8-5.2,6.2c0,4.5,3.4,8.8,7.6,8.8c3.2,0,5.2-2.8,5.2-6.2
		C1030.6,240.1,1027.2,235.8,1023.1,235.8z"/>
	<path class="st1" d="M1033.4,251.2c0.6-0.8,1-2.3,1-4.6v-6.4c0-2.4-0.4-3.9-1-4.6h5.2c3.2,0,5.1,0.8,5.1,2.6c0,2.2-3,3.1-4.7,4.6
		c-2.6,2.3-3.5,5.9-2.1,8.5h-3.5V251.2z M1038.8,242.5c1.2-1.1,3.2-2.8,3.2-4.5c0-1.3-0.9-2.3-3.8-2.3c-1.6,0-2.4,0.5-2.5,2
		c-0.4,4.1-0.7,8.3-1.2,12.4C1036,245.6,1037.5,243.8,1038.8,242.5z"/>
	<path class="st1" d="M1052.2,235.3c4.3,0,7.7,3.5,7.7,7.9c0,4.3-2.9,6.2-3.7,6.8v-0.1c0.6-0.5,2.4-1.9,2.4-5.3
		c0-4.4-3.4-8.8-7.5-8.8c-3.2,0-5.1,2.8-5.1,6.2c0,4.5,3,7.9,7,8.7c0.7,0.2,1.4,0.2,2.1,0.2c1,0,1.8-0.2,2.4-0.2
		c1.8,0,3.1,0.9,3.7,1.4l-1.5,1.2c-0.7-1-1.6-2.3-3.5-2.3c-0.9,0-1,0.2-3.4,0.2c-4.7,0-8.1-3.6-8.1-8.2
		C1044.6,238.8,1048,235.3,1052.2,235.3z"/>
	<path class="st1" d="M1061.5,251.2c0.6-0.8,1-2.3,1-4.6v-6.4c0-2.4-0.4-3.9-1-4.6h5.2c3.2,0,5.1,0.8,5.1,2.6s-2.2,2.8-3.8,3.9
		l1.7,3.7c0.8,1.8,2,4,3,5.5h-2.9c0-1-0.7-3.4-1.5-5.1l-1.5-3.2c-2.4,2.3-3.2,5.8-1.9,8.2L1061.5,251.2L1061.5,251.2z M1066.9,242.5
		c1.2-1.1,3.2-2.8,3.2-4.5c0-1.3-0.9-2.3-3.8-2.3c-1.6,0-2.4,0.5-2.5,2c-0.4,4.1-0.7,8.3-1.2,12.4
		C1064.1,245.6,1065.5,243.8,1066.9,242.5z"/>
	<path class="st1" d="M1073.8,244.9L1073.8,244.9c1,4.4,2.8,6.2,5.8,6.2c1.7,0,3.6-0.9,3.6-2.9c0-2.2-2.2-3.2-4.4-4.3
		c-2.3-1.1-4.6-2.2-4.6-4.7c0-2.4,2.2-3.8,4.9-3.8c2.2,0,3.3,0.4,4.3,0.9l0.5,4.3l0,0c-0.8-2.8-2.9-4.9-5.1-4.9
		c-1.7,0-3.3,1.2-3.3,3c0,1.9,1.9,2.8,4.1,3.8c2.4,1.1,4.9,2.3,4.9,5.2c0,2.3-2,3.9-5.4,3.9c-2.2,0-3.7-0.4-4.9-0.9L1073.8,244.9z"
		/>
	<path class="st1" d="M1085.4,237.9l0.3-2.5h10.3l0.3,2.5l0,0c-0.9-1.2-1.8-2.2-3.1-2.2c-1.1,0-1.6,0.5-1.6,1.9v8.9
		c0,2.3,0.4,3.9,1,4.6h-3.5c0.6-0.8,1-2.3,1-4.6v-8.9c0-1.4-0.5-1.9-1.6-1.9C1087.2,235.7,1086.3,236.8,1085.4,237.9L1085.4,237.9z"
		/>
	<path class="st1" d="M1101,235.5c-0.6,0.8-1,2.3-1,4.6v4.5c0,5,2.2,6.1,4,6.1c2.7,0,4.2-2.4,4.2-6.4v-4.2c0-2.4-0.7-3.9-1.6-4.6
		h2.9c-0.6,0.8-1,2.3-1,4.6v4.2c0,3.7-0.9,7-5.2,7c-2.8,0-4.8-2.2-4.8-6.4v-4.8c0-2.4-0.4-3.9-1-4.6L1101,235.5L1101,235.5z"/>
	<path class="st1" d="M1110.9,235.5h2.2c-0.1,0.4-0.1,1.1,0.1,1.7l4.3,11.7c2.7-5.3,3.5-10.4,3.3-13.4h2.3c-0.7,0.9-0.9,2.6-1.5,4.2
		c-1.1,2.9-3.3,8-4.1,9.8v1.7h-0.8L1110.9,235.5z"/>
	<path class="st1" d="M1124.5,235.5h2.2c-0.1,0.4-0.1,1.1,0.1,1.7l4.3,11.7c1-1.9,1.7-3.8,2.2-5.6l-2.9-7.8h2.2
		c-0.1,0.4-0.1,1.1,0.1,1.7l4.3,11.7c2.7-5.3,3.5-10.4,3.3-13.4h2.3c-0.6,0.9-0.9,2.6-1.5,4.2c-1.1,2.9-3.3,8-4.1,9.8v1.7h-0.8
		l-2.7-7.3c-0.9,2.3-1.9,4.6-2.4,5.6v1.7h-0.8L1124.5,235.5z"/>
	<path class="st1" d="M1144.1,251.2c0.6-0.3,1.3-0.9,1.7-1.6l3.7-6l-3.8-6.4c-0.4-0.7-0.9-1.2-1.5-1.6h3.5c-0.2,0.2-0.3,0.5-0.3,0.9
		c0,0.2,0.1,0.5,0.2,0.8l3.4,5.7c0.8-1.5,2.2-4.6,2.5-5.7c0-0.3,0.1-0.6,0.1-0.8c0-0.4,0-0.6-0.1-0.9h3c-0.4,0.2-1.2,0.7-1.8,1.6
		l-3.5,5.9l3.9,6.5c0.5,0.8,1.2,1.4,1.5,1.6h-3.4c0.2-0.2,0.3-0.5,0.3-0.8c0-0.2-0.1-0.5-0.2-0.8l-3.5-5.8c-0.7,1.5-2.3,4.7-2.5,5.8
		c-0.1,0.3-0.1,0.6-0.1,0.9c0,0.3,0,0.6,0.1,0.8L1144.1,251.2L1144.1,251.2z"/>
	<path class="st1" d="M1160.6,235.5c0,0-0.1,0.2-0.1,0.6c0,0.3,0.1,0.8,0.4,1.4l3.8,8.3c0.3-0.5,1.8-3.6,2.5-5.7
		c0.6-1.8,0.8-2.9,0.8-3.6c0-0.5-0.1-0.8-0.2-1h2.6c-0.4,0.5-1,0.8-2.6,4.3c-1.7,3.9-2.7,6-2.9,6.4v0.4c0,2.4,0.4,3.9,1,4.6h-3.5
		c0.6-0.7,1-2.2,1-4.5l-4.3-9.4c-0.3-0.7-0.7-1.4-1.2-1.8H1160.6z"/>
	<path class="st1" d="M1182,247.7l-0.9,3.4h-10.3c0.3-0.3,0.8-0.9,1.7-2.5l6.4-10.9c0.2-0.4,0.3-0.7,0.3-1c0-0.7-0.7-1.1-1.9-1.1
		c-3.1,0-5,2-5.6,3.2l0,0l0.9-3.4h9.6c-0.4,0.3-1,1.2-1.7,2.5l-6,10.3c-0.4,0.7-0.6,1.3-0.6,1.7c0,0.6,0.6,1,1.8,1h0.2
		C1177,250.9,1180.3,250.7,1182,247.7L1182,247.7z"/>
	<path class="st1" d="M1021.1,267.3c-1,0.7-3,2.6-3,5c0,2.2,1.1,3.7,3.2,3.7c1.1,0,2.2-0.4,2.9-1.4c-1-3-2.4-7-2.9-7.8
		c-0.5-0.9-1.7-1.1-2.6-0.8l0,0c0.5-0.4,1.3-0.6,2-0.6s1.7,0.2,2.3,1.7c0.4,1,2.7,7.2,2.8,7.4c0.5,1.3,0.9,1.9,1.3,2.3h-2.1
		l-0.6-1.9c-0.9,1.3-1.9,2.1-3.7,2.1c-2.3,0-3.9-1.5-3.9-3.8C1016.6,270.7,1018.3,268.6,1021.1,267.3z"/>
	<path class="st1" d="M1027.9,262.3l2.4-1.2v6.3c0.8-1.3,2.3-2,3.3-2c2.5,0,4.8,2.2,4.8,5.7c0,4-2.5,5.8-4.8,5.8
		c-1.4,0-2.7-0.8-3.4-1.5l-1.4,1.3l0.1-11C1029,264,1028.6,262.9,1027.9,262.3L1027.9,262.3z M1030.3,275.2c0.5,0.4,1.4,1,2.6,1
		c1.7,0,4-1.4,4-5c0-3.2-1.9-5-4-5c-0.9,0-1.9,0.4-2.6,1.5V275.2z"/>
	<path class="st1" d="M1045.8,265.4c1.6,0,3.2,0.3,4.5,1.1v3.4c-0.7-2.5-2.6-4.3-4.7-4.3c-2.7,0-4.1,2.4-4.1,4.9
		c0,2.9,2.1,4.9,4.8,4.9c2.8,0,4.7-1.8,5.1-4.1l0,0c0,3-2.6,5.5-5.6,5.5c-3.1,0-5.6-2.4-5.6-5.7
		C1040.2,267.9,1042.6,265.4,1045.8,265.4z"/>
	<path class="st1" d="M1057.8,265.4c1.7,0,2.9,1.2,3.4,2v-1.7c0-1.7-0.4-2.8-1.1-3.4v-0.1l2.4-1.2v11.8c0,2.1,0.4,3.4,1.1,3.9h-2.5
		v-1.2c-0.7,0.6-1.6,1.3-3.2,1.3c-2.4,0-4.9-1.9-4.9-5.8C1053,267.6,1055.3,265.4,1057.8,265.4z M1058.7,276.2c1,0,1.9-0.5,2.4-0.9
		l0.1-7.4c-0.5-1-1.7-1.9-2.9-1.9c-1.7,0-3.7,1.6-3.7,5.2C1054.6,274.8,1056.7,276.2,1058.7,276.2z"/>
	<path class="st1" d="M1076.3,271.4c0,3-2.6,5.5-5.7,5.5s-5.6-2.4-5.6-5.7c0-3.4,2.6-5.8,5.8-5.8c2.6,0,4.4,1.7,4.4,4.3h-8.6
		c-0.1,0.4-0.1,0.7-0.1,1.1c0,2.8,2.1,4.7,4.6,4.7C1073.9,275.5,1075.9,273.7,1076.3,271.4L1076.3,271.4z M1066.6,269.4h3.7
		c2.5,0,3.1-0.9,3.1-1.9c0-1.2-1.2-1.9-2.7-1.9C1068.7,265.6,1067,267.1,1066.6,269.4z"/>
	<path class="st1" d="M1076.7,266.2h4.9c-2.6-0.5-4.9-2.3-4.9-4c0-0.8,0.7-1.3,1.5-1.3s1.9,0.5,2.8,0.9c0.6,0.3,1.4,0.6,2.2,0.8v2.1
		c-2.8-2-3.3-3.4-4.3-3.4c-0.4,0-0.6,0.3-0.6,1c0,1.9,2.4,3.9,4.9,3.9v0.2h-2.6v6.5c0,2.1,0.4,3.4,1.1,3.9h-2.5l0.1-7.9
		c0-2-1.2-2.5-2.6-2.5V266.2z"/>
	<path class="st1" d="M1088,276.2c3.2-1.6,4.4-2.9,4.4-5.4c0-2.7-1.7-5-4.3-5c-1.7,0-2.6,1.5-2.6,3.4c0,2.6,1.6,4.7,4.3,5.1
		c-0.5,0.2-1,0.3-1.6,0.3c-2.4,0-4.1-1.9-4.1-4.5c0-2.8,2.2-4.7,4.9-4.7c1.2,0,2.2,0.4,3,0.9l1-2.5h2.1l0,0c-1.2,0.7-1.9,1.3-3,2.5
		c1.2,0.9,1.8,2.2,1.8,3.5c0,2.2-1.1,3.8-3.4,5.2c-1.9,1.2-5.6,3.9-5.6,6.1c0,0.6,0.4,0.9,0.8,0.9c2.2,0,4.7-4.4,8.7-5.7v2.1
		c-3.4,0.4-6.1,3.9-8.9,3.9c-1.1,0-1.9-0.8-1.9-1.9C1083.6,278.4,1085.6,277.4,1088,276.2z"/>
	<path class="st1" d="M1096.1,262.3l2.4-1.2v6c0.9-1.1,1.9-1.7,3.1-1.7c2,0,2.8,1.1,3.4,4.4l0.6,3.5c0.4,2.2,1.1,3,1.6,3.5h-2.5
		l-1.1-6.7c-0.4-2.5-1.1-3.9-2.7-3.9c-1.2,0-2,0.7-2.5,1.2v5.5c0,2.1,0.4,3.4,1.1,3.9h-2.5l0.1-11
		C1097.1,264,1096.7,262.9,1096.1,262.3L1096.1,262.3z"/>
	<path class="st1" d="M1108.1,266.6l2.4-1.2v7.5c0,2.1,0.4,3.4,1.1,3.9h-2.5l0.1-6.7C1109.2,268.3,1108.8,267.2,1108.1,266.6
		L1108.1,266.6z M1109.5,261.6c0.7,0,1.2,0.5,1.2,1.2c0,0.6-0.5,1.2-1.2,1.2s-1.2-0.5-1.2-1.2
		C1108.3,262.2,1108.9,261.6,1109.5,261.6z"/>
	<path class="st1" d="M1112.9,280.3c0.7-0.4,1.1-1.3,1.1-4.6v-5.6c0-1.7-0.4-2.8-1.1-3.4v-0.1l2.4-1.2V276
		C1115.3,278.9,1114.3,279.9,1112.9,280.3L1112.9,280.3z M1114.3,261.6c0.7,0,1.2,0.5,1.2,1.2c0,0.6-0.5,1.2-1.2,1.2
		s-1.2-0.5-1.2-1.2C1113.1,262.2,1113.6,261.6,1114.3,261.6z"/>
	<path class="st1" d="M1117.4,276.8c0.5-0.4,1-1.3,1-3.2l0.2-7.8c0-2.1-0.7-3-1-3.3v-0.1l2.6-1.3l-1.1,14.4c0.6-1.8,1.5-3.8,3.4-6.1
		c1.3-1.6,1.3-2.4,1.3-2.6c0-0.3,0-0.8-0.2-1.2h3.6c-1,0.5-2.6,1.9-3.9,3.4l2.6,5.6c0.4,0.9,1.1,1.8,1.5,2.2h-2.8
		c0.1-1.1-0.2-2.1-0.7-3.2l-1.5-3.4c-0.7,0.9-1.9,2.7-1.9,4.1c0,1,0.3,1.9,0.9,2.5H1117.4z"/>
	<path class="st1" d="M1128.2,262.3l2.4-1.2v11.8c0,2.1,0.4,3.4,1.1,3.9h-2.5l0.1-11C1129.2,264,1128.8,262.9,1128.2,262.3
		L1128.2,262.3z"/>
	<path class="st1" d="M1132.9,266.6l2.4-1.2v1.9c0.9-1.2,2.3-1.9,3.5-1.9c1.4,0,2.2,0.7,2.6,1.9c0.8-1.1,1.9-1.9,3.2-1.9
		c2,0,2.8,1.3,3.4,4.4l0.6,3.5c0.4,2.2,1.1,3,1.6,3.5h-2.5l-1.1-6.7c-0.4-2.7-1.1-3.9-2.7-3.9c-1.1,0-1.8,0.6-2.5,1.3
		c0.2,0.7,0.2,1.4,0.2,2.3v2.9c0,2,0.4,3.7,1,4.1h-2.4l0.1-6.7c0-2.3-0.4-3.9-2.4-3.9c-1.1,0-1.9,0.6-2.7,1.4v5.3
		c0,2.1,0.5,3.4,1.1,3.9h-2.5l0.1-6.7c0-1.7-0.4-2.8-1.1-3.4v-0.1L1132.9,266.6L1132.9,266.6z"/>
	<path class="st1" d="M1151.2,266.6l2.4-1.2v1.7c0.9-1.1,1.9-1.7,3.1-1.7c2,0,2.8,1.1,3.4,4.4l0.6,3.5c0.4,2.2,1.1,3,1.6,3.5h-2.5
		l-1.1-6.7c-0.4-2.5-1.2-4-2.7-3.9c-1.1,0-1.8,0.5-2.5,1.2v5.5c0,2.1,0.4,3.4,1.1,3.9h-2.5l0.1-6.7
		C1152.3,268.3,1151.9,267.2,1151.2,266.6L1151.2,266.6z"/>
	<path class="st1" d="M1022.2,291c3.1,0,5.8,2.6,5.8,5.9c0,3.2-2.5,5.7-5.6,5.7s-5.8-2.6-5.8-5.9S1019.1,291,1022.2,291z
		 M1023.1,302.2c2.3,0,3.4-2.2,3.4-4.4c0-3-2.2-6.4-5-6.4c-2.3,0-3.4,2.2-3.4,4.4C1018,298.8,1020.3,302.2,1023.1,302.2z"/>
	<path class="st1" d="M1029.3,292.2l2.4-1.2v1.9c0.8-1.3,2.2-1.9,3.3-1.9c2.5,0,4.8,2.2,4.8,5.7c0,4-2.5,5.8-4.8,5.8
		c-1.4,0-2.6-0.7-3.3-1.4v1.6c0,1.2,0.4,2.8,1.1,3.3h-2.5l0.1-10.4C1030.4,294,1030,292.8,1029.3,292.2L1029.3,292.2z M1031.7,300.8
		c0.5,0.4,1.4,1,2.6,1c1.7,0,4-1.4,4-5c0-3.2-1.9-5-4-5c-0.9,0-1.9,0.4-2.5,1.4L1031.7,300.8L1031.7,300.8z"/>
	<path class="st1" d="M1046.4,291c1.4,0,2.7,0.6,3.4,1.4l1.4-1.4v11.2c0,2.1,0.5,3.4,1.1,3.9h-2.5v-5.5c-0.8,1.3-2.3,2-3.4,2
		c-2.5,0-4.8-2.2-4.8-5.7C1041.6,292.9,1044.1,291,1046.4,291z M1047.2,301.7c0.9,0,2-0.5,2.6-1.5v-7.5c-0.5-0.4-1.4-0.9-2.6-0.9
		c-1.7,0-4,1.4-4,5C1043.1,299.9,1045,301.7,1047.2,301.7z"/>
	<path class="st1" d="M1053.4,292.2l2.4-1.2v4.2c0.4-2.6,2.1-3.8,4.5-4.2l-0.4,1.6c-2.2,0-4.2,1.4-4.2,3.4v2.4
		c0,2.1,0.4,3.4,1.1,3.9h-2.5l0.1-6.7C1054.5,294,1054.1,292.8,1053.4,292.2L1053.4,292.2z"/>
	<path class="st1" d="M1065.7,302.6c-1.7,0-2.8-0.3-3.7-0.6l-0.2-3.5l0,0c1.3,3.3,2.8,3.9,4,3.9c1.7,0,2.8-0.9,2.8-2.2
		c0-1.4-1.6-1.9-3.3-2.8c-1.7-0.9-3.4-1.6-3.5-3.4c-0.1-1.9,1.6-2.9,4.1-2.9c1.5,0,2.4,0.4,3.1,0.7l0.2,3.2l0,0
		c-0.9-2.1-1.8-3.7-3.8-3.7c-1.3,0-2.6,0.7-2.5,2c0.1,1.4,1.5,1.9,3,2.6c1.9,0.9,3.7,1.7,3.9,3.4
		C1070.1,301.3,1068,302.6,1065.7,302.6z"/>
	<path class="st1" d="M1075.3,291v0.2h-1.6v6.1c0,3.3,0.5,4.9,1.6,5v0.1c-2.4,0-3-2-3-4.8v-6.3h-1.3v-0.1c1.3-0.4,2.4-1.8,2.7-2.8
		h0.1v2.7h1.5L1075.3,291L1075.3,291z"/>
	<path class="st1" d="M1076.4,292.2l2.4-1.2v6.9c0,3,1,3.9,2.6,3.9c1.1,0,2.2-0.6,3-1.5v-4.5c0-1.7-0.3-3-1-3.5v-0.1l2.4-1.2v7.5
		c0,2.1,0.5,3.4,1.1,3.9h-2.5v-1.7c-0.9,1.2-2.5,1.9-3.8,1.9c-2.1,0-3.2-1.2-3.2-4.4v-2.4C1077.4,294.1,1077.1,292.8,1076.4,292.2
		L1076.4,292.2z"/>
	<path class="st1" d="M1087.8,291.2h2.8v0.1c-0.1,0-0.2,0.3-0.2,0.7c0,0.4,0.1,0.9,0.4,1.6l2.7,6.6l1.7-4c0.6-1.4,0.9-2.5,0.9-3.4
		c0-0.6-0.1-1-0.3-1.4v-0.1h2.2v0.1c-0.4,0.4-1.2,1.5-2.3,4.2l-2.2,5.3v1.6h-0.6l-3.3-7.9C1088.7,292.3,1088.1,291.4,1087.8,291.2
		L1087.8,291.2z"/>
	<path class="st1" d="M1099.4,291.2h2.8v0.1c-0.1,0-0.2,0.3-0.2,0.7c0,0.4,0.1,0.9,0.4,1.6l2.7,6.6l1.7-4c0.2-0.4,0.3-0.7,0.4-1.1
		l-0.3-0.6c-0.9-2.1-1.5-3-1.8-3.2v-0.1h2.8v0.1c-0.1,0-0.2,0.3-0.2,0.7c0,0.4,0.1,0.9,0.4,1.6l2.7,6.6l1.7-4
		c0.6-1.4,0.9-2.5,0.9-3.4c0-0.6-0.1-1-0.3-1.4v-0.1h2.2v0.1c-0.4,0.4-1.2,1.5-2.3,4.2l-2.2,5.3v1.6h-0.6l-2.9-6.9l-2.2,5.3v1.6
		h-0.6l-3.3-7.9C1100.3,292.3,1099.7,291.4,1099.4,291.2L1099.4,291.2z"/>
	<path class="st1" d="M1116.6,302.4L1116.6,302.4c0.2-0.2,0.8-0.5,1.3-1.3l2.8-4.2l-2.7-4.5c-0.4-0.6-1-1-1.3-1.1v-0.1h3.1v0.1
		c-0.3,0.3-0.3,0.8,0,1.3l2.1,3.5c0.6-0.8,1.4-2,1.9-3c0.3-0.4,0.4-0.9,0.4-1.3c0-0.3-0.1-0.5-0.2-0.6v-0.1h2.1v0.1
		c-0.3,0.1-0.9,0.6-1.3,1.3l-2.8,3.8l2.8,4.7c0.4,0.7,1.1,1.2,1.4,1.3v0.1h-3v-0.1c0.2-0.4,0.2-0.9-0.2-1.5l-2.2-3.7
		c-0.6,0.9-2,3.3-2.3,4.1c-0.1,0.2-0.1,0.4-0.1,0.5c0,0.3,0.1,0.5,0.2,0.6v0.1L1116.6,302.4L1116.6,302.4z"/>
	<path class="st1" d="M1127.7,305.8c1.8-0.6,3.7-1.8,4.9-3.9l-3.1-7.5c-0.9-2.1-1.5-3-1.8-3.2v-0.1h2.8v0.1c-0.1,0-0.2,0.3-0.2,0.7
		c0,0.4,0.1,0.9,0.4,1.6l2.7,6.6l2.2-5.3c0.3-0.6,0.3-1.3,0.3-1.9c0-0.8-0.2-1.4-0.3-1.7v-0.1h2.2v0.1c-0.5,0.4-1.1,1.3-2.3,4.2
		l-1.8,4.3c-2.4,5.6-3.4,6.5-6.1,8.1v-2L1127.7,305.8L1127.7,305.8z"/>
	<path class="st1" d="M1139.1,302.4l7-11h-2.7c-2,0-3,0.8-3.9,2.9h-0.1l0.5-3.1h8.1l-7,11h2.8c2.6,0,3.2-0.8,4.1-2.9h0.1l-0.5,3.1
		H1139.1z"/>
	<path class="st1" d="M1016.3,315.6c1.8-0.8,3-1.7,4-3.4v11.2c0,2.4,0.4,3.9,1,4.6h-3.4c0.6-0.8,1-2.3,1-4.6v-7.7
		c0-0.4-0.1-0.6-0.3-0.6c-0.1,0-0.1,0-0.2,0l-2,0.6L1016.3,315.6z"/>
	<path class="st1" d="M1022.8,328l0.1-0.7c0.4-2.2,1.8-4.3,3.9-6.3c3.3-3.2,4.7-4.5,4.7-6.4c0-1.3-1.1-2.2-2.5-2.2
		c-2.5,0-4.3,2.1-4.8,4.9h-0.1v-3.8c2.4-0.9,4.2-1.4,6.2-1.4c1.6,0,2.9,0.9,2.9,2.6c0,4.3-8.2,7.6-9.7,11.8h6.3
		c1.6,0,2.4-0.1,3.2-0.6v2h-10.2L1022.8,328L1022.8,328z"/>
	<path class="st1" d="M1034.8,312.3h7.6l-4.8,4.6c3.3,0.2,7.3,2.6,5.2,6.8c-1.7,3.4-7.4,4.3-7.4,4.3l-0.1-0.1
		c2.1-0.6,5.8-2.4,6.4-5.2c0.6-3-2.2-4.5-5.6-4.7l4.5-4.3h-2.4c-2,0-2.6,0.2-3.4,0.6L1034.8,312.3L1034.8,312.3z"/>
	<path class="st1" d="M1055.3,323.3h-3.6v0.6c0,3,1,4,1,4h-3.3c0,0,1-1,1-3.8v-0.8h-5.8v-0.2c1.8-2.6,5.2-9.1,5.2-10.8h2.2
		c-1.3,2.5-3,5.9-7.1,10.8h5.4v-3.4c0.5-0.3,1.1-1,1.3-1.3v4.7c1.8-0.2,3.1-1.2,3.6-1.6v1.8L1055.3,323.3L1055.3,323.3z"/>
	<path class="st1" d="M1055.4,327.9c2.9-0.8,6.5-2.9,6.5-6.1c0-2.5-2.4-3.8-5.8-3.8l0.5-3.5c0.2-1.1,0.1-1.5-0.2-2.2h5.9v2
		c-0.7-0.4-1.5-0.6-3-0.6h-2.4l-0.4,2.9c4,0,7.1,1.8,7.1,4.7c0,2.5-2,5.5-8,6.7L1055.4,327.9z"/>
	<path class="st1" d="M1074.7,312.1v0.1c-4,0-6.9,3.1-7.7,6.8c0.6-1,2.2-1.8,3.7-1.8c2.8,0,5.6,1.9,5.6,5.6c0,3.2-2.6,5.4-5.5,5.4
		c-3.3,0-5.6-2.9-5.6-6.4C1065.1,316.4,1069.4,312.1,1074.7,312.1z M1071.4,327.8c2.2,0,3.4-2.1,3.4-4.4c0-3-2.2-5.8-4.7-5.8
		c-1.5,0-2.7,1.1-3.2,1.9c-0.1,0.6-0.2,1.2-0.2,1.7C1066.8,324.6,1068.9,327.8,1071.4,327.8z"/>
	<path class="st1" d="M1077.1,312.3h8.7l-0.8,1.5c-1.1,1.9-2.9,5.3-3.7,8c-0.7,2.4-1,4.7-1.1,6.2h-2.4c1.5-4.1,3.2-8.1,5.5-11.8
		l1.5-2.5h-4.5c-1.6,0-2.4,0.1-3.2,0.6V312.3z"/>
	<path class="st1" d="M1089.6,319c-1.2-0.8-2.1-1.7-2.1-3.4c0-2,1.7-3.5,3.8-3.5c1.9,0,3.7,1.2,3.7,3.3c0,1.7-1.4,2.8-2.6,3.4
		c2.1,0.9,4.2,2.1,4.2,4.7c0,2.2-1.6,4.5-5.4,4.6c-2.6,0.1-5.6-1.3-5.6-4.3C1085.8,320.6,1088.9,319.3,1089.6,319z M1091.9,327.8
		c2.6,0,3.7-1.6,3.8-3.2c0.1-2.2-1.6-3.3-3.4-4.2c-0.9-0.4-1.7-0.8-2.4-1.3c-1.1,0.2-2.6,2-2.5,4.2
		C1087.6,326.1,1089.6,327.8,1091.9,327.8z M1092.3,318.7c1.2-0.8,1.5-2.1,1.5-3c0-1.7-1.1-3.3-3-3.3c-1.2,0-2.7,1.1-2.7,2.7
		C1088.1,317,1090.2,317.8,1092.3,318.7z"/>
	<path class="st1" d="M1099.1,328.2V328c4,0,6.9-3.1,7.7-6.8c-0.6,1-2.2,1.8-3.7,1.8c-2.8,0-5.6-1.9-5.6-5.6c0-3.2,2.6-5.4,5.5-5.4
		c3.3,0,5.6,2.9,5.6,6.4C1108.7,323.9,1104.4,328.2,1099.1,328.2z M1102.4,312.5c-2.2,0-3.4,2.1-3.4,4.4c0,3,2.2,5.8,4.7,5.8
		c1.5,0,2.7-1.1,3.2-1.9c0.1-0.6,0.2-1.2,0.2-1.7C1107,315.7,1104.9,312.5,1102.4,312.5z"/>
	<path class="st1" d="M1117,312.1c4.1,0,6.3,3.7,6.3,8c0,4.5-3.2,8-6.7,8c-4.1,0-6.3-3.7-6.3-8
		C1110.3,315.6,1113.5,312.1,1117,312.1z M1117.7,327.4c3,0,4.6-2.7,4.6-5.9c0-4.1-2.6-8.6-6.3-8.6c-3.1,0-4.6,2.7-4.6,5.9
		C1111.4,322.9,1114,327.4,1117.7,327.4z"/>
	<path class="st1" d="M1128.8,314.7c1.7,0,3.1,1.2,3.1,3.6s-1.7,4-3.5,4c-1.7,0-3.1-1.2-3.1-3.6
		C1125.3,316.8,1126.8,314.7,1128.8,314.7z M1126.3,327.6c2.6-2.8,4.4-4.8,5.8-6.4c2.9-3.3,4.1-4.8,5-6.3l0.8,0.3
		c-2.5,2.8-4.3,4.7-5.6,6.1c-3.1,3.5-3.9,4.5-5.2,6.6L1126.3,327.6z M1129,321.9c1.1,0,1.8-1.1,1.8-2.7c0-1.8-1.1-4.1-2.7-4.1
		c-1.1,0-1.8,1.1-1.8,2.7C1126.3,319.6,1127.4,321.9,1129,321.9z M1135.8,320.6c1.7,0,3.1,1.2,3.1,3.6s-1.7,4-3.5,4
		c-1.7,0-3.1-1.2-3.1-3.6C1132.3,322.6,1133.8,320.6,1135.8,320.6z M1136,327.8c1.1,0,1.8-1.1,1.8-2.7c0-1.8-1.1-4.1-2.7-4.1
		c-1.1,0-1.8,1.1-1.8,2.7C1133.3,325.5,1134.4,327.8,1136,327.8z"/>
	<path class="st1" d="M1154.7,322.3c0,0.9-0.2,1.8-0.6,2.7c-0.1,0.4-0.5,1-1.1,1.2c-0.3,0.1-0.5,0.1-1,0c-0.4-0.1-0.9-0.1-1.5-0.1
		l-0.5-1.5c-0.6,1-1.4,1.6-2.8,1.6c-1.7,0-3-1.1-3-2.9c0-1.9,1.3-3.4,3.5-4.4c-0.8,0.5-2.3,1.9-2.3,3.8c0,1.7,0.9,2.8,2.5,2.8
		c0.8,0,1.7-0.3,2.2-1c-0.8-2.3-1.8-5.3-2.2-6c-0.4-0.7-1.3-0.8-2-0.6l0,0c0.4-0.3,1-0.4,1.5-0.4s1.3,0.2,1.7,1.3
		c0.4,0.9,2.2,6,2.4,6.4c0.4,0.7,0.9,1,1.6,0.9c0.5-0.1,0.9-0.8,1-1.1c0.3-0.9,0.5-1.7,0.5-2.6c0-3.7-3-6.7-6.7-6.7s-6.8,3-6.8,6.7
		s3,6.8,6.8,6.8c1,0,1.9-0.2,2.9-0.6v0.2c-0.9,0.4-1.9,0.6-2.9,0.6c-3.9,0-7-3.1-7-7s3.1-7,7-7
		C1151.6,315.3,1154.7,318.4,1154.7,322.3z"/>
	<path class="st1" d="M1161.4,317.8c0.5,0,0.9,0.1,1.4,0.2c-2.9-1.3-4.6-2.4-4.6-4.1c0-1.1,0.7-1.7,1.7-1.7c1.5,0,2.7,0.4,4.7,0.5
		v2.2c-1.6-1.4-3.2-2.4-4.3-2.4c-0.6,0-1,0.4-1,0.9c0,2,3.4,4.4,5.1,5.5c2.8,1.8,5.3,6,5.9,9.2h-1.7c0-0.9-0.9-4.7-2.6-7.2
		c0.4,0.7,0.5,1.5,0.5,2.3c0,2.9-2.4,5.2-5.2,5.2c-2.8,0-5.2-2.3-5.2-5.1C1156.3,320.2,1158.5,317.8,1161.4,317.8z M1162,327
		c2.3,0,4.3-2,4.3-4.4c0-2.6-2.2-4.6-4.9-4.6c-2.5,0-3.9,1.6-3.9,3.9C1157.5,324.6,1159.4,327,1162,327z"/>
</g>
<g>
	<path class="st1" d="M1273.2,225.6c0-1.3,0-1.9-1.1-4.9l-1-2.8h-2.5c-0.1,1.1-0.2,2.5-0.2,4.3c0,1.3,0.2,2.9,0.3,3.4h-4.1
		c0.6-1.1,1.2-2.5,1.6-3.8c1.2-4.1,2.4-6.9,3.2-8.4v-3.5h2.3l3.6,9.3c1.3,3.4,2.3,5.3,3,6.4H1273.2z M1271,217.6l-1.4-3.8
		c-0.4,1.1-0.8,2.2-0.9,3.8H1271z"/>
	<path class="st1" d="M1279.9,225.6c0.6-0.8,1-2.3,1-4.6v-6.4c0-2.4-0.4-3.9-1-4.6h6.7c2.8,0,4.9,0.6,4.9,2.6c0,1.4-1.2,2.1-2.5,2.9
		c2.1,0.4,4.4,1.7,4.4,4.6c0,3-2.8,5.5-6.4,5.5H1279.9z M1285.5,217.6c1.5-1.9,2.3-3.4,2.3-5c0-1.5-0.4-2.4-1.9-2.4
		c-0.8,0-1.4,0.5-1.7,2.1c-0.7,3.9-1.6,7.8-2.4,11.6C1282.6,221.4,1284.5,218.8,1285.5,217.6z M1285,224.2c0.4,0.7,1,1.1,1.7,1.1
		c2.1,0,3-3.2,3-5.6c0-1.7-0.4-3.3-1.1-4c-0.9,0.5-1.8,1-2.6,1.8c-0.9,1.1-1.4,2.3-1.6,3.9C1284.4,222.4,1284.6,223.5,1285,224.2z"
		/>
	<path class="st1" d="M1303.6,209.7c2.3,0,4.5,0.7,6.1,1.7v5.8l0,0c-1-3.2-3.8-7-7.2-7c-2.8,0-4.3,2.3-4.3,5.3
		c0,4.7,3.4,7.9,7.6,7.9c1.3,0,3.7-0.5,4.8-3h0.1c-0.9,2.4-3.1,5.4-7.3,5.4c-4.8,0-8.6-3.2-8.6-8
		C1294.7,213,1298.6,209.7,1303.6,209.7z"/>
	<path class="st1" d="M1312.2,225.6c0.6-0.8,1-2.3,1-4.6v-6.4c0-2.4-0.4-3.9-1-4.6h5.7c5.3,0,8.9,3.2,8.9,7.8c0,4.7-3.6,7.9-8.9,7.9
		L1312.2,225.6L1312.2,225.6z M1316.8,225.2h0.7c3,0,5.6-3.7,5.6-7.5c0-3.7-2.5-7.5-5.6-7.5h-0.7V225.2z"/>
	<path class="st1" d="M1328.2,225.6c0.6-0.8,1-2.3,1-4.6v-6.4c0-2.4-0.4-3.9-1-4.6h10.6l0.2,3.7l0,0c-0.9-1.7-2.2-3.4-4.2-3.4
		c-1.2,0-2,0.9-2,2.1c0,1.3,0.7,2.5,3.2,2.5h1.9v3.4l0,0c-1.8-1.9-2.7-3-3.9-3.5c-0.3-0.1-0.9-0.2-1.1-0.2v10.8
		c2.4-0.3,5.6-2.1,6.8-3.8l-0.1,4.1h-11.4V225.6z"/>
	<path class="st1" d="M1341.3,225.6c0.6-0.8,1-2.3,1-4.6v-6.4c0-2.4-0.4-3.9-1-4.6h10.6l0.2,3.7l0,0c-0.9-1.7-2.2-3.4-4.2-3.4
		c-1.2,0-2,0.9-2,2.1c0,1.3,0.7,2.5,3.2,2.5h1.9v3.4l0,0c-1.8-1.9-2.7-3-3.9-3.5c-0.3-0.1-0.9-0.2-1.1-0.2v6.4c0,2.4,0.4,3.9,1,4.6
		H1341.3z"/>
	<path class="st1" d="M1362,209.7c2.3,0,4.5,0.7,6.1,1.7v4.9l0,0c-1.5-3.2-4.1-6.1-7.2-6.1c-2.8,0-4.3,2.3-4.3,5.3
		c0,4.7,3.4,7.9,7.6,7.9c1.5,0,3.9-1.2,3.5-3.4c-0.1-1.2-1.1-2.4-1.7-2.8h3.6v8.4h-0.3c0,0-0.6-2.9-1.3-5c0,2.3-2.3,5.2-6.3,5.2
		c-4.8,0-8.6-3.2-8.6-8C1353.1,213,1357,209.7,1362,209.7z"/>
	<path class="st1" d="M1385,220.9c0,2.4,0.4,3.9,1,4.6h-5.6c0.6-0.8,1-2.3,1-4.6v-4.4h-5.1v4.4c0,2.4,0.4,3.9,1,4.6h-5.6
		c0.6-0.8,1-2.3,1-4.6v-6.4c0-2.4-0.4-3.9-1-4.6h5.6c-0.6,0.8-1,2.3-1,4.6v1.7h5.1v-1.7c0-2.4-0.4-3.9-1-4.6h5.6
		c-0.6,0.8-1,2.3-1,4.6V220.9z"/>
	<path class="st1" d="M1387.8,225.6c0.6-0.8,1-2.3,1-4.6v-6.4c0-2.4-0.4-3.9-1-4.6h5.6c-0.6,0.8-1,2.3-1,4.6v6.4
		c0,2.4,0.4,3.9,1,4.6H1387.8z"/>
	<path class="st1" d="M1394.4,227.6c0,0,1.9-0.9,1.9-5.7v-7.4c0-2.4-0.4-3.9-1-4.6h5.6c-0.6,0.8-1,2.3-1,4.6v6
		C1399.8,226.9,1394.4,227.7,1394.4,227.6L1394.4,227.6z"/>
	<path class="st1" d="M1402.4,225.6c0.6-0.8,1-2.3,1-4.6v-6.4c0-2.4-0.4-3.9-1-4.6h5.5c-0.5,0.6-0.9,1.3-1.2,2.6
		c-0.9,3.9-1.6,7.5-2.4,11.4c0.6-2.2,1.7-5,3.4-7.4c2.2-3.1,3.6-5.1,3.7-6.6h4.8c-1,0.4-3.4,2.1-5.4,3.9l2.9,6.3
		c0.9,1.8,2,4,2.9,5.5h-5.3c0-1-0.7-3.4-1.5-5l-1.9-3.9c-0.7,1-1,2-1,3.7c0,2,0.6,4,1.3,5.3h-5.8V225.6z"/>
	<path class="st1" d="M1418.2,225.6c0.6-0.8,1-2.3,1-4.6v-6.4c0-2.4-0.4-3.9-1-4.6h5.6c-0.6,0.8-1,2.3-1,4.6v10.7
		c2.4-0.3,5.6-2.1,6.8-3.8l-0.1,4.1H1418.2z"/>
	<path class="st1" d="M1431,225.6c0.6-1.5,1.2-4.2,1.4-7.5l0.3-5.2l-1.2-3.1h4l4.7,11.9l4.3-11.9h4c-0.4,0.4-1,1.1-1.3,1.8l0.5,9.3
		c0.1,2.4,0.6,3.7,1.1,4.6h-5.4c0.6-1,0.9-2.8,0.8-4.6l-0.3-6.3c-0.9,1.3-1.7,2.8-2.3,4.5l-1.2,3.5v2.9h-2.5l-4.7-11.9l-0.2,3.7
		c-0.3,4.6,1.3,7.3,2,8.2h-4L1431,225.6L1431,225.6z"/>
	<path class="st1" d="M1450.1,225.6c0.6-1,1.4-3.6,1.4-7.5V212l-1.4-2.2h4.4l6.9,10.6v-3.1c0-3.9-0.9-6.4-1.6-7.5h3.5
		c-0.7,1-1.6,3.6-1.6,7.5v8.2h-1.7c-1-2.2-5-8.1-8.2-13v5.6c0,3.9,1.2,6.4,2,7.5H1450.1z"/>
	<path class="st1" d="M1272.9,251.3c-4.4,0-8-3.6-8-8s3.6-8,8-8s8,3.6,8,8S1277.3,251.3,1272.9,251.3z M1270.9,236
		c-1.9-0.1-2.9,1.8-2.9,4c-0.2,4.2,3.2,10.5,6.9,10.6c1.9,0.1,2.9-1.8,2.9-4C1278,242.4,1274.6,236.2,1270.9,236z"/>
	<path class="st1" d="M1282.4,251.2c0.6-0.8,1-2.3,1-4.6v-6.4c0-2.4-0.4-3.9-1-4.6h6.7c2.8,0,4.9,0.6,4.9,2.6c0,2.6-3.7,2.8-5.6,5.2
		c-1.6,2-1.4,5.6-0.1,7.9L1282.4,251.2L1282.4,251.2z M1288,243.2c1.5-1.9,2.3-3.4,2.3-5c0-1.5-0.4-2.4-1.9-2.4
		c-0.8,0-1.4,0.5-1.7,2.1c-0.7,3.9-1.6,7.8-2.4,11.6C1285.1,247,1287,244.4,1288,243.2z"/>
	<path class="st1" d="M1302.8,235.3c4.4,0,8,3.6,8,7.9c0,2.5-1.2,5-3.7,6.6h-0.1c0.6-0.7,0.8-1.6,0.8-2.8c0-4.4-3.3-10.9-7.1-10.9
		c-1.8,0-2.8,2-2.8,4.2c0,3.5,2.3,8.7,5.5,10c0.7,0.3,1.6,0.4,2.5,0.4c1.1,0,1.9-0.3,3-0.3c1.6,0,3.2,0.4,3.9,1.3l-2.9,2.2
		c-1-1.7-1.9-2.9-3.5-2.9c-0.9,0-2,0.4-3.5,0.4c-4.4,0-8.1-3.6-8.1-8C1294.8,238.9,1298.4,235.3,1302.8,235.3z"/>
	<path class="st1" d="M1313.3,251.2c0.6-0.8,1-2.3,1-4.6v-6.4c0-2.4-0.4-3.9-1-4.6h6.7c2.8,0,4.9,0.6,4.9,2.6c0,1.7-1.6,2.4-3.2,3.3
		l2,4.3c0.9,1.8,2,4,2.9,5.5h-5.3c0-0.9-0.8-3.4-1.5-5l-1-2.2c-1.1,2-0.7,5.1,0.4,7.1L1313.3,251.2L1313.3,251.2z M1319,243.2
		c1.5-1.9,2.3-3.4,2.3-5c0-1.5-0.4-2.4-1.9-2.4c-0.8,0-1.4,0.5-1.7,2.1c-0.7,3.9-1.6,7.8-2.4,11.6C1316,247,1317.9,244.4,1319,243.2
		z"/>
	<path class="st1" d="M1327.6,244.3L1327.6,244.3c2.2,3.6,5.1,6.4,7.5,6.5c1.3,0.1,2.3-0.7,2.3-2c0-1.8-2.3-2.9-4.7-4.2
		c-2.2-1.2-4.5-2.5-4.5-5.2c0-2.8,2.5-4.1,5.5-4.1c2.2,0,3.9,0.4,4.8,0.9l0.5,4.8l0,0c-2.1-3.1-4.5-5.2-6.5-5.2
		c-1.1,0-2.4,0.4-2.3,1.8c0.1,1.1,1,1.8,4.2,3.4c3.7,1.8,5.2,3.5,5.2,5.8c0,2.7-2.2,4.5-5.2,4.5s-5.2-0.4-6.4-0.9L1327.6,244.3z"/>
	<path class="st1" d="M1340.7,239.3l0.4-3.8h11.7l0.4,3.8l0,0c-1.2-1.9-2.4-3.3-3.3-3.4c-0.8-0.1-1.2,0.2-1.2,1.5v9.2
		c0,2.4,0.4,3.9,1,4.6h-5.6c0.6-0.8,1-2.3,1-4.6v-9.2c0-1.3-0.4-1.7-1.2-1.5C1343,236,1341.6,237.7,1340.7,239.3L1340.7,239.3z"/>
	<path class="st1" d="M1360,235.5c-0.6,0.8-1,2.3-1,4.6v5.4c0,3.9,1,5.3,3.4,5.3c3.1,0,4.2-2.8,4.2-6.2v-3.3c0-3.5-1.3-5.1-2.3-5.7
		h4.5c-0.8,0.6-1.9,2.2-1.9,5.7v3.3c0,3.1-0.7,6.8-5.2,6.8c-2.8,0-6.4-0.9-6.4-6.8v-4.4c0-2.4-0.4-3.9-1-4.6h5.7L1360,235.5
		L1360,235.5z"/>
	<path class="st1" d="M1370.3,235.5h4.5c-0.2,0.6,0,1.5,0.4,2.4l3.5,9.5c1.4-2.8,3-7,2.6-11.9h3.3c-0.6,0.9-1.3,2.6-1.9,4.2
		c-1.3,3.4-2.4,5.6-4,8.4v3h-2.6L1370.3,235.5z"/>
	<path class="st1" d="M1385.9,235.5h4.5c-0.2,0.6,0,1.5,0.4,2.4l3.5,9.5c0.6-1.3,1.3-2.9,1.9-4.7l-2.7-7.2h4.5
		c-0.2,0.6,0,1.5,0.4,2.4l3.5,9.5c1.4-2.8,3-7,2.6-11.9h3.3c-0.6,0.9-1.3,2.6-1.9,4.2c-1.3,3.4-2.4,5.6-4,8.4v3h-2.6l-2.8-7.4
		c-0.7,1.5-1.4,2.8-2.2,4.4v3h-2.6L1385.9,235.5z"/>
	<path class="st1" d="M1409.1,251.2c0.5-0.2,1.4-0.9,2.1-2.1l3.2-5.5l-3.9-6.5c-0.5-0.9-1.2-1.4-1.5-1.6h5.9
		c-0.2,0.2-0.3,0.6-0.3,0.9c0,0.2,0.1,0.5,0.2,0.8l3.4,5.6c0.8-1.6,2.1-4.6,2.3-5.7c0-0.3,0.1-0.6,0.1-0.8c0-0.3,0-0.6-0.1-0.9h3.3
		c-0.4,0.2-1.3,0.8-2.1,2.1l-3.3,5.5l3.9,6.4c0.5,0.8,1.1,1.3,1.5,1.6h-5.9c0.2-0.2,0.3-0.5,0.3-0.8c0-0.2-0.1-0.5-0.2-0.8l-3.4-5.6
		c-0.8,1.7-2.1,4.6-2.3,5.7c0,0.3-0.1,0.6-0.1,0.8c0,0.4,0,0.6,0.1,0.9L1409.1,251.2L1409.1,251.2z"/>
	<path class="st1" d="M1430.3,235.5c0,0.1-0.1,0.3-0.1,0.6s0.1,0.8,0.4,1.4l3.7,7.7c0.5-1,1.5-3.4,2.1-5.2c0.3-1,0.6-2.2,0.6-3.2
		c0-0.6,0-1.1-0.2-1.4h3c-0.4,0.5-1.3,1.4-2.6,4.3l-2.6,5.8v0.9c0,2.4,0.4,3.9,1,4.6h-5.4c0.6-0.7,0.9-2.2,1-4.5l-4.5-9.4
		c-0.3-0.7-0.7-1.4-1.2-1.8h4.8L1430.3,235.5L1430.3,235.5z"/>
	<path class="st1" d="M1453.9,246.4l-1.2,4.8h-12.6c0.5-0.6,1-1.3,1.7-2.5l5.9-9.9c0.5-0.9,0.8-1.4,0.8-2s-0.5-1-1.3-1
		c-1.9,0-5.1,2.7-6.4,4.3l0,0l1.1-4.6h12.4c-0.4,0.3-1.3,1.7-1.7,2.5l-6.2,10.3c-0.4,0.8-0.6,1.3-0.6,1.8s0.4,0.8,1.1,0.8l0,0
		C1449.2,250.8,1452.1,248.7,1453.9,246.4L1453.9,246.4z"/>
	<path class="st1" d="M1269,267.6c-0.5,0.5-1,1.6-1,3.4c0,2,1,3.8,2.9,3.8c0.3,0,0.7-0.1,1.1-0.2c-1.1-3-2.4-7-3.1-7.8
		c-0.5-0.6-1.2-0.7-1.7-0.6v-0.1c0.8-0.4,1.6-0.7,2.5-0.7c1.3,0,2.8,0.6,3.5,2.4c0.8,2,1.7,4.7,2.6,7c0.4,1,0.8,1.7,1.1,2h-4.1
		l-0.6-1.8c-0.6,1.3-1.7,2-3.2,2c-2.4,0-4.1-1.7-4.1-3.9C1264.8,270.4,1266.5,268.6,1269,267.6z"/>
	<path class="st1" d="M1277.7,263.2l4.4-2.2v6c0.2-0.3,1.2-1.7,3.4-1.7c2.2,0,4.6,1.5,4.6,5.5c0,4.3-2.8,6-4.7,6
		c-1.9,0-3-1.1-3.3-1.4l-3.5,1.2l0.1-10.1C1278.8,264.4,1278.1,263.6,1277.7,263.2L1277.7,263.2z M1282.1,275c0.4,0.4,1,1.1,2.2,1.1
		c1.5,0,2.3-1.7,2.3-4.8c0-3.5-1-5-2.4-5c-1,0-1.9,1-2,1.5L1282.1,275L1282.1,275z"/>
	<path class="st1" d="M1297.4,265.4c1.9,0,3.1,0.4,4.6,1.2v3.5c-1.1-2.6-2.9-4.4-4.9-4.4c-1.7,0-2.8,1.8-2.3,4.4
		c0.4,2.1,2.2,4.2,4.6,4.2c2.1,0,3.2-1.2,3.6-3.1l0,0c0,3-2,5.8-5.6,5.8c-3.1,0-5.6-2.5-5.6-5.7
		C1291.8,267.8,1294.4,265.4,1297.4,265.4z"/>
	<path class="st1" d="M1309.2,265.4c1.8,0,3,1.1,3.3,1.4v-0.1c0-2.2-0.7-3.1-1-3.4v-0.1l4.4-2.2v11.8c0,2.2,0.5,3.5,1.1,3.9h-4.5
		v-1.3c-0.4,0.5-1.4,1.5-3.3,1.5c-2.2,0-4.6-1.5-4.6-5.5C1304.6,267.1,1307.3,265.4,1309.2,265.4z M1310.5,276.1
		c0.8,0,1.6-0.7,1.9-1.3l0.1-7.6c-0.4-0.4-1-1.1-2.1-1.1c-1.5,0-2.3,1.7-2.3,4.8C1308.2,274.6,1309.1,276.1,1310.5,276.1z"/>
	<path class="st1" d="M1329.6,271.3c0,3-2.2,5.7-5.4,5.7c-3.3,0-5.8-2.5-5.8-5.7c0-3.4,2.6-5.8,5.8-5.8c2.2,0,4.5,1.3,4.5,4.3h-7
		c0,0.2,0,0.3,0,0.5c0,2.5,1.9,4.1,4.4,4.1C1327.8,274.3,1329.2,273.2,1329.6,271.3L1329.6,271.3z M1321.6,269.5h1.1
		c2.2,0,3.1-0.7,3.1-2.3c0-0.7-0.5-1.5-1.5-1.5C1322.7,265.7,1321.8,267.5,1321.6,269.5z"/>
	<path class="st1" d="M1329.9,266.2h4.8c-1.2-0.4-4.8-1.7-4.8-3.5c0-1.3,1.3-1.7,2.4-1.7c1,0,2,0.2,3.3,0.7c1.3,0.4,2.8,0.6,3.1,0.6
		v3.1c-3.4-2.3-4.1-4-5.1-4c-0.4,0-0.6,0.4-0.6,0.9c0,2,2,3.9,5.6,3.9v0.2h-2.3v6.5c0,2.2,0.5,3.5,1.1,3.9h-4.5l0.1-6.6
		c0.1-2.7-1.2-3.9-3.1-3.9V266.2z"/>
	<path class="st1" d="M1344.8,275.7c1.7-0.8,2.3-2,2.3-3.8c0-2.8-1.9-6.5-3.7-6.1c-0.9,0.2-1,1.2-1,2.1c0,2.4,1.2,5.8,3.4,6.7
		c-0.6,0.2-1.3,0.3-1.9,0.3c-2.4,0-4.2-1.8-4.3-4.3c-0.2-3.3,2.4-5.4,5.6-5.3c1.2,0,2.3,0.4,3.1,1.1l0.6-2.6h3v0.1
		c-1.2,0.9-2.6,1.8-3.4,2.7c0.9,0.7,1.5,2,1.5,3.3c-0.1,2.2-1.5,3.7-4.1,5.5c-2.5,1.7-3.3,4-3.4,5.4c0,0.7,0.2,1.5,0.8,1.3
		c1.4-0.3,1.5-3.7,7.3-6.7v4.3c-4.3,0-6.3,3.2-9.3,3.2c-1.3,0-2.4-0.8-2.4-2.1C1338.8,278.5,1341.7,277.3,1344.8,275.7z"/>
	<path class="st1" d="M1352.8,263.2l4.4-2.2v5.9c0.5-0.8,1.5-1.6,3-1.6c1.9,0,2.7,1.1,3.3,3.8l0.9,4.1c0.5,2.2,1.1,3,1.7,3.5h-4.5
		l-1.7-7.8c-0.3-1.5-0.4-2.4-1.1-2.5c-0.6-0.1-1.1,0.3-1.5,0.9v5.5c0,2.2,0.5,3.5,1.1,3.9h-4.5l0.1-10.1
		C1353.8,264.4,1353.2,263.6,1352.8,263.2L1352.8,263.2z"/>
	<path class="st1" d="M1366.9,267.5l4.4-2.2v7.5c0,2.2,0.5,3.5,1.1,3.9h-4.5l0.1-5.8C1368,268.8,1367.3,267.9,1366.9,267.5
		L1366.9,267.5z M1369.6,260.8c1.2,0,2,0.9,2,2s-0.8,2-2,2c-1.1,0-2-0.9-2-2C1367.5,261.7,1368.4,260.8,1369.6,260.8z"/>
	<path class="st1" d="M1373.2,280.2c1.1-0.3,1.5-1.6,1.5-3.4V271c0-2.2-0.7-3.1-1-3.4v-0.1l4.4-2.2v8.5
		C1378.1,279,1375.1,279.9,1373.2,280.2L1373.2,280.2z M1376.3,260.8c1.2,0,2,0.9,2,2s-0.8,2-2,2c-1.1,0-2-0.9-2-2
		C1374.2,261.7,1375.1,260.8,1376.3,260.8z"/>
	<path class="st1" d="M1380.2,276.8c0.3-0.4,1-1.5,1-3.7v-6.2c0-2.2-0.7-3.1-1-3.3v-0.1l4.7-2.3l-1.8,13.5c0.5-1.3,1.7-3.3,2.8-4.7
		c1-1.2,1.3-2.1,1.3-2.8c0-0.8-0.4-1.2-0.7-1.5h5.3c-0.5,0.1-2.5,1.1-4.2,2.7l3.2,6.1c0.7,1.3,1.3,2.1,1.5,2.4h-4.9
		c0-0.9-0.3-2-1-3.3l-1.2-2.2c-0.4,0.8-0.5,1.8-0.5,2.4c0,1.1,0.4,2.2,0.9,3H1380.2z"/>
	<path class="st1" d="M1393.4,263.2l4.4-2.2v11.8c0,2.2,0.5,3.5,1.1,3.9h-4.5l0.1-10.1C1394.4,264.4,1393.7,263.6,1393.4,263.2
		L1393.4,263.2z"/>
	<path class="st1" d="M1400.1,267.5l4.4-2.2v1.7c0.5-0.7,1.5-1.7,3.1-1.7s2.6,0.8,3.1,2.1c0.4-0.9,1.4-2.1,3.2-2.1
		c2.1,0,3,1.3,3.6,4.1l0.8,3.7c0.5,2.2,1.1,3,1.7,3.5h-4.5l-1.7-7.8c-0.3-1.5-0.6-2.5-1.5-2.5c-0.7,0-1.2,0.6-1.5,1.4
		c0.2,0.6,0.2,1.2,0.2,1.9v2.5c0,2.4,0.4,4.1,1,4.5h-4.5l0.1-6.7c0-2.6-0.3-3.6-1.6-3.6c-0.6,0-1.2,0.4-1.5,1v5.4
		c0,2.2,0.5,3.5,1.1,3.9h-4.5l0.1-5.8C1401.2,268.8,1400.4,267.9,1400.1,267.5L1400.1,267.5z"/>
	<path class="st1" d="M1420.9,267.5l4.4-2.2v1.6c0.5-0.8,1.5-1.6,3-1.6c1.9,0,2.7,1.1,3.3,3.8l0.9,4.1c0.5,2.2,1.1,3,1.7,3.5h-4.5
		l-1.7-7.8c-0.3-1.5-0.4-2.4-1.1-2.5c-0.6-0.1-1.1,0.3-1.5,0.9v5.5c0,2.2,0.5,3.5,1.1,3.9h-4.5l0.1-5.8
		C1422,268.8,1421.3,267.9,1420.9,267.5L1420.9,267.5z"/>
	<path class="st1" d="M1270.7,291c3.2,0,5.8,2.6,5.8,5.8s-2.6,5.8-5.8,5.8c-3.2,0-5.8-2.6-5.8-5.8
		C1264.9,293.6,1267.5,291,1270.7,291z M1272.3,302c0.9,0,1.3-0.8,1.3-2.2c0-3-2.3-8.3-4.6-8.3c-0.8,0-1.2,0.9-1.2,2.1
		C1267.8,296.6,1270,301.8,1272.3,302z"/>
	<path class="st1" d="M1277.8,293.1l4.4-2.2v1.7c0.2-0.3,1.2-1.7,3.4-1.7c2.2,0,4.6,1.5,4.6,5.5c0,4.3-2.8,6-4.7,6
		c-1.9,0-3-1.1-3.3-1.4v1c0,2.2,0.5,3.5,1.1,3.9h-4.5l0.1-9.5C1278.8,294.4,1278.1,293.5,1277.8,293.1L1277.8,293.1z M1282.2,300.6
		c0.4,0.4,1,1.1,2.2,1.1c1.5,0,2.3-1.7,2.3-4.8c0-3.5-1-5-2.4-5c-1,0-1.9,1-2,1.5L1282.2,300.6L1282.2,300.6z"/>
	<path class="st1" d="M1296.5,291c1.9,0,3,1.1,3.3,1.4l3.4-1.4v11.2c0,2.2,0.5,3.5,1.1,3.9h-4.5v-5.2c-0.2,0.3-1.2,1.7-3.4,1.7
		c-2.2,0-4.6-1.5-4.6-5.5C1291.9,292.7,1294.6,291,1296.5,291z M1297.8,301.7c1,0,1.9-1,2-1.5v-7.3c-0.4-0.4-1-1.1-2.2-1.1
		c-1.5,0-2.3,1.7-2.3,4.8C1295.5,300.2,1296.4,301.7,1297.8,301.7z"/>
	<path class="st1" d="M1305.6,293l4.4-2v4.4c0.5-2.6,1.8-4.1,4.7-4.4l-0.7,3.3c-1.5-0.3-4,0-4,2.4v1.7c0,2.2,0.5,3.5,1.1,3.9h-4.5
		l0.1-5.9C1306.7,294.2,1305.9,293.4,1305.6,293L1305.6,293z"/>
	<path class="st1" d="M1321,302.6c-2.1,0-3.9-0.3-4.8-0.6l-0.2-4.1l0,0c1.4,2.4,3.4,4.3,5.2,4.4c1.3,0.1,2.1-0.4,1.9-1.4
		c-0.1-0.9-1.3-1.5-2.7-2.2c-2.8-1.3-4.3-2.3-4.3-4.3c0-2.4,2.2-3.4,4.8-3.3c1.5,0.1,2.8,0.4,3.6,0.7l0.2,3.7l0,0
		c-0.8-2.3-2.7-3.8-4.3-4.1c-1.1-0.2-1.8,0.3-1.8,1c0,0.9,0.8,1.7,3.3,2.8c2.5,1.1,3.8,2.2,3.7,4.1
		C1325.3,301.5,1323.2,302.6,1321,302.6z"/>
	<path class="st1" d="M1333.3,291.1v0.2h-2.2v6.7c0,2.9,1.1,3.9,2.2,4.1v0.2c-2.6,0-5.5-0.6-5.5-5v-6h-1.3v-0.2
		c1.7-0.2,3.9-1.5,4.5-3.1h0.2v3.1L1333.3,291.1L1333.3,291.1z"/>
	<path class="st1" d="M1334.2,292.8l4.4-1.8v6.9c0,2.2,0.3,3.5,1.7,3.5c0.8,0,1.3-0.3,1.7-0.7v-4.4c0-2.2-0.7-3.1-1-3.4v-0.1
		l4.4-1.8v7.5c0,2.2,0.6,3.5,1.1,3.9h-4.5v-1.2c-0.5,0.6-1.7,1.4-3,1.4c-2.2,0-3.8-1.2-3.8-4.4v-1.9
		C1335.2,294.1,1334.5,293.1,1334.2,292.8L1334.2,292.8z"/>
	<path class="st1" d="M1347.4,291.2h4.9v0.1c-0.1,0-0.2,0.3-0.2,0.7c0,0.4,0.1,0.9,0.4,1.6l2.2,5.5l1.4-2.8c0.4-0.9,0.6-1.7,0.6-2.6
		c0-1.2-0.4-2-0.7-2.4v-0.1h3.3v0.1c-0.5,0.6-1.2,1.5-2.5,4.2l-2.1,4.3v2.7h-2.3l-3.3-7.9C1348.3,292.2,1347.7,291.4,1347.4,291.2
		L1347.4,291.2z"/>
	<path class="st1" d="M1360.8,291.2h4.9v0.1c-0.1,0-0.2,0.3-0.2,0.7c0,0.4,0.1,0.9,0.4,1.6l2.2,5.5l1.4-2.8c0.2-0.3,0.3-0.6,0.4-0.9
		l-0.4-0.9c-0.9-2.2-1.5-3-1.8-3.2v-0.1h4.9v0.1c-0.1,0-0.2,0.3-0.2,0.7c0,0.4,0.1,0.9,0.4,1.6l2.2,5.5l1.4-2.8
		c0.4-0.9,0.6-1.7,0.6-2.6c0-1.2-0.4-2-0.7-2.4v-0.1h3.3v0.1c-0.5,0.6-1.2,1.5-2.5,4.2l-2.1,4.3v2.7h-2.3l-2.7-6.6l-1.9,3.9v2.7
		h-2.3l-3.3-7.9C1361.7,292.2,1361.1,291.4,1360.8,291.2L1360.8,291.2z"/>
	<path class="st1" d="M1381.1,302.4L1381.1,302.4c0.1-0.1,1.1-0.5,2.8-2.7l1.7-2.3l-3.1-5.1c-0.4-0.7-1.2-1-1.4-1v-0.1h5.4v0.1
		c-0.3,0.2-0.3,0.7,0,1.2l2,3.3l1.5-2.1c0.5-0.7,0.9-1.3,0.9-1.8c0-0.2-0.1-0.4-0.2-0.6v-0.1h2.4v0.1c-0.1,0-1.1,0.4-2.8,2.6
		l-1.6,2.1l2.6,4.3c1,1.7,1.6,2,1.9,2v0.1h-5.5v-0.2c0.3-0.1,0.4-0.9-0.5-2.4l-1.3-2.2l-1.6,2.3c-0.5,0.7-0.9,1.3-0.9,1.8
		c0,0.2,0.1,0.4,0.2,0.6v0.1L1381.1,302.4L1381.1,302.4z"/>
	<path class="st1" d="M1394.4,304.6c2.8,0,4.3-0.3,5.3-1.6l-3.5-8.6c-0.9-2.2-1.5-3-1.8-3.2v-0.1h4.9v0.1c-0.1,0-0.2,0.3-0.2,0.7
		c0,0.4,0.1,0.9,0.4,1.6l2.3,5.7l1.5-3c0.4-0.9,0.6-1.8,0.6-2.6c0-1.2-0.4-2.1-0.7-2.5V291h3.3v0.1c-0.6,0.7-1.4,2-2.5,4.2l-3.7,7.3
		c-0.9,1.8-2.4,4.8-6,5.8L1394.4,304.6L1394.4,304.6z"/>
	<path class="st1" d="M1407.7,302.4l5.8-11h-1c-2.1,0-3.5,1.3-4.4,3.3h-0.1l0.6-3.5h8.8l-5.7,11h1.3c2,0,3.4-1,4.5-3.5h0.1l-0.7,3.7
		H1407.7z"/>
	<path class="st1" d="M1264.7,316.4c1.9-0.7,4.7-2.6,6.2-4.3v11.2c0,2.4,0.4,3.9,1,4.6h-5.6c0.6-0.8,1-2.3,1-4.6v-6.7
		c0-0.4-0.1-0.6-0.4-0.6c-0.2,0-0.5,0.1-0.7,0.2l-1.4,0.5L1264.7,316.4z"/>
	<path class="st1" d="M1273.4,328l0.4-1.1c0.6-1.7,1.9-4.2,2.9-5.8c1.7-2.7,3.7-5.3,3.8-6.7c0.2-1.3-0.4-1.9-1.3-1.9
		c-1.9,0-3.2,2.5-4.4,5.3l0,0v-4.4c2.1-0.8,3-1.3,5.4-1.3c2.6,0,4.1,1,4.1,2.8c0,3.8-6,5.9-9.3,10.2h4.8c3.1,0,3.8-0.7,4.5-1.1v4.1
		L1273.4,328z"/>
	<path class="st1" d="M1285.8,312.3h8.8l-4.5,4.6c3.3,0.2,6.9,2.7,4.8,7c-1.9,4-8.6,4.1-8.6,4.1l-0.1-0.1c0.8-0.1,4.7-0.8,5.7-3.7
		c1.1-3.1-1.4-4.5-4.8-4.6l4.2-4.3h-1.8c-1.9,0-2.9,0.6-3.7,1.1V312.3z"/>
	<path class="st1" d="M1308.6,323.3h-4.1v0.6c0,3,1,4,1,4h-5.1c0,0,1-1,1-3.8v-0.8h-4.5v-0.2c2.3-3.3,4.1-8.8,4.4-10.8h4.8
		c-1,0.8-3.4,3.6-8.8,10.8h4.1v-2.5c0.9-0.5,2.6-2,3.1-2.9v5.2c1.9-0.6,3.5-2.3,4.1-3.1V323.3z"/>
	<path class="st1" d="M1309.8,327.9c2.2-0.3,5.8-1.7,5.8-4.7c0-2-2.1-2.9-5.2-3l1-6.2c0.1-0.4,0-1.3-0.2-1.7h6.8v4
		c-0.8-0.6-1.8-1.1-3.7-1.1h-2.9l-0.2,1.5c5.2,0.3,7.9,2.5,7.9,5.3C1319.1,326.9,1313,328,1309.8,327.9L1309.8,327.9z"/>
	<path class="st1" d="M1330.8,312.1l0.1,0.1c-3.4,0.1-5.8,2.6-6.5,5.6c0.5-0.7,1.1-0.9,1.9-1c2.8-0.4,6,1.6,6.2,5.5
		c0.1,3-1.8,5.7-5,5.9c-3.5,0.2-6.8-2.6-6.8-6.8C1320.7,316.4,1325.5,312.1,1330.8,312.1z M1328.1,327.8c0.9-0.2,1-1.8,1-3.6
		c0-3.2-1.4-7.2-3.4-6.9c-0.4,0-0.8,0.3-1.1,0.8c-0.3,0.5-0.4,1.2-0.4,2.1C1324.2,323.4,1326.3,328.3,1328.1,327.8z"/>
	<path class="st1" d="M1333.7,312.3h9.7l-0.9,1.5c-1.8,3-2.9,5.3-3.6,8c-0.8,2.7-0.8,4.7-0.7,6.2h-4.5c1.2-3.4,4.9-8.4,6.8-11.4
		l0.8-1.3h-3c-3.1,0-4,0.7-4.7,1.1L1333.7,312.3L1333.7,312.3z"/>
	<path class="st1" d="M1346.6,319.4c-1.1-1-1.7-2.2-1.7-3.7c0-2.3,2.1-3.5,4.5-3.5c1.9,0,4.3,1,4.3,3.3c0,1.3-1.3,2.3-2.4,3
		c2.3,1.3,3.9,2.7,3.9,5.1c0,2.1-2.3,4.7-5.7,4.7c-3,0-6-1.4-6-4.5C1343.5,321.2,1345.2,319.9,1346.6,319.4z M1350.3,327.8
		c1.7,0,3-0.9,3-2.4c0-2-2.4-2.9-4.6-4.4c-0.6-0.4-1.1-0.8-1.6-1.2c-0.5,0.6-0.7,1.8-0.7,3.1
		C1346.3,325.4,1348.1,327.8,1350.3,327.8z M1350.7,318.1c0.6-0.8,0.9-1.7,0.9-2.4c0-1.7-1.1-3.3-3-3.3c-0.9,0-2.1,0.4-2.1,1.7
		C1346.5,315.6,1348.3,316.8,1350.7,318.1z"/>
	<path class="st1" d="M1357.9,328.2l-0.1-0.1c3.4-0.1,5.8-2.6,6.5-5.6c-0.5,0.7-1.1,0.9-1.9,1c-2.8,0.4-6-1.6-6.2-5.5
		c-0.1-3,1.8-5.7,5-5.9c3.5-0.2,6.8,2.6,6.8,6.8C1368,323.9,1363.2,328.2,1357.9,328.2z M1360.6,312.4c-0.9,0.2-1,1.8-1,3.6
		c0,3.2,1.4,7.2,3.4,6.9c0.5-0.1,0.9-0.4,1.1-0.9s0.4-1.2,0.4-1.9C1364.5,316.8,1362.5,312,1360.6,312.4z"/>
	<path class="st1" d="M1376.8,312.1c4.1,0,6.7,3.7,6.7,8c0,4.5-3.6,8-7.2,8c-4.1,0-6.7-3.7-6.7-8
		C1369.6,315.6,1373.1,312.1,1376.8,312.1z M1378.3,327.2c1.6,0,2.2-1.2,2.2-3.1c0-4.5-2.3-11-5.8-11c-1.6,0-2.2,1.2-2.2,3.1
		C1372.5,320.7,1374.9,327.2,1378.3,327.2z"/>
	<path class="st1" d="M1389,314.6c2,0,3.5,1.7,3.5,3.8c0,2.1-1.9,3.8-3.7,3.8c-2,0-3.5-1.8-3.5-3.8S1387.2,314.6,1389,314.6z
		 M1386.3,327.4c1.5-1.5,4.5-4.4,5.9-6c3.1-3.5,3.9-4.5,5.2-6.6l1.2,0.5c-1.5,1.5-4.5,4.4-5.9,6c-3.1,3.5-3.9,4.5-5.2,6.6
		L1386.3,327.4z M1389.8,321.8c0.5,0,0.9-0.4,0.9-1.7c0-1.7-1.3-5.1-2.7-5.1c-0.5,0-0.9,0.4-0.9,1.7
		C1387.1,318.5,1388.4,321.8,1389.8,321.8z M1396.1,320.5c2,0,3.5,1.8,3.5,3.8c0,2.1-1.9,3.8-3.7,3.8c-2,0-3.5-1.8-3.5-3.8
		C1392.5,322.2,1394.4,320.5,1396.1,320.5z M1396.9,327.7c0.5,0,0.9-0.4,0.9-1.7c0-1.7-1.3-5.1-2.7-5.1c-0.5,0-0.9,0.4-0.9,1.7
		C1394.3,324.4,1395.5,327.7,1396.9,327.7z"/>
	<path class="st1" d="M1415.3,322.3c0,0.9-0.2,1.8-0.5,2.6c-0.2,0.4-0.5,1.1-1.1,1.2c-0.2,0.1-0.5,0-0.7,0c-0.7-0.1-1.3-0.1-2.9-0.1
		l-0.5-1.3c-0.5,1-1.2,1.5-2.3,1.5c-1.8,0-3-1.3-3-3c0-1.9,1.2-3.3,3-4.1c-0.3,0.4-0.7,1.2-0.7,2.6c0,1.5,0.7,2.9,2.1,2.8
		c0.3,0,0.5,0,0.8-0.1c-0.8-2.3-1.8-5.3-2.3-6c-0.4-0.4-0.9-0.5-1.3-0.4l0,0c0.6-0.4,1.2-0.6,1.9-0.6c1,0,2.1,0.5,2.6,1.8
		c0.6,1.5,1.3,3.5,1.9,5.3c0.4,1.1,0.7,1.5,1.3,1.4c0.5-0.2,0.8-0.7,1-1.1c0.3-0.8,0.5-1.7,0.5-2.6c0-3.7-3-6.8-6.8-6.8
		c-3.7,0-6.8,3-6.8,6.8s3,6.8,6.8,6.8c1,0,2-0.2,2.8-0.6l0.1,0.2c-0.9,0.4-1.9,0.6-2.9,0.6c-3.8,0-7-3.1-7-7s3.1-7,7-7
		C1412.2,315.3,1415.3,318.4,1415.3,322.3z"/>
	<path class="st1" d="M1421.7,317.7c0.4,0,0.7,0,1,0.1c-3.5-1.7-4.4-2.4-4.4-3.9c0-1.1,1-1.7,2-1.7c1.5,0,3.3,0.4,5.5,0.4v3.3
		c-1.8-1.6-2.3-3.3-3.6-3.4c-0.4,0-0.7,0.3-0.7,0.9c0,2,1.9,4.3,3.5,5.5c3,2.2,5.6,5.9,6.1,9.1h-3.5c-0.1-0.9,0-4.9-1.4-7.4
		c0.4,0.8,0.6,1.7,0.6,2.5c0,2.6-1.7,5.1-5,5.1c-2.8,0-5.1-2.2-5.1-5.2C1416.8,319.9,1419,317.7,1421.7,317.7z M1423.6,325
		c1.7,0,2.8-1.5,2.7-3.2c-0.2-2.1-2-3.8-4.1-3.9c-1.4,0-2.4,1-2.4,2.9C1419.7,323.4,1421.5,325,1423.6,325z"/>
</g>
<g>
	<g>
		<path class="st3" d="M1016.3,32c0-3,1.8-5,4.7-5c2.2,0,3.8,1.3,4.1,3.3h-1.3c-0.4-1.4-1.4-2.2-2.9-2.2c-2.1,0-3.4,1.6-3.4,3.9
			s1.3,3.9,3.3,3.9c1.5,0,2.6-0.8,2.9-2.2h1.3c-0.4,2-2,3.3-4.2,3.3C1018.1,37,1016.3,35,1016.3,32z"/>
		<path class="st3" d="M1030.8,37c-2.8,0-4.7-2.1-4.7-5s1.9-5,4.7-5c2.8,0,4.7,2.1,4.7,5S1033.6,37,1030.8,37z M1030.8,35.9
			c2,0,3.4-1.6,3.4-3.9c0-2.3-1.4-3.9-3.4-3.9s-3.4,1.6-3.4,3.9C1027.4,34.2,1028.8,35.9,1030.8,35.9z"/>
		<path class="st3" d="M1036.9,36.9v-9.8h7.4v9.8h-1.2v-8.7h-5v8.7H1036.9z"/>
		<path class="st3" d="M1046.3,27.1h3.8c2,0,3.3,1.2,3.3,3s-1.3,3-3.3,3h-2.5v3.8h-1.2v-9.8C1046.4,27.1,1046.3,27.1,1046.3,27.1z
			 M1047.5,28.2V32h2.4c1.3,0,2.1-0.7,2.1-1.9c0-1.2-0.8-1.9-2.1-1.9H1047.5z"/>
		<path class="st3" d="M1058.9,37c-2.8,0-4.7-2.1-4.7-5s1.9-5,4.7-5c2.8,0,4.7,2.1,4.7,5S1061.7,37,1058.9,37z M1058.9,35.9
			c2,0,3.4-1.6,3.4-3.9c0-2.3-1.4-3.9-3.4-3.9s-3.4,1.6-3.4,3.9C1055.5,34.2,1056.9,35.9,1058.9,35.9z"/>
		<path class="st3" d="M1065,27.1h3.5c2.1,0,3.3,1,3.3,2.6c0,1.1-0.6,1.8-1.5,2.1c1,0.2,1.9,0.9,1.9,2.3c0,1.7-1.2,2.8-3.6,2.8h-3.6
			L1065,27.1L1065,27.1z M1066.3,28.2v3.2h2.3c1.3,0,2-0.6,2-1.6s-0.7-1.6-2-1.6H1066.3z M1066.3,32.4v3.3h2.4
			c1.5,0,2.3-0.6,2.3-1.6c0-1.1-0.9-1.7-2.3-1.7H1066.3z"/>
		<path class="st3" d="M1077.9,37c-2.8,0-4.7-2.1-4.7-5s1.9-5,4.7-5c2.8,0,4.7,2.1,4.7,5S1080.7,37,1077.9,37z M1077.9,35.9
			c2,0,3.4-1.6,3.4-3.9c0-2.3-1.4-3.9-3.4-3.9s-3.4,1.6-3.4,3.9C1074.5,34.2,1075.9,35.9,1077.9,35.9z"/>
		<path class="st3" d="M1082.7,36.9l3.6-5l-3.3-4.8h1.4l3,4.3h1.5v-4.3h1.2v4.3h1.5l3-4.3h1.4l-3.3,4.8l3.6,5h-1.5l-3.1-4.4h-1.5
			v4.4h-1.2v-4.4h-1.5l-3.1,4.4H1082.7z"/>
		<path class="st3" d="M1105.6,35.8h1.2v3.1h-1.2v-2h-7.5v2h-1.2v-3.1h0.9c0.7-0.6,1-1.5,1-4.4v-4.3h6.8L1105.6,35.8L1105.6,35.8z
			 M1104.4,35.8v-7.6h-4.4v3.4c0,2.3-0.2,3.4-0.8,4.2H1104.4z"/>
		<path class="st3" d="M1107.6,36.9l3.7-9.8h1.4l3.7,9.8h-1.3l-1-2.6h-4.3l-1,2.6H1107.6z M1110.3,33.1h3.5l-1.8-4.7L1110.3,33.1z"
			/>
		<path class="st3" d="M1129.8,32c0,2.9-1.9,5-4.6,5c-2.6,0-4.4-1.9-4.6-4.5h-1.7v4.4h-1.2v-9.8h1.2v4.3h1.8
			c0.3-2.6,2.1-4.4,4.6-4.4C1127.9,27,1129.8,29.1,1129.8,32z M1128.6,32c0-2.3-1.4-3.9-3.4-3.9s-3.4,1.6-3.4,3.9s1.4,3.9,3.4,3.9
			S1128.6,34.2,1128.6,32z"/>
		<path class="st3" d="M1143.2,35.8h1.2v3.1h-1.2v-2h-11.9v-9.8h1.2v8.7h4.1v-8.7h1.2v8.7h4.1v-8.7h1.2v8.7H1143.2z"/>
		<path class="st3" d="M1145.6,36.9v-9.8h1.2v7.8l5.3-7.8h1.1v9.8h-1.2v-7.8l-5.3,7.8H1145.6z"/>
		<path class="st3" d="M1155.1,36.9v-9.8h1.2v7.8l5.3-7.8h1.1v9.8h-1.2v-7.8l-5.3,7.8H1155.1z M1156.8,24.3h1c0,0.7,0.3,1.1,1.1,1.1
			c0.8,0,1.1-0.4,1.1-1.1h1c0,1.2-0.7,1.9-2.1,1.9C1157.5,26.3,1156.9,25.5,1156.8,24.3z"/>
		<path class="st3" d="M1168.3,36.9v-9.8h1.2v8.7h4.1v-8.7h1.2v8.7h4.1v-8.7h1.2v9.8H1168.3z"/>
		<path class="st3" d="M1182.1,27.1h3.8c2,0,3.2,1.2,3.2,3s-1.3,3-3.2,3h-2.5v3.8h-1.2v-9.8C1182.2,27.1,1182.1,27.1,1182.1,27.1z
			 M1183.3,28.2V32h2.4c1.3,0,2.1-0.7,2.1-1.9c0-1.2-0.8-1.9-2.1-1.9H1183.3z"/>
		<path class="st3" d="M1190.3,36.9v-9.8h1.2v7.8l5.3-7.8h1.1v9.8h-1.2v-7.8l-5.3,7.8H1190.3z"/>
		<path class="st3" d="M1205.4,36.3v1.2h-1.2v-1.2c-3-0.1-4.9-1.7-4.9-4.3s1.9-4.2,4.9-4.3v-1.2h1.2v1.2c3,0.1,4.9,1.7,4.9,4.3
			S1208.4,36.1,1205.4,36.3z M1204.2,35.2v-6.4c-2.4,0.1-3.7,1.3-3.7,3.2C1200.5,33.9,1201.8,35.1,1204.2,35.2z M1205.4,35.2
			c2.4-0.1,3.7-1.3,3.7-3.2c0-1.9-1.3-3.1-3.7-3.2V35.2z"/>
		<path class="st3" d="M1210.4,27.1h7.6v1.1h-3.2v8.7h-1.2v-8.7h-3.2L1210.4,27.1L1210.4,27.1z"/>
		<path class="st3" d="M1016.7,52.9v-9.8h1.2v8.7h4.5v1.1H1016.7z"/>
		<path class="st3" d="M1023.2,52.9l3.7-9.8h1.4l3.7,9.8h-1.3l-1-2.6h-4.3l-1,2.6H1023.2z M1025.8,49.1h3.5l-1.8-4.7L1025.8,49.1z"
			/>
		<path class="st3" d="M1031.3,43.1h7.6v1.1h-3.2v8.7h-1.2v-8.7h-3.2L1031.3,43.1L1031.3,43.1z"/>
		<path class="st3" d="M1040,43.1h1.2v9.8h-1.2V43.1z"/>
		<path class="st3" d="M1043.3,52.9v-9.8h1.1l5.3,7.6v-7.6h1.2v9.8h-1.1l-5.3-7.6v7.6H1043.3z"/>
		<path class="st3" d="M1056.4,52.9v-9.8h3.1c3.1,0,4.9,2,4.9,4.9s-1.9,4.9-4.9,4.9C1059.5,52.9,1056.4,52.9,1056.4,52.9z
			 M1057.6,51.8h1.9c2.4,0,3.7-1.5,3.7-3.8s-1.3-3.8-3.7-3.8h-1.9V51.8z"/>
		<path class="st3" d="M1064.8,52.9l3.7-9.8h1.4l3.7,9.8h-1.3l-1-2.6h-4.3l-1,2.6H1064.8z M1067.5,49.1h3.5l-1.8-4.7L1067.5,49.1z"
			/>
		<path class="st3" d="M1074.8,43.1h1.2v4.3h5.1v-4.3h1.2v9.8h-1.2v-4.4h-5.1v4.4h-1.2V43.1z"/>
		<path class="st3" d="M1084.4,52.9v-9.8h1.2v8.7h4.5v1.1H1084.4z"/>
		<path class="st3" d="M1091.3,43.1h1.2v9.8h-1.2V43.1z"/>
		<path class="st3" d="M1093.6,52.9l3.7-9.8h1.4l3.7,9.8h-1.3l-1-2.6h-4.3l-1,2.6H1093.6z M1096.2,49.1h3.5l-1.8-4.7L1096.2,49.1z"
			/>
		<path class="st3" d="M1107.3,52.9v-9.8h1.2v8.7h4.5v1.1H1107.3z"/>
		<path class="st3" d="M1118,53c-2.8,0-4.7-2.1-4.7-5s1.9-5,4.7-5s4.7,2.1,4.7,5S1120.8,53,1118,53z M1118,51.9c2,0,3.4-1.6,3.4-3.9
			c0-2.3-1.4-3.9-3.4-3.9s-3.4,1.6-3.4,3.9C1114.6,50.2,1115.9,51.9,1118,51.9z"/>
		<path class="st3" d="M1124.3,52.9v-9.8h1.2v8.7h4.5v1.1H1124.3z"/>
		<path class="st3" d="M1135,53c-2.8,0-4.7-2.1-4.7-5s1.9-5,4.7-5s4.7,2.1,4.7,5S1137.8,53,1135,53z M1135,51.9c2,0,3.4-1.6,3.4-3.9
			c0-2.3-1.4-3.9-3.4-3.9s-3.4,1.6-3.4,3.9C1131.6,50.2,1133,51.9,1135,51.9z"/>
	</g>
</g>
<path class="st3" d="M189.5,871.8c0,0-0.9-0.3-3-0.6c2.1-0.3,3-0.6,3-0.6c5.4-1,10.6-3.6,15.1-8.1c12.3-12.3,10.6-30.9-2.3-43.9
	c-6-6-13.5-9.7-20.3-11.4c-1.6-6.8-5.3-14.3-11.4-20.3c-12.9-12.9-31.6-14.6-43.9-2.3c-4.4,4.4-7.1,9.7-8.1,15.1c0,0-0.3,0.9-0.6,3
	c-0.3-2.1-0.6-3-0.6-3c-1-5.4-3.6-10.6-8.1-15.1C97,772.3,78.4,774,65.4,786.9c-6,6-9.7,13.5-11.4,20.3c-6.8,1.6-14.3,5.3-20.3,11.4
	c-12.9,12.9-14.6,31.6-2.3,43.9c4.4,4.4,9.7,7.1,15.1,8.1c0,0,0.9,0.3,3,0.6c-2.1,0.3-3,0.6-3,0.6c-5.5,1-10.7,3.6-15.1,8.1
	c-12.3,12.3-10.6,30.9,2.3,43.9c6,6,13.5,9.7,20.3,11.4c1.6,6.8,5.3,14.3,11.4,20.3c12.9,12.9,31.6,14.6,43.9,2.3
	c4.4-4.4,7.1-9.7,8.1-15.1c0,0,0.3-0.9,0.6-3c0.3,2.1,0.6,3,0.6,3c1,5.5,3.6,10.7,8.1,15.1c12.3,12.3,30.9,10.6,43.9-2.3
	c6-6,9.7-13.5,11.4-20.3c6.8-1.6,14.3-5.3,20.3-11.4c12.9-12.9,14.6-31.6,2.3-43.9C200.2,875.5,194.9,872.8,189.5,871.8z M118,871.2
	C118,871.2,118,871.2,118,871.2C118,871.2,118,871.2,118,871.2L118,871.2C118,871.2,118,871.2,118,871.2
	C118,871.2,118,871.2,118,871.2L118,871.2z M141,788.1c7.9-7.8,17.6-9.9,24.9-2.6c8.9,8.9,6.4,25.9,0.6,36.9l0.1,0.1l0.1,0.1
	c11-5.8,28-8.3,36.9,0.6c7.3,7.3,5.2,17-2.6,24.9c-24.3,24.8-80.9,21-80.9,21S116.3,812.5,141,788.1z M35,848.2
	c-7.8-7.9-9.9-17.6-2.6-24.9c8.9-8.9,25.9-6.4,36.9-0.6l0.1-0.1l0.1-0.1c-5.8-11-8.3-28,0.6-36.9c7.3-7.3,17-5.2,24.9,2.6
	c24.7,24.3,21,80.9,21,80.9S59.4,872.9,35,848.2z M95,954.2c-7.9,7.8-17.6,9.9-24.9,2.6c-8.9-8.9-6.4-25.9-0.6-36.9l-0.1-0.1
	l-0.1-0.1c-11,5.8-28,8.3-36.9-0.6c-7.3-7.3-5.2-17,2.6-24.9c24.3-24.7,80.9-21,80.9-21S119.7,929.8,95,954.2z M203.7,919.1
	c-8.9,8.9-25.9,6.4-36.9,0.6l-0.1,0.1l-0.1,0.1c5.8,11,8.3,28-0.6,36.9c-7.3,7.3-17,5.2-24.9-2.6c-24.8-24.3-21-80.9-21-80.9
	s56.6-3.8,81,20.9C208.9,902.1,211,911.8,203.7,919.1z"/>
</svg>
