<?xml version="1.0" encoding="utf-8"?>
<!-- Generator: Adobe Illustrator 22.0.0, SVG Export Plug-In . SVG Version: 6.00 Build 0)  -->
<svg version="1.1" id="Layer_1_copy" xmlns="http://www.w3.org/2000/svg" xmlns:xlink="http://www.w3.org/1999/xlink" x="0px"
	 y="0px" viewBox="0 0 1536 1451.6" style="enable-background:new 0 0 1536 1451.6;" xml:space="preserve">
<style type="text/css">
	.st0{fill:#FDF3D8;}
	.st1{fill:#DAEAD6;}
	.st2{fill:#F9EBF2;}
	.st3{fill:#E6DEF6;}
	.st4{fill:#FEDEDB;}
	.st5{opacity:0.6;fill:#FDF3D8;}
	.st6{opacity:0.6;fill:#DAEAD6;}
	.st7{opacity:0.6;fill:#F9EBF2;}
	.st8{opacity:0.6;fill:#E6DEF6;}
	.st9{opacity:0.6;fill:#FEDEDB;}
	.st10{fill:#FBE3A1;}
	.st11{opacity:6.000000e-02;fill:#121212;}
	.st12{opacity:0.1;fill:#121212;}
	.st13{opacity:0.2;fill:#121212;}
	.st14{opacity:0.4;fill:#121212;}
	.st15{opacity:0.6;fill:#121212;}
	.st16{opacity:0.8;fill:#121212;}
	.st17{fill:#B6D7AD;}
	.st18{fill:#F1CFE1;}
	.st19{fill:#CDBDEF;}
	.st20{fill:#FB9B92;}
	.st21{fill:#F9D261;}
	.st22{fill:#FFFFFF;}
	.st23{fill:#121212;}
	.st24{fill:#77A562;}
	.st25{fill:#E9B0CE;}
	.st26{fill:#957EBF;}
	.st27{fill:#F95949;}
</style>
<rect x="0" y="1314.5" transform="matrix(-1 -1.224647e-16 1.224647e-16 -1 384.0001 2697.4614)" class="st0" width="384" height="68.6"/>
<rect x="384" y="1314.5" transform="matrix(-1 -1.224647e-16 1.224647e-16 -1 1151.9998 2697.4614)" class="st1" width="384" height="68.6"/>
<rect x="768" y="1314.5" transform="matrix(-1 -1.224647e-16 1.224647e-16 -1 1791.9999 2697.4614)" class="st2" width="256" height="68.6"/>
<rect x="1024" y="1314.5" transform="matrix(-1 -1.224647e-16 1.224647e-16 -1 2303.9998 2697.4614)" class="st3" width="256" height="68.6"/>
<rect x="1280" y="1314.5" transform="matrix(-1 -1.224647e-16 1.224647e-16 -1 2815.9995 2697.4614)" class="st4" width="256" height="68.6"/>
<rect x="0" y="1383" transform="matrix(-1 -1.224647e-16 1.224647e-16 -1 384.0016 2834.55)" class="st5" width="384" height="68.6"/>
<rect x="384" y="1383" transform="matrix(-1 -1.224647e-16 1.224647e-16 -1 1152.0012 2834.55)" class="st6" width="384" height="68.6"/>
<rect x="768" y="1383" transform="matrix(-1 -1.224647e-16 1.224647e-16 -1 1792.0015 2834.55)" class="st7" width="256" height="68.6"/>
<rect x="1024" y="1383" transform="matrix(-1 -1.224647e-16 1.224647e-16 -1 2304.0012 2834.55)" class="st8" width="256" height="68.6"/>
<rect x="1280" y="1383" transform="matrix(-1 -1.224647e-16 1.224647e-16 -1 2816.0012 2834.55)" class="st9" width="256" height="68.6"/>
<rect x="0" y="1245.9" transform="matrix(-1 -1.224647e-16 1.224647e-16 -1 384.0001 2560.3604)" class="st10" width="384" height="68.6"/>
<rect x="0.1" transform="matrix(-1 -1.224647e-16 1.224647e-16 -1 256.1056 68.5505)" class="st11" width="256" height="68.6"/>
<rect x="256" transform="matrix(-1 -1.224647e-16 1.224647e-16 -1 768.0865 68.5505)" class="st12" width="256" height="68.6"/>
<rect x="512" transform="matrix(-1 -1.224647e-16 1.224647e-16 -1 1280.0675 68.5505)" class="st13" width="256" height="68.6"/>
<rect x="768" transform="matrix(-1 -1.224647e-16 1.224647e-16 -1 1792.0485 68.5505)" class="st14" width="256" height="68.6"/>
<rect x="1024" transform="matrix(-1 -1.224647e-16 1.224647e-16 -1 2304.0295 68.5505)" class="st15" width="256" height="68.6"/>
<rect x="1280" transform="matrix(-1 -1.224647e-16 1.224647e-16 -1 2816.0105 68.5505)" class="st16" width="256" height="68.6"/>
<rect x="384" y="1245.9" transform="matrix(-1 -1.224647e-16 1.224647e-16 -1 1151.9998 2560.3604)" class="st17" width="384" height="68.6"/>
<rect x="768" y="1245.9" transform="matrix(-1 -1.224647e-16 1.224647e-16 -1 1791.9999 2560.3604)" class="st18" width="256" height="68.6"/>
<rect x="1024" y="1245.9" transform="matrix(-1 -1.224647e-16 1.224647e-16 -1 2303.9998 2560.3604)" class="st19" width="256" height="68.6"/>
<rect x="1280" y="1245.9" transform="matrix(-1 -1.224647e-16 1.224647e-16 -1 2815.9995 2560.3604)" class="st20" width="256" height="68.6"/>
<rect y="427.6" transform="matrix(-1 -1.224647e-16 1.224647e-16 -1 383.9998 1673.4579)" class="st21" width="384" height="818.4"/>
<rect x="0" y="68.6" transform="matrix(-1 -1.224647e-16 1.224647e-16 -1 767.9999 496.1028)" class="st22" width="768" height="359"/>
<rect x="768" y="68.6" transform="matrix(-1 -1.224647e-16 1.224647e-16 -1 2303.9998 496.1028)" class="st23" width="768" height="359"/>
<rect x="384" y="427.6" transform="matrix(-1 -1.224647e-16 1.224647e-16 -1 1151.9994 1673.4579)" class="st24" width="384" height="818.4"/>
<rect x="768" y="427.6" transform="matrix(-1 -1.224647e-16 1.224647e-16 -1 1791.9998 1673.458)" class="st25" width="256" height="818.4"/>
<rect x="1024" y="427.6" transform="matrix(-1 -1.224647e-16 1.224647e-16 -1 2303.9995 1673.458)" class="st26" width="256" height="818.4"/>
<rect x="1280" y="427.6" transform="matrix(-1 -1.224647e-16 1.224647e-16 -1 2815.9995 1673.458)" class="st27" width="256" height="818.4"/>
<g>
	<path class="st23" d="M15.6,462.2V451h6.6v1.3H17v9.9H15.6z"/>
	<path class="st23" d="M22,462.2v-1.3h0.3c1.2,0,1.8-0.8,1.8-4.4V451h7.8v11.2h-1.4v-9.9h-5v4.3c0,4.3-0.9,5.6-3,5.6H22z"/>
	<path class="st23" d="M33.1,462.2l4.3-11.2H39l4.3,11.2h-1.5l-1.2-3h-4.9l-1.2,3H33.1z M36.1,457.9h4l-2-5.4L36.1,457.9z"/>
	<path class="st23" d="M44.5,451h4c2.4,0,3.7,1.2,3.7,3c0,1.3-0.7,2.1-1.8,2.4c1.2,0.2,2.2,1,2.2,2.6c0,2-1.4,3.2-4.1,3.2h-4.1V451z
		 M45.9,452.2v3.6h2.6c1.4,0,2.3-0.7,2.3-1.8c0-1.1-0.8-1.8-2.3-1.8H45.9z M45.9,457.1v3.8h2.7c1.7,0,2.6-0.7,2.6-1.9
		c0-1.3-1-2-2.6-2H45.9z"/>
	<path class="st23" d="M54.3,451h1.4v4.9h5.8V451h1.4v11.2h-1.4v-5.1h-5.8v5.1h-1.4V451z"/>
	<path class="st23" d="M65.1,462.2V451h1.4v4.3h2.8c2.2,0,3.7,1.4,3.7,3.5c0,2-1.5,3.5-3.7,3.5H65.1z M66.4,460.9h2.7
		c1.5,0,2.4-0.9,2.4-2.2s-0.9-2.2-2.4-2.2h-2.7V460.9z M74.4,462.2V451h1.4v11.2H74.4z"/>
	<path class="st23" d="M77.9,462.2V451h1.4v8.9l6-8.9h1.3v11.2h-1.4v-8.9l-6,8.9H77.9z M79.9,447.8H81c0,0.8,0.4,1.3,1.3,1.3
		c0.9,0,1.3-0.5,1.3-1.3h1.1c0,1.3-0.8,2.2-2.4,2.2C80.7,450,80,449.2,79.9,447.8z"/>
	<path class="st23" d="M15.6,469h4c2.4,0,3.7,1.2,3.7,3c0,1.3-0.7,2.1-1.8,2.4c1.2,0.2,2.2,1,2.2,2.6c0,2-1.4,3.2-4.1,3.2h-4.1V469z
		 M17,470.2v3.6h2.6c1.4,0,2.3-0.7,2.3-1.8c0-1.1-0.8-1.8-2.3-1.8H17z M17,475.1v3.8h2.7c1.7,0,2.6-0.7,2.6-1.9c0-1.3-1-2-2.6-2H17z
		"/>
	<path class="st23" d="M25.4,469h7.1v1.3h-5.7v3.6h4.8v1.3h-4.8v3.8h6v1.3h-7.3V469z"/>
	<path class="st23" d="M43.7,478.9h1.4v3.6h-1.4v-2.3h-8.6v2.3h-1.4v-3.6h1.1c0.8-0.7,1.2-1.7,1.2-5V469h7.7V478.9z M42.3,478.9
		v-8.7h-5v3.9c0,2.6-0.3,3.9-0.9,4.8H42.3z"/>
	<path class="st23" d="M46.6,480.2v-1.3h1c0.9,0,1.2-0.1,1.7-1.1l0.4-0.8l-4.3-8.1h1.6l3.5,6.6l3-6.6h1.5l-4.3,9.2
		c-0.7,1.5-1.4,2-2.6,2H46.6z"/>
	<path class="st23" d="M69.7,478.9h1.4v3.6h-1.4v-2.3H56.1V469h1.4v9.9h4.7V469h1.4v9.9h4.7V469h1.4V478.9z"/>
	<path class="st23" d="M72.5,480.2V469h1.4v8.9l6-8.9h1.3v11.2h-1.4v-8.9l-6,8.9H72.5z"/>
	<path class="st23" d="M83.3,480.2V469h1.4v8.9l6-8.9H92v11.2h-1.4v-8.9l-6,8.9H83.3z M85.3,465.8h1.1c0,0.8,0.4,1.3,1.3,1.3
		c0.9,0,1.3-0.5,1.3-1.3H90c0,1.3-0.8,2.2-2.4,2.2C86.1,468,85.3,467.2,85.3,465.8z"/>
</g>
<g>
	<path class="st23" d="M401.1,462.2V451h6.6v1.3h-5.2v9.9H401.1z"/>
	<path class="st23" d="M407.5,462.2v-1.3h0.3c1.2,0,1.8-0.8,1.8-4.4V451h7.8v11.2h-1.4v-9.9h-5v4.3c0,4.3-0.9,5.6-3,5.6H407.5z"/>
	<path class="st23" d="M418.6,462.2l4.3-11.2h1.6l4.3,11.2h-1.5l-1.2-3h-4.9l-1.2,3H418.6z M421.6,457.9h4l-2-5.4L421.6,457.9z"/>
	<path class="st23" d="M430,451h4c2.4,0,3.7,1.2,3.7,3c0,1.3-0.7,2.1-1.8,2.4c1.2,0.2,2.2,1,2.2,2.6c0,2-1.4,3.2-4.1,3.2H430V451z
		 M431.4,452.2v3.6h2.6c1.4,0,2.3-0.7,2.3-1.8c0-1.1-0.8-1.8-2.3-1.8H431.4z M431.4,457.1v3.8h2.7c1.7,0,2.6-0.7,2.6-1.9
		c0-1.3-1-2-2.6-2H431.4z"/>
	<path class="st23" d="M439.8,451h1.4v4.9h5.8V451h1.4v11.2H447v-5.1h-5.8v5.1h-1.4V451z"/>
	<path class="st23" d="M450.5,462.2V451h1.4v4.3h2.8c2.2,0,3.7,1.4,3.7,3.5c0,2-1.5,3.5-3.7,3.5H450.5z M451.9,460.9h2.7
		c1.5,0,2.4-0.9,2.4-2.2s-0.9-2.2-2.4-2.2h-2.7V460.9z M459.9,462.2V451h1.4v11.2H459.9z"/>
	<path class="st23" d="M463.4,462.2V451h1.4v8.9l6-8.9h1.3v11.2h-1.4v-8.9l-6,8.9H463.4z M465.4,447.8h1.1c0,0.8,0.4,1.3,1.3,1.3
		c0.9,0,1.3-0.5,1.3-1.3h1.1c0,1.3-0.8,2.2-2.4,2.2C466.2,450,465.4,449.2,465.4,447.8z"/>
	<path class="st23" d="M401.1,469h4c2.4,0,3.7,1.2,3.7,3c0,1.3-0.7,2.1-1.8,2.4c1.2,0.2,2.2,1,2.2,2.6c0,2-1.4,3.2-4.1,3.2h-4.1V469
		z M402.4,470.2v3.6h2.6c1.4,0,2.3-0.7,2.3-1.8c0-1.1-0.8-1.8-2.3-1.8H402.4z M402.4,475.1v3.8h2.7c1.7,0,2.6-0.7,2.6-1.9
		c0-1.3-1-2-2.6-2H402.4z"/>
	<path class="st23" d="M410.9,469h7.1v1.3h-5.7v3.6h4.8v1.3h-4.8v3.8h6v1.3h-7.3V469z"/>
	<path class="st23" d="M429.2,478.9h1.4v3.6h-1.4v-2.3h-8.6v2.3h-1.4v-3.6h1.1c0.8-0.7,1.2-1.7,1.2-5V469h7.7V478.9z M427.8,478.9
		v-8.7h-5v3.9c0,2.6-0.3,3.9-0.9,4.8H427.8z"/>
	<path class="st23" d="M432.1,480.2v-1.3h1c0.9,0,1.2-0.1,1.7-1.1l0.4-0.8l-4.3-8.1h1.6l3.5,6.6l3-6.6h1.5l-4.3,9.2
		c-0.7,1.5-1.4,2-2.6,2H432.1z"/>
	<path class="st23" d="M455.2,478.9h1.4v3.6h-1.4v-2.3h-13.6V469h1.4v9.9h4.7V469h1.4v9.9h4.7V469h1.4V478.9z"/>
	<path class="st23" d="M457.9,480.2V469h1.4v8.9l6-8.9h1.3v11.2h-1.4v-8.9l-6,8.9H457.9z"/>
	<path class="st23" d="M468.8,480.2V469h1.4v8.9l6-8.9h1.3v11.2h-1.4v-8.9l-6,8.9H468.8z M470.8,465.8h1.1c0,0.8,0.4,1.3,1.3,1.3
		c0.9,0,1.3-0.5,1.3-1.3h1.1c0,1.3-0.8,2.2-2.4,2.2C471.6,468,470.8,467.2,470.8,465.8z"/>
</g>
<g>
	<path class="st23" d="M783.6,462.2V451h6.6v1.3H785v9.9H783.6z"/>
	<path class="st23" d="M790,462.2v-1.3h0.3c1.2,0,1.8-0.8,1.8-4.4V451h7.8v11.2h-1.4v-9.9h-5v4.3c0,4.3-0.9,5.6-3,5.6H790z"/>
	<path class="st23" d="M801.1,462.2l4.3-11.2h1.6l4.3,11.2h-1.5l-1.2-3h-4.9l-1.2,3H801.1z M804.1,457.9h4.1l-2-5.4L804.1,457.9z"/>
	<path class="st23" d="M812.5,451h4c2.4,0,3.7,1.2,3.7,3c0,1.3-0.7,2.1-1.8,2.4c1.2,0.2,2.2,1,2.2,2.6c0,2-1.4,3.2-4.1,3.2h-4.1V451
		z M813.9,452.2v3.6h2.6c1.4,0,2.3-0.7,2.3-1.8c0-1.1-0.8-1.8-2.3-1.8H813.9z M813.9,457.1v3.8h2.7c1.7,0,2.6-0.7,2.6-1.9
		c0-1.3-1-2-2.6-2H813.9z"/>
	<path class="st23" d="M822.3,451h1.4v4.9h5.8V451h1.4v11.2h-1.4v-5.1h-5.8v5.1h-1.4V451z"/>
	<path class="st23" d="M833,462.2V451h1.4v4.3h2.8c2.2,0,3.7,1.4,3.7,3.5c0,2-1.5,3.5-3.7,3.5H833z M834.4,460.9h2.7
		c1.5,0,2.4-0.9,2.4-2.2s-0.9-2.2-2.4-2.2h-2.7V460.9z M842.4,462.2V451h1.4v11.2H842.4z"/>
	<path class="st23" d="M845.9,462.2V451h1.4v8.9l6-8.9h1.3v11.2h-1.4v-8.9l-6,8.9H845.9z M847.9,447.8h1.1c0,0.8,0.4,1.3,1.3,1.3
		c0.9,0,1.3-0.5,1.3-1.3h1.1c0,1.3-0.8,2.2-2.4,2.2C848.7,450,848,449.2,847.9,447.8z"/>
	<path class="st23" d="M783.2,474.6c0-3.4,2.1-5.7,5.3-5.7c2.5,0,4.3,1.4,4.7,3.8h-1.5c-0.4-1.6-1.6-2.5-3.3-2.5
		c-2.4,0-3.9,1.8-3.9,4.4c0,2.6,1.4,4.4,3.8,4.4c1.7,0,2.9-0.9,3.3-2.5h1.5c-0.4,2.3-2.3,3.8-4.8,3.8
		C785.2,480.3,783.2,478,783.2,474.6z"/>
	<path class="st23" d="M799.7,480.3c-3.2,0-5.3-2.4-5.3-5.7c0-3.3,2.2-5.7,5.3-5.7c3.2,0,5.3,2.4,5.3,5.7
		C805.1,477.9,802.9,480.3,799.7,480.3z M799.7,479c2.3,0,3.9-1.8,3.9-4.4c0-2.6-1.6-4.4-3.9-4.4c-2.3,0-3.9,1.8-3.9,4.4
		C795.8,477.2,797.4,479,799.7,479z"/>
	<path class="st23" d="M806.7,480.2V469h8.5v11.2h-1.4v-9.9h-5.7v9.9H806.7z"/>
	<path class="st23" d="M817.3,469h4.3c2.2,0,3.7,1.3,3.7,3.4s-1.5,3.5-3.7,3.5h-2.9v4.3h-1.4V469z M818.7,470.3v4.3h2.8
		c1.5,0,2.4-0.8,2.4-2.2s-0.9-2.2-2.4-2.2H818.7z"/>
	<path class="st23" d="M831.8,480.3c-3.2,0-5.3-2.4-5.3-5.7c0-3.3,2.2-5.7,5.3-5.7s5.3,2.4,5.3,5.7
		C837.2,477.9,835,480.3,831.8,480.3z M831.8,479c2.3,0,3.9-1.8,3.9-4.4c0-2.6-1.6-4.4-3.9-4.4s-3.9,1.8-3.9,4.4
		C827.9,477.2,829.5,479,831.8,479z"/>
	<path class="st23" d="M838.8,469h4c2.4,0,3.7,1.2,3.7,3c0,1.3-0.7,2.1-1.8,2.4c1.2,0.2,2.2,1,2.2,2.6c0,2-1.4,3.2-4.1,3.2h-4.1V469
		z M840.2,470.2v3.6h2.6c1.4,0,2.3-0.7,2.3-1.8c0-1.1-0.8-1.8-2.3-1.8H840.2z M840.2,475.1v3.8h2.7c1.7,0,2.6-0.7,2.6-1.9
		c0-1.3-1-2-2.6-2H840.2z"/>
	<path class="st23" d="M853.5,480.3c-3.2,0-5.3-2.4-5.3-5.7c0-3.3,2.2-5.7,5.3-5.7c3.2,0,5.3,2.4,5.3,5.7
		C858.8,477.9,856.6,480.3,853.5,480.3z M853.5,479c2.3,0,3.9-1.8,3.9-4.4c0-2.6-1.6-4.4-3.9-4.4c-2.3,0-3.9,1.8-3.9,4.4
		C849.6,477.2,851.1,479,853.5,479z"/>
	<path class="st23" d="M858.9,480.2l4.1-5.8l-3.8-5.4h1.6l3.5,4.9h1.7V469h1.4v4.9h1.7l3.5-4.9h1.6l-3.8,5.4l4.1,5.8h-1.7l-3.6-5
		h-1.7v5h-1.4v-5h-1.7l-3.6,5H858.9z"/>
	<path class="st23" d="M885.1,478.9h1.4v3.6h-1.4v-2.3h-8.6v2.3h-1.4v-3.6h1.1c0.8-0.7,1.2-1.7,1.2-5V469h7.7V478.9z M883.7,478.9
		v-8.7h-5v3.9c0,2.6-0.3,3.9-0.9,4.8H883.7z"/>
	<path class="st23" d="M887.4,480.2l4.3-11.2h1.6l4.3,11.2h-1.5l-1.2-3H890l-1.2,3H887.4z M890.4,475.9h4l-2-5.4L890.4,475.9z"/>
	<path class="st23" d="M912.8,474.6c0,3.3-2.2,5.7-5.3,5.7c-2.9,0-5-2.1-5.3-5.1h-2v5h-1.4V469h1.4v4.9h2c0.3-2.9,2.4-5,5.3-5
		C910.6,468.9,912.8,471.3,912.8,474.6z M911.3,474.6c0-2.6-1.6-4.4-3.9-4.4s-3.9,1.8-3.9,4.4c0,2.6,1.6,4.4,3.9,4.4
		S911.3,477.2,911.3,474.6z"/>
	<path class="st23" d="M928,478.9h1.4v3.6H928v-2.3h-13.6V469h1.4v9.9h4.7V469h1.4v9.9h4.7V469h1.4V478.9z"/>
	<path class="st23" d="M930.8,480.2V469h1.4v8.9l6-8.9h1.3v11.2h-1.4v-8.9l-6,8.9H930.8z"/>
	<path class="st23" d="M941.6,480.2V469h1.4v8.9l6-8.9h1.3v11.2h-1.4v-8.9l-6,8.9H941.6z M943.6,465.8h1.1c0,0.8,0.4,1.3,1.3,1.3
		s1.3-0.5,1.3-1.3h1.1c0,1.3-0.8,2.2-2.4,2.2C944.4,468,943.7,467.2,943.6,465.8z"/>
</g>
<g>
	<path class="st23" d="M1039.6,462.2V451h6.6v1.3h-5.2v9.9H1039.6z"/>
	<path class="st23" d="M1046,462.2v-1.3h0.3c1.2,0,1.8-0.8,1.8-4.4V451h7.8v11.2h-1.4v-9.9h-5v4.3c0,4.3-0.9,5.6-3,5.6H1046z"/>
	<path class="st23" d="M1057.1,462.2l4.3-11.2h1.6l4.3,11.2h-1.5l-1.2-3h-4.9l-1.2,3H1057.1z M1060.1,457.9h4.1l-2-5.4L1060.1,457.9
		z"/>
	<path class="st23" d="M1068.5,451h4c2.4,0,3.7,1.2,3.7,3c0,1.3-0.7,2.1-1.8,2.4c1.2,0.2,2.2,1,2.2,2.6c0,2-1.4,3.2-4.1,3.2h-4.1
		V451z M1069.9,452.2v3.6h2.6c1.4,0,2.3-0.7,2.3-1.8c0-1.1-0.8-1.8-2.3-1.8H1069.9z M1069.9,457.1v3.8h2.7c1.7,0,2.6-0.7,2.6-1.9
		c0-1.3-1-2-2.6-2H1069.9z"/>
	<path class="st23" d="M1078.3,451h1.4v4.9h5.8V451h1.4v11.2h-1.4v-5.1h-5.8v5.1h-1.4V451z"/>
	<path class="st23" d="M1089,462.2V451h1.4v4.3h2.8c2.2,0,3.7,1.4,3.7,3.5c0,2-1.5,3.5-3.7,3.5H1089z M1090.4,460.9h2.7
		c1.5,0,2.4-0.9,2.4-2.2s-0.9-2.2-2.4-2.2h-2.7V460.9z M1098.4,462.2V451h1.4v11.2H1098.4z"/>
	<path class="st23" d="M1101.9,462.2V451h1.4v8.9l6-8.9h1.3v11.2h-1.4v-8.9l-6,8.9H1101.9z M1103.9,447.8h1.1c0,0.8,0.4,1.3,1.3,1.3
		c0.9,0,1.3-0.5,1.3-1.3h1.1c0,1.3-0.8,2.2-2.4,2.2C1104.7,450,1104,449.2,1103.9,447.8z"/>
	<path class="st23" d="M1039.2,474.6c0-3.4,2.1-5.7,5.3-5.7c2.5,0,4.3,1.4,4.7,3.8h-1.5c-0.4-1.6-1.6-2.5-3.3-2.5
		c-2.4,0-3.9,1.8-3.9,4.4c0,2.6,1.4,4.4,3.8,4.4c1.7,0,2.9-0.9,3.3-2.5h1.5c-0.4,2.3-2.3,3.8-4.8,3.8
		C1041.2,480.3,1039.2,478,1039.2,474.6z"/>
	<path class="st23" d="M1055.7,480.3c-3.2,0-5.3-2.4-5.3-5.7c0-3.3,2.2-5.7,5.3-5.7c3.2,0,5.3,2.4,5.3,5.7
		C1061.1,477.9,1058.9,480.3,1055.7,480.3z M1055.7,479c2.3,0,3.9-1.8,3.9-4.4c0-2.6-1.6-4.4-3.9-4.4c-2.3,0-3.9,1.8-3.9,4.4
		C1051.8,477.2,1053.4,479,1055.7,479z"/>
	<path class="st23" d="M1062.7,480.2V469h8.5v11.2h-1.4v-9.9h-5.7v9.9H1062.7z"/>
	<path class="st23" d="M1073.3,469h4.3c2.2,0,3.7,1.3,3.7,3.4s-1.5,3.5-3.7,3.5h-2.9v4.3h-1.4V469z M1074.7,470.3v4.3h2.8
		c1.5,0,2.4-0.8,2.4-2.2s-0.9-2.2-2.4-2.2H1074.7z"/>
	<path class="st23" d="M1087.8,480.3c-3.2,0-5.3-2.4-5.3-5.7c0-3.3,2.2-5.7,5.3-5.7s5.3,2.4,5.3,5.7
		C1093.2,477.9,1091,480.3,1087.8,480.3z M1087.8,479c2.3,0,3.9-1.8,3.9-4.4c0-2.6-1.6-4.4-3.9-4.4s-3.9,1.8-3.9,4.4
		C1083.9,477.2,1085.5,479,1087.8,479z"/>
	<path class="st23" d="M1094.8,469h4c2.4,0,3.7,1.2,3.7,3c0,1.3-0.7,2.1-1.8,2.4c1.2,0.2,2.2,1,2.2,2.6c0,2-1.4,3.2-4.1,3.2h-4.1
		V469z M1096.2,470.2v3.6h2.6c1.4,0,2.3-0.7,2.3-1.8c0-1.1-0.8-1.8-2.3-1.8H1096.2z M1096.2,475.1v3.8h2.7c1.7,0,2.6-0.7,2.6-1.9
		c0-1.3-1-2-2.6-2H1096.2z"/>
	<path class="st23" d="M1109.5,480.3c-3.2,0-5.3-2.4-5.3-5.7c0-3.3,2.2-5.7,5.3-5.7c3.2,0,5.3,2.4,5.3,5.7
		C1114.8,477.9,1112.6,480.3,1109.5,480.3z M1109.5,479c2.3,0,3.9-1.8,3.9-4.4c0-2.6-1.6-4.4-3.9-4.4c-2.3,0-3.9,1.8-3.9,4.4
		C1105.6,477.2,1107.1,479,1109.5,479z"/>
	<path class="st23" d="M1114.9,480.2l4.1-5.8l-3.8-5.4h1.6l3.5,4.9h1.7V469h1.4v4.9h1.7l3.5-4.9h1.6l-3.8,5.4l4.1,5.8h-1.7l-3.6-5
		h-1.7v5h-1.4v-5h-1.7l-3.6,5H1114.9z"/>
	<path class="st23" d="M1141.1,478.9h1.4v3.6h-1.4v-2.3h-8.6v2.3h-1.4v-3.6h1.1c0.8-0.7,1.2-1.7,1.2-5V469h7.7V478.9z M1139.7,478.9
		v-8.7h-5v3.9c0,2.6-0.3,3.9-0.9,4.8H1139.7z"/>
	<path class="st23" d="M1143.4,480.2l4.3-11.2h1.6l4.3,11.2h-1.5l-1.2-3h-4.9l-1.2,3H1143.4z M1146.4,475.9h4l-2-5.4L1146.4,475.9z"
		/>
	<path class="st23" d="M1168.8,474.6c0,3.3-2.2,5.7-5.3,5.7c-2.9,0-5-2.1-5.3-5.1h-2v5h-1.4V469h1.4v4.9h2c0.3-2.9,2.4-5,5.3-5
		C1166.6,468.9,1168.8,471.3,1168.8,474.6z M1167.3,474.6c0-2.6-1.6-4.4-3.9-4.4s-3.9,1.8-3.9,4.4c0,2.6,1.6,4.4,3.9,4.4
		S1167.3,477.2,1167.3,474.6z"/>
	<path class="st23" d="M1184,478.9h1.4v3.6h-1.4v-2.3h-13.6V469h1.4v9.9h4.7V469h1.4v9.9h4.7V469h1.4V478.9z"/>
	<path class="st23" d="M1186.8,480.2V469h1.4v8.9l6-8.9h1.3v11.2h-1.4v-8.9l-6,8.9H1186.8z"/>
	<path class="st23" d="M1197.6,480.2V469h1.4v8.9l6-8.9h1.3v11.2h-1.4v-8.9l-6,8.9H1197.6z M1199.6,465.8h1.1c0,0.8,0.4,1.3,1.3,1.3
		s1.3-0.5,1.3-1.3h1.1c0,1.3-0.8,2.2-2.4,2.2C1200.4,468,1199.7,467.2,1199.6,465.8z"/>
</g>
<g>
	<path class="st23" d="M1295.6,462.2V451h6.6v1.3h-5.2v9.9H1295.6z"/>
	<path class="st23" d="M1302,462.2v-1.3h0.3c1.2,0,1.8-0.8,1.8-4.4V451h7.8v11.2h-1.4v-9.9h-5v4.3c0,4.3-0.9,5.6-3,5.6H1302z"/>
	<path class="st23" d="M1313.1,462.2l4.3-11.2h1.6l4.3,11.2h-1.5l-1.2-3h-4.9l-1.2,3H1313.1z M1316.1,457.9h4.1l-2-5.4L1316.1,457.9
		z"/>
	<path class="st23" d="M1324.5,451h4c2.4,0,3.7,1.2,3.7,3c0,1.3-0.7,2.1-1.8,2.4c1.2,0.2,2.2,1,2.2,2.6c0,2-1.4,3.2-4.1,3.2h-4.1
		V451z M1325.9,452.2v3.6h2.6c1.4,0,2.3-0.7,2.3-1.8c0-1.1-0.8-1.8-2.3-1.8H1325.9z M1325.9,457.1v3.8h2.7c1.7,0,2.6-0.7,2.6-1.9
		c0-1.3-1-2-2.6-2H1325.9z"/>
	<path class="st23" d="M1334.3,451h1.4v4.9h5.8V451h1.4v11.2h-1.4v-5.1h-5.8v5.1h-1.4V451z"/>
	<path class="st23" d="M1345,462.2V451h1.4v4.3h2.8c2.2,0,3.7,1.4,3.7,3.5c0,2-1.5,3.5-3.7,3.5H1345z M1346.4,460.9h2.7
		c1.5,0,2.4-0.9,2.4-2.2s-0.9-2.2-2.4-2.2h-2.7V460.9z M1354.4,462.2V451h1.4v11.2H1354.4z"/>
	<path class="st23" d="M1357.9,462.2V451h1.4v8.9l6-8.9h1.3v11.2h-1.4v-8.9l-6,8.9H1357.9z M1359.9,447.8h1.1c0,0.8,0.4,1.3,1.3,1.3
		c0.9,0,1.3-0.5,1.3-1.3h1.1c0,1.3-0.8,2.2-2.4,2.2C1360.7,450,1360,449.2,1359.9,447.8z"/>
	<path class="st23" d="M1295.2,474.6c0-3.4,2.1-5.7,5.3-5.7c2.5,0,4.3,1.4,4.7,3.8h-1.5c-0.4-1.6-1.6-2.5-3.3-2.5
		c-2.4,0-3.9,1.8-3.9,4.4c0,2.6,1.4,4.4,3.8,4.4c1.7,0,2.9-0.9,3.3-2.5h1.5c-0.4,2.3-2.3,3.8-4.8,3.8
		C1297.2,480.3,1295.2,478,1295.2,474.6z"/>
	<path class="st23" d="M1311.7,480.3c-3.2,0-5.3-2.4-5.3-5.7s2.2-5.7,5.3-5.7c3.2,0,5.3,2.4,5.3,5.7S1314.9,480.3,1311.7,480.3z
		 M1311.7,479c2.3,0,3.9-1.8,3.9-4.4s-1.6-4.4-3.9-4.4c-2.3,0-3.9,1.8-3.9,4.4S1309.4,479,1311.7,479z"/>
	<path class="st23" d="M1318.7,480.2V469h8.5v11.2h-1.4v-9.9h-5.7v9.9H1318.7z"/>
	<path class="st23" d="M1329.3,469h4.3c2.2,0,3.7,1.3,3.7,3.4s-1.5,3.5-3.7,3.5h-2.9v4.3h-1.4V469z M1330.7,470.3v4.3h2.8
		c1.5,0,2.4-0.8,2.4-2.2c0-1.3-0.9-2.2-2.4-2.2H1330.7z"/>
	<path class="st23" d="M1343.8,480.3c-3.2,0-5.3-2.4-5.3-5.7s2.2-5.7,5.3-5.7s5.3,2.4,5.3,5.7S1347,480.3,1343.8,480.3z M1343.8,479
		c2.3,0,3.9-1.8,3.9-4.4s-1.6-4.4-3.9-4.4s-3.9,1.8-3.9,4.4S1341.5,479,1343.8,479z"/>
	<path class="st23" d="M1350.8,469h4c2.4,0,3.7,1.2,3.7,3c0,1.3-0.7,2.1-1.8,2.4c1.2,0.2,2.2,1,2.2,2.6c0,2-1.4,3.2-4.1,3.2h-4.1
		V469z M1352.2,470.2v3.6h2.6c1.4,0,2.3-0.7,2.3-1.8c0-1.1-0.8-1.8-2.3-1.8H1352.2z M1352.2,475.1v3.8h2.7c1.7,0,2.6-0.7,2.6-1.9
		c0-1.3-1-2-2.6-2H1352.2z"/>
	<path class="st23" d="M1365.5,480.3c-3.2,0-5.3-2.4-5.3-5.7s2.2-5.7,5.3-5.7c3.2,0,5.3,2.4,5.3,5.7S1368.6,480.3,1365.5,480.3z
		 M1365.5,479c2.3,0,3.9-1.8,3.9-4.4s-1.6-4.4-3.9-4.4c-2.3,0-3.9,1.8-3.9,4.4S1363.1,479,1365.5,479z"/>
	<path class="st23" d="M1370.9,480.2l4.1-5.8l-3.8-5.4h1.6l3.5,4.9h1.7V469h1.4v4.9h1.7l3.5-4.9h1.6l-3.8,5.4l4.1,5.8h-1.7l-3.6-5
		h-1.7v5h-1.4v-5h-1.7l-3.6,5H1370.9z"/>
	<path class="st23" d="M1397.1,478.9h1.4v3.6h-1.4v-2.3h-8.6v2.3h-1.4v-3.6h1.1c0.8-0.7,1.2-1.7,1.2-5V469h7.7V478.9z M1395.7,478.9
		v-8.7h-5v3.9c0,2.6-0.3,3.9-0.9,4.8H1395.7z"/>
	<path class="st23" d="M1399.4,480.2l4.3-11.2h1.6l4.3,11.2h-1.5l-1.2-3h-4.9l-1.2,3H1399.4z M1402.4,475.9h4l-2-5.4L1402.4,475.9z"
		/>
	<path class="st23" d="M1424.8,474.6c0,3.3-2.2,5.7-5.3,5.7c-2.9,0-5-2.1-5.3-5.1h-2v5h-1.4V469h1.4v4.9h2c0.3-2.9,2.4-5,5.3-5
		C1422.6,468.9,1424.8,471.3,1424.8,474.6z M1423.3,474.6c0-2.6-1.6-4.4-3.9-4.4s-3.9,1.8-3.9,4.4s1.6,4.4,3.9,4.4
		S1423.3,477.2,1423.3,474.6z"/>
	<path class="st23" d="M1440,478.9h1.4v3.6h-1.4v-2.3h-13.6V469h1.4v9.9h4.7V469h1.4v9.9h4.7V469h1.4V478.9z"/>
	<path class="st23" d="M1442.8,480.2V469h1.4v8.9l6-8.9h1.3v11.2h-1.4v-8.9l-6,8.9H1442.8z"/>
	<path class="st23" d="M1453.6,480.2V469h1.4v8.9l6-8.9h1.3v11.2h-1.4v-8.9l-6,8.9H1453.6z M1455.6,465.8h1.1c0,0.8,0.4,1.3,1.3,1.3
		s1.3-0.5,1.3-1.3h1.1c0,1.3-0.8,2.2-2.4,2.2C1456.4,468,1455.7,467.2,1455.6,465.8z"/>
</g>
<g>
	<path class="st23" d="M15.1,575.2l9.7-13.7l-9.1-12.9h3.8l8.2,11.6h4v-11.6h3.3v11.6h4l8.2-11.6h3.8l-9.1,12.9l9.7,13.7h-4l-8.4-12
		h-4.1v12h-3.3v-12h-4.1l-8.5,12H15.1z"/>
	<path class="st23" d="M54.3,548.6h16.9v3H57.6v8.5h11.4v3H57.6v9h14.1v3H54.3V548.6z"/>
	<path class="st23" d="M73.7,575.2v-3h0.6c2.9,0,4.2-1.8,4.2-10.5v-13.1h18.5v26.6h-3.3v-23.6h-12v10.3c0,10.2-2.2,13.3-7,13.3H73.7
		z"/>
	<path class="st23" d="M100,548.6h20.6v3h-8.6v23.6h-3.3v-23.6H100V548.6z"/>
	<path class="st23" d="M123.5,575.2v-26.6h3.3v10.2h6.6c5.3,0,8.8,3.4,8.8,8.2c0,4.7-3.5,8.2-8.8,8.2H123.5z M126.8,572.1h6.4
		c3.5,0,5.7-2.1,5.7-5.2c0-3.1-2.2-5.2-5.7-5.2h-6.3V572.1z M145.6,575.2v-26.6h3.3v26.6H145.6z"/>
	<path class="st23" d="M153.8,575.2v-26.6h3.3v21.1l14.2-21.1h3.1v26.6h-3.3v-21.1l-14.2,21.1H153.8z M158.6,541.1h2.6
		c0,1.9,0.8,3,3,3c2.2,0,3.1-1.1,3.1-3h2.6c-0.1,3.2-2,5.2-5.7,5.2C160.5,546.3,158.6,544.3,158.6,541.1z"/>
</g>
<g>
	<path class="st23" d="M401.3,567.2h3.4c0.2,3.5,2.8,5.2,6.6,5.2c4,0,6.3-1.7,6.3-4.8c0-3.1-2.2-4.6-6.3-4.6h-2.7v-2.8h2.5
		c4,0,5.8-1.6,5.8-4.6c0-2.8-2.3-4.3-5.7-4.3c-3.7,0-6.1,1.8-6.3,4.9h-3.4c0.2-4.7,4.1-7.9,9.6-7.9c5.7,0,9.1,2.8,9.1,7
		c0,3.5-1.7,5.4-4.3,6c2.5,0.6,5,2.3,5,6.4c0,4.5-3.9,7.6-9.9,7.6C405,575.4,401.5,572.5,401.3,567.2z"/>
	<path class="st23" d="M424.9,548.6h16.9v3h-13.6v8.5h11.4v3h-11.4v9h14.1v3h-17.4V548.6z"/>
	<path class="st23" d="M444.3,575.2v-3h0.6c2.9,0,4.2-1.8,4.2-10.5v-13.1h18.5v26.6h-3.3v-23.6h-12v10.3c0,10.2-2.2,13.3-7,13.3
		H444.3z"/>
	<path class="st23" d="M472.5,548.6h16.9v3h-13.6v8.5h11.4v3h-11.4v9H490v3h-17.4V548.6z"/>
	<path class="st23" d="M493.1,548.6h3.3v11.6h13.8v-11.6h3.3v26.6h-3.3v-12h-13.8v12h-3.3V548.6z"/>
	<path class="st23" d="M518.3,575.2v-26.6h3.3v10.2h6.6c5.3,0,8.8,3.4,8.8,8.2c0,4.7-3.5,8.2-8.8,8.2H518.3z M521.6,572.1h6.4
		c3.5,0,5.7-2.1,5.7-5.2c0-3.1-2.2-5.2-5.7-5.2h-6.3V572.1z M540.4,575.2v-26.6h3.3v26.6H540.4z"/>
	<path class="st23" d="M548.6,575.2v-26.6h3.3v21.1l14.2-21.1h3.1v26.6H566v-21.1l-14.2,21.1H548.6z M553.4,541.1h2.6
		c0,1.9,0.8,3,3,3c2.2,0,3.1-1.1,3.1-3h2.6c-0.1,3.2-2,5.2-5.7,5.2C555.3,546.3,553.5,544.3,553.4,541.1z"/>
</g>
<g>
	<path class="st23" d="M785.1,548.6h10.2c5.3,0,8.8,3.2,8.8,8.2c0,5-3.5,8.2-8.8,8.2h-6.9v10.2h-3.3V548.6z M788.4,551.6v10.3h6.6
		c3.5,0,5.7-2,5.7-5.2s-2.2-5.1-5.7-5.1H788.4z"/>
	<path class="st23" d="M819.2,575.4c-7.5,0-12.7-5.7-12.7-13.5c0-7.8,5.2-13.5,12.7-13.5c7.5,0,12.7,5.7,12.7,13.5
		C831.8,569.7,826.6,575.4,819.2,575.4z M819.2,572.4c5.5,0,9.3-4.4,9.3-10.5c0-6.1-3.8-10.5-9.3-10.5c-5.5,0-9.3,4.4-9.3,10.5
		C809.8,568,813.6,572.4,819.2,572.4z"/>
	<path class="st23" d="M834.3,567.2h3.4c0.2,3.5,2.8,5.2,6.6,5.2c4,0,6.3-1.7,6.3-4.8c0-3.1-2.2-4.6-6.3-4.6h-2.7v-2.8h2.5
		c4,0,5.8-1.6,5.8-4.6c0-2.8-2.3-4.3-5.7-4.3c-3.7,0-6.1,1.8-6.3,4.9h-3.4c0.2-4.7,4.1-7.9,9.6-7.9c5.7,0,9.1,2.8,9.1,7
		c0,3.5-1.7,5.4-4.3,6c2.5,0.6,5,2.3,5,6.4c0,4.5-3.9,7.6-9.9,7.6C837.9,575.4,834.4,572.5,834.3,567.2z"/>
	<path class="st23" d="M869.3,575.4c-7.5,0-12.7-5.7-12.7-13.5c0-7.8,5.2-13.5,12.7-13.5c7.5,0,12.7,5.7,12.7,13.5
		C882,569.7,876.8,575.4,869.3,575.4z M869.3,572.4c5.5,0,9.3-4.4,9.3-10.5c0-6.1-3.8-10.5-9.3-10.5c-5.5,0-9.3,4.4-9.3,10.5
		C860,568,863.7,572.4,869.3,572.4z"/>
	<path class="st23" d="M885.6,548.6h9.4c5.7,0,8.8,2.7,8.8,7c0,3-1.7,4.9-4.2,5.8c2.8,0.5,5.3,2.4,5.3,6.2c0,4.7-3.3,7.6-9.7,7.6
		h-9.7V548.6z M888.9,551.6v8.5h6.3c3.4,0,5.4-1.6,5.4-4.3c0-2.7-1.9-4.3-5.4-4.3H888.9z M888.9,563.1v9.1h6.4
		c4.1,0,6.3-1.7,6.3-4.4c0-3-2.3-4.6-6.3-4.6H888.9z"/>
	<path class="st23" d="M908.6,575.2v-26.6h3.3v10.2h6.6c5.3,0,8.8,3.4,8.8,8.2c0,4.7-3.5,8.2-8.8,8.2H908.6z M911.9,572.1h6.4
		c3.5,0,5.7-2.1,5.7-5.2c0-3.1-2.2-5.2-5.7-5.2h-6.3V572.1z M930.7,575.2v-26.6h3.3v26.6H930.7z"/>
	<path class="st23" d="M938.9,575.2v-26.6h3.3v21.1l14.2-21.1h3.1v26.6h-3.3v-21.1L942,575.2H938.9z M943.7,541.1h2.6
		c0,1.9,0.8,3,3,3s3.1-1.1,3.1-3h2.6c-0.1,3.2-2,5.2-5.7,5.2C945.6,546.3,943.7,544.3,943.7,541.1z"/>
</g>
<g>
	<path class="st23" d="M1040.1,561.9c0-8.1,5-13.5,12.7-13.5c5.9,0,10.2,3.4,11.2,8.9h-3.5c-1-3.7-3.8-5.9-7.8-5.9
		c-5.6,0-9.2,4.3-9.2,10.5c0,6.1,3.4,10.5,9,10.5c4.1,0,7-2.2,7.9-5.9h3.5c-1,5.5-5.4,8.9-11.4,8.9
		C1044.9,575.4,1040.1,570,1040.1,561.9z"/>
	<path class="st23" d="M1067.3,575.2v-26.6h3.3v21.1l14.2-21.1h3.1v26.6h-3.3v-21.1l-14.2,21.1H1067.3z"/>
	<path class="st23" d="M1092.8,548.6h10.2c5.3,0,8.8,3.2,8.8,8.2c0,5-3.5,8.2-8.8,8.2h-6.9v10.2h-3.3V548.6z M1096.1,551.6v10.3h6.6
		c3.5,0,5.7-2,5.7-5.2s-2.2-5.1-5.7-5.1H1096.1z"/>
	<path class="st23" d="M1114.9,548.6h16.9v3h-13.6v8.5h11.4v3h-11.4v9h14.1v3h-17.4V548.6z"/>
	<path class="st23" d="M1135.4,548.6h3.3v11.6h13.8v-11.6h3.3v26.6h-3.3v-12h-13.8v12h-3.3V548.6z"/>
	<path class="st23" d="M1160.7,548.6h16.9v3H1164v8.5h11.4v3H1164v9h14.1v3h-17.4V548.6z"/>
	<path class="st23" d="M1181.2,548.6h9.4c5.7,0,8.8,2.7,8.8,7c0,3-1.7,4.9-4.2,5.8c2.8,0.5,5.3,2.4,5.3,6.2c0,4.7-3.3,7.6-9.7,7.6
		h-9.7V548.6z M1184.5,551.6v8.5h6.3c3.4,0,5.4-1.6,5.4-4.3c0-2.7-1.9-4.3-5.4-4.3H1184.5z M1184.5,563.1v9.1h6.4
		c4.1,0,6.3-1.7,6.3-4.4c0-3-2.3-4.6-6.3-4.6H1184.5z"/>
	<path class="st23" d="M1204.2,575.2v-26.6h3.3v10.2h6.6c5.3,0,8.8,3.4,8.8,8.2c0,4.7-3.5,8.2-8.8,8.2H1204.2z M1207.5,572.1h6.4
		c3.5,0,5.7-2.1,5.7-5.2c0-3.1-2.2-5.2-5.7-5.2h-6.3V572.1z M1226.4,575.2v-26.6h3.3v26.6H1226.4z"/>
	<path class="st23" d="M1234.5,575.2v-26.6h3.3v21.1l14.2-21.1h3.1v26.6h-3.3v-21.1l-14.2,21.1H1234.5z M1239.3,541.1h2.6
		c0,1.9,0.8,3,3,3s3.1-1.1,3.1-3h2.6c-0.1,3.2-2,5.2-5.7,5.2C1241.2,546.3,1239.4,544.3,1239.3,541.1z"/>
</g>
<g>
	<path class="st23" d="M1297.1,575.2v-26.6h3.3v11.6h4.9l8.7-11.6h3.8l-9.8,12.9l10.4,13.7h-4l-9.2-12h-4.9v12H1297.1z"/>
	<path class="st23" d="M1321.3,548.6h10.2c5.3,0,8.8,3.2,8.8,8.2s-3.5,8.2-8.8,8.2h-6.9v10.2h-3.3V548.6z M1324.6,551.6v10.3h6.6
		c3.5,0,5.7-2,5.7-5.2s-2.2-5.1-5.7-5.1H1324.6z"/>
	<path class="st23" d="M1339.1,575.2l10.1-26.6h3.9l10.1,26.6h-3.5l-2.8-7.2h-11.6l-2.8,7.2H1339.1z M1346.4,565h9.6l-4.8-12.8
		L1346.4,565z"/>
	<path class="st23" d="M1363.8,561.9c0-8.1,5-13.5,12.7-13.5c5.9,0,10.2,3.4,11.2,8.9h-3.5c-1-3.7-3.8-5.9-7.8-5.9
		c-5.6,0-9.2,4.3-9.2,10.5c0,6.1,3.4,10.5,9,10.5c4.1,0,7-2.2,7.9-5.9h3.5c-1,5.5-5.4,8.9-11.4,8.9
		C1368.6,575.4,1363.8,570,1363.8,561.9z"/>
	<path class="st23" d="M1391,548.6h3.3v11.6h13.8v-11.6h3.3v26.6h-3.3v-12h-13.8v12h-3.3V548.6z"/>
	<path class="st23" d="M1416.3,575.2v-26.6h3.3v10.2h6.6c5.3,0,8.8,3.4,8.8,8.2c0,4.7-3.5,8.2-8.8,8.2H1416.3z M1419.6,572.1h6.4
		c3.5,0,5.7-2.1,5.7-5.2s-2.2-5.2-5.7-5.2h-6.3V572.1z M1438.4,575.2v-26.6h3.3v26.6H1438.4z"/>
	<path class="st23" d="M1446.6,575.2v-26.6h3.3v21.1l14.2-21.1h3.1v26.6h-3.3v-21.1l-14.2,21.1H1446.6z M1451.4,541.1h2.6
		c0,1.9,0.8,3,3,3c2.2,0,3.1-1.1,3.1-3h2.6c-0.1,3.2-2,5.2-5.7,5.2C1453.2,546.3,1451.4,544.3,1451.4,541.1z"/>
</g>
<g>
	<path class="st23" d="M16,606.2v-15.4h1.9v13.6h7v1.8H16z"/>
	<path class="st23" d="M32.8,606.3c-4.3,0-7.3-3.3-7.3-7.8s3-7.8,7.3-7.8c4.3,0,7.3,3.3,7.3,7.8S37.1,606.3,32.8,606.3z M32.8,604.5
		c3.2,0,5.4-2.5,5.4-6.1s-2.2-6.1-5.4-6.1c-3.2,0-5.4,2.5-5.4,6.1S29.6,604.5,32.8,604.5z"/>
	<path class="st23" d="M42.6,606.2v-15.4h1.9v13.6h7v1.8H42.6z"/>
	<path class="st23" d="M59.4,606.3c-4.3,0-7.3-3.3-7.3-7.8s3-7.8,7.3-7.8c4.3,0,7.3,3.3,7.3,7.8S63.8,606.3,59.4,606.3z M59.4,604.5
		c3.2,0,5.4-2.5,5.4-6.1s-2.2-6.1-5.4-6.1c-3.2,0-5.4,2.5-5.4,6.1S56.2,604.5,59.4,604.5z"/>
	<path class="st23" d="M77.1,590.8h1.8v15.4h-1.8v-11c-0.2,0.2-0.6,0.3-1.1,0.3h-2.5v-1.6h2.5c0.7,0,1.1-0.6,1.1-1.3V590.8z"/>
	<path class="st23" d="M81.6,598.1c0-4.4,2.4-7.5,5.9-7.5c3.5,0,5.8,3.1,5.8,7.5v0.7c0,4.6-2.4,7.5-5.8,7.5c-3.5,0-5.9-2.9-5.9-7.5
		V598.1z M91.4,598.2c0-3.7-1.6-5.9-4-5.9c-2.4,0-4,2.2-4,5.9v0.6c0,3.7,1.6,5.9,4,5.9c2.4,0,4-2.2,4-5.9V598.2z"/>
	<path class="st23" d="M95.3,598.1c0-4.4,2.4-7.5,5.9-7.5c3.5,0,5.8,3.1,5.8,7.5v0.7c0,4.6-2.4,7.5-5.8,7.5c-3.5,0-5.9-2.9-5.9-7.5
		V598.1z M105.1,598.2c0-3.7-1.6-5.9-4-5.9c-2.4,0-4,2.2-4,5.9v0.6c0,3.7,1.6,5.9,4,5.9c2.4,0,4-2.2,4-5.9V598.2z"/>
</g>
<g>
	<path class="st23" d="M16,205.7v-15.4h1.9v13.6h7v1.8H16z"/>
	<path class="st23" d="M32.8,205.8c-4.3,0-7.3-3.3-7.3-7.8s3-7.8,7.3-7.8c4.3,0,7.3,3.3,7.3,7.8S37.1,205.8,32.8,205.8z M32.8,204.1
		c3.2,0,5.4-2.5,5.4-6.1s-2.2-6.1-5.4-6.1c-3.2,0-5.4,2.5-5.4,6.1S29.6,204.1,32.8,204.1z"/>
	<path class="st23" d="M42.6,205.7v-15.4h1.9v13.6h7v1.8H42.6z"/>
	<path class="st23" d="M59.4,205.8c-4.3,0-7.3-3.3-7.3-7.8s3-7.8,7.3-7.8c4.3,0,7.3,3.3,7.3,7.8S63.8,205.8,59.4,205.8z M59.4,204.1
		c3.2,0,5.4-2.5,5.4-6.1s-2.2-6.1-5.4-6.1c-3.2,0-5.4,2.5-5.4,6.1S56.2,204.1,59.4,204.1z"/>
	<path class="st23" d="M74.4,197.6c0-4.4,2.4-7.5,5.9-7.5c3.5,0,5.8,3.1,5.8,7.5v0.7c0,4.6-2.4,7.5-5.8,7.5c-3.5,0-5.9-2.9-5.9-7.5
		V197.6z M84.2,197.7c0-3.7-1.6-5.9-4-5.9c-2.4,0-4,2.2-4,5.9v0.6c0,3.7,1.6,5.9,4,5.9c2.4,0,4-2.2,4-5.9V197.7z"/>
</g>
<g>
	<g>
		<path class="st22" d="M784,205.7v-15.4h1.9v13.6h7v1.8H784z"/>
		<path class="st22" d="M800.8,205.8c-4.3,0-7.3-3.3-7.3-7.8s3-7.8,7.3-7.8s7.3,3.3,7.3,7.8S805.1,205.8,800.8,205.8z M800.8,204.1
			c3.2,0,5.4-2.5,5.4-6.1s-2.2-6.1-5.4-6.1s-5.4,2.5-5.4,6.1S797.6,204.1,800.8,204.1z"/>
		<path class="st22" d="M810.6,205.7v-15.4h1.9v13.6h7v1.8H810.6z"/>
		<path class="st22" d="M827.4,205.8c-4.3,0-7.3-3.3-7.3-7.8s3-7.8,7.3-7.8c4.3,0,7.3,3.3,7.3,7.8S831.8,205.8,827.4,205.8z
			 M827.4,204.1c3.2,0,5.4-2.5,5.4-6.1s-2.2-6.1-5.4-6.1c-3.2,0-5.4,2.5-5.4,6.1S824.2,204.1,827.4,204.1z"/>
		<path class="st22" d="M845.1,190.3h1.8v15.4h-1.8v-11c-0.2,0.2-0.6,0.3-1.1,0.3h-2.5v-1.6h2.5c0.7,0,1.1-0.6,1.1-1.3V190.3z"/>
		<path class="st22" d="M849.6,197.6c0-4.4,2.4-7.5,5.9-7.5c3.5,0,5.8,3.1,5.8,7.5v0.7c0,4.6-2.4,7.5-5.8,7.5
			c-3.5,0-5.9-2.9-5.9-7.5V197.6z M859.4,197.7c0-3.7-1.6-5.9-4-5.9c-2.4,0-4,2.2-4,5.9v0.6c0,3.7,1.6,5.9,4,5.9c2.4,0,4-2.2,4-5.9
			V197.7z"/>
		<path class="st22" d="M863.3,197.6c0-4.4,2.4-7.5,5.9-7.5c3.5,0,5.8,3.1,5.8,7.5v0.7c0,4.6-2.4,7.5-5.8,7.5
			c-3.5,0-5.9-2.9-5.9-7.5V197.6z M873.1,197.7c0-3.7-1.6-5.9-4-5.9c-2.4,0-4,2.2-4,5.9v0.6c0,3.7,1.6,5.9,4,5.9c2.4,0,4-2.2,4-5.9
			V197.7z"/>
	</g>
</g>
<g>
	<g>
		<path class="st22" d="M784,34.3V18.9h1.9v13.6h7v1.8H784z"/>
		<path class="st22" d="M800.8,34.4c-4.3,0-7.3-3.3-7.3-7.8s3-7.8,7.3-7.8s7.3,3.3,7.3,7.8S805.1,34.4,800.8,34.4z M800.8,32.6
			c3.2,0,5.4-2.5,5.4-6.1s-2.2-6.1-5.4-6.1s-5.4,2.5-5.4,6.1S797.6,32.6,800.8,32.6z"/>
		<path class="st22" d="M810.6,34.3V18.9h1.9v13.6h7v1.8H810.6z"/>
		<path class="st22" d="M827.4,34.4c-4.3,0-7.3-3.3-7.3-7.8s3-7.8,7.3-7.8c4.3,0,7.3,3.3,7.3,7.8S831.8,34.4,827.4,34.4z
			 M827.4,32.6c3.2,0,5.4-2.5,5.4-6.1s-2.2-6.1-5.4-6.1c-3.2,0-5.4,2.5-5.4,6.1S824.2,32.6,827.4,32.6z"/>
		<path class="st22" d="M841.7,28.9l7.9-10h2.1v9.9h2.5v1.7h-2.5v3.8h-1.8v-3.8h-8.1V28.9z M843.8,28.8h6v-7.7L843.8,28.8z"/>
		<path class="st22" d="M855.5,26.2c0-4.4,2.4-7.5,5.9-7.5c3.5,0,5.8,3.1,5.8,7.5v0.7c0,4.6-2.4,7.5-5.8,7.5c-3.5,0-5.9-2.9-5.9-7.5
			V26.2z M865.3,26.3c0-3.7-1.6-5.9-4-5.9c-2.4,0-4,2.2-4,5.9v0.6c0,3.7,1.6,5.9,4,5.9c2.4,0,4-2.2,4-5.9V26.3z"/>
	</g>
</g>
<g>
	<g>
		<path class="st22" d="M1040,34.3V18.9h1.9v13.6h7v1.8H1040z"/>
		<path class="st22" d="M1056.8,34.4c-4.3,0-7.3-3.3-7.3-7.8s3-7.8,7.3-7.8c4.3,0,7.3,3.3,7.3,7.8S1061.1,34.4,1056.8,34.4z
			 M1056.8,32.6c3.2,0,5.4-2.5,5.4-6.1s-2.2-6.1-5.4-6.1c-3.2,0-5.4,2.5-5.4,6.1S1053.6,32.6,1056.8,32.6z"/>
		<path class="st22" d="M1066.6,34.3V18.9h1.9v13.6h7v1.8H1066.6z"/>
		<path class="st22" d="M1083.4,34.4c-4.3,0-7.3-3.3-7.3-7.8s3-7.8,7.3-7.8c4.3,0,7.3,3.3,7.3,7.8S1087.8,34.4,1083.4,34.4z
			 M1083.4,32.6c3.2,0,5.4-2.5,5.4-6.1s-2.2-6.1-5.4-6.1c-3.2,0-5.4,2.5-5.4,6.1S1080.2,32.6,1083.4,32.6z"/>
		<path class="st22" d="M1098.4,26.6c0-4.8,2.2-7.9,5.9-7.9c2.8,0,4.7,1.7,5.1,4.2h-1.8c-0.4-1.6-1.5-2.6-3.3-2.6
			c-2.7,0-4.2,2.4-4.2,5.9c0,0.2,0,0.4,0,0.7c0-0.1,0-0.2,0.1-0.4c0.7-1.5,2.2-2.5,4.3-2.5c3,0,5.2,2,5.2,5.1c0,3-2.2,5.2-5.3,5.2
			c-2.1,0-3.7-1-4.7-2.6C1098.8,30.5,1098.4,28.7,1098.4,26.6z M1104.3,25.7c-2.1,0-3.6,1.5-3.6,3.6c0,2.1,1.4,3.5,3.5,3.5
			c2.1,0,3.5-1.5,3.5-3.5C1107.8,27.2,1106.5,25.7,1104.3,25.7z"/>
		<path class="st22" d="M1111.5,26.2c0-4.4,2.4-7.5,5.9-7.5c3.5,0,5.8,3.1,5.8,7.5v0.7c0,4.6-2.4,7.5-5.8,7.5
			c-3.5,0-5.9-2.9-5.9-7.5V26.2z M1121.3,26.3c0-3.7-1.6-5.9-4-5.9c-2.4,0-4,2.2-4,5.9v0.6c0,3.7,1.6,5.9,4,5.9c2.4,0,4-2.2,4-5.9
			V26.3z"/>
	</g>
</g>
<g>
	<g>
		<path class="st22" d="M1296,34.3V18.9h1.9v13.6h7v1.8H1296z"/>
		<path class="st22" d="M1312.8,34.4c-4.3,0-7.3-3.3-7.3-7.8s3-7.8,7.3-7.8c4.3,0,7.3,3.3,7.3,7.8S1317.1,34.4,1312.8,34.4z
			 M1312.8,32.6c3.2,0,5.4-2.5,5.4-6.1s-2.2-6.1-5.4-6.1c-3.2,0-5.4,2.5-5.4,6.1S1309.6,32.6,1312.8,32.6z"/>
		<path class="st22" d="M1322.6,34.3V18.9h1.9v13.6h7v1.8H1322.6z"/>
		<path class="st22" d="M1339.4,34.4c-4.3,0-7.3-3.3-7.3-7.8s3-7.8,7.3-7.8s7.3,3.3,7.3,7.8S1343.8,34.4,1339.4,34.4z M1339.4,32.6
			c3.2,0,5.4-2.5,5.4-6.1s-2.2-6.1-5.4-6.1s-5.4,2.5-5.4,6.1S1336.2,32.6,1339.4,32.6z"/>
		<path class="st22" d="M1365.6,30.1c0,2.5-2.1,4.3-5.6,4.3c-3.5,0-5.6-1.8-5.6-4.3c0-2.1,1.3-3.4,3.1-3.8c-1.5-0.3-2.6-1.6-2.6-3.5
			c0-2.4,2-4.1,5.2-4.1s5.2,1.7,5.2,4.1c0,1.8-1.1,3.1-2.6,3.5C1364.2,26.7,1365.6,28,1365.6,30.1z M1363.7,30
			c0-1.6-1.5-2.8-3.7-2.8c-2.2,0-3.7,1.2-3.7,2.8c0,1.7,1.5,2.8,3.7,2.8C1362.1,32.8,1363.7,31.7,1363.7,30z M1359.9,25.4
			c2,0,3.3-1,3.3-2.5c0-1.5-1.3-2.5-3.3-2.5c-2,0-3.3,1-3.3,2.5C1356.7,24.4,1358,25.4,1359.9,25.4z"/>
		<path class="st22" d="M1367.4,26.2c0-4.4,2.4-7.5,5.9-7.5c3.5,0,5.8,3.1,5.8,7.5v0.7c0,4.6-2.4,7.5-5.8,7.5
			c-3.5,0-5.9-2.9-5.9-7.5V26.2z M1377.2,26.3c0-3.7-1.6-5.9-4-5.9c-2.4,0-4,2.2-4,5.9v0.6c0,3.7,1.6,5.9,4,5.9c2.4,0,4-2.2,4-5.9
			V26.3z"/>
	</g>
</g>
<g>
	<g>
		<path class="st23" d="M529.5,34.3V18.9h1.9v13.6h7v1.8H529.5z"/>
		<path class="st23" d="M546.3,34.4c-4.3,0-7.3-3.3-7.3-7.8s3-7.8,7.3-7.8c4.3,0,7.3,3.3,7.3,7.8S550.7,34.4,546.3,34.4z
			 M546.3,32.6c3.2,0,5.4-2.5,5.4-6.1s-2.2-6.1-5.4-6.1c-3.2,0-5.4,2.5-5.4,6.1S543.1,32.6,546.3,32.6z"/>
		<path class="st23" d="M556.2,34.3V18.9h1.9v13.6h7v1.8H556.2z"/>
		<path class="st23" d="M573,34.4c-4.3,0-7.3-3.3-7.3-7.8s3-7.8,7.3-7.8c4.3,0,7.3,3.3,7.3,7.8S577.3,34.4,573,34.4z M573,32.6
			c3.2,0,5.4-2.5,5.4-6.1s-2.2-6.1-5.4-6.1c-3.2,0-5.4,2.5-5.4,6.1S569.7,32.6,573,32.6z"/>
		<path class="st23" d="M587.5,32.7l6-5.2c1.4-1.2,2.6-2.4,2.6-4.1c0-1.9-1.3-3-3.4-3c-2,0-3.3,1.3-3.3,3.4v0.3h-1.8v-0.4
			c0-2.9,2-5,5.1-5c3.3,0,5.3,1.8,5.3,4.6c0,2.3-1.5,3.8-3.3,5.3l-4.6,3.9h8.1v1.7h-10.6V32.7z"/>
		<path class="st23" d="M599.6,26.2c0-4.4,2.4-7.5,5.9-7.5c3.5,0,5.8,3.1,5.8,7.5v0.7c0,4.6-2.4,7.5-5.8,7.5c-3.5,0-5.9-2.9-5.9-7.5
			V26.2z M609.4,26.3c0-3.7-1.6-5.9-4-5.9c-2.4,0-4,2.2-4,5.9v0.6c0,3.7,1.6,5.9,4,5.9c2.4,0,4-2.2,4-5.9V26.3z"/>
	</g>
</g>
<g>
	<g>
		<path class="st23" d="M273,34.3V18.9h1.9v13.6h7v1.8H273z"/>
		<path class="st23" d="M289.8,34.4c-4.3,0-7.3-3.3-7.3-7.8s3-7.8,7.3-7.8c4.3,0,7.3,3.3,7.3,7.8S294.2,34.4,289.8,34.4z
			 M289.8,32.6c3.2,0,5.4-2.5,5.4-6.1s-2.2-6.1-5.4-6.1c-3.2,0-5.4,2.5-5.4,6.1S286.6,32.6,289.8,32.6z"/>
		<path class="st23" d="M299.7,34.3V18.9h1.9v13.6h7v1.8H299.7z"/>
		<path class="st23" d="M316.5,34.4c-4.3,0-7.3-3.3-7.3-7.8s3-7.8,7.3-7.8c4.3,0,7.3,3.3,7.3,7.8S320.8,34.4,316.5,34.4z
			 M316.5,32.6c3.2,0,5.4-2.5,5.4-6.1s-2.2-6.1-5.4-6.1c-3.2,0-5.4,2.5-5.4,6.1S313.3,32.6,316.5,32.6z"/>
		<path class="st23" d="M334.2,18.9h1.8v15.4h-1.8v-11c-0.2,0.2-0.6,0.3-1.1,0.3h-2.5v-1.6h2.5c0.7,0,1.1-0.6,1.1-1.3V18.9z"/>
		<path class="st23" d="M338.6,26.2c0-4.4,2.4-7.5,5.9-7.5c3.5,0,5.8,3.1,5.8,7.5v0.7c0,4.6-2.4,7.5-5.8,7.5c-3.5,0-5.9-2.9-5.9-7.5
			V26.2z M348.4,26.3c0-3.7-1.6-5.9-4-5.9c-2.4,0-4,2.2-4,5.9v0.6c0,3.7,1.6,5.9,4,5.9c2.4,0,4-2.2,4-5.9V26.3z"/>
	</g>
</g>
<g>
	<g>
		<path class="st23" d="M16,34.3V18.9h1.9v13.6h7v1.8H16z"/>
		<path class="st23" d="M32.8,34.4c-4.3,0-7.3-3.3-7.3-7.8s3-7.8,7.3-7.8c4.3,0,7.3,3.3,7.3,7.8S37.1,34.4,32.8,34.4z M32.8,32.6
			c3.2,0,5.4-2.5,5.4-6.1s-2.2-6.1-5.4-6.1c-3.2,0-5.4,2.5-5.4,6.1S29.6,32.6,32.8,32.6z"/>
		<path class="st23" d="M42.6,34.3V18.9h1.9v13.6h7v1.8H42.6z"/>
		<path class="st23" d="M59.4,34.4c-4.3,0-7.3-3.3-7.3-7.8s3-7.8,7.3-7.8c4.3,0,7.3,3.3,7.3,7.8S63.8,34.4,59.4,34.4z M59.4,32.6
			c3.2,0,5.4-2.5,5.4-6.1s-2.2-6.1-5.4-6.1c-3.2,0-5.4,2.5-5.4,6.1S56.2,32.6,59.4,32.6z"/>
		<path class="st23" d="M85.3,29.1c0,3.4-2.5,5.3-5.4,5.3c-3.4,0-5.4-2.2-5.6-4.9h1.8c0.2,1.8,1.5,3.3,3.7,3.3
			c1.8,0,3.5-1.2,3.5-3.6c0-2.1-1.3-3.6-3.5-3.6c-0.9,0-2.8,0.3-3.5,2.1l-1.8,0l0.5-8.8h9.2v1.7h-7.5l-0.4,4.9
			c0.9-1.1,2.3-1.5,3.7-1.5C83.2,24,85.3,26.1,85.3,29.1z"/>
	</g>
</g>
<g>
	<path class="st23" d="M15.6,104.1V92.8h6.6v1.3H17v9.9H15.6z"/>
	<path class="st23" d="M22,104.1v-1.3h0.3c1.2,0,1.8-0.8,1.8-4.4v-5.5h7.8v11.2h-1.4v-9.9h-5v4.3c0,4.3-0.9,5.6-3,5.6H22z"/>
	<path class="st23" d="M33.1,104.1l4.3-11.2H39l4.3,11.2h-1.5l-1.2-3h-4.9l-1.2,3H33.1z M36.1,99.8h4l-2-5.4L36.1,99.8z"/>
	<path class="st23" d="M44.5,92.8h4c2.4,0,3.7,1.2,3.7,3c0,1.3-0.7,2.1-1.8,2.4c1.2,0.2,2.2,1,2.2,2.6c0,2-1.4,3.2-4.1,3.2h-4.1
		V92.8z M45.9,94.1v3.6h2.6c1.4,0,2.3-0.7,2.3-1.8c0-1.1-0.8-1.8-2.3-1.8H45.9z M45.9,99v3.8h2.7c1.7,0,2.6-0.7,2.6-1.9
		c0-1.3-1-2-2.6-2H45.9z"/>
	<path class="st23" d="M54.3,92.8h1.4v4.9h5.8v-4.9h1.4v11.2h-1.4V99h-5.8v5.1h-1.4V92.8z"/>
	<path class="st23" d="M65.1,104.1V92.8h1.4v4.3h2.8c2.2,0,3.7,1.4,3.7,3.5c0,2-1.5,3.5-3.7,3.5H65.1z M66.4,102.8h2.7
		c1.5,0,2.4-0.9,2.4-2.2s-0.9-2.2-2.4-2.2h-2.7V102.8z M74.4,104.1V92.8h1.4v11.2H74.4z"/>
	<path class="st23" d="M77.9,104.1V92.8h1.4v8.9l6-8.9h1.3v11.2h-1.4v-8.9l-6,8.9H77.9z M79.9,89.7H81c0,0.8,0.4,1.3,1.3,1.3
		c0.9,0,1.3-0.5,1.3-1.3h1.1c0,1.3-0.8,2.2-2.4,2.2C80.7,91.9,80,91.1,79.9,89.7z"/>
</g>
<g>
	<path class="st23" d="M17.1,175.1v-26.6h16.4v3H20.4v7.8h7.1c5.1,0,8.5,2.6,8.5,7.8c0,5-3.4,7.9-8.5,7.9H17.1z M20.4,172h6.8
		c3.3,0,5.4-1.9,5.4-4.8s-2.1-4.8-5.5-4.8h-6.8V172z"/>
	<path class="st23" d="M39.2,148.5h16.9v3H42.5v8.5h11.4v3H42.5v9h14.1v3H39.2V148.5z"/>
	<path class="st23" d="M58.6,175.1v-3h0.6c2.9,0,4.2-1.8,4.2-10.5v-13.1H82v26.6h-3.3v-23.6h-12v10.3c0,10.2-2.2,13.3-7,13.3H58.6z"
		/>
	<path class="st23" d="M86.8,175.1v-26.6h3.3v10.2h6.6c5.3,0,8.8,3.4,8.8,8.2c0,4.7-3.5,8.2-8.8,8.2H86.8z M90.1,172h6.4
		c3.5,0,5.7-2.1,5.7-5.2s-2.2-5.2-5.7-5.2h-6.3V172z M109,175.1v-26.6h3.3v26.6H109z"/>
	<path class="st23" d="M117.2,175.1v-26.6h3.3v21.1l14.2-21.1h3.1v26.6h-3.3V154l-14.2,21.1H117.2z M121.9,141h2.6c0,1.9,0.8,3,3,3
		c2.2,0,3.1-1.1,3.1-3h2.6c-0.1,3.2-2,5.2-5.7,5.2C123.8,146.2,122,144.2,121.9,141z"/>
</g>
<g>
	<g>
		<path class="st22" d="M783.6,104.1V92.8h6.6v1.3H785v9.9H783.6z"/>
		<path class="st22" d="M790,104.1v-1.3h0.3c1.2,0,1.8-0.8,1.8-4.4v-5.5h7.8v11.2h-1.4v-9.9h-5v4.3c0,4.3-0.9,5.6-3,5.6H790z"/>
		<path class="st22" d="M801.1,104.1l4.3-11.2h1.6l4.3,11.2h-1.5l-1.2-3h-4.9l-1.2,3H801.1z M804.1,99.8h4l-2-5.4L804.1,99.8z"/>
		<path class="st22" d="M812.5,92.8h4c2.4,0,3.7,1.2,3.7,3c0,1.3-0.7,2.1-1.8,2.4c1.2,0.2,2.2,1,2.2,2.6c0,2-1.4,3.2-4.1,3.2h-4.1
			V92.8z M813.9,94.1v3.6h2.6c1.4,0,2.3-0.7,2.3-1.8c0-1.1-0.8-1.8-2.3-1.8H813.9z M813.9,99v3.8h2.7c1.7,0,2.6-0.7,2.6-1.9
			c0-1.3-1-2-2.6-2H813.9z"/>
		<path class="st22" d="M822.3,92.8h1.4v4.9h5.8v-4.9h1.4v11.2h-1.4V99h-5.8v5.1h-1.4V92.8z"/>
		<path class="st22" d="M833.1,104.1V92.8h1.4v4.3h2.8c2.2,0,3.7,1.4,3.7,3.5c0,2-1.5,3.5-3.7,3.5H833.1z M834.4,102.8h2.7
			c1.5,0,2.4-0.9,2.4-2.2s-0.9-2.2-2.4-2.2h-2.7V102.8z M842.4,104.1V92.8h1.4v11.2H842.4z"/>
		<path class="st22" d="M845.9,104.1V92.8h1.4v8.9l6-8.9h1.3v11.2h-1.4v-8.9l-6,8.9H845.9z M847.9,89.7h1.1c0,0.8,0.4,1.3,1.3,1.3
			c0.9,0,1.3-0.5,1.3-1.3h1.1c0,1.3-0.8,2.2-2.4,2.2C848.7,91.9,848,91.1,847.9,89.7z"/>
	</g>
</g>
<g>
	<g>
		<path class="st22" d="M800.3,148.5h3.3v26.6h-3.3v-11.4c-1.8,1.1-4.3,1.7-7.1,1.7c-5.3,0-9.1-2.6-9.1-8.3v-8.7h3.3v8
			c0,4.1,2.5,5.9,6.2,5.9c2.7,0,5-0.7,6.8-2V148.5z"/>
		<path class="st22" d="M808.5,148.5h16.9v3h-13.6v8.5h11.4v3h-11.4v9h14.1v3h-17.4V148.5z"/>
		<path class="st22" d="M829,148.5h10.2c5.3,0,8.8,3.2,8.8,8.2c0,5-3.5,8.2-8.8,8.2h-6.9v10.2H829V148.5z M832.3,151.5v10.3h6.6
			c3.5,0,5.7-2,5.7-5.2s-2.2-5.1-5.7-5.1H832.3z"/>
		<path class="st22" d="M851.1,148.5h3.3V160h13.8v-11.6h3.3v26.6h-3.3v-12h-13.8v12h-3.3V148.5z"/>
		<path class="st22" d="M876.3,175.1v-26.6h3.3v10.2h6.6c5.3,0,8.8,3.4,8.8,8.2c0,4.7-3.5,8.2-8.8,8.2H876.3z M879.6,172h6.4
			c3.5,0,5.7-2.1,5.7-5.2c0-3.1-2.2-5.2-5.7-5.2h-6.3V172z M898.4,175.1v-26.6h3.3v26.6H898.4z"/>
		<path class="st22" d="M906.6,175.1v-26.6h3.3v21.1l14.2-21.1h3.1v26.6h-3.3V154l-14.2,21.1H906.6z M911.4,141h2.6c0,1.9,0.8,3,3,3
			s3.1-1.1,3.1-3h2.6c-0.1,3.2-2,5.2-5.7,5.2C913.3,146.2,911.4,144.2,911.4,141z"/>
	</g>
</g>
<g>
	<path class="st23" d="M401.5,606.2v-15.4h1.9v13.6h7v1.8H401.5z"/>
	<path class="st23" d="M418.3,606.3c-4.3,0-7.3-3.3-7.3-7.8s3-7.8,7.3-7.8c4.3,0,7.3,3.3,7.3,7.8S422.6,606.3,418.3,606.3z
		 M418.3,604.5c3.2,0,5.4-2.5,5.4-6.1s-2.2-6.1-5.4-6.1c-3.2,0-5.4,2.5-5.4,6.1S415.1,604.5,418.3,604.5z"/>
	<path class="st23" d="M428.1,606.2v-15.4h1.9v13.6h7v1.8H428.1z"/>
	<path class="st23" d="M444.9,606.3c-4.3,0-7.3-3.3-7.3-7.8s3-7.8,7.3-7.8c4.3,0,7.3,3.3,7.3,7.8S449.2,606.3,444.9,606.3z
		 M444.9,604.5c3.2,0,5.4-2.5,5.4-6.1s-2.2-6.1-5.4-6.1c-3.2,0-5.4,2.5-5.4,6.1S441.7,604.5,444.9,604.5z"/>
	<path class="st23" d="M462.6,590.8h1.8v15.4h-1.8v-11c-0.2,0.2-0.6,0.3-1.1,0.3H459v-1.6h2.5c0.7,0,1.1-0.6,1.1-1.3V590.8z"/>
	<path class="st23" d="M467,598.1c0-4.4,2.4-7.5,5.9-7.5c3.5,0,5.8,3.1,5.8,7.5v0.7c0,4.6-2.4,7.5-5.8,7.5c-3.5,0-5.9-2.9-5.9-7.5
		V598.1z M476.9,598.2c0-3.7-1.6-5.9-4-5.9c-2.4,0-4,2.2-4,5.9v0.6c0,3.7,1.6,5.9,4,5.9c2.4,0,4-2.2,4-5.9V598.2z"/>
	<path class="st23" d="M480.8,598.1c0-4.4,2.4-7.5,5.9-7.5c3.5,0,5.8,3.1,5.8,7.5v0.7c0,4.6-2.4,7.5-5.8,7.5c-3.5,0-5.9-2.9-5.9-7.5
		V598.1z M490.6,598.2c0-3.7-1.6-5.9-4-5.9c-2.4,0-4,2.2-4,5.9v0.6c0,3.7,1.6,5.9,4,5.9c2.4,0,4-2.2,4-5.9V598.2z"/>
</g>
<g>
	<path class="st23" d="M784,606.2v-15.4h1.9v13.6h7v1.8H784z"/>
	<path class="st23" d="M800.8,606.3c-4.3,0-7.3-3.3-7.3-7.8s3-7.8,7.3-7.8c4.3,0,7.3,3.3,7.3,7.8S805.1,606.3,800.8,606.3z
		 M800.8,604.5c3.2,0,5.4-2.5,5.4-6.1s-2.2-6.1-5.4-6.1c-3.2,0-5.4,2.5-5.4,6.1S797.6,604.5,800.8,604.5z"/>
	<path class="st23" d="M810.6,606.2v-15.4h1.9v13.6h7v1.8H810.6z"/>
	<path class="st23" d="M827.4,606.3c-4.3,0-7.3-3.3-7.3-7.8s3-7.8,7.3-7.8c4.3,0,7.3,3.3,7.3,7.8S831.8,606.3,827.4,606.3z
		 M827.4,604.5c3.2,0,5.4-2.5,5.4-6.1s-2.2-6.1-5.4-6.1c-3.2,0-5.4,2.5-5.4,6.1S824.2,604.5,827.4,604.5z"/>
	<path class="st23" d="M845.1,590.8h1.8v15.4h-1.8v-11c-0.2,0.2-0.6,0.3-1.1,0.3h-2.5v-1.6h2.5c0.7,0,1.1-0.6,1.1-1.3V590.8z"/>
	<path class="st23" d="M849.6,598.1c0-4.4,2.4-7.5,5.9-7.5c3.5,0,5.8,3.1,5.8,7.5v0.7c0,4.6-2.4,7.5-5.8,7.5c-3.5,0-5.9-2.9-5.9-7.5
		V598.1z M859.4,598.2c0-3.7-1.6-5.9-4-5.9c-2.4,0-4,2.2-4,5.9v0.6c0,3.7,1.6,5.9,4,5.9c2.4,0,4-2.2,4-5.9V598.2z"/>
	<path class="st23" d="M863.3,598.1c0-4.4,2.4-7.5,5.9-7.5c3.5,0,5.8,3.1,5.8,7.5v0.7c0,4.6-2.4,7.5-5.8,7.5c-3.5,0-5.9-2.9-5.9-7.5
		V598.1z M873.1,598.2c0-3.7-1.6-5.9-4-5.9c-2.4,0-4,2.2-4,5.9v0.6c0,3.7,1.6,5.9,4,5.9c2.4,0,4-2.2,4-5.9V598.2z"/>
</g>
<g>
	<path class="st23" d="M1040,606.2v-15.4h1.9v13.6h7v1.8H1040z"/>
	<path class="st23" d="M1056.8,606.3c-4.3,0-7.3-3.3-7.3-7.8s3-7.8,7.3-7.8c4.3,0,7.3,3.3,7.3,7.8S1061.1,606.3,1056.8,606.3z
		 M1056.8,604.5c3.2,0,5.4-2.5,5.4-6.1s-2.2-6.1-5.4-6.1c-3.2,0-5.4,2.5-5.4,6.1S1053.6,604.5,1056.8,604.5z"/>
	<path class="st23" d="M1066.6,606.2v-15.4h1.9v13.6h7v1.8H1066.6z"/>
	<path class="st23" d="M1083.4,606.3c-4.3,0-7.3-3.3-7.3-7.8s3-7.8,7.3-7.8c4.3,0,7.3,3.3,7.3,7.8S1087.8,606.3,1083.4,606.3z
		 M1083.4,604.5c3.2,0,5.4-2.5,5.4-6.1s-2.2-6.1-5.4-6.1c-3.2,0-5.4,2.5-5.4,6.1S1080.2,604.5,1083.4,604.5z"/>
	<path class="st23" d="M1101.1,590.8h1.8v15.4h-1.8v-11c-0.2,0.2-0.6,0.3-1.1,0.3h-2.5v-1.6h2.5c0.7,0,1.1-0.6,1.1-1.3V590.8z"/>
	<path class="st23" d="M1105.6,598.1c0-4.4,2.4-7.5,5.9-7.5c3.5,0,5.8,3.1,5.8,7.5v0.7c0,4.6-2.4,7.5-5.8,7.5
		c-3.5,0-5.9-2.9-5.9-7.5V598.1z M1115.4,598.2c0-3.7-1.6-5.9-4-5.9c-2.4,0-4,2.2-4,5.9v0.6c0,3.7,1.6,5.9,4,5.9c2.4,0,4-2.2,4-5.9
		V598.2z"/>
	<path class="st23" d="M1119.3,598.1c0-4.4,2.4-7.5,5.9-7.5c3.5,0,5.8,3.1,5.8,7.5v0.7c0,4.6-2.4,7.5-5.8,7.5
		c-3.5,0-5.9-2.9-5.9-7.5V598.1z M1129.1,598.2c0-3.7-1.6-5.9-4-5.9c-2.4,0-4,2.2-4,5.9v0.6c0,3.7,1.6,5.9,4,5.9c2.4,0,4-2.2,4-5.9
		V598.2z"/>
</g>
<g>
	<path class="st23" d="M1296,606.2v-15.4h1.9v13.6h7v1.8H1296z"/>
	<path class="st23" d="M1312.8,606.3c-4.3,0-7.3-3.3-7.3-7.8c0-4.5,3-7.8,7.3-7.8c4.3,0,7.3,3.3,7.3,7.8
		C1320.1,603,1317.1,606.3,1312.8,606.3z M1312.8,604.5c3.2,0,5.4-2.5,5.4-6.1c0-3.5-2.2-6.1-5.4-6.1c-3.2,0-5.4,2.5-5.4,6.1
		C1307.4,602,1309.6,604.5,1312.8,604.5z"/>
	<path class="st23" d="M1322.6,606.2v-15.4h1.9v13.6h7v1.8H1322.6z"/>
	<path class="st23" d="M1339.4,606.3c-4.3,0-7.3-3.3-7.3-7.8c0-4.5,3-7.8,7.3-7.8c4.3,0,7.3,3.3,7.3,7.8
		C1346.8,603,1343.8,606.3,1339.4,606.3z M1339.4,604.5c3.2,0,5.4-2.5,5.4-6.1c0-3.5-2.2-6.1-5.4-6.1c-3.2,0-5.4,2.5-5.4,6.1
		C1334,602,1336.2,604.5,1339.4,604.5z"/>
	<path class="st23" d="M1357.1,590.8h1.8v15.4h-1.8v-11c-0.2,0.2-0.6,0.3-1.1,0.3h-2.5v-1.7h2.5c0.7,0,1.1-0.5,1.1-1.3V590.8z"/>
	<path class="st23" d="M1361.6,598.1c0-4.4,2.4-7.5,5.9-7.5c3.5,0,5.8,3.1,5.8,7.5v0.7c0,4.6-2.4,7.5-5.8,7.5
		c-3.5,0-5.9-2.9-5.9-7.5V598.1z M1371.4,598.2c0-3.7-1.6-5.9-4-5.9c-2.4,0-4,2.2-4,5.9v0.6c0,3.7,1.6,5.9,4,5.9c2.4,0,4-2.2,4-5.9
		V598.2z"/>
	<path class="st23" d="M1375.3,598.1c0-4.4,2.4-7.5,5.9-7.5c3.5,0,5.8,3.1,5.8,7.5v0.7c0,4.6-2.4,7.5-5.8,7.5
		c-3.5,0-5.9-2.9-5.9-7.5V598.1z M1385.1,598.2c0-3.7-1.6-5.9-4-5.9c-2.4,0-4,2.2-4,5.9v0.6c0,3.7,1.6,5.9,4,5.9c2.4,0,4-2.2,4-5.9
		V598.2z"/>
</g>
<g>
	<path class="st23" d="M16,1280.2v-15.4h1.9v13.6h7v1.8H16z"/>
	<path class="st23" d="M32.8,1280.3c-4.3,0-7.3-3.3-7.3-7.8c0-4.5,3-7.8,7.3-7.8c4.3,0,7.3,3.3,7.3,7.8
		C40.1,1277,37.1,1280.3,32.8,1280.3z M32.8,1278.6c3.2,0,5.4-2.5,5.4-6.1c0-3.5-2.2-6.1-5.4-6.1c-3.2,0-5.4,2.5-5.4,6.1
		C27.4,1276,29.6,1278.6,32.8,1278.6z"/>
	<path class="st23" d="M42.6,1280.2v-15.4h1.9v13.6h7v1.8H42.6z"/>
	<path class="st23" d="M59.4,1280.3c-4.3,0-7.3-3.3-7.3-7.8c0-4.5,3-7.8,7.3-7.8c4.3,0,7.3,3.3,7.3,7.8
		C66.8,1277,63.8,1280.3,59.4,1280.3z M59.4,1278.6c3.2,0,5.4-2.5,5.4-6.1c0-3.5-2.2-6.1-5.4-6.1c-3.2,0-5.4,2.5-5.4,6.1
		C54,1276,56.2,1278.6,59.4,1278.6z"/>
	<path class="st23" d="M85.6,1276c0,2.5-2.1,4.3-5.6,4.3c-3.5,0-5.6-1.8-5.6-4.3c0-2.1,1.3-3.4,3.1-3.8c-1.5-0.3-2.6-1.6-2.6-3.5
		c0-2.4,2-4.1,5.2-4.1s5.2,1.7,5.2,4.1c0,1.8-1.1,3.1-2.6,3.5C84.2,1272.6,85.6,1273.9,85.6,1276z M83.7,1275.9
		c0-1.6-1.5-2.8-3.7-2.8c-2.2,0-3.7,1.2-3.7,2.8c0,1.7,1.5,2.8,3.7,2.8C82.1,1278.7,83.7,1277.6,83.7,1275.9z M79.9,1271.3
		c2,0,3.3-1,3.3-2.5c0-1.5-1.3-2.5-3.3-2.5c-2,0-3.3,1-3.3,2.5C76.7,1270.3,78,1271.3,79.9,1271.3z"/>
	<path class="st23" d="M87.4,1272.1c0-4.4,2.4-7.5,5.9-7.5c3.5,0,5.8,3.1,5.8,7.5v0.7c0,4.6-2.4,7.5-5.8,7.5c-3.5,0-5.9-2.9-5.9-7.5
		V1272.1z M97.2,1272.2c0-3.7-1.6-5.9-4-5.9c-2.4,0-4,2.2-4,5.9v0.6c0,3.7,1.6,5.9,4,5.9c2.4,0,4-2.2,4-5.9V1272.2z"/>
</g>
<g>
	<path class="st23" d="M401.5,1280.2v-15.4h1.9v13.6h7v1.8H401.5z"/>
	<path class="st23" d="M418.3,1280.3c-4.3,0-7.3-3.3-7.3-7.8c0-4.5,3-7.8,7.3-7.8c4.3,0,7.3,3.3,7.3,7.8
		C425.6,1277,422.6,1280.3,418.3,1280.3z M418.3,1278.6c3.2,0,5.4-2.5,5.4-6.1c0-3.5-2.2-6.1-5.4-6.1c-3.2,0-5.4,2.5-5.4,6.1
		C412.9,1276,415.1,1278.6,418.3,1278.6z"/>
	<path class="st23" d="M428.1,1280.2v-15.4h1.9v13.6h7v1.8H428.1z"/>
	<path class="st23" d="M444.9,1280.3c-4.3,0-7.3-3.3-7.3-7.8c0-4.5,3-7.8,7.3-7.8c4.3,0,7.3,3.3,7.3,7.8
		C452.3,1277,449.2,1280.3,444.9,1280.3z M444.9,1278.6c3.2,0,5.4-2.5,5.4-6.1c0-3.5-2.2-6.1-5.4-6.1c-3.2,0-5.4,2.5-5.4,6.1
		C439.5,1276,441.7,1278.6,444.9,1278.6z"/>
	<path class="st23" d="M471,1276c0,2.5-2.1,4.3-5.6,4.3c-3.5,0-5.6-1.8-5.6-4.3c0-2.1,1.3-3.4,3.1-3.8c-1.5-0.3-2.6-1.6-2.6-3.5
		c0-2.4,2-4.1,5.2-4.1s5.2,1.7,5.2,4.1c0,1.8-1.1,3.1-2.6,3.5C469.7,1272.6,471,1273.9,471,1276z M469.1,1275.9
		c0-1.6-1.5-2.8-3.7-2.8c-2.2,0-3.7,1.2-3.7,2.8c0,1.7,1.5,2.8,3.7,2.8C467.6,1278.7,469.1,1277.6,469.1,1275.9z M465.4,1271.3
		c2,0,3.3-1,3.3-2.5c0-1.5-1.3-2.5-3.3-2.5c-2,0-3.3,1-3.3,2.5C462.1,1270.3,463.4,1271.3,465.4,1271.3z"/>
	<path class="st23" d="M472.9,1272.1c0-4.4,2.4-7.5,5.9-7.5c3.5,0,5.8,3.1,5.8,7.5v0.7c0,4.6-2.4,7.5-5.8,7.5
		c-3.5,0-5.9-2.9-5.9-7.5V1272.1z M482.7,1272.2c0-3.7-1.6-5.9-4-5.9c-2.4,0-4,2.2-4,5.9v0.6c0,3.7,1.6,5.9,4,5.9c2.4,0,4-2.2,4-5.9
		V1272.2z"/>
</g>
<g>
	<path class="st23" d="M784,1280.2v-15.4h1.9v13.6h7v1.8H784z"/>
	<path class="st23" d="M800.8,1280.3c-4.3,0-7.3-3.3-7.3-7.8s3-7.8,7.3-7.8c4.3,0,7.3,3.3,7.3,7.8S805.1,1280.3,800.8,1280.3z
		 M800.8,1278.6c3.2,0,5.4-2.5,5.4-6.1s-2.2-6.1-5.4-6.1c-3.2,0-5.4,2.5-5.4,6.1S797.6,1278.6,800.8,1278.6z"/>
	<path class="st23" d="M810.6,1280.2v-15.4h1.9v13.6h7v1.8H810.6z"/>
	<path class="st23" d="M827.4,1280.3c-4.3,0-7.3-3.3-7.3-7.8s3-7.8,7.3-7.8c4.3,0,7.3,3.3,7.3,7.8S831.8,1280.3,827.4,1280.3z
		 M827.4,1278.6c3.2,0,5.4-2.5,5.4-6.1s-2.2-6.1-5.4-6.1c-3.2,0-5.4,2.5-5.4,6.1S824.2,1278.6,827.4,1278.6z"/>
	<path class="st23" d="M853.6,1276c0,2.5-2.1,4.3-5.6,4.3s-5.6-1.8-5.6-4.3c0-2.1,1.3-3.4,3.1-3.8c-1.5-0.3-2.6-1.6-2.6-3.5
		c0-2.4,2-4.1,5.2-4.1s5.2,1.7,5.2,4.1c0,1.8-1.1,3.1-2.6,3.5C852.2,1272.6,853.6,1273.9,853.6,1276z M851.7,1275.9
		c0-1.6-1.5-2.8-3.7-2.8c-2.2,0-3.7,1.2-3.7,2.8c0,1.7,1.5,2.8,3.7,2.8C850.1,1278.7,851.7,1277.6,851.7,1275.9z M847.9,1271.3
		c2,0,3.3-1,3.3-2.5c0-1.5-1.3-2.5-3.3-2.5s-3.3,1-3.3,2.5C844.7,1270.3,846,1271.3,847.9,1271.3z"/>
	<path class="st23" d="M855.4,1272.1c0-4.4,2.4-7.5,5.9-7.5c3.5,0,5.8,3.1,5.8,7.5v0.7c0,4.6-2.4,7.5-5.8,7.5
		c-3.5,0-5.9-2.9-5.9-7.5V1272.1z M865.2,1272.2c0-3.7-1.6-5.9-4-5.9c-2.4,0-4,2.2-4,5.9v0.6c0,3.7,1.6,5.9,4,5.9c2.4,0,4-2.2,4-5.9
		V1272.2z"/>
</g>
<g>
	<path class="st23" d="M1040,1280.2v-15.4h1.9v13.6h7v1.8H1040z"/>
	<path class="st23" d="M1056.8,1280.3c-4.3,0-7.3-3.3-7.3-7.8c0-4.5,3-7.8,7.3-7.8c4.3,0,7.3,3.3,7.3,7.8
		C1064.1,1277,1061.1,1280.3,1056.8,1280.3z M1056.8,1278.6c3.2,0,5.4-2.5,5.4-6.1c0-3.5-2.2-6.1-5.4-6.1c-3.2,0-5.4,2.5-5.4,6.1
		C1051.4,1276,1053.6,1278.6,1056.8,1278.6z"/>
	<path class="st23" d="M1066.6,1280.2v-15.4h1.9v13.6h7v1.8H1066.6z"/>
	<path class="st23" d="M1083.4,1280.3c-4.3,0-7.3-3.3-7.3-7.8c0-4.5,3-7.8,7.3-7.8c4.3,0,7.3,3.3,7.3,7.8
		C1090.8,1277,1087.8,1280.3,1083.4,1280.3z M1083.4,1278.6c3.2,0,5.4-2.5,5.4-6.1c0-3.5-2.2-6.1-5.4-6.1c-3.2,0-5.4,2.5-5.4,6.1
		C1078,1276,1080.2,1278.6,1083.4,1278.6z"/>
	<path class="st23" d="M1109.6,1276c0,2.5-2.1,4.3-5.6,4.3s-5.6-1.8-5.6-4.3c0-2.1,1.3-3.4,3.1-3.8c-1.5-0.3-2.6-1.6-2.6-3.5
		c0-2.4,2-4.1,5.2-4.1s5.2,1.7,5.2,4.1c0,1.8-1.1,3.1-2.6,3.5C1108.2,1272.6,1109.6,1273.9,1109.6,1276z M1107.7,1275.9
		c0-1.6-1.5-2.8-3.7-2.8c-2.2,0-3.7,1.2-3.7,2.8c0,1.7,1.5,2.8,3.7,2.8C1106.1,1278.7,1107.7,1277.6,1107.7,1275.9z M1103.9,1271.3
		c2,0,3.3-1,3.3-2.5c0-1.5-1.3-2.5-3.3-2.5s-3.3,1-3.3,2.5C1100.7,1270.3,1102,1271.3,1103.9,1271.3z"/>
	<path class="st23" d="M1111.4,1272.1c0-4.4,2.4-7.5,5.9-7.5c3.5,0,5.8,3.1,5.8,7.5v0.7c0,4.6-2.4,7.5-5.8,7.5
		c-3.5,0-5.9-2.9-5.9-7.5V1272.1z M1121.2,1272.2c0-3.7-1.6-5.9-4-5.9c-2.4,0-4,2.2-4,5.9v0.6c0,3.7,1.6,5.9,4,5.9
		c2.4,0,4-2.2,4-5.9V1272.2z"/>
</g>
<g>
	<path class="st23" d="M1296,1280.2v-15.4h1.9v13.6h7v1.8H1296z"/>
	<path class="st23" d="M1312.8,1280.3c-4.3,0-7.3-3.3-7.3-7.8c0-4.5,3-7.8,7.3-7.8c4.3,0,7.3,3.3,7.3,7.8
		C1320.1,1277,1317.1,1280.3,1312.8,1280.3z M1312.8,1278.6c3.2,0,5.4-2.5,5.4-6.1c0-3.5-2.2-6.1-5.4-6.1c-3.2,0-5.4,2.5-5.4,6.1
		C1307.4,1276,1309.6,1278.6,1312.8,1278.6z"/>
	<path class="st23" d="M1322.6,1280.2v-15.4h1.9v13.6h7v1.8H1322.6z"/>
	<path class="st23" d="M1339.4,1280.3c-4.3,0-7.3-3.3-7.3-7.8c0-4.5,3-7.8,7.3-7.8c4.3,0,7.3,3.3,7.3,7.8
		C1346.8,1277,1343.8,1280.3,1339.4,1280.3z M1339.4,1278.6c3.2,0,5.4-2.5,5.4-6.1c0-3.5-2.2-6.1-5.4-6.1c-3.2,0-5.4,2.5-5.4,6.1
		C1334,1276,1336.2,1278.6,1339.4,1278.6z"/>
	<path class="st23" d="M1365.6,1276c0,2.5-2.1,4.3-5.6,4.3s-5.6-1.8-5.6-4.3c0-2.1,1.3-3.4,3.1-3.8c-1.5-0.3-2.6-1.6-2.6-3.5
		c0-2.4,2-4.1,5.2-4.1s5.2,1.7,5.2,4.1c0,1.8-1.1,3.1-2.6,3.5C1364.2,1272.6,1365.6,1273.9,1365.6,1276z M1363.7,1275.9
		c0-1.6-1.5-2.8-3.7-2.8c-2.2,0-3.7,1.2-3.7,2.8c0,1.7,1.5,2.8,3.7,2.8C1362.1,1278.7,1363.7,1277.6,1363.7,1275.9z M1359.9,1271.3
		c2,0,3.3-1,3.3-2.5c0-1.5-1.3-2.5-3.3-2.5s-3.3,1-3.3,2.5C1356.7,1270.3,1358,1271.3,1359.9,1271.3z"/>
	<path class="st23" d="M1367.4,1272.1c0-4.4,2.4-7.5,5.9-7.5c3.5,0,5.8,3.1,5.8,7.5v0.7c0,4.6-2.4,7.5-5.8,7.5
		c-3.5,0-5.9-2.9-5.9-7.5V1272.1z M1377.2,1272.2c0-3.7-1.6-5.9-4-5.9c-2.4,0-4,2.2-4,5.9v0.6c0,3.7,1.6,5.9,4,5.9
		c2.4,0,4-2.2,4-5.9V1272.2z"/>
</g>
<g>
	<path class="st23" d="M16,1348.7v-15.4h1.9v13.6h7v1.8H16z"/>
	<path class="st23" d="M32.8,1348.9c-4.3,0-7.3-3.3-7.3-7.8c0-4.5,3-7.8,7.3-7.8c4.3,0,7.3,3.3,7.3,7.8
		C40.1,1345.6,37.1,1348.9,32.8,1348.9z M32.8,1347.1c3.2,0,5.4-2.5,5.4-6.1c0-3.5-2.2-6.1-5.4-6.1c-3.2,0-5.4,2.5-5.4,6.1
		C27.4,1344.6,29.6,1347.1,32.8,1347.1z"/>
	<path class="st23" d="M42.6,1348.7v-15.4h1.9v13.6h7v1.8H42.6z"/>
	<path class="st23" d="M59.4,1348.9c-4.3,0-7.3-3.3-7.3-7.8c0-4.5,3-7.8,7.3-7.8s7.3,3.3,7.3,7.8
		C66.8,1345.6,63.8,1348.9,59.4,1348.9z M59.4,1347.1c3.2,0,5.4-2.5,5.4-6.1c0-3.5-2.2-6.1-5.4-6.1s-5.4,2.5-5.4,6.1
		C54,1344.6,56.2,1347.1,59.4,1347.1z"/>
	<path class="st23" d="M85.3,1343.6c0,3.4-2.5,5.3-5.4,5.3c-3.4,0-5.4-2.2-5.6-4.9h1.8c0.2,1.8,1.5,3.3,3.7,3.3
		c1.8,0,3.5-1.2,3.5-3.6c0-2.1-1.3-3.6-3.5-3.6c-0.9,0-2.8,0.3-3.5,2.1l-1.8,0l0.5-8.8h9.2v1.7h-7.5l-0.4,4.9
		c0.9-1.1,2.3-1.5,3.7-1.5C83.2,1338.4,85.3,1340.5,85.3,1343.6z"/>
	<path class="st23" d="M86.9,1340.7c0-4.4,2.4-7.5,5.9-7.5c3.5,0,5.8,3.1,5.8,7.5v0.7c0,4.6-2.4,7.5-5.8,7.5c-3.5,0-5.9-2.9-5.9-7.5
		V1340.7z M96.7,1340.7c0-3.7-1.6-5.9-4-5.9c-2.4,0-4,2.2-4,5.9v0.6c0,3.7,1.6,5.9,4,5.9c2.4,0,4-2.2,4-5.9V1340.7z"/>
</g>
<g>
	<path class="st23" d="M401.5,1348.7v-15.4h1.9v13.6h7v1.8H401.5z"/>
	<path class="st23" d="M418.3,1348.9c-4.3,0-7.3-3.3-7.3-7.8c0-4.5,3-7.8,7.3-7.8c4.3,0,7.3,3.3,7.3,7.8
		C425.6,1345.6,422.6,1348.9,418.3,1348.9z M418.3,1347.1c3.2,0,5.4-2.5,5.4-6.1c0-3.5-2.2-6.1-5.4-6.1c-3.2,0-5.4,2.5-5.4,6.1
		C412.9,1344.6,415.1,1347.1,418.3,1347.1z"/>
	<path class="st23" d="M428.1,1348.7v-15.4h1.9v13.6h7v1.8H428.1z"/>
	<path class="st23" d="M444.9,1348.9c-4.3,0-7.3-3.3-7.3-7.8c0-4.5,3-7.8,7.3-7.8c4.3,0,7.3,3.3,7.3,7.8
		C452.3,1345.6,449.2,1348.9,444.9,1348.9z M444.9,1347.1c3.2,0,5.4-2.5,5.4-6.1c0-3.5-2.2-6.1-5.4-6.1c-3.2,0-5.4,2.5-5.4,6.1
		C439.5,1344.6,441.7,1347.1,444.9,1347.1z"/>
	<path class="st23" d="M470.8,1343.6c0,3.4-2.5,5.3-5.4,5.3c-3.4,0-5.4-2.2-5.6-4.9h1.8c0.2,1.8,1.5,3.3,3.7,3.3
		c1.8,0,3.5-1.2,3.5-3.6c0-2.1-1.3-3.6-3.5-3.6c-0.9,0-2.8,0.3-3.5,2.1l-1.8,0l0.5-8.8h9.2v1.7h-7.5l-0.4,4.9
		c0.9-1.1,2.3-1.5,3.7-1.5C468.7,1338.4,470.8,1340.5,470.8,1343.6z"/>
	<path class="st23" d="M472.4,1340.7c0-4.4,2.4-7.5,5.9-7.5c3.5,0,5.8,3.1,5.8,7.5v0.7c0,4.6-2.4,7.5-5.8,7.5
		c-3.5,0-5.9-2.9-5.9-7.5V1340.7z M482.2,1340.7c0-3.7-1.6-5.9-4-5.9c-2.4,0-4,2.2-4,5.9v0.6c0,3.7,1.6,5.9,4,5.9c2.4,0,4-2.2,4-5.9
		V1340.7z"/>
</g>
<g>
	<path class="st23" d="M784,1348.7v-15.4h1.9v13.6h7v1.8H784z"/>
	<path class="st23" d="M800.8,1348.9c-4.3,0-7.3-3.3-7.3-7.8c0-4.5,3-7.8,7.3-7.8c4.3,0,7.3,3.3,7.3,7.8
		C808.1,1345.6,805.1,1348.9,800.8,1348.9z M800.8,1347.1c3.2,0,5.4-2.5,5.4-6.1c0-3.5-2.2-6.1-5.4-6.1c-3.2,0-5.4,2.5-5.4,6.1
		C795.4,1344.6,797.6,1347.1,800.8,1347.1z"/>
	<path class="st23" d="M810.6,1348.7v-15.4h1.9v13.6h7v1.8H810.6z"/>
	<path class="st23" d="M827.4,1348.9c-4.3,0-7.3-3.3-7.3-7.8c0-4.5,3-7.8,7.3-7.8s7.3,3.3,7.3,7.8
		C834.8,1345.6,831.8,1348.9,827.4,1348.9z M827.4,1347.1c3.2,0,5.4-2.5,5.4-6.1c0-3.5-2.2-6.1-5.4-6.1s-5.4,2.5-5.4,6.1
		C822,1344.6,824.2,1347.1,827.4,1347.1z"/>
	<path class="st23" d="M853.3,1343.6c0,3.4-2.5,5.3-5.4,5.3c-3.4,0-5.4-2.2-5.6-4.9h1.8c0.2,1.8,1.5,3.3,3.7,3.3
		c1.8,0,3.5-1.2,3.5-3.6c0-2.1-1.3-3.6-3.5-3.6c-0.9,0-2.8,0.3-3.5,2.1l-1.8,0l0.5-8.8h9.2v1.7h-7.5l-0.4,4.9
		c0.9-1.1,2.3-1.5,3.7-1.5C851.2,1338.4,853.3,1340.5,853.3,1343.6z"/>
	<path class="st23" d="M854.9,1340.7c0-4.4,2.4-7.5,5.9-7.5c3.5,0,5.8,3.1,5.8,7.5v0.7c0,4.6-2.4,7.5-5.8,7.5
		c-3.5,0-5.9-2.9-5.9-7.5V1340.7z M864.7,1340.7c0-3.7-1.6-5.9-4-5.9c-2.4,0-4,2.2-4,5.9v0.6c0,3.7,1.6,5.9,4,5.9c2.4,0,4-2.2,4-5.9
		V1340.7z"/>
</g>
<g>
	<path class="st23" d="M1040,1348.7v-15.4h1.9v13.6h7v1.8H1040z"/>
	<path class="st23" d="M1056.8,1348.9c-4.3,0-7.3-3.3-7.3-7.8c0-4.5,3-7.8,7.3-7.8c4.3,0,7.3,3.3,7.3,7.8
		C1064.1,1345.6,1061.1,1348.9,1056.8,1348.9z M1056.8,1347.1c3.2,0,5.4-2.5,5.4-6.1c0-3.5-2.2-6.1-5.4-6.1c-3.2,0-5.4,2.5-5.4,6.1
		C1051.4,1344.6,1053.6,1347.1,1056.8,1347.1z"/>
	<path class="st23" d="M1066.6,1348.7v-15.4h1.9v13.6h7v1.8H1066.6z"/>
	<path class="st23" d="M1083.4,1348.9c-4.3,0-7.3-3.3-7.3-7.8c0-4.5,3-7.8,7.3-7.8s7.3,3.3,7.3,7.8
		C1090.8,1345.6,1087.8,1348.9,1083.4,1348.9z M1083.4,1347.1c3.2,0,5.4-2.5,5.4-6.1c0-3.5-2.2-6.1-5.4-6.1s-5.4,2.5-5.4,6.1
		C1078,1344.6,1080.2,1347.1,1083.4,1347.1z"/>
	<path class="st23" d="M1109.3,1343.6c0,3.4-2.5,5.3-5.4,5.3c-3.4,0-5.4-2.2-5.6-4.9h1.8c0.2,1.8,1.5,3.3,3.7,3.3
		c1.8,0,3.5-1.2,3.5-3.6c0-2.1-1.3-3.6-3.5-3.6c-0.9,0-2.8,0.3-3.5,2.1l-1.8,0l0.5-8.8h9.2v1.7h-7.5l-0.4,4.9
		c0.9-1.1,2.3-1.5,3.7-1.5C1107.2,1338.4,1109.3,1340.5,1109.3,1343.6z"/>
	<path class="st23" d="M1110.9,1340.7c0-4.4,2.4-7.5,5.9-7.5c3.5,0,5.8,3.1,5.8,7.5v0.7c0,4.6-2.4,7.5-5.8,7.5
		c-3.5,0-5.9-2.9-5.9-7.5V1340.7z M1120.7,1340.7c0-3.7-1.6-5.9-4-5.9c-2.4,0-4,2.2-4,5.9v0.6c0,3.7,1.6,5.9,4,5.9
		c2.4,0,4-2.2,4-5.9V1340.7z"/>
</g>
<g>
	<path class="st23" d="M1296,1348.7v-15.4h1.9v13.6h7v1.8H1296z"/>
	<path class="st23" d="M1312.8,1348.9c-4.3,0-7.3-3.3-7.3-7.8c0-4.5,3-7.8,7.3-7.8c4.3,0,7.3,3.3,7.3,7.8
		C1320.1,1345.6,1317.1,1348.9,1312.8,1348.9z M1312.8,1347.1c3.2,0,5.4-2.5,5.4-6.1c0-3.5-2.2-6.1-5.4-6.1c-3.2,0-5.4,2.5-5.4,6.1
		C1307.4,1344.6,1309.6,1347.1,1312.8,1347.1z"/>
	<path class="st23" d="M1322.6,1348.7v-15.4h1.9v13.6h7v1.8H1322.6z"/>
	<path class="st23" d="M1339.4,1348.9c-4.3,0-7.3-3.3-7.3-7.8c0-4.5,3-7.8,7.3-7.8s7.3,3.3,7.3,7.8
		C1346.8,1345.6,1343.8,1348.9,1339.4,1348.9z M1339.4,1347.1c3.2,0,5.4-2.5,5.4-6.1c0-3.5-2.2-6.1-5.4-6.1s-5.4,2.5-5.4,6.1
		C1334,1344.6,1336.2,1347.1,1339.4,1347.1z"/>
	<path class="st23" d="M1365.3,1343.6c0,3.4-2.5,5.3-5.4,5.3c-3.4,0-5.4-2.2-5.6-4.9h1.8c0.2,1.8,1.5,3.3,3.7,3.3
		c1.8,0,3.5-1.2,3.5-3.6c0-2.1-1.3-3.6-3.5-3.6c-0.9,0-2.8,0.3-3.5,2.1l-1.8,0l0.5-8.8h9.2v1.7h-7.5l-0.4,4.9
		c0.9-1.1,2.3-1.5,3.7-1.5C1363.2,1338.4,1365.3,1340.5,1365.3,1343.6z"/>
	<path class="st23" d="M1366.9,1340.7c0-4.4,2.4-7.5,5.9-7.5c3.5,0,5.8,3.1,5.8,7.5v0.7c0,4.6-2.4,7.5-5.8,7.5
		c-3.5,0-5.9-2.9-5.9-7.5V1340.7z M1376.7,1340.7c0-3.7-1.6-5.9-4-5.9c-2.4,0-4,2.2-4,5.9v0.6c0,3.7,1.6,5.9,4,5.9
		c2.4,0,4-2.2,4-5.9V1340.7z"/>
</g>
<g>
	<path class="st23" d="M16,1417.3v-15.4h1.9v13.6h7v1.8H16z"/>
	<path class="st23" d="M32.8,1417.4c-4.3,0-7.3-3.3-7.3-7.8c0-4.5,3-7.8,7.3-7.8c4.3,0,7.3,3.3,7.3,7.8
		C40.1,1414.1,37.1,1417.4,32.8,1417.4z M32.8,1415.6c3.2,0,5.4-2.5,5.4-6.1c0-3.5-2.2-6.1-5.4-6.1c-3.2,0-5.4,2.5-5.4,6.1
		C27.4,1413.1,29.6,1415.6,32.8,1415.6z"/>
	<path class="st23" d="M42.6,1417.3v-15.4h1.9v13.6h7v1.8H42.6z"/>
	<path class="st23" d="M59.4,1417.4c-4.3,0-7.3-3.3-7.3-7.8c0-4.5,3-7.8,7.3-7.8c4.3,0,7.3,3.3,7.3,7.8
		C66.8,1414.1,63.8,1417.4,59.4,1417.4z M59.4,1415.6c3.2,0,5.4-2.5,5.4-6.1c0-3.5-2.2-6.1-5.4-6.1c-3.2,0-5.4,2.5-5.4,6.1
		C54,1413.1,56.2,1415.6,59.4,1415.6z"/>
	<path class="st23" d="M77.1,1401.9h1.8v15.4h-1.8v-11c-0.2,0.2-0.6,0.3-1.1,0.3h-2.5v-1.7h2.5c0.7,0,1.1-0.5,1.1-1.3V1401.9z"/>
	<path class="st23" d="M81.6,1409.2c0-4.4,2.4-7.5,5.9-7.5c3.5,0,5.8,3.1,5.8,7.5v0.7c0,4.6-2.4,7.5-5.8,7.5c-3.5,0-5.9-2.9-5.9-7.5
		V1409.2z M91.4,1409.3c0-3.7-1.6-5.9-4-5.9c-2.4,0-4,2.2-4,5.9v0.6c0,3.7,1.6,5.9,4,5.9c2.4,0,4-2.2,4-5.9V1409.3z"/>
</g>
<g>
	<path class="st23" d="M401.5,1417.3v-15.4h1.9v13.6h7v1.8H401.5z"/>
	<path class="st23" d="M418.3,1417.4c-4.3,0-7.3-3.3-7.3-7.8c0-4.5,3-7.8,7.3-7.8c4.3,0,7.3,3.3,7.3,7.8
		C425.6,1414.1,422.6,1417.4,418.3,1417.4z M418.3,1415.6c3.2,0,5.4-2.5,5.4-6.1c0-3.5-2.2-6.1-5.4-6.1c-3.2,0-5.4,2.5-5.4,6.1
		C412.9,1413.1,415.1,1415.6,418.3,1415.6z"/>
	<path class="st23" d="M428.1,1417.3v-15.4h1.9v13.6h7v1.8H428.1z"/>
	<path class="st23" d="M444.9,1417.4c-4.3,0-7.3-3.3-7.3-7.8c0-4.5,3-7.8,7.3-7.8c4.3,0,7.3,3.3,7.3,7.8
		C452.3,1414.1,449.2,1417.4,444.9,1417.4z M444.9,1415.6c3.2,0,5.4-2.5,5.4-6.1c0-3.5-2.2-6.1-5.4-6.1c-3.2,0-5.4,2.5-5.4,6.1
		C439.5,1413.1,441.7,1415.6,444.9,1415.6z"/>
	<path class="st23" d="M462.6,1401.9h1.8v15.4h-1.8v-11c-0.2,0.2-0.6,0.3-1.1,0.3H459v-1.7h2.5c0.7,0,1.1-0.5,1.1-1.3V1401.9z"/>
	<path class="st23" d="M467,1409.2c0-4.4,2.4-7.5,5.9-7.5c3.5,0,5.8,3.1,5.8,7.5v0.7c0,4.6-2.4,7.5-5.8,7.5c-3.5,0-5.9-2.9-5.9-7.5
		V1409.2z M476.9,1409.3c0-3.7-1.6-5.9-4-5.9c-2.4,0-4,2.2-4,5.9v0.6c0,3.7,1.6,5.9,4,5.9c2.4,0,4-2.2,4-5.9V1409.3z"/>
</g>
<g>
	<path class="st23" d="M784,1417.3v-15.4h1.9v13.6h7v1.8H784z"/>
	<path class="st23" d="M800.8,1417.4c-4.3,0-7.3-3.3-7.3-7.8s3-7.8,7.3-7.8s7.3,3.3,7.3,7.8S805.1,1417.4,800.8,1417.4z
		 M800.8,1415.6c3.2,0,5.4-2.5,5.4-6.1s-2.2-6.1-5.4-6.1s-5.4,2.5-5.4,6.1S797.6,1415.6,800.8,1415.6z"/>
	<path class="st23" d="M810.6,1417.3v-15.4h1.9v13.6h7v1.8H810.6z"/>
	<path class="st23" d="M827.4,1417.4c-4.3,0-7.3-3.3-7.3-7.8s3-7.8,7.3-7.8c4.3,0,7.3,3.3,7.3,7.8S831.8,1417.4,827.4,1417.4z
		 M827.4,1415.6c3.2,0,5.4-2.5,5.4-6.1s-2.2-6.1-5.4-6.1c-3.2,0-5.4,2.5-5.4,6.1S824.2,1415.6,827.4,1415.6z"/>
	<path class="st23" d="M845.1,1401.9h1.8v15.4h-1.8v-11c-0.2,0.2-0.6,0.3-1.1,0.3h-2.5v-1.7h2.5c0.7,0,1.1-0.5,1.1-1.3V1401.9z"/>
	<path class="st23" d="M849.6,1409.2c0-4.4,2.4-7.5,5.9-7.5c3.5,0,5.8,3.1,5.8,7.5v0.7c0,4.6-2.4,7.5-5.8,7.5
		c-3.5,0-5.9-2.9-5.9-7.5V1409.2z M859.4,1409.3c0-3.7-1.6-5.9-4-5.9c-2.4,0-4,2.2-4,5.9v0.6c0,3.7,1.6,5.9,4,5.9c2.4,0,4-2.2,4-5.9
		V1409.3z"/>
</g>
<g>
	<path class="st23" d="M1040,1417.3v-15.4h1.9v13.6h7v1.8H1040z"/>
	<path class="st23" d="M1056.8,1417.4c-4.3,0-7.3-3.3-7.3-7.8c0-4.5,3-7.8,7.3-7.8s7.3,3.3,7.3,7.8
		C1064.1,1414.1,1061.1,1417.4,1056.8,1417.4z M1056.8,1415.6c3.2,0,5.4-2.5,5.4-6.1c0-3.5-2.2-6.1-5.4-6.1s-5.4,2.5-5.4,6.1
		C1051.4,1413.1,1053.6,1415.6,1056.8,1415.6z"/>
	<path class="st23" d="M1066.6,1417.3v-15.4h1.9v13.6h7v1.8H1066.6z"/>
	<path class="st23" d="M1083.4,1417.4c-4.3,0-7.3-3.3-7.3-7.8c0-4.5,3-7.8,7.3-7.8c4.3,0,7.3,3.3,7.3,7.8
		C1090.8,1414.1,1087.8,1417.4,1083.4,1417.4z M1083.4,1415.6c3.2,0,5.4-2.5,5.4-6.1c0-3.5-2.2-6.1-5.4-6.1c-3.2,0-5.4,2.5-5.4,6.1
		C1078,1413.1,1080.2,1415.6,1083.4,1415.6z"/>
	<path class="st23" d="M1101.1,1401.9h1.8v15.4h-1.8v-11c-0.2,0.2-0.6,0.3-1.1,0.3h-2.5v-1.7h2.5c0.7,0,1.1-0.5,1.1-1.3V1401.9z"/>
	<path class="st23" d="M1105.6,1409.2c0-4.4,2.4-7.5,5.9-7.5c3.5,0,5.8,3.1,5.8,7.5v0.7c0,4.6-2.4,7.5-5.8,7.5
		c-3.5,0-5.9-2.9-5.9-7.5V1409.2z M1115.4,1409.3c0-3.7-1.6-5.9-4-5.9c-2.4,0-4,2.2-4,5.9v0.6c0,3.7,1.6,5.9,4,5.9
		c2.4,0,4-2.2,4-5.9V1409.3z"/>
</g>
<g>
	<path class="st23" d="M1296,1417.3v-15.4h1.9v13.6h7v1.8H1296z"/>
	<path class="st23" d="M1312.8,1417.4c-4.3,0-7.3-3.3-7.3-7.8c0-4.5,3-7.8,7.3-7.8s7.3,3.3,7.3,7.8
		C1320.1,1414.1,1317.1,1417.4,1312.8,1417.4z M1312.8,1415.6c3.2,0,5.4-2.5,5.4-6.1c0-3.5-2.2-6.1-5.4-6.1s-5.4,2.5-5.4,6.1
		C1307.4,1413.1,1309.6,1415.6,1312.8,1415.6z"/>
	<path class="st23" d="M1322.6,1417.3v-15.4h1.9v13.6h7v1.8H1322.6z"/>
	<path class="st23" d="M1339.4,1417.4c-4.3,0-7.3-3.3-7.3-7.8c0-4.5,3-7.8,7.3-7.8c4.3,0,7.3,3.3,7.3,7.8
		C1346.8,1414.1,1343.8,1417.4,1339.4,1417.4z M1339.4,1415.6c3.2,0,5.4-2.5,5.4-6.1c0-3.5-2.2-6.1-5.4-6.1c-3.2,0-5.4,2.5-5.4,6.1
		C1334,1413.1,1336.2,1415.6,1339.4,1415.6z"/>
	<path class="st23" d="M1357.1,1401.9h1.8v15.4h-1.8v-11c-0.2,0.2-0.6,0.3-1.1,0.3h-2.5v-1.7h2.5c0.7,0,1.1-0.5,1.1-1.3V1401.9z"/>
	<path class="st23" d="M1361.6,1409.2c0-4.4,2.4-7.5,5.9-7.5c3.5,0,5.8,3.1,5.8,7.5v0.7c0,4.6-2.4,7.5-5.8,7.5
		c-3.5,0-5.9-2.9-5.9-7.5V1409.2z M1371.4,1409.3c0-3.7-1.6-5.9-4-5.9c-2.4,0-4,2.2-4,5.9v0.6c0,3.7,1.6,5.9,4,5.9
		c2.4,0,4-2.2,4-5.9V1409.3z"/>
</g>
</svg>
