<?xml version="1.0" encoding="utf-8"?>
<!-- Generator: Adobe Illustrator 22.0.0, SVG Export Plug-In . SVG Version: 6.00 Build 0)  -->
<svg version="1.1" id="Layer_1" xmlns="http://www.w3.org/2000/svg" xmlns:xlink="http://www.w3.org/1999/xlink" x="0px" y="0px"
	 viewBox="0 0 2048 1366" style="enable-background:new 0 0 2048 1366;" xml:space="preserve">
<style type="text/css">
	.st0{display:none;}
	.st1{display:inline;}
	.st2{fill:none;stroke:#000000;stroke-width:0.5;stroke-miterlimit:10;}
	.st3{fill:#0E212E;}
	.st4{font-family:'KHTekaTRIAL-Medium';}
	.st5{font-size:375px;}
	.st6{font-size:161px;}
	.st7{display:inline;fill:#0E212E;}
	.st8{font-family:'KHTekaTRIAL-Regular';}
	.st9{font-size:90px;}
	.st10{font-family:'KHTekaTRIAL-Light';}
	.st11{fill:#181818;}
	.st12{opacity:5.000000e-02;fill:#FFFFFF;}
	.st13{opacity:0;}
	.st14{fill:#050616;}
	.st15{opacity:0.5;}
	.st16{fill:none;stroke:#FFFFFF;stroke-width:0.25;stroke-miterlimit:10;}
	.st17{opacity:0;fill:none;stroke:#FFFFFF;stroke-width:0.25;stroke-miterlimit:10;}
	.st18{fill:#A8ADEF;}
	.st19{fill:#FFFFFF;}
	.st20{font-size:16px;}
	.st21{opacity:0.5;fill:none;stroke:#FFFFFF;stroke-width:0.25;stroke-miterlimit:10;}
	.st22{fill:none;stroke:#6C73F4;stroke-width:0.25;stroke-miterlimit:10;}
	.st23{fill:none;stroke:#FFFFFF;stroke-width:2.5;stroke-miterlimit:10;}
	.st24{font-size:58.2646px;}
	.st25{font-size:32.7327px;}
	.st26{font-size:136.309px;}
	.st27{font-size:39.6px;}
</style>
<g id="Layer_2_1_" class="st0">
	<g class="st1">
		<rect class="st2" width="450" height="300"/>
		<line class="st2" x1="0" y1="281.3" x2="300" y2="281.3"/>
		<line class="st2" x1="0" y1="262.5" x2="300" y2="262.5"/>
		<line class="st2" x1="0" y1="243.8" x2="300" y2="243.8"/>
		<line class="st2" x1="0" y1="225" x2="300" y2="225"/>
		<line class="st2" x1="0" y1="206.3" x2="300" y2="206.3"/>
		<line class="st2" x1="0" y1="187.5" x2="300" y2="187.5"/>
		<line class="st2" x1="0" y1="168.8" x2="300" y2="168.8"/>
		<line class="st2" x1="0" y1="150" x2="300" y2="150"/>
		<line class="st2" x1="0" y1="131.3" x2="300" y2="131.3"/>
		<line class="st2" x1="0" y1="112.5" x2="300" y2="112.5"/>
		<line class="st2" x1="0" y1="93.8" x2="300" y2="93.8"/>
		<line class="st2" x1="0" y1="75" x2="300" y2="75"/>
		<line class="st2" x1="0" y1="56.3" x2="300" y2="56.3"/>
		<line class="st2" x1="0" y1="37.5" x2="300" y2="37.5"/>
		<line class="st2" x1="0" y1="18.8" x2="300" y2="18.8"/>
		<line class="st2" x1="262.5" y1="0" x2="262.5" y2="300"/>
		<line class="st2" x1="243.8" y1="0" x2="243.8" y2="300"/>
		<line class="st2" x1="225" y1="0" x2="225" y2="300"/>
		<line class="st2" x1="206.3" y1="0" x2="206.3" y2="300"/>
		<line class="st2" x1="187.5" y1="0" x2="187.5" y2="300"/>
		<line class="st2" x1="168.8" y1="0" x2="168.8" y2="300"/>
		<line class="st2" x1="150" y1="0" x2="150" y2="300"/>
		<line class="st2" x1="131.3" y1="0" x2="131.3" y2="300"/>
		<line class="st2" x1="112.5" y1="0" x2="112.5" y2="300"/>
		<line class="st2" x1="93.8" y1="0" x2="93.8" y2="300"/>
		<line class="st2" x1="75" y1="0" x2="75" y2="300"/>
		<line class="st2" x1="56.3" y1="0" x2="56.3" y2="300"/>
		<line class="st2" x1="37.5" y1="0" x2="37.5" y2="300"/>
		<line class="st2" x1="18.8" y1="0" x2="18.8" y2="300"/>
		<line class="st2" x1="300" y1="281.3" x2="1626" y2="281.3"/>
		<line class="st2" x1="300" y1="300" x2="1626" y2="300"/>
		<line class="st2" x1="300" y1="262.5" x2="1626" y2="262.5"/>
		<line class="st2" x1="300" y1="243.8" x2="1626" y2="243.8"/>
		<line class="st2" x1="300" y1="225" x2="1626" y2="225"/>
		<line class="st2" x1="300" y1="206.3" x2="1626" y2="206.3"/>
		<line class="st2" x1="300" y1="187.5" x2="1626" y2="187.5"/>
		<line class="st2" x1="300" y1="168.8" x2="1626" y2="168.8"/>
		<line class="st2" x1="300" y1="150" x2="1626" y2="150"/>
		<line class="st2" x1="300" y1="131.3" x2="1626" y2="131.3"/>
		<line class="st2" x1="300" y1="112.5" x2="1626" y2="112.5"/>
		<line class="st2" x1="300" y1="93.8" x2="1626" y2="93.8"/>
		<line class="st2" x1="300" y1="75" x2="1626" y2="75"/>
		<line class="st2" x1="300" y1="56.3" x2="1626" y2="56.3"/>
		<line class="st2" x1="300" y1="37.5" x2="1626" y2="37.5"/>
		<line class="st2" x1="300" y1="18.8" x2="1626" y2="18.8"/>
		<line class="st2" x1="300" y1="0" x2="1626" y2="0"/>
		<line class="st2" x1="450" y1="0" x2="450" y2="300"/>
		<line class="st2" x1="431.3" y1="0" x2="431.3" y2="300"/>
		<line class="st2" x1="412.5" y1="0" x2="412.5" y2="300"/>
		<line class="st2" x1="393.8" y1="0" x2="393.8" y2="300"/>
		<line class="st2" x1="375" y1="0" x2="375" y2="300"/>
		<line class="st2" x1="356.3" y1="0" x2="356.3" y2="300"/>
		<line class="st2" x1="337.5" y1="0" x2="337.5" y2="300"/>
		<g>
			<line class="st2" x1="281.3" y1="0" x2="281.3" y2="300"/>
			<line class="st2" x1="318.8" y1="0" x2="318.8" y2="300"/>
		</g>
		<line class="st2" x1="300" y1="0" x2="300" y2="300"/>
	</g>
</g>
<g id="M" class="st0">
	<g class="st1">
		<g>
			<path class="st3" d="M0,131.3V300c82.8,0,150-67.2,150-150V0h-1.1C139.7,74,76.5,131.3,0,131.3z"/>
			<path class="st3" d="M318.8,131.3V300c-82.8,0-150-67.2-150-150V0h1.1C179.1,74,242.3,131.3,318.8,131.3z"/>
		</g>
	</g>
	<g class="st1">
		<text transform="matrix(1 0 0 1 446.875 300.2588)" class="st3 st4 st5">Audax</text>
	</g>
</g>
<g id="MR" class="st0">
	<g class="st1">
		<g>
			<path class="st3" d="M0,131.3V300c82.8,0,150-67.2,150-150V0h-1.1C139.7,74,76.5,131.3,0,131.3z"/>
			<path class="st3" d="M318.8,131.3V300c-82.8,0-150-67.2-150-150V0h1.1C179.1,74,242.3,131.3,318.8,131.3z"/>
		</g>
	</g>
	<g class="st1">
		<text transform="matrix(1 0 0 1 448.875 150.0088)" class="st3 st4 st6">Audax</text>
	</g>
	<text transform="matrix(1 0 0 1 437.8447 299.7822)" class="st7 st8 st6">Folienspezialist</text>
</g>
<g id="MM" class="st0">
	<g class="st1">
		<g>
			<path class="st3" d="M0,131.3V300c82.8,0,150-67.2,150-150V0h-1.1C139.7,74,76.5,131.3,0,131.3z"/>
			<path class="st3" d="M318.8,131.3V300c-82.8,0-150-67.2-150-150V0h1.1C179.1,74,242.3,131.3,318.8,131.3z"/>
		</g>
	</g>
	<g class="st1">
		<text transform="matrix(1 0 0 1 448.875 150.0088)" class="st3 st4 st6">Audax</text>
	</g>
	<text transform="matrix(1 0 0 1 438.8447 299.7822)" class="st7 st4 st6">Folienspezialist</text>
</g>
<g id="MLL" class="st0">
	<g class="st1">
		<g>
			<path class="st3" d="M0,131.3V300c82.8,0,150-67.2,150-150V0h-1.1C139.7,74,76.5,131.3,0,131.3z"/>
			<path class="st3" d="M318.8,131.3V300c-82.8,0-150-67.2-150-150V0h1.1C179.1,74,242.3,131.3,318.8,131.3z"/>
		</g>
	</g>
	<g class="st1">
		<text transform="matrix(1 0 0 1 449.6 100.0088)" class="st3 st4 st9">Audax-Keck GmbH</text>
	</g>
	<g class="st1">
		<text transform="matrix(1 0 0 1 447.8447 300.0988)" class="st3 st10 st9">75365 Calw</text>
	</g>
	<g class="st1">
		<text transform="matrix(1 0 0 1 448 200.0991)" class="st3 st10 st9">Weiherstraße 10</text>
	</g>
</g>
<g id="MMM" class="st0">
	<g class="st1">
		<g>
			<path class="st3" d="M0,131.3V300c82.8,0,150-67.2,150-150V0h-1.1C139.7,74,76.5,131.3,0,131.3z"/>
			<path class="st3" d="M318.8,131.3V300c-82.8,0-150-67.2-150-150V0h1.1C179.1,74,242.3,131.3,318.8,131.3z"/>
		</g>
	</g>
	<g class="st1">
		<text transform="matrix(1 0 0 1 449.6 100.0088)" class="st3 st4 st9">Audax-Keck GmbH</text>
	</g>
	<g class="st1">
		<text transform="matrix(1 0 0 1 448.8447 300.0988)" class="st3 st4 st9">75365 Calw</text>
	</g>
	<g class="st1">
		<text transform="matrix(1 0 0 1 449 200.0991)" class="st3 st4 st9">Weiherstraße 10</text>
	</g>
</g>
<rect class="st11" width="2048" height="1366"/>
<rect x="150.9" y="633" class="st12" width="47.7" height="265.5"/>
<polygon class="st12" points="766.3,898.4 198.6,898.5 198.6,1007.5 766.3,1007.5 "/>
<g class="st13">
	<g>
		<g>
			<rect x="1620.3" y="149.4" class="st14" width="47.7" height="109"/>
		</g>
		<g>
			<rect x="882.6" y="149.4" class="st14" width="47.7" height="109"/>
		</g>
		<g>
			<rect x="150.9" y="149.4" class="st14" width="47.7" height="109"/>
		</g>
	</g>
</g>
<g class="st15">
	<g>
		<g>
			<line class="st16" x1="1504.4" y1="258.5" x2="1504.4" y2="149.4"/>
			<line class="st16" x1="1668" y1="149.4" x2="1668" y2="258.5"/>
			<g>
				<line class="st17" x1="1504.4" y1="251.7" x2="1668" y2="251.7"/>
				<line class="st17" x1="1504.4" y1="238" x2="1668" y2="238"/>
				<line class="st17" x1="1504.4" y1="224.4" x2="1668" y2="224.4"/>
				<line class="st17" x1="1504.4" y1="210.8" x2="1668" y2="210.8"/>
				<line class="st17" x1="1504.4" y1="197.1" x2="1668" y2="197.1"/>
				<line class="st17" x1="1504.4" y1="183.5" x2="1668" y2="183.5"/>
				<line class="st17" x1="1504.4" y1="169.9" x2="1668" y2="169.9"/>
				<line class="st17" x1="1504.4" y1="156.2" x2="1668" y2="156.2"/>
			</g>
			<g>
				<line class="st17" x1="1599.8" y1="149.4" x2="1599.8" y2="258.5"/>
				<line class="st17" x1="1593" y1="149.4" x2="1593" y2="258.5"/>
				<line class="st17" x1="1586.2" y1="149.4" x2="1586.2" y2="258.5"/>
				<line class="st17" x1="1579.4" y1="149.4" x2="1579.4" y2="258.5"/>
				<line class="st17" x1="1572.6" y1="149.4" x2="1572.6" y2="258.5"/>
				<line class="st17" x1="1565.7" y1="149.4" x2="1565.7" y2="258.5"/>
				<line class="st17" x1="1558.9" y1="149.4" x2="1558.9" y2="258.5"/>
				<line class="st17" x1="1552.1" y1="149.4" x2="1552.1" y2="258.5"/>
				<line class="st17" x1="1545.3" y1="149.4" x2="1545.3" y2="258.5"/>
				<line class="st17" x1="1538.5" y1="149.4" x2="1538.5" y2="258.5"/>
				<line class="st17" x1="1531.7" y1="149.4" x2="1531.7" y2="258.5"/>
				<line class="st17" x1="1524.9" y1="149.4" x2="1524.9" y2="258.5"/>
				<line class="st17" x1="1518" y1="149.4" x2="1518" y2="258.5"/>
				<line class="st17" x1="1511.2" y1="149.4" x2="1511.2" y2="258.5"/>
				<line class="st17" x1="1661.2" y1="149.4" x2="1661.2" y2="258.5"/>
				<line class="st17" x1="1654.3" y1="149.4" x2="1654.3" y2="258.5"/>
				<line class="st17" x1="1647.5" y1="149.4" x2="1647.5" y2="258.5"/>
				<line class="st17" x1="1640.7" y1="149.4" x2="1640.7" y2="258.5"/>
				<line class="st17" x1="1633.9" y1="149.4" x2="1633.9" y2="258.5"/>
				<line class="st17" x1="1627.1" y1="149.4" x2="1627.1" y2="258.5"/>
				<g>
					<line class="st17" x1="1606.6" y1="149.4" x2="1606.6" y2="258.5"/>
					<line class="st16" x1="1620.3" y1="149.4" x2="1620.3" y2="258.5"/>
				</g>
				<line class="st17" x1="1613.5" y1="149.4" x2="1613.5" y2="258.5"/>
			</g>
		</g>
	</g>
	<g>
		<g>
			<rect x="35" y="149.4" class="st16" width="163.6" height="109"/>
			<line class="st16" x1="35" y1="244.8" x2="198.6" y2="244.8"/>
			<line class="st16" x1="35" y1="231.2" x2="198.6" y2="231.2"/>
			<line class="st16" x1="35" y1="217.6" x2="198.6" y2="217.6"/>
			<line class="st16" x1="35" y1="190.3" x2="198.6" y2="190.3"/>
			<line class="st16" x1="35" y1="176.7" x2="198.6" y2="176.7"/>
			<line class="st16" x1="35" y1="163.1" x2="198.6" y2="163.1"/>
			<g>
				<line class="st17" x1="35" y1="251.7" x2="198.6" y2="251.7"/>
				<line class="st17" x1="35" y1="238" x2="198.6" y2="238"/>
				<line class="st17" x1="35" y1="224.4" x2="198.6" y2="224.4"/>
				<line class="st17" x1="35" y1="210.8" x2="198.6" y2="210.8"/>
				<line class="st17" x1="35" y1="197.1" x2="198.6" y2="197.1"/>
				<line class="st17" x1="35" y1="183.5" x2="198.6" y2="183.5"/>
				<line class="st17" x1="35" y1="169.9" x2="198.6" y2="169.9"/>
				<line class="st17" x1="35" y1="156.2" x2="198.6" y2="156.2"/>
			</g>
			<line class="st16" x1="130.4" y1="149.4" x2="130.4" y2="258.5"/>
			<line class="st16" x1="123.6" y1="149.4" x2="123.6" y2="258.5"/>
			<line class="st16" x1="116.8" y1="149.4" x2="116.8" y2="258.5"/>
			<line class="st16" x1="110" y1="149.4" x2="110" y2="258.5"/>
			<line class="st16" x1="103.2" y1="149.4" x2="103.2" y2="258.5"/>
			<line class="st16" x1="96.3" y1="149.4" x2="96.3" y2="258.5"/>
			<line class="st16" x1="89.5" y1="149.4" x2="89.5" y2="258.5"/>
			<line class="st16" x1="82.7" y1="149.4" x2="82.7" y2="258.5"/>
			<line class="st16" x1="75.9" y1="149.4" x2="75.9" y2="258.5"/>
			<line class="st16" x1="69.1" y1="149.4" x2="69.1" y2="258.5"/>
			<line class="st16" x1="62.3" y1="149.4" x2="62.3" y2="258.5"/>
			<line class="st16" x1="55.4" y1="149.4" x2="55.4" y2="258.5"/>
			<line class="st16" x1="48.6" y1="149.4" x2="48.6" y2="258.5"/>
			<line class="st16" x1="41.8" y1="149.4" x2="41.8" y2="258.5"/>
			<line class="st16" x1="191.8" y1="149.4" x2="191.8" y2="258.5"/>
			<line class="st16" x1="184.9" y1="149.4" x2="184.9" y2="258.5"/>
			<line class="st16" x1="178.1" y1="149.4" x2="178.1" y2="258.5"/>
			<line class="st16" x1="171.3" y1="149.4" x2="171.3" y2="258.5"/>
			<line class="st16" x1="164.5" y1="149.4" x2="164.5" y2="258.5"/>
			<line class="st16" x1="157.7" y1="149.4" x2="157.7" y2="258.5"/>
			<g>
				<line class="st16" x1="137.2" y1="149.4" x2="137.2" y2="258.5"/>
				<line class="st16" x1="150.9" y1="149.4" x2="150.9" y2="258.5"/>
			</g>
			<line class="st16" x1="144" y1="149.4" x2="144" y2="258.5"/>
			<line class="st16" x1="35" y1="203.9" x2="198.6" y2="203.9"/>
		</g>
	</g>
	<g>
		<g>
			<line class="st16" x1="766.7" y1="258.5" x2="766.7" y2="149.4"/>
			<line class="st16" x1="930.2" y1="149.4" x2="930.2" y2="258.5"/>
			<g>
				<line class="st17" x1="766.7" y1="251.7" x2="930.3" y2="251.7"/>
				<line class="st17" x1="766.7" y1="238" x2="930.3" y2="238"/>
				<line class="st17" x1="766.7" y1="224.4" x2="930.3" y2="224.4"/>
				<line class="st17" x1="766.7" y1="210.8" x2="930.3" y2="210.8"/>
				<line class="st17" x1="766.7" y1="197.1" x2="930.3" y2="197.1"/>
				<line class="st17" x1="766.7" y1="183.5" x2="930.3" y2="183.5"/>
				<line class="st17" x1="766.7" y1="169.9" x2="930.3" y2="169.9"/>
				<line class="st17" x1="766.7" y1="156.2" x2="930.3" y2="156.2"/>
			</g>
			<g>
				<line class="st17" x1="862.1" y1="149.4" x2="862.1" y2="258.5"/>
				<line class="st17" x1="855.3" y1="149.4" x2="855.3" y2="258.5"/>
				<line class="st17" x1="848.5" y1="149.4" x2="848.5" y2="258.5"/>
				<line class="st17" x1="841.6" y1="149.4" x2="841.6" y2="258.5"/>
				<line class="st17" x1="834.8" y1="149.4" x2="834.8" y2="258.5"/>
				<line class="st17" x1="828" y1="149.4" x2="828" y2="258.5"/>
				<line class="st17" x1="821.2" y1="149.4" x2="821.2" y2="258.5"/>
				<line class="st17" x1="814.4" y1="149.4" x2="814.4" y2="258.5"/>
				<line class="st17" x1="807.6" y1="149.4" x2="807.6" y2="258.5"/>
				<line class="st17" x1="800.8" y1="149.4" x2="800.8" y2="258.5"/>
				<line class="st17" x1="793.9" y1="149.4" x2="793.9" y2="258.5"/>
				<line class="st17" x1="787.1" y1="149.4" x2="787.1" y2="258.5"/>
				<line class="st17" x1="780.3" y1="149.4" x2="780.3" y2="258.5"/>
				<line class="st17" x1="773.5" y1="149.4" x2="773.5" y2="258.5"/>
				<line class="st17" x1="923.4" y1="149.4" x2="923.4" y2="258.5"/>
				<line class="st17" x1="916.6" y1="149.4" x2="916.6" y2="258.5"/>
				<line class="st17" x1="909.8" y1="149.4" x2="909.8" y2="258.5"/>
				<line class="st17" x1="903" y1="149.4" x2="903" y2="258.5"/>
				<line class="st17" x1="896.2" y1="149.4" x2="896.2" y2="258.5"/>
				<line class="st17" x1="889.4" y1="149.4" x2="889.4" y2="258.5"/>
				<g>
					<line class="st17" x1="868.9" y1="149.4" x2="868.9" y2="258.5"/>
					<line class="st16" x1="882.5" y1="149.4" x2="882.5" y2="258.5"/>
				</g>
				<line class="st17" x1="875.7" y1="149.4" x2="875.7" y2="258.5"/>
			</g>
		</g>
	</g>
	<g>
		<g>
			<line class="st16" x1="198.6" y1="258.5" x2="2013" y2="258.5"/>
			<line class="st16" x1="198.6" y1="244.8" x2="2013" y2="244.8"/>
			<line class="st16" x1="198.6" y1="231.2" x2="2013" y2="231.2"/>
			<line class="st16" x1="198.6" y1="217.6" x2="2013" y2="217.6"/>
			<line class="st16" x1="198.6" y1="203.9" x2="2013" y2="203.9"/>
			<line class="st16" x1="198.6" y1="190.3" x2="2013" y2="190.3"/>
			<line class="st16" x1="198.6" y1="176.7" x2="2013" y2="176.7"/>
			<line class="st16" x1="198.6" y1="163.1" x2="2013" y2="163.1"/>
			<line class="st16" x1="198.6" y1="149.4" x2="2013" y2="149.4"/>
		</g>
	</g>
</g>
<g class="st13">
	<g>
		<g>
			<rect x="1620.3" y="524.4" class="st18" width="47.7" height="109"/>
		</g>
		<g>
			<rect x="882.5" y="524.4" class="st18" width="47.7" height="109"/>
		</g>
		<g>
			<rect x="150.9" y="524.4" class="st18" width="47.7" height="109"/>
		</g>
	</g>
</g>
<g class="st15">
	<g>
		<g>
			<line class="st16" x1="1504.4" y1="633.5" x2="1504.4" y2="524.4"/>
			<line class="st16" x1="1668" y1="524.4" x2="1668" y2="633.5"/>
			<g>
				<line class="st17" x1="1504.4" y1="626.7" x2="1668" y2="626.7"/>
				<line class="st17" x1="1504.4" y1="613" x2="1668" y2="613"/>
				<line class="st17" x1="1504.4" y1="599.4" x2="1668" y2="599.4"/>
				<line class="st17" x1="1504.4" y1="585.8" x2="1668" y2="585.8"/>
				<line class="st17" x1="1504.4" y1="572.1" x2="1668" y2="572.1"/>
				<line class="st17" x1="1504.4" y1="558.5" x2="1668" y2="558.5"/>
				<line class="st17" x1="1504.4" y1="544.9" x2="1668" y2="544.9"/>
				<line class="st17" x1="1504.4" y1="531.2" x2="1668" y2="531.2"/>
			</g>
			<g>
				<line class="st17" x1="1599.8" y1="524.4" x2="1599.8" y2="633.5"/>
				<line class="st17" x1="1593" y1="524.4" x2="1593" y2="633.5"/>
				<line class="st17" x1="1586.2" y1="524.4" x2="1586.2" y2="633.5"/>
				<line class="st17" x1="1579.4" y1="524.4" x2="1579.4" y2="633.5"/>
				<line class="st17" x1="1572.6" y1="524.4" x2="1572.6" y2="633.5"/>
				<line class="st17" x1="1565.7" y1="524.4" x2="1565.7" y2="633.5"/>
				<line class="st17" x1="1558.9" y1="524.4" x2="1558.9" y2="633.5"/>
				<line class="st17" x1="1552.1" y1="524.4" x2="1552.1" y2="633.5"/>
				<line class="st17" x1="1545.3" y1="524.4" x2="1545.3" y2="633.5"/>
				<line class="st17" x1="1538.5" y1="524.4" x2="1538.5" y2="633.5"/>
				<line class="st17" x1="1531.7" y1="524.4" x2="1531.7" y2="633.5"/>
				<line class="st17" x1="1524.9" y1="524.4" x2="1524.9" y2="633.5"/>
				<line class="st17" x1="1518" y1="524.4" x2="1518" y2="633.5"/>
				<line class="st17" x1="1511.2" y1="524.4" x2="1511.2" y2="633.5"/>
				<line class="st17" x1="1661.2" y1="524.4" x2="1661.2" y2="633.5"/>
				<line class="st17" x1="1654.3" y1="524.4" x2="1654.3" y2="633.5"/>
				<line class="st17" x1="1647.5" y1="524.4" x2="1647.5" y2="633.5"/>
				<line class="st17" x1="1640.7" y1="524.4" x2="1640.7" y2="633.5"/>
				<line class="st17" x1="1633.9" y1="524.4" x2="1633.9" y2="633.5"/>
				<line class="st17" x1="1627.1" y1="524.4" x2="1627.1" y2="633.5"/>
				<g>
					<line class="st17" x1="1606.6" y1="524.4" x2="1606.6" y2="633.5"/>
					<line class="st16" x1="1620.3" y1="524.4" x2="1620.3" y2="633.5"/>
				</g>
				<line class="st17" x1="1613.5" y1="524.4" x2="1613.5" y2="633.5"/>
			</g>
		</g>
	</g>
	<g>
		<g>
			<rect x="35" y="524.4" class="st16" width="163.6" height="109"/>
			<line class="st16" x1="35" y1="619.8" x2="198.6" y2="619.8"/>
			<line class="st16" x1="35" y1="606.2" x2="198.6" y2="606.2"/>
			<line class="st16" x1="35" y1="592.6" x2="198.6" y2="592.6"/>
			<line class="st16" x1="35" y1="565.3" x2="198.6" y2="565.3"/>
			<line class="st16" x1="35" y1="551.7" x2="198.6" y2="551.7"/>
			<line class="st16" x1="35" y1="538.1" x2="198.6" y2="538.1"/>
			<g>
				<line class="st17" x1="35" y1="626.7" x2="198.6" y2="626.7"/>
				<line class="st17" x1="35" y1="613" x2="198.6" y2="613"/>
				<line class="st17" x1="35" y1="599.4" x2="198.6" y2="599.4"/>
				<line class="st17" x1="35" y1="585.8" x2="198.6" y2="585.8"/>
				<line class="st17" x1="35" y1="572.1" x2="198.6" y2="572.1"/>
				<line class="st17" x1="35" y1="558.5" x2="198.6" y2="558.5"/>
				<line class="st17" x1="35" y1="544.9" x2="198.6" y2="544.9"/>
				<line class="st17" x1="35" y1="531.2" x2="198.6" y2="531.2"/>
			</g>
			<line class="st16" x1="130.4" y1="524.4" x2="130.4" y2="633.5"/>
			<line class="st16" x1="123.6" y1="524.4" x2="123.6" y2="633.5"/>
			<line class="st16" x1="116.8" y1="524.4" x2="116.8" y2="633.5"/>
			<line class="st16" x1="110" y1="524.4" x2="110" y2="633.5"/>
			<line class="st16" x1="103.2" y1="524.4" x2="103.2" y2="633.5"/>
			<line class="st16" x1="96.3" y1="524.4" x2="96.3" y2="633.5"/>
			<line class="st16" x1="89.5" y1="524.4" x2="89.5" y2="633.5"/>
			<line class="st16" x1="82.7" y1="524.4" x2="82.7" y2="633.5"/>
			<line class="st16" x1="75.9" y1="524.4" x2="75.9" y2="633.5"/>
			<line class="st16" x1="69.1" y1="524.4" x2="69.1" y2="633.5"/>
			<line class="st16" x1="62.3" y1="524.4" x2="62.3" y2="633.5"/>
			<line class="st16" x1="55.4" y1="524.4" x2="55.4" y2="633.5"/>
			<line class="st16" x1="48.6" y1="524.4" x2="48.6" y2="633.5"/>
			<line class="st16" x1="41.8" y1="524.4" x2="41.8" y2="633.5"/>
			<line class="st16" x1="191.8" y1="524.4" x2="191.8" y2="633.5"/>
			<line class="st16" x1="184.9" y1="524.4" x2="184.9" y2="633.5"/>
			<line class="st16" x1="178.1" y1="524.4" x2="178.1" y2="633.5"/>
			<line class="st16" x1="171.3" y1="524.4" x2="171.3" y2="633.5"/>
			<line class="st16" x1="164.5" y1="524.4" x2="164.5" y2="633.5"/>
			<line class="st16" x1="157.7" y1="524.4" x2="157.7" y2="633.5"/>
			<line class="st16" x1="137.2" y1="524.4" x2="137.2" y2="633.5"/>
			<line class="st16" x1="150.9" y1="524.4" x2="150.9" y2="633.5"/>
			<line class="st16" x1="144" y1="524.4" x2="144" y2="633.5"/>
			<line class="st16" x1="35" y1="578.9" x2="198.6" y2="578.9"/>
		</g>
	</g>
	<g>
		<g>
			<line class="st16" x1="766.7" y1="633.5" x2="766.7" y2="524.4"/>
			<line class="st16" x1="930.2" y1="524.4" x2="930.2" y2="633.5"/>
			<g>
				<line class="st17" x1="766.7" y1="626.7" x2="930.3" y2="626.7"/>
				<line class="st17" x1="766.7" y1="613" x2="930.3" y2="613"/>
				<line class="st17" x1="766.7" y1="599.4" x2="930.3" y2="599.4"/>
				<line class="st17" x1="766.7" y1="585.8" x2="930.3" y2="585.8"/>
				<line class="st17" x1="766.7" y1="572.1" x2="930.3" y2="572.1"/>
				<line class="st17" x1="766.7" y1="558.5" x2="930.3" y2="558.5"/>
				<line class="st17" x1="766.7" y1="544.9" x2="930.3" y2="544.9"/>
				<line class="st17" x1="766.7" y1="531.2" x2="930.3" y2="531.2"/>
			</g>
			<g>
				<line class="st17" x1="862.1" y1="524.4" x2="862.1" y2="633.5"/>
				<line class="st17" x1="855.3" y1="524.4" x2="855.3" y2="633.5"/>
				<line class="st17" x1="848.5" y1="524.4" x2="848.5" y2="633.5"/>
				<line class="st17" x1="841.6" y1="524.4" x2="841.6" y2="633.5"/>
				<line class="st17" x1="834.8" y1="524.4" x2="834.8" y2="633.5"/>
				<line class="st17" x1="828" y1="524.4" x2="828" y2="633.5"/>
				<line class="st17" x1="821.2" y1="524.4" x2="821.2" y2="633.5"/>
				<line class="st17" x1="814.4" y1="524.4" x2="814.4" y2="633.5"/>
				<line class="st17" x1="807.6" y1="524.4" x2="807.6" y2="633.5"/>
				<line class="st17" x1="800.8" y1="524.4" x2="800.8" y2="633.5"/>
				<line class="st17" x1="793.9" y1="524.4" x2="793.9" y2="633.5"/>
				<line class="st17" x1="787.1" y1="524.4" x2="787.1" y2="633.5"/>
				<line class="st17" x1="780.3" y1="524.4" x2="780.3" y2="633.5"/>
				<line class="st17" x1="773.5" y1="524.4" x2="773.5" y2="633.5"/>
				<line class="st17" x1="923.4" y1="524.4" x2="923.4" y2="633.5"/>
				<line class="st17" x1="916.6" y1="524.4" x2="916.6" y2="633.5"/>
				<line class="st17" x1="909.8" y1="524.4" x2="909.8" y2="633.5"/>
				<line class="st17" x1="903" y1="524.4" x2="903" y2="633.5"/>
				<line class="st17" x1="896.2" y1="524.4" x2="896.2" y2="633.5"/>
				<line class="st17" x1="889.4" y1="524.4" x2="889.4" y2="633.5"/>
				<g>
					<line class="st17" x1="868.9" y1="524.4" x2="868.9" y2="633.5"/>
					<line class="st16" x1="882.5" y1="524.4" x2="882.5" y2="633.5"/>
				</g>
				<line class="st17" x1="875.7" y1="524.4" x2="875.7" y2="633.5"/>
			</g>
		</g>
	</g>
	<g>
		<g>
			<line class="st16" x1="198.6" y1="633.5" x2="2013" y2="633.5"/>
			<line class="st16" x1="198.6" y1="619.8" x2="2013" y2="619.8"/>
			<line class="st16" x1="198.6" y1="606.2" x2="2013" y2="606.2"/>
			<line class="st16" x1="198.6" y1="592.6" x2="2013" y2="592.6"/>
			<line class="st16" x1="198.6" y1="578.9" x2="2013" y2="578.9"/>
			<line class="st16" x1="198.6" y1="565.3" x2="2013" y2="565.3"/>
			<line class="st16" x1="198.6" y1="551.7" x2="2013" y2="551.7"/>
			<line class="st16" x1="198.6" y1="538.1" x2="2013" y2="538.1"/>
			<line class="st16" x1="198.6" y1="524.4" x2="2013" y2="524.4"/>
		</g>
	</g>
</g>
<g class="st13">
	<g>
		<g>
			<rect x="882.3" y="898.4" class="st18" width="47.7" height="109"/>
		</g>
	</g>
</g>
<g class="st15">
	<g>
		<g>
			<text transform="matrix(1 0 0 1 35.3662 68.5293)" class="st19 st8 st20">One row</text>
		</g>
		<g>
			<text transform="matrix(1 0 0 1 766.3662 68.5293)" class="st19 st8 st20">Two rows</text>
		</g>
		<g>
			<text transform="matrix(1 0 0 1 1504.3662 68.5293)" class="st19 st8 st20">Three rows</text>
		</g>
		<g>
			<text transform="matrix(1 0 0 1 1504.3662 820.5293)" class="st19 st8 st20">Five and more rows</text>
		</g>
		<g>
			<text transform="matrix(1 0 0 1 1697.3662 401.5293)"><tspan x="0" y="0" class="st19 st8 st20">Medium 500</tspan><tspan x="0" y="18" class="st19 st8 st20">Light 300</tspan><tspan x="0" y="36" class="st19 st8 st20">Light 300</tspan></text>
		</g>
		<g>
			<text transform="matrix(1 0 0 1 1665.3662 1234.5293)"><tspan x="0" y="0" class="st19 st8 st20">Medium 500</tspan><tspan x="0" y="18" class="st19 st8 st20">Regular 400</tspan><tspan x="0" y="36" class="st19 st8 st20">Regular 400</tspan><tspan x="0" y="54" class="st19 st8 st20">Regular 400</tspan><tspan x="0" y="72" class="st19 st8 st20">Regular 400</tspan></text>
		</g>
		<g>
			<text transform="matrix(1 0 0 1 766.3662 817.5293)" class="st19 st8 st20">Four rows</text>
		</g>
		<g>
			<text transform="matrix(1 0 0 1 1504.3662 803.5293)" class="st19 st8 st20">Additional layout</text>
		</g>
		<g>
			<text transform="matrix(1 0 0 1 766.3662 800.5293)" class="st19 st8 st20">Additional layout</text>
		</g>
		<g>
			<text transform="matrix(1 0 0 1 927.3662 1231.5293)"><tspan x="0" y="0" class="st19 st8 st20">Medium 500</tspan><tspan x="0" y="18" class="st19 st8 st20">Regular 400</tspan><tspan x="0" y="36" class="st19 st8 st20">Regular 400</tspan><tspan x="0" y="54" class="st19 st8 st20">Regular 400</tspan></text>
		</g>
		<g>
			<text transform="matrix(1 0 0 1 151 1231.5293)"><tspan x="0" y="0" class="st19 st8 st20">Clearspace</tspan><tspan x="0" y="18" class="st19 st8 st20">Symbol grid system SP01 </tspan></text>
		</g>
		<g>
			<text transform="matrix(1 0 0 1 1673.3662 401.5293)" class="st19 st8 st20">A</text>
		</g>
		<g>
			<text transform="matrix(1 0 0 1 1820.3662 401.5293)" class="st19 st8 st20">B</text>
		</g>
		<g>
			<text transform="matrix(1 0 0 1 1844.3662 401.5293)"><tspan x="0" y="0" class="st19 st8 st20">Regular 400</tspan><tspan x="0" y="18" class="st19 st8 st20">Regular 400</tspan><tspan x="0" y="36" class="st19 st8 st20">Regular 400</tspan></text>
		</g>
		<g>
			<text transform="matrix(1 0 0 1 936.3662 401.5293)"><tspan x="0" y="0" class="st19 st8 st20">Medium 500</tspan><tspan x="0" y="18" class="st19 st8 st20">Regular 400</tspan></text>
		</g>
		<g>
			<text transform="matrix(1 0 0 1 204.3662 401.5293)" class="st19 st8 st20">Medium 500</text>
		</g>
	</g>
</g>
<g class="st15">
	<rect x="150.9" y="898.4" class="st16" width="47.7" height="109"/>
	<g>
		<line class="st16" x1="150.9" y1="993.9" x2="198.6" y2="993.9"/>
		<line class="st16" x1="150.9" y1="980.2" x2="198.6" y2="980.2"/>
		<line class="st16" x1="150.9" y1="966.6" x2="198.6" y2="966.6"/>
		<line class="st16" x1="150.9" y1="953" x2="198.6" y2="953"/>
		<line class="st16" x1="150.9" y1="939.3" x2="198.6" y2="939.3"/>
		<line class="st16" x1="150.9" y1="925.7" x2="198.6" y2="925.7"/>
		<line class="st16" x1="150.9" y1="912.1" x2="198.6" y2="912.1"/>
	</g>
	<g>
		<line class="st16" x1="191.6" y1="898.4" x2="191.6" y2="1007.5"/>
		<line class="st16" x1="184.9" y1="898.4" x2="184.9" y2="1007.5"/>
		<line class="st16" x1="178.1" y1="898.4" x2="178.1" y2="1007.5"/>
		<line class="st16" x1="171.3" y1="898.4" x2="171.3" y2="1007.5"/>
		<line class="st16" x1="164.6" y1="898.4" x2="164.6" y2="1007.5"/>
		<line class="st16" x1="157.8" y1="898.4" x2="157.8" y2="1007.5"/>
	</g>
</g>
<g>
	<g class="st15">
		<g>
			<g>
				<line class="st16" x1="766.4" y1="1007.5" x2="766.4" y2="898.4"/>
				<line class="st16" x1="930" y1="898.4" x2="930" y2="1116"/>
				<g>
					<line class="st17" x1="766.4" y1="1000.7" x2="930" y2="1000.7"/>
					<line class="st17" x1="766.4" y1="987" x2="930" y2="987"/>
					<line class="st17" x1="766.4" y1="973.4" x2="930" y2="973.4"/>
					<line class="st17" x1="766.4" y1="959.8" x2="930" y2="959.8"/>
					<line class="st17" x1="766.4" y1="946.1" x2="930" y2="946.1"/>
					<line class="st17" x1="766.4" y1="932.5" x2="930" y2="932.5"/>
					<line class="st17" x1="766.4" y1="918.9" x2="930" y2="918.9"/>
					<line class="st17" x1="766.4" y1="905.2" x2="930" y2="905.2"/>
				</g>
				<g>
					<line class="st17" x1="861.8" y1="898.4" x2="861.8" y2="1007.5"/>
					<line class="st17" x1="855" y1="898.4" x2="855" y2="1007.5"/>
					<line class="st17" x1="848.2" y1="898.4" x2="848.2" y2="1007.5"/>
					<line class="st17" x1="841.4" y1="898.4" x2="841.4" y2="1007.5"/>
					<line class="st17" x1="834.6" y1="898.4" x2="834.6" y2="1007.5"/>
					<line class="st17" x1="827.7" y1="898.4" x2="827.7" y2="1007.5"/>
					<line class="st17" x1="820.9" y1="898.4" x2="820.9" y2="1007.5"/>
					<line class="st17" x1="814.1" y1="898.4" x2="814.1" y2="1007.5"/>
					<line class="st17" x1="807.3" y1="898.4" x2="807.3" y2="1007.5"/>
					<line class="st17" x1="800.5" y1="898.4" x2="800.5" y2="1007.5"/>
					<line class="st17" x1="793.7" y1="898.4" x2="793.7" y2="1007.5"/>
					<line class="st17" x1="786.9" y1="898.4" x2="786.9" y2="1007.5"/>
					<line class="st17" x1="780" y1="898.4" x2="780" y2="1007.5"/>
					<line class="st17" x1="773.2" y1="898.4" x2="773.2" y2="1007.5"/>
					<line class="st17" x1="923.2" y1="898.4" x2="923.2" y2="1007.5"/>
					<line class="st17" x1="916.3" y1="898.4" x2="916.3" y2="1007.5"/>
					<line class="st17" x1="909.5" y1="898.4" x2="909.5" y2="1007.5"/>
					<line class="st17" x1="902.7" y1="898.4" x2="902.7" y2="1007.5"/>
					<line class="st17" x1="895.9" y1="898.4" x2="895.9" y2="1007.5"/>
					<line class="st17" x1="889.1" y1="898.4" x2="889.1" y2="1007.5"/>
					<g>
						<line class="st17" x1="868.6" y1="898.4" x2="868.6" y2="1007.5"/>
						<line class="st16" x1="882.3" y1="898.4" x2="882.3" y2="1007.5"/>
					</g>
					<line class="st17" x1="875.5" y1="898.4" x2="875.5" y2="1007.5"/>
				</g>
			</g>
		</g>
		<g>
			<g>
				<line class="st16" x1="766.3" y1="1007.5" x2="1275.3" y2="1007.5"/>
				<line class="st16" x1="766.3" y1="993.8" x2="1275.3" y2="993.8"/>
				<line class="st16" x1="766.3" y1="980.2" x2="1275.3" y2="980.2"/>
				<line class="st16" x1="766.3" y1="966.6" x2="1275.3" y2="966.6"/>
				<line class="st16" x1="766.3" y1="952.9" x2="1275.3" y2="952.9"/>
				<line class="st16" x1="766.3" y1="939.3" x2="1275.3" y2="939.3"/>
				<line class="st16" x1="766.3" y1="925.7" x2="1275.3" y2="925.7"/>
				<line class="st16" x1="766.3" y1="912.1" x2="1275.3" y2="912.1"/>
				<line class="st16" x1="766.3" y1="898.4" x2="1275.3" y2="898.4"/>
			</g>
		</g>
		<g>
			<g>
				<line class="st16" x1="930" y1="1116.5" x2="1275.3" y2="1116.5"/>
				<line class="st16" x1="930" y1="1102.8" x2="1275.3" y2="1102.8"/>
				<line class="st16" x1="930" y1="1089.2" x2="1275.3" y2="1089.2"/>
				<line class="st16" x1="930" y1="1075.6" x2="1275.3" y2="1075.6"/>
				<line class="st16" x1="930" y1="1061.9" x2="1275.3" y2="1061.9"/>
				<line class="st16" x1="930" y1="1048.3" x2="1275.3" y2="1048.3"/>
				<line class="st16" x1="930" y1="1034.7" x2="1275.3" y2="1034.7"/>
				<line class="st16" x1="930" y1="1021.1" x2="1275.3" y2="1021.1"/>
			</g>
		</g>
	</g>
	<line class="st21" x1="950.4" y1="898.4" x2="950.4" y2="1116.5"/>
</g>
<line class="st22" x1="930" y1="898.4" x2="930" y2="1007.5"/>
<line class="st23" x1="930" y1="898.5" x2="930" y2="1116.5"/>
<g class="st13">
	<g>
		<g>
			<rect x="1620.3" y="898.4" class="st18" width="47.7" height="109"/>
		</g>
	</g>
</g>
<g>
	<g class="st15">
		<g>
			<g>
				<line class="st16" x1="1504.4" y1="1007.5" x2="1504.4" y2="898.4"/>
				<line class="st16" x1="1668" y1="898.4" x2="1668" y2="1157"/>
				<g>
					<line class="st17" x1="1504.4" y1="1000.7" x2="1668" y2="1000.7"/>
					<line class="st17" x1="1504.4" y1="987" x2="1668" y2="987"/>
					<line class="st17" x1="1504.4" y1="973.4" x2="1668" y2="973.4"/>
					<line class="st17" x1="1504.4" y1="959.8" x2="1668" y2="959.8"/>
					<line class="st17" x1="1504.4" y1="946.1" x2="1668" y2="946.1"/>
					<line class="st17" x1="1504.4" y1="932.5" x2="1668" y2="932.5"/>
					<line class="st17" x1="1504.4" y1="918.9" x2="1668" y2="918.9"/>
					<line class="st17" x1="1504.4" y1="905.2" x2="1668" y2="905.2"/>
				</g>
				<g>
					<line class="st17" x1="1599.8" y1="898.4" x2="1599.8" y2="1007.5"/>
					<line class="st17" x1="1593" y1="898.4" x2="1593" y2="1007.5"/>
					<line class="st17" x1="1586.2" y1="898.4" x2="1586.2" y2="1007.5"/>
					<line class="st17" x1="1579.4" y1="898.4" x2="1579.4" y2="1007.5"/>
					<line class="st17" x1="1572.6" y1="898.4" x2="1572.6" y2="1007.5"/>
					<line class="st17" x1="1565.7" y1="898.4" x2="1565.7" y2="1007.5"/>
					<line class="st17" x1="1558.9" y1="898.4" x2="1558.9" y2="1007.5"/>
					<line class="st17" x1="1552.1" y1="898.4" x2="1552.1" y2="1007.5"/>
					<line class="st17" x1="1545.3" y1="898.4" x2="1545.3" y2="1007.5"/>
					<line class="st17" x1="1538.5" y1="898.4" x2="1538.5" y2="1007.5"/>
					<line class="st17" x1="1531.7" y1="898.4" x2="1531.7" y2="1007.5"/>
					<line class="st17" x1="1524.9" y1="898.4" x2="1524.9" y2="1007.5"/>
					<line class="st17" x1="1518" y1="898.4" x2="1518" y2="1007.5"/>
					<line class="st17" x1="1511.2" y1="898.4" x2="1511.2" y2="1007.5"/>
					<line class="st17" x1="1661.2" y1="898.4" x2="1661.2" y2="1007.5"/>
					<line class="st17" x1="1654.3" y1="898.4" x2="1654.3" y2="1007.5"/>
					<line class="st17" x1="1647.5" y1="898.4" x2="1647.5" y2="1007.5"/>
					<line class="st17" x1="1640.7" y1="898.4" x2="1640.7" y2="1007.5"/>
					<line class="st17" x1="1633.9" y1="898.4" x2="1633.9" y2="1007.5"/>
					<line class="st17" x1="1627.1" y1="898.4" x2="1627.1" y2="1007.5"/>
					<g>
						<line class="st17" x1="1606.6" y1="898.4" x2="1606.6" y2="1007.5"/>
						<line class="st16" x1="1620.3" y1="898.4" x2="1620.3" y2="1007.5"/>
					</g>
					<line class="st17" x1="1613.5" y1="898.4" x2="1613.5" y2="1007.5"/>
				</g>
			</g>
		</g>
		<g>
			<g>
				<line class="st16" x1="1504.3" y1="1007.5" x2="2013.3" y2="1007.5"/>
				<line class="st16" x1="1504.3" y1="993.8" x2="2013.3" y2="993.8"/>
				<line class="st16" x1="1504.3" y1="980.2" x2="2013.3" y2="980.2"/>
				<line class="st16" x1="1504.3" y1="966.6" x2="2013.3" y2="966.6"/>
				<line class="st16" x1="1504.3" y1="952.9" x2="2013.3" y2="952.9"/>
				<line class="st16" x1="1504.3" y1="939.3" x2="2013.3" y2="939.3"/>
				<line class="st16" x1="1504.3" y1="925.7" x2="2013.3" y2="925.7"/>
				<line class="st16" x1="1504.3" y1="912.1" x2="2013.3" y2="912.1"/>
				<line class="st16" x1="1504.3" y1="898.4" x2="2013.3" y2="898.4"/>
			</g>
		</g>
		<g>
			<g>
				<line class="st16" x1="1668" y1="1116.5" x2="2013.3" y2="1116.5"/>
				<line class="st16" x1="1668" y1="1102.8" x2="2013.3" y2="1102.8"/>
				<line class="st16" x1="1668" y1="1089.2" x2="2013.3" y2="1089.2"/>
				<line class="st16" x1="1668" y1="1075.6" x2="2013.3" y2="1075.6"/>
				<line class="st16" x1="1668" y1="1061.9" x2="2013.3" y2="1061.9"/>
				<line class="st16" x1="1668" y1="1048.3" x2="2013.3" y2="1048.3"/>
				<line class="st16" x1="1668" y1="1034.7" x2="2013.3" y2="1034.7"/>
				<line class="st16" x1="1668" y1="1021.1" x2="2013.3" y2="1021.1"/>
			</g>
		</g>
		<g>
			<g>
				<line class="st16" x1="1668" y1="1157.3" x2="2013.3" y2="1157.3"/>
				<line class="st16" x1="1668" y1="1143.7" x2="2013.3" y2="1143.7"/>
				<line class="st16" x1="1668" y1="1130.1" x2="2013.3" y2="1130.1"/>
			</g>
		</g>
	</g>
	<line class="st21" x1="1688.4" y1="898.7" x2="1688.4" y2="1157.3"/>
</g>
<line class="st22" x1="1668" y1="898.7" x2="1668" y2="1028"/>
<line class="st23" x1="1668" y1="898.4" x2="1668" y2="1157.3"/>
<g>
	<g>
		<g>
			<path class="st19" d="M766.7,197.1v61.3c30.1,0,54.5-24.4,54.5-54.5v-54.5h-0.4C817.4,176.3,794.5,197.1,766.7,197.1z"/>
			<path class="st19" d="M882.5,197.1v61.3c-30.1,0-54.5-24.4-54.5-54.5v-54.5h0.4C831.8,176.3,854.7,197.1,882.5,197.1z"/>
		</g>
	</g>
	<g>
		<text transform="matrix(1 0 0 1 925.7 633.5293)" class="st19 st8 st24">Department</text>
	</g>
	<g>
		<text transform="matrix(1 0 0 1 1665.3311 633.478)" class="st19 st10 st25">Kommunikation 02</text>
	</g>
	<g>
		<text transform="matrix(1 0 0 1 1665.3311 597.1079)" class="st19 st10 st25">Kommunikation 01</text>
	</g>
	<g>
		<text transform="matrix(1 0 0 1 948 1080.1224)" class="st19 st8 st25">Kommunikation 02</text>
	</g>
	<g>
		<text transform="matrix(1 0 0 1 948 1043.8228)" class="st19 st8 st25">Kommunikation 01</text>
	</g>
	<g>
		<text transform="matrix(1 0 0 1 948 1116.4225)" class="st19 st8 st25">Mitteilung 01</text>
	</g>
	<g>
		<text transform="matrix(1 0 0 1 1686 1081.8977)" class="st19 st8 st25">Kommunikation 02</text>
	</g>
	<g>
		<text transform="matrix(1 0 0 1 1686 1044.1078)" class="st19 st8 st25">Kommunikation 01</text>
	</g>
	<g>
		<text transform="matrix(1 0 0 1 1686 1119.688)" class="st19 st8 st25">Mitteilung 01</text>
	</g>
	<g>
		<text transform="matrix(1 0 0 1 1686 1157.3223)" class="st19 st8 st25">Mitteilung 02</text>
	</g>
	<g>
		<g>
			<path class="st19" d="M1504.4,197.1v61.3c30.1,0,54.5-24.4,54.5-54.5v-54.5h-0.4C1555.2,176.3,1532.2,197.1,1504.4,197.1z"/>
			<path class="st19" d="M1620.3,197.1v61.3c-30.1,0-54.5-24.4-54.5-54.5v-54.5h0.4C1569.5,176.3,1592.5,197.1,1620.3,197.1z"/>
		</g>
	</g>
	<g>
		<g>
			<path class="st19" d="M35,197.1v61.3c30.1,0,54.5-24.4,54.5-54.5v-54.5h-0.4C85.8,176.3,62.8,197.1,35,197.1z"/>
			<path class="st19" d="M150.9,197.1v61.3c-30.1,0-54.5-24.4-54.5-54.5v-54.5h0.4C100.1,176.3,123.1,197.1,150.9,197.1z"/>
		</g>
	</g>
	<g>
		<text transform="matrix(1 0 0 1 190.7 258.563)" class="st19 st4 st26">Audax</text>
	</g>
	<g>
		<text transform="matrix(1 0 0 1 926.5 203.98)" class="st19 st4 st24">Audax</text>
	</g>
	<g>
		<text transform="matrix(1 0 0 1 925.8 258.5293)" class="st19 st8 st24">Folienspezialist</text>
	</g>
	<g>
		<text transform="matrix(1 0 0 1 1665.5 185.7056)" class="st19 st4 st25">Audax-Keck GmbH</text>
	</g>
	<g>
		<text transform="matrix(1 0 0 1 1666.2 258.478)" class="st19 st10 st25">75365 Calw</text>
	</g>
	<g>
		<text transform="matrix(1 0 0 1 1665.6996 222.1079)" class="st19 st10 st25">Weiherstraße 10</text>
	</g>
	<g>
		<g>
			<path class="st19" d="M1504.4,572.1v61.3c30.1,0,54.5-24.4,54.5-54.5v-54.5h-0.4C1555.2,551.3,1532.2,572.1,1504.4,572.1z"/>
			<path class="st19" d="M1620.3,572.1v61.3c-30.1,0-54.5-24.4-54.5-54.5v-54.5h0.4C1569.5,551.3,1592.5,572.1,1620.3,572.1z"/>
		</g>
	</g>
	<g>
		<g>
			<path class="st19" d="M35,572.1v61.3c30.1,0,54.5-24.4,54.5-54.5v-54.5h-0.4C85.8,551.3,62.8,572.1,35,572.1z"/>
			<path class="st19" d="M150.9,572.1v61.3c-30.1,0-54.5-24.4-54.5-54.5v-54.5h0.4C100.1,551.3,123.1,572.1,150.9,572.1z"/>
		</g>
	</g>
	<g>
		<text transform="matrix(1 0 0 1 189.4355 633.563)" class="st19 st4 st26">Firma</text>
	</g>
	<g>
		<g>
			<path class="st19" d="M766.7,572.1v61.3c30.1,0,54.5-24.4,54.5-54.5v-54.5h-0.4C817.4,551.3,794.5,572.1,766.7,572.1z"/>
			<path class="st19" d="M882.5,572.1v61.3c-30.1,0-54.5-24.4-54.5-54.5v-54.5h0.4C831.8,551.3,854.7,572.1,882.5,572.1z"/>
		</g>
	</g>
	<g>
		<text transform="matrix(1 0 0 1 926 578.98)" class="st19 st4 st24">Firma</text>
	</g>
	<g>
		<text transform="matrix(1 0 0 1 1665.6 560.7056)" class="st19 st4 st25">Firma Name</text>
	</g>
	<g>
		<g>
			<path class="st19" d="M766.4,946.1v61.3c30.1,0,54.5-24.4,54.5-54.5v-54.5h-0.4C817.2,925.3,794.2,946.1,766.4,946.1z"/>
			<path class="st19" d="M882.3,946.1v61.3c-30.1,0-54.5-24.4-54.5-54.5v-54.5h0.4C831.5,925.3,854.5,946.1,882.3,946.1z"/>
		</g>
	</g>
	<g>
		<g>
			<path class="st19" d="M1504.4,946.1v61.3c30.1,0,54.5-24.4,54.5-54.5v-54.5h-0.4C1555.2,925.3,1532.2,946.1,1504.4,946.1z"/>
			<path class="st19" d="M1620.3,946.1v61.3c-30.1,0-54.5-24.4-54.5-54.5v-54.5h0.4C1569.5,925.3,1592.5,946.1,1620.3,946.1z"/>
		</g>
	</g>
	<g>
		<text transform="matrix(1 0 0 1 947.5 939.5247)" class="st19 st4 st27">Audax</text>
	</g>
	<g>
		<text transform="matrix(1 0 0 1 1685.5 939.5247)" class="st19 st4 st27">Audax</text>
	</g>
</g>
</svg>
