<?xml version="1.0" encoding="utf-8"?>
<!-- Generator: Adobe Illustrator 22.0.0, SVG Export Plug-In . SVG Version: 6.00 Build 0)  -->
<svg version="1.1" id="Layer_1" xmlns="http://www.w3.org/2000/svg" xmlns:xlink="http://www.w3.org/1999/xlink" x="0px" y="0px"
	 viewBox="0 0 1200 118.3" style="enable-background:new 0 0 1200 118.3;" xml:space="preserve">
<style type="text/css">
	.st0{fill:#FFFFFF;}
</style>
<g>
	<g>
		<path class="st0" d="M29.3,115.6L0,2.7h32.9L40,35.6c3.4,17.2,3.5,39.8,3.2,56.2h10.3c-0.2-14,0-26.9,4-48.7L67.7,2.7h36.3
			L114.3,43c4.2,20,4.2,34.8,4.2,48.8h10.2c0-16.4-0.2-38.8,3.1-55.6l7.3-33.5H170l-28.4,112.8h-35.5L95.1,70.7
			c-3.9-16.4-3.9-31.9-3.7-45.8H81.1c0.2,13.9,0,29-3.9,45.8l-11.6,44.8H29.3z"/>
		<path class="st0" d="M176.3,59.6c0-32.7,21-59.6,61.9-59.6c41.1,0,62,26.9,62,59.6s-20.6,58.7-62,58.7
			C196.9,118.3,176.3,92.3,176.3,59.6z M268,59.5c0-20.5-10.5-35.1-29.7-35.1S208.5,39,208.5,59.5c0,20.3,10.6,34.5,29.8,34.5
			S268,79.8,268,59.5z"/>
		<path class="st0" d="M317.6,115.6V2.7H405v24h-57.5v20h44.5v22.4h-44.5v22.4H405v24H317.6z"/>
		<path class="st0" d="M423.7,115.6V2.7h42.9L513,85.3l8.5-5.5c-8.9-14.3-14.2-25.9-14.2-44.2V2.7h29.5v112.8h-35l-54.5-97.2
			l-8.7,5.2c7.4,12.2,14.5,27.9,14.5,48.2v43.8H423.7z"/>
		<path class="st0" d="M554.2,59.6c0-32.7,21-59.6,61.9-59.6c41.1,0,62,26.9,62,59.6s-20.6,58.7-62,58.7
			C574.9,118.3,554.2,92.3,554.2,59.6z M645.9,59.5c0-20.5-10.5-35.1-29.7-35.1c-19.2,0-29.8,14.7-29.8,35.1
			c0,20.3,10.6,34.5,29.8,34.5C635.5,94,645.9,79.8,645.9,59.5z"/>
		<path class="st0" d="M695.6,115.6V2.7h47.7L757,46.3c3.1,10.6,3.9,24.3,3.9,47.7h10c0-23.4,1.1-37.1,4.2-47.7l14.2-43.5H835v112.8
			h-29.7V82.8c0-22.1,6.4-45.4,13.4-63.2l-10.3-3.5l-30.9,99.4h-24.7L722,16.3l-10.3,3.4c6.9,17.7,13.2,41.1,13.2,63.2v32.7H695.6z"
			/>
		<path class="st0" d="M852.2,59.6c0-32.7,20.9-59.6,61.9-59.6c41.1,0,62,26.9,62,59.6s-20.6,58.7-62,58.7
			C872.8,118.3,852.2,92.3,852.2,59.6z M943.9,59.5c0-20.5-10.5-35.1-29.7-35.1c-19.2,0-29.8,14.7-29.8,35.1
			c0,20.3,10.6,34.5,29.8,34.5C933.4,94,943.9,79.8,943.9,59.5z"/>
		<path class="st0" d="M993.6,115.6V2.7h59.5c25.1,0,39.5,11.6,39.5,29.3c0,23.5-21.8,25.8-37.1,26.1v9.7c21,0.2,31.3,4.4,35.3,23
			l4.8,24.7h-32.2l-4.4-25.9c-1.8-11.4-6.4-15.6-18.1-15.6h-17.2v41.6H993.6z M1023.7,52.2h22.4c8.9,0,15.3-4.5,15.3-13.1
			c0-8.5-6.3-12.7-15.3-12.7h-22.4V52.2z"/>
		<path class="st0" d="M1112.7,115.6V2.7h87.3v24h-57.5v20h44.5v22.4h-44.5v22.4h57.5v24H1112.7z"/>
	</g>
</g>
</svg>
