<?xml version="1.0" encoding="utf-8"?>
<!-- Generator: Adobe Illustrator 22.0.0, SVG Export Plug-In . SVG Version: 6.00 Build 0)  -->
<svg version="1.1" id="Layer_1" xmlns="http://www.w3.org/2000/svg" xmlns:xlink="http://www.w3.org/1999/xlink" x="0px" y="0px"
	 viewBox="0 0 1000 100.3" style="enable-background:new 0 0 1000 100.3;" xml:space="preserve">
<style type="text/css">
	.st0{fill:#FFFFFF;}
</style>
<g>
	<path class="st0" d="M128.7,98.4H80.5L73.9,8.1h-6l-6.6,90.3H12.9L0,1.9h24.9l9.9,72.6L33,92.3h6l6.6-90.3h50.6l6.4,90.3h6.2
		l-1.5-17.7l9.4-72.7h24.8L128.7,98.4z"/>
	<path class="st0" d="M198.8,0c31.3,0,50.5,21.6,50.5,50.1c0,28.6-19.2,50.2-50.5,50.2c-31.5,0-50.8-21.6-50.8-50.2
		C148,21.6,167.3,0,198.8,0z M198.8,77.8c16.7,0,24.9-10.1,24.9-27.7s-8.3-27.5-24.9-27.5c-16.7,0-25.1,10.1-25.1,27.5
		C173.7,67.6,182.1,77.8,198.8,77.8z"/>
	<path class="st0" d="M261.1,1.9h76.8v21.8h-51.7v16.2H331v20.5h-44.9v16.3h51.7v21.8h-76.8V1.9z"/>
	<path class="st0" d="M352,1.9h48.9l23.8,90.3h6.2L426,77.1V1.9h24.9v96.5h-48.9L378.2,8.1h-6.2l4.8,15.2v75.2H352V1.9z"/>
	<path class="st0" d="M513.5,0C544.8,0,564,21.6,564,50.1c0,28.6-19.2,50.2-50.5,50.2c-31.5,0-50.8-21.6-50.8-50.2
		C462.7,21.6,482,0,513.5,0z M513.5,77.8c16.7,0,24.9-10.1,24.9-27.7s-8.3-27.5-24.9-27.5c-16.7,0-25.1,10.1-25.1,27.5
		C488.4,67.6,496.8,77.8,513.5,77.8z"/>
	<path class="st0" d="M575.8,1.9h49.1l9,90.3h6.3l9-90.3h48.6v96.5h-24.8V38.3l4.5-30.3h-5.9l-11,90.3h-48L602.1,8.1h-6.2l4.8,30.3
		v60.1h-24.9V1.9z"/>
	<path class="st0" d="M760.6,0c31.3,0,50.5,21.6,50.5,50.1c0,28.6-19.2,50.2-50.5,50.2c-31.5,0-50.8-21.6-50.8-50.2
		C709.8,21.6,729.1,0,760.6,0z M760.6,77.8c16.7,0,24.9-10.1,24.9-27.7s-8.3-27.5-24.9-27.5c-16.7,0-25.1,10.1-25.1,27.5
		C735.5,67.6,743.9,77.8,760.6,77.8z"/>
	<path class="st0" d="M822.9,1.9h42.6c21.8,0,43.3,4.4,43.3,25.6c0,16-13.4,20.1-22.2,21.5v5.9h10.4c8.2,0,12.9,5.5,12.9,14.4v29.2
		H885V65.7h-37.1v32.7h-25.1V1.9z M865.4,44.1c11.2,0,18.5-0.5,18.5-10.3c0-9.9-7.9-10.1-18.5-10.1h-17.5v20.4H865.4z"/>
	<path class="st0" d="M923.2,1.9h76.8v21.8h-51.7v16.2h44.9v20.5h-44.9v16.3h51.7v21.8h-76.8V1.9z"/>
</g>
</svg>
