<?xml version="1.0" encoding="utf-8"?>
<!-- Generator: Adobe Illustrator 22.0.0, SVG Export Plug-In . SVG Version: 6.00 Build 0)  -->
<svg version="1.1" id="Layer_1" xmlns="http://www.w3.org/2000/svg" xmlns:xlink="http://www.w3.org/1999/xlink" x="0px" y="0px"
	 viewBox="0 0 1200 120.2" style="enable-background:new 0 0 1200 120.2;" xml:space="preserve">
<g>
	<g>
		<path d="M29.8,117.5L0,2.8h33.4l7.2,33.4c3.4,17.5,3.6,40.5,3.3,57.2h10.5c-0.2-14.3,0-27.4,4.1-49.5L68.8,2.8h36.9l10.5,41
			c4.3,20.3,4.3,35.4,4.3,49.6h10.3c0-16.7-0.2-39.5,3.1-56.5l7.4-34.1h31.6L144,117.5h-36L96.7,71.9c-3.9-16.7-3.9-32.4-3.8-46.5
			H82.4c0.2,14.1,0,29.5-3.9,46.5l-11.8,45.5H29.8z"/>
		<path d="M175.8,60.6c0-33.3,21.3-60.6,62.9-60.6c41.8,0,63.1,27.4,63.1,60.6s-21,59.6-63.1,59.6
			C196.8,120.2,175.8,93.9,175.8,60.6z M269,60.4c0-20.8-10.6-35.7-30.1-35.7s-30.3,14.9-30.3,35.7c0,20.6,10.8,35.1,30.3,35.1
			S269,81.1,269,60.4z"/>
		<path d="M316.9,117.5V2.8h88.8v24.4h-58.5v20.3h45.2v22.8h-45.2V93h58.5v24.4H316.9z"/>
		<path d="M423.4,117.5V2.8H467l47.2,83.9l8.7-5.6c-9-14.6-14.4-26.4-14.4-44.9V2.8h30v114.7h-35.5l-55.4-98.8l-8.8,5.2
			c7.5,12.4,14.7,28.3,14.7,49v44.6H423.4z"/>
		<path d="M553.5,60.6c0-33.3,21.3-60.6,62.9-60.6c41.8,0,63.1,27.4,63.1,60.6s-21,59.6-63.1,59.6
			C574.5,120.2,553.5,93.9,553.5,60.6z M646.8,60.4c0-20.8-10.6-35.7-30.1-35.7s-30.3,14.9-30.3,35.7c0,20.6,10.8,35.1,30.3,35.1
			S646.8,81.1,646.8,60.4z"/>
		<path d="M694.7,117.5V2.8h48.5L757.1,47c3.1,10.8,3.9,24.7,3.9,48.5h10.2c0-23.8,1.1-37.7,4.3-48.5l14.4-44.2h46.5v114.7h-30.1
			V84.2c0-22.4,6.6-46.2,13.6-64.2l-10.5-3.6l-31.5,101.1h-25.1L721.5,16.5L711,20c7,18,13.4,41.8,13.4,64.2v33.3H694.7z"/>
		<path d="M851.5,60.6c0-33.3,21.3-60.6,62.9-60.6c41.8,0,63.1,27.4,63.1,60.6s-21,59.6-63.1,59.6
			C872.5,120.2,851.5,93.9,851.5,60.6z M944.7,60.4c0-20.8-10.6-35.7-30.1-35.7c-19.5,0-30.3,14.9-30.3,35.7
			c0,20.6,10.8,35.1,30.3,35.1C934.1,95.5,944.7,81.1,944.7,60.4z"/>
		<path d="M992.6,117.5V2.8h60.4c25.6,0,40.1,11.8,40.1,29.8c0,23.9-22.1,26.2-37.7,26.5V69c21.3,0.2,31.8,4.4,35.9,23.4l4.9,25.1
			h-32.8l-4.4-26.4c-1.8-11.6-6.6-15.9-18.3-15.9h-17.5v42.3H992.6z M1023.2,53.1h22.8c9,0,15.6-4.6,15.6-13.3
			c0-8.7-6.4-12.9-15.6-12.9h-22.8V53.1z"/>
		<path d="M1111.2,117.5V2.8h88.8v24.4h-58.5v20.3h45.2v22.8h-45.2V93h58.5v24.4H1111.2z"/>
	</g>
</g>
</svg>
