<?xml version="1.0" encoding="utf-8"?>
<!-- Generator: Adobe Illustrator 22.0.0, SVG Export Plug-In . SVG Version: 6.00 Build 0)  -->
<svg version="1.1" id="Layer_1" xmlns="http://www.w3.org/2000/svg" xmlns:xlink="http://www.w3.org/1999/xlink" x="0px" y="0px"
	 viewBox="0 0 1200 122" style="enable-background:new 0 0 1200 122;" xml:space="preserve">
<g>
	<g>
		<path d="M31.5,119.3L0,2.7h27.7l10,46.2c3.7,17.2,3.8,31,3.8,47.2h9.2c0-12.5,0.2-24,3.7-37L69.1,2.7h33L117,59
			c3.3,12.8,3.5,24.5,3.7,37h9.2c0-16.2,0.2-30.3,3.8-47.2l10.2-46.2h26.8l-32,116.6h-28.3L94.8,60.6c-4.2-15.7-4.3-25.2-4.3-36.5
			h-9.2c0,11.3-0.2,20.3-4.7,36.5l-16.2,58.6H31.5z"/>
		<path d="M173.8,61.3c0-34.8,23.5-61.3,62.3-61.3s62.3,26.5,62.3,61.3c0,35-23,60.6-62.3,60.6S173.8,96.3,173.8,61.3z M271.9,61.1
			c0-23.2-13-40.2-35.7-40.2c-22.8,0-36,17-36,40.2c0,22.8,13.2,39.8,36,39.8C258.9,101,271.9,84,271.9,61.1z"/>
		<path d="M316,119.3V2.7h88.1v21h-62.8V49h47.5v20.7h-47.5v28.7h62.8v21H316z"/>
		<path d="M423.4,119.3V2.7h39l51.8,86.6l7.5-5.2c-8.2-13.5-10.8-19.8-10.8-37.5v-44h25.3v116.6h-30.5L445.2,18l-7.7,4.8
			c6,11.2,11.2,21.7,11.2,40.8v55.6H423.4z"/>
		<path d="M553.8,61.3c0-34.8,23.5-61.3,62.3-61.3c38.8,0,62.3,26.5,62.3,61.3c0,35-23,60.6-62.3,60.6
			C576.8,122,553.8,96.3,553.8,61.3z M652,61.1C652,38,639,21,616.3,21c-22.8,0-36,17-36,40.2c0,22.8,13.2,39.8,36,39.8
			C639,101,652,84,652,61.1z"/>
		<path d="M696.1,119.3V2.7h41.5l19.2,56.8c3.2,9.2,4,22.5,4.2,38.3h9c0.2-15.8,1.3-29.2,4.5-38.3l19.5-56.8h40v116.6h-25.3V73
			c0-21,6.5-39.7,12.2-53.1l-9.3-3.7l-35.3,103.1h-22.5L718.8,16.2l-9.3,3.7c5.7,13.5,12,32.2,12,53.1v46.3H696.1z"/>
		<path d="M851.6,61.3C851.6,26.5,875.1,0,914,0s62.3,26.5,62.3,61.3c0,35-23,60.6-62.3,60.6C874.6,122,851.6,96.3,851.6,61.3z
			 M949.8,61.1c0-23.2-13-40.2-35.7-40.2c-22.8,0-36,17-36,40.2c0,22.8,13.2,39.8,36,39.8C936.8,101,949.8,84,949.8,61.1z"/>
		<path d="M993.9,119.3V2.7h57.6c25,0,39.8,12.2,39.8,30.7c0,24.8-21.8,26.7-36,27.3v8.7c19.2,0.3,30,3.8,33.2,22l4.8,28h-27
			l-3.5-25.8c-1.8-13.5-8-18.5-22.5-18.5h-21.2v44.3H993.9z M1019.2,54.5h27.5c10.5,0,18.3-4.8,18.3-15.5c0-10.5-7.8-15.3-18.3-15.3
			h-27.5V54.5z"/>
		<path d="M1111.9,119.3V2.7h88.1v21h-62.8V49h47.5v20.7h-47.5v28.7h62.8v21H1111.9z"/>
	</g>
</g>
</svg>
