<?xml version="1.0" encoding="utf-8"?>
<!-- Generator: Adobe Illustrator 22.0.0, SVG Export Plug-In . SVG Version: 6.00 Build 0)  -->
<svg version="1.1" id="Layer_1" xmlns="http://www.w3.org/2000/svg" xmlns:xlink="http://www.w3.org/1999/xlink" x="0px" y="0px"
	 viewBox="0 0 1200 135.5" style="enable-background:new 0 0 1200 135.5;" xml:space="preserve">
<style type="text/css">
	.st0{fill:#FFFFFF;}
</style>
<g>
	<g>
		<path class="st0" d="M0,2.6h21l23,102.7h0.4l27-102.7h21.2l27.2,102.7h0.4L143,2.6h21l-32.6,130.4h-21.5L82.1,28.1h-0.4
			L54.2,132.9H32.5L0,2.6z"/>
		<path class="st0" d="M168.4,67.7c0-39.2,25-67.7,64-67.7c39,0,64,28.4,64,67.7c0,39.2-25,67.8-64,67.8
			C193.4,135.5,168.4,106.9,168.4,67.7z M232.4,118.2c30.8,0,43-23.7,43-50.5c0-26.8-12.2-50.3-43-50.3c-30.8,0-43,23.5-43,50.3
			C189.4,94.5,201.6,118.2,232.4,118.2z"/>
		<path class="st0" d="M314.9,2.6h92.3v17.3h-72.2v37h63.3v17.3h-63.3v41.4h74v17.3h-94.1V2.6z"/>
		<path class="st0" d="M424.3,2.6h23l60.5,100.3h0.4V2.6h20.2v130.4h-23L444.8,32.6h-0.4v100.3h-20.1V2.6z"/>
		<path class="st0" d="M546.8,67.7c0-39.2,25-67.7,64-67.7c39,0,64,28.4,64,67.7c0,39.2-25,67.8-64,67.8
			C571.8,135.5,546.8,106.9,546.8,67.7z M610.8,118.2c30.8,0,43-23.7,43-50.5c0-26.8-12.2-50.3-43-50.3c-30.8,0-43,23.5-43,50.3
			C567.8,94.5,580,118.2,610.8,118.2z"/>
		<path class="st0" d="M693.3,2.6h26.4L757.3,105h0.4L795.4,2.6h26.4v130.4h-19.7V31.7h-0.4l-35.9,101.2h-16.6L713.3,31.7H713v101.2
			h-19.7V2.6z"/>
		<path class="st0" d="M840.3,67.7c0-39.2,25-67.7,64-67.7s64,28.4,64,67.7c0,39.2-25,67.8-64,67.8S840.3,106.9,840.3,67.7z
			 M904.3,118.2c30.8,0,43-23.7,43-50.5c0-26.8-12.2-50.3-43-50.3s-43,23.5-43,50.3C861.2,94.5,873.5,118.2,904.3,118.2z"/>
		<path class="st0" d="M986.7,2.6h54.3c28.8,0,44.3,13.5,44.3,37.6c0,16.6-10,28.6-24.4,31.9v0.4c30.3,5.7,19.1,57.1,26.3,59.3v1.3
			h-21.5c-5.8-5.5,6.6-51.1-25.4-51.1h-33.6v51.1h-20.1V2.6z M1036.7,64.6c18.4,0,28.5-8,28.5-23c0-14-8-21.7-28.1-21.7h-30.3v44.7
			H1036.7z"/>
		<path class="st0" d="M1105.9,2.6h92.3v17.3H1126v37h63.3v17.3H1126v41.4h74v17.3h-94.1V2.6z"/>
	</g>
</g>
</svg>
